<?xml version="1.0" encoding="UTF-8"?>
<svg width="30px" height="22px" viewBox="0 0 22 22" version="1.1" xmlns="http://www.w3.org/2000/svg">
    <path transform="rotate(45.000000)" style="transform-origin: center center" fill="rgba(29, 29, 29, 0.787)"
          d="M16.5169804,1.47809837 C11.3598222,-1.49915537 4.76536231,0.267198344 1.78822711,5.42471769 C-1.18925146,10.5812756 0.577347371,17.1761206 5.73464297,20.1541985 C10.8912518,23.1309715 17.4862611,21.3640684 20.4638083,16.2073731 C23.4415616,11.0498538 21.6735893,4.45500873 16.5169804,1.47809837 Z M18.7660266,15.2273548 C16.329631,19.4468092 10.9343436,20.8921348 6.71511162,18.455492 C2.49602009,16.0196219 1.04962091,10.6247605 3.4858058,6.40530608 C5.92185021,2.18535997 11.3177697,0.739612984 15.5370017,3.17618551 C19.7562337,5.61170448 21.2021412,11.0075492 18.7660266,15.2273548 Z M13.2991206,9.15225021 L11.1262941,11.3061075 L8.95307616,9.15225021 C8.55344365,8.75665432 7.90444044,8.75665432 7.50454693,9.15225021 C7.10439245,9.54881602 7.10439245,10.1918695 7.50454693,10.588306 L10.4019969,13.4597062 C10.8016294,13.8561427 11.4506326,13.8561427 11.8505913,13.4599649 L14.7476498,10.588306 C15.1474128,10.1918695 15.1474128,9.54881602 14.7476498,9.15225021 C14.3480825,8.75613703 13.6988183,8.75613703 13.2991206,9.15225021 Z"></path>
</svg>