<?xml version="1.0" encoding="UTF-8"?>
<svg width="183px" height="51px" viewBox="0 0 183 51" version="1.1" xmlns="http://www.w3.org/2000/svg" xmlns:xlink="http://www.w3.org/1999/xlink">
    <!-- Generator: Sketch 48.1 (47250) - http://www.bohemiancoding.com/sketch -->
    <title>ЛОГО</title>
    <desc>Created with Sketch.</desc>
    <defs></defs>
    <g id="Дистанционный-курс-урок" stroke="none" stroke-width="1" fill="none" fill-rule="evenodd" transform="translate(-35.000000, -13.000000)">
        <g id="Header" transform="translate(-13.000000, -2.000000)" fill-rule="nonzero">
            <g id="ЛОГО" transform="translate(48.000000, 15.000000)">
                <path d="M24.4759825,50 C13.4716157,50 5,40.779476 5,29.5 C5,18.220524 13.9082969,9 25,9 C36.0917031,9 45,18.1310044 45,29.5 C45,40.8689956 35.4803493,50 24.4759825,50 Z" id="Shape" fill="#B1CD43"></path>
                <path d="M24.974359,49 C13.7606838,49 5,39.7564103 5,28 C5,16.4230769 14.1987179,7 25.5,7 C36.8012821,7 46,16.4230769 46,28 C46,28 46,28 46,28 C46,33.6538462 43.7222222,39.0384615 39.6923077,42.8974359 C35.75,46.8461538 30.4935897,49 24.974359,49 Z M25.5,7.8974359 C14.6367521,7.8974359 5.87606838,16.8717949 5.87606838,28 C5.87606838,39.2179487 14.2863248,48.1025641 24.974359,48.1025641 C35.9252137,48.1025641 45.1239316,38.9487179 45.1239316,28 C45.1239316,16.8717949 36.3632479,7.8974359 25.5,7.8974359 C25.5876068,7.8974359 25.5,7.8974359 25.5,7.8974359 Z" id="Shape" fill="#000105"></path>
                <path d="M34.5908088,43.9914311 C36.1095588,43.8377732 37.4496324,42.9158263 37.8963235,41.6097348 C38.5216912,39.2280385 36.2882353,37.3073157 32,37 C32.0893382,37.9987759 32.3573529,38.9975517 32.8040441,39.9963276 C34.5014706,40.7646167 33.6080882,43.146313 33.2507353,43.4536287 C33.0720588,43.6072865 34.4121324,44.06826 34.5908088,43.9914311 Z" id="Shape" fill="#94948E"></path>
                <path d="M33,37.1304348 C32.9090909,37.1956522 32.8181818,37.326087 32.7272727,37.4565217 C32.6363636,37.5869565 32.6363636,37.7826087 32.7272727,37.9130435 C32.6363636,37.9130435 32.1818182,38.1086957 32.0909091,37.9130435 C32,37.5869565 32,37.326087 32,37 L33,37.1304348 C32.8181818,37.1304348 32.7272727,37.1304348 32.5454545,37.0652174" id="Shape" fill="#5E5E5E"></path>
                <path d="M25.5703863,12 C25.5703863,12 22.2360396,10.4318182 25.2845851,9 C25.4751192,9.40909091 25.6656533,9.81818182 25.8561874,10.2272727 C26.0467215,9.61363636 26.7135908,9.20454545 27.5709943,9.13636364 C27.5709943,9.13636364 26.8088579,10.5681818 27.4757272,10.7727273 C27.5709943,10.4318182 27.9520625,10.2272727 28.4283977,10.1590909 C28.4283977,10.1590909 27.6662613,9.75 29,10.0227273 C29,10.0227273 27.5709943,11.1136364 27.8567954,11.6590909 C27.8567954,11.7272727 27.9520625,11.7272727 27.9520625,11.7954545 C27.1899261,11.9318182 26.4277897,12 25.5703863,12 Z" id="Shape" fill="#94948E"></path>
                <path d="M35.2725797,16.1312022 C35.2725797,16.1312022 35.7146455,7.73416975 44.0254827,6 C44.0254827,6 43.2297643,6.45636046 43.0529379,7.00399301 C46.0589854,5.90872791 49.4186856,6.54763255 51.8942541,8.64689067 C51.1869488,8.3730744 50.4796435,8.28180231 49.7723382,8.28180231 C53.1320384,10.6548767 54.6350621,14.944665 53.7509305,19.0519092 C53.7509305,19.0519092 53.7509305,21.2424394 53.3088647,20.6035348 C53.2204515,21.790072 52.6015594,22.8853371 51.7174278,23.6155138 C51.7174278,23.6155138 49.1534461,30.0045602 38.720693,27.3576696 C30.7635084,25.5322277 35.2725797,16.1312022 35.2725797,16.1312022 Z" id="Shape" fill="#94948E"></path>
                <path d="M35.2486401,16.1360922 C35.2486401,16.1360922 35.6869198,7.73500677 43.9265787,6 C43.9265787,6 43.1376752,6.45658073 42.9623633,7.0044776 C45.9426655,5.90868385 49.2735914,6.54789688 51.7279579,8.64816823 C51.0267103,8.37421979 50.3254628,8.28290365 49.6242152,8.28290365 C49.6242152,8.28290365 56.461379,13.3966078 53.0427971,20.3366349 C53.0427971,20.3366349 52.9551411,22.8021708 51.4649901,23.8979646 C51.4649901,23.8979646 49.0982795,29.9248302 38.7548779,27.3679781 C30.7781869,25.5416552 35.2486401,16.1360922 35.2486401,16.1360922 Z" id="Shape" fill="#5E5E5D" opacity="0.4"></path>
                <path d="M17.5258465,14.6336762 C17.5258465,14.6336762 19.9262487,7.21389935 13.925243,4.12232568 C14.2022125,4.38731771 14.2945357,4.74064041 14.2945357,5.18229379 C14.2945357,5.18229379 10.2323165,1.73739741 6.63171304,3.50401094 C6.63171304,3.50401094 8.20120684,3.68067229 8.38585317,3.94566432 C8.38585317,3.94566432 1.46161582,5.27062447 1,11.4537718 C1,11.4537718 1,15.8703057 2.5694938,16.8419431 C2.5694938,16.8419431 4.60060342,20.6401622 11.7094871,21.8767917 C18.8183708,23.1134211 17.5258465,14.6336762 17.5258465,14.6336762 Z" id="Shape" fill="#94948E"></path>
                <path d="M15.9880109,14.3869385 C15.9880109,14.3869385 15.3817987,8.49608882 10.6187029,7 L11.1383134,8.49608882 C9.83928727,8.40258327 8.62686288,8.87011102 7.67424373,9.80516653 C6.37521761,10.740222 5.42259845,12.2363109 5.07619148,13.9194108 C4.81638626,15.1349829 4.902988,20.5583049 10.7053047,22.7089326 C16.5076214,24.8595602 15.9880109,14.3869385 15.9880109,14.3869385 Z" id="Shape" fill="#E1D4DD"></path>
                <path d="M13.8438116,14.7173919 C13.8438116,14.7173919 13.8438116,9.68559172 9.65666236,10.0155458 L10.0055915,11.1703852 C9.65666236,11.1703852 9.30773326,11.2528738 9.02858997,11.4178508 C7.35373028,12.3252246 7.00480117,14.7998804 7.00480117,15.1298346 C7.00480117,15.1298346 6.72565789,19.0067954 10.4243064,19.9141692 C10.9128071,20.0791462 11.4710937,19.9966577 11.9595944,19.7491921 C13.0761676,19.0892839 14.471884,17.6869789 13.8438116,14.7173919 Z" id="Shape" fill="#FFFFFF"></path>
                <path d="M14.9566806,17.2356767 C15.2585584,15.6987303 13.9504212,14.2426758 12.0385283,14 C11.9379024,14 11.7366505,14 11.6360246,14 C11.6360246,14 11.9379024,14.4044596 12.2397802,14.8898111 C11.1328949,14.8898111 10.0260096,15.3751626 9.42225394,16.1031898 C8.51662049,17.3974605 9.12037612,19.0152988 10.7303911,19.6624342 C11.2335208,19.824218 11.7366505,19.9860018 12.2397802,19.9860018 C12.9441618,20.2286776 14.9566806,17.2356767 14.9566806,17.2356767 Z" id="Shape" fill="#5E5E5E"></path>
                <path d="M36.0119891,17.3869385 C36.0119891,17.3869385 36.6182013,11.4960888 41.3812971,10 L40.8616866,11.4960888 C42.1607127,11.4025833 43.3731371,11.870111 44.3257563,12.8051665 C45.6247824,13.740222 46.5774016,15.2363109 46.9238085,16.9194108 C47.1836137,18.1349829 47.097012,23.5583049 41.2946953,25.7089326 C35.4923786,27.8595602 36.0119891,17.3869385 36.0119891,17.3869385 Z" id="Shape" fill="#E1D4DD"></path>
                <path d="M36.1561884,19.7173919 C36.1561884,19.7173919 36.1561884,14.6855917 40.3433376,15.0155458 L39.9944085,16.1703852 C40.3433376,16.1703852 40.6922667,16.2528738 40.97141,16.4178508 C42.6462697,17.3252246 42.9951988,19.7998804 42.9951988,20.1298346 C42.9951988,20.1298346 43.2743421,24.0067954 39.5756936,24.9141692 C39.0871929,25.0791462 38.5289063,24.9966577 38.0404056,24.7491921 C36.9238324,24.0892839 35.528116,22.6869789 36.1561884,19.7173919 Z" id="Shape" fill="#FFFFFF"></path>
                <path d="M36.0433194,20.2356767 C35.7414416,18.6987303 37.0495788,17.2426758 38.9614717,17 C39.0620976,17 39.2633495,17 39.3639754,17 C39.3639754,17 39.0620976,17.4044596 38.7602198,17.8898111 C39.8671051,17.8898111 40.9739904,18.3751626 41.5777461,19.1031898 C42.4833795,20.3974605 41.8796239,22.0152988 40.2696089,22.6624342 C39.7664792,22.824218 39.2633495,22.9860018 38.7602198,22.9860018 C38.0558382,23.2286776 36.0433194,20.2356767 36.0433194,20.2356767 Z" id="Shape" fill="#5E5E5E"></path>
                <path d="M9.02347504,29.483822 C9.02347504,29.483822 8.03165467,37.2094662 18.9416787,38.1751717 C31.6550126,39.31646 34.7206392,39.6676256 37.3354383,36.5949263 C38.7780861,34.9268895 43.556857,21.2314295 35.1714666,16.4029019 C32.8271639,15.4371964 30.4828612,14.7348651 27.9582276,14.3836995 C26.7860762,14.2081166 26.6057452,14.3836995 25.5237594,14.2081166 C19.6630026,13.5057854 15.4252247,14.7348651 14.5235698,15.6127792 C13.080922,17.1930246 9.20380601,25.8843742 9.02347504,29.483822 Z" id="Shape" fill="#94948E"></path>
                <g id="Group" opacity="0.4" transform="translate(18.000000, 14.000000)" fill="#5E5E5E">
                    <path d="M0.340740741,23.0357143 C12.3518519,24.5535714 17.3777778,25 19.8481481,21.875 C21.2111111,20.1785714 27.0037037,3.21428571 14.5666667,0.357142857 C14.5666667,0.357142857 22.6592593,5.44642857 19.337037,16.6071429 C16.4407407,25.625 0.340740741,23.0357143 0.340740741,23.0357143 Z" id="Shape"></path>
                </g>
                <path d="M10.2223671,33.0479331 C10.8292316,34.7034567 12.0429607,36.4509539 19.9321997,37.4626627 C25.9141501,38.2904245 30.7690663,38.2904245 33.1098295,36.5429274 C35.7973725,34.4275361 35.8840674,27.345574 31.6360157,25.2301828 C27.3879639,23.1147915 18.2849959,21.2753208 12.7365202,25.782024 C10.4824519,27.5295211 9.52880763,30.8405683 10.2223671,33.0479331 Z" id="Shape" fill="#DCD8CD"></path>
                <path d="M18.9332764,22.7090773 C18.6412624,23.7713082 17.3758681,24.2541404 15.9157978,23.8678746 C14.4557275,23.4816089 13.7743614,22.8056437 14.0663754,21.4537135 C14.3583895,20.1017832 15.8184598,18.7498529 17.1811921,19.0395523 C18.5439244,19.3292516 19.2252905,21.2605806 18.9332764,22.7090773 Z" id="Shape" fill="#FFFFFF"></path>
                <path d="M18.9887976,23.2116775 C18.9151276,23.6715323 18.4731079,24 17.9574182,24 C17.8837483,24 17.8100783,24 17.7364083,23.9343065 C17.1470487,23.7372258 16.8523689,23.2116775 17.0733788,22.6861292 C17.0733788,22.6861292 17.0733788,22.6861292 17.0733788,22.6861292 C17.2207187,22.2262744 17.7364083,21.8978067 18.252098,22.0291938 C18.7677877,22.2262744 19.0624675,22.6861292 18.9887976,23.2116775 Z" id="Shape" fill="#1F201E"></path>
                <path d="M31.9039176,30.7209232 C31.2355644,33.1520976 27.2254453,33.4035984 23.5017634,32.5652624 C19.7780814,31.7269264 14.431256,31.81076 16.4363155,26.8645776 C17.1046687,25.104072 20.9238297,23.5950672 24.7429907,24.0980688 C29.7079,24.8525712 32.5722707,28.2897488 31.9039176,30.7209232 Z" id="Shape" fill="#1F201E"></path>
                <path d="M35.813389,25.6955651 C35.408783,26.8330913 33.8915105,27.2706014 32.171935,26.8330913 C30.4523595,26.3955812 29.6431475,25.6955651 30.148905,24.2955329 C30.6546625,22.8079987 32.2730865,21.8454766 34.0938135,22.0204806 C35.813389,22.3704887 36.3191465,24.2080309 35.813389,25.6955651 Z" id="Shape" fill="#FFFFFF"></path>
                <path d="M30.8536422,24.9937006 C30.792602,24.9937006 30.7315619,24.9937006 30.6705217,24.9359284 C30.1211603,24.7048394 29.8769997,24.1271171 30.0601202,23.607167 C30.2432406,23.1449891 30.7315619,22.9139002 31.2198831,23.0294447 C31.7692445,23.1449891 32.1354854,23.6649392 31.9523649,24.2426616 C31.8913248,24.7048394 31.4030036,25.0514728 30.8536422,24.9937006 Z" id="Shape" fill="#1F201E"></path>
                <path d="M44,6 C49.2615385,7.14285714 48.5230769,7.9047619 48.8,8 C49.1692308,8 49.6307692,8 50,7.9047619 C47.4153846,6 47.1384615,6.38095238 44,6 Z" id="Shape" fill="#5E5E5D"></path>
                <path d="M20.2398604,36 C19.8705304,37.2940968 16.2695628,44.2623103 19.0395379,49.6377893 C20.2398604,50.1355188 31.6890907,50.0359729 31.6890907,49.8368811 C31.6890907,49.6377893 34.0897358,46.750958 33.9974033,45.4568612 C33.9050707,44.1627644 31.9660882,37.7918263 31.6890907,36.7963673 C31.4120932,37.3936427 20.2398604,36 20.2398604,36 Z" id="Shape" fill="#94948E"></path>
                <g id="Group" opacity="0.9" transform="translate(19.000000, 36.000000)" fill="#FFFFFF">
                    <path d="M1.4,1.73333333 C1.4,1.26666667 1.6,0.866666667 1.9,0.466666667 C2.3,0.133333333 1.3,0.4 1.3,0.4 L0.7,1.73333333 L1.5,2 L1.4,1.73333333 Z" id="Shape"></path>
                </g>
                <path d="M31.5456977,37.0357143 C31.6592732,37.1964286 32,38 32,38 L30.9778197,37.9196429 C30.9778197,37.9196429 30.5235174,37.1160714 30.069215,37.0357143 C29.6149127,36.9553571 31.5456977,37.0357143 31.5456977,37.0357143 Z" id="Shape" fill="#5E5E5D"></path>
                <path d="M18,49.5690039 C18,49.5690039 20.869908,49.6536762 22.6092462,49.8230206 C23.739816,49.9923651 24.7834189,50.0770373 25.9139888,49.9076929 C26.8706248,49.7383484 29.4796321,49.9076929 30.8711026,49.1456428 C32.1756063,46.8594925 32.3495401,44.0653089 31.3929041,41.6098141 C31.2189703,40.6784196 31.0450364,40.0010417 31.0450364,40.0010417 C31.0450364,40.0010417 31.3929041,39.8316973 30.9580695,43.8112922 C30.3493012,48.129576 25.2182535,50.8390874 18,49.5690039 Z" id="Shape" fill="#5E5E5E" opacity="0.4"></path>
                <circle id="Oval" fill="#FFFFFF" cx="18.5" cy="22.5" r="1"></circle>
                <circle id="Oval" fill="#FFFFFF" cx="31.5" cy="23.5" r="1"></circle>
                <path d="M51,7 C51.8,9.17567568 52.3142857,11.5405405 52.5428571,14 C52.7142857,16.3648649 52.4857143,18.8243243 51.9142857,21 C52.2571429,19.7702703 52.6,18.4459459 53,17.2162162 L52.6,10.5945946 L51,7 Z" id="Shape" fill="#5D5D5C"></path>
                <path d="M13,5 C11.6036818,3.94117647 9.74192421,3.35294118 7.80259338,3.47058824 C4.38937111,3.52941176 6.87171458,3.17647059 6.87171458,3.17647059 L9.81949744,3 C9.81949744,3 12.0691212,4 12.2242677,4.05882353 L12.7672803,4.47058824 L13,5 Z" id="Shape" fill="#FFFFFF" opacity="0.8"></path>
                <path d="M24.3477663,50 C24.3477663,49.5661581 25.4359548,42.4511518 24.8011782,42.1908467 C24.1664016,41.9305416 18.6347766,39.7613323 18.725459,40.0216374 C18.8161414,40.2819425 18,48.6117061 18,48.6117061 L24.3477663,50 Z" id="Shape" fill="#E7B34E"></path>
                <path d="M18.0869565,49 C18.0869565,49 20,48.7815738 20,48.1991038 C20,47.6166338 18,48.4903388 18,48.5631475 C18,48.6359563 18.0869565,49 18.0869565,49 Z" id="Shape" fill="#8AA15E"></path>
                <path d="M19,14.0925009 C19,14.0925009 14.8400144,13.1746611 13.2800198,17.1213721 C12.1533571,19.5995394 11.1133607,22.0777068 10.246697,24.6476581 C10.246697,24.6476581 8.16670424,31.1643205 9.38003337,33 C9.5533661,31.4396724 9.8133652,29.8793448 10.246697,28.3190172 C12.2400234,18.4063477 14.5800153,17.2131561 14.9266808,16.6624522 C15.7933445,15.4692605 16.1400099,14.2760688 19,14.0925009 Z" id="Shape" fill="#FFFFFF" opacity="0.9"></path>
                <path d="M29,10 C29,10 27.4044321,11 28.2442047,12 L28.4121592,12 L29,10 Z" id="Shape" fill="#5D5D5C"></path>
                <path d="M25,12 C25,12 23.9285714,10.2631579 24.7857143,9 C24.4285714,9.15789474 24.1428571,9.47368421 24,9.86842105 L24.2857143,11.6842105 L25,12 Z" id="Shape" fill="#FFFFFF" opacity="0.8"></path>
                <path d="M29.6233084,37 C28.2226609,37 26.7344728,36.9128764 25.3338253,36.7386291 C20.5190993,36.3030109 16.7548589,35.8673927 16.579778,35.7802691 C13.9535638,35.5188981 11.5899711,34.1249199 10.0142425,32.0339526 C8.43851404,29.6816143 8.26343309,26.3709161 9.57654018,22.2761051 C9.22637829,22.1889814 8.8762164,22.1018578 8.61359498,21.9276105 C5.0244356,20.7078796 3.53624757,20.1851377 1.26019528,16.7873158 C-0.490614175,13.9993594 -0.403073703,10.5144138 1.43527622,7.81358104 C2.4857619,6.24535554 3.97394993,5.0256246 5.81229986,4.50288277 L5.72475939,4.50288277 L4.14903088,4.15438821 L5.63721891,3.54452274 C6.60016411,3.10890455 7.65064978,2.93465727 8.70113546,3.02178091 C9.75162113,3.10890455 10.7145663,3.37027546 11.5899711,3.8930173 L11.3273496,3.4573991 L12.8155377,4.24151185 C13.7784829,4.67713004 14.6538876,5.28699552 15.3542114,6.07110826 C16.579778,7.63933376 17.1925613,9.73030109 17.0174804,11.7341448 C19.2059922,11.4727739 21.394504,11.3856502 23.5830158,11.3856502 C23.4079349,11.0371557 23.3203944,10.6015375 23.3203944,10.1659193 C23.4954753,9.2946829 24.1082587,8.51057015 24.8961229,8.07495195 L25.7715276,7.55221012 L25.5964467,8.59769379 L25.5964467,9.12043562 C26.1216895,8.59769379 26.8220133,8.42344651 27.5223371,8.51057015 L28.4852823,8.59769379 L27.872499,9.2946829 C27.697418,9.55605381 27.5223371,9.73030109 27.4347966,9.90454837 C27.7849585,9.73030109 28.2226609,9.64317745 28.5728228,9.81742473 L29.2731465,9.99167201 L28.7479037,10.5144138 C28.3977418,10.8629084 28.2226609,11.2985266 28.0475799,11.7341448 C29.9734703,12.169763 31.8993607,12.6925048 33.8252511,13.3023703 C34.175413,11.6470211 35.1383582,8.24919923 38.3773557,6.24535554 C39.6904628,5.37411915 41.1786508,4.93850096 42.7543793,4.76425368 L43.979946,4.67713004 L43.4547031,5.11274824 C44.0674864,5.0256246 44.5927293,4.93850096 45.2055126,4.93850096 C47.3064839,5.0256246 49.3199148,5.80973735 50.8956433,7.20371557 L52.2962909,8.42344651 L50.4579409,7.98782832 C50.3704005,7.98782832 50.28286,7.98782832 50.1953195,7.90070468 C51.5084266,9.12043562 52.4713718,10.7757848 52.8215337,12.6053812 C53.1716956,14.8705958 52.9966146,17.222934 52.3838313,19.4881486 C51.5084266,21.4919923 50.107779,23.3215887 48.4445101,24.7155669 C45.3805935,27.0679052 41.5288127,26.7194106 39.8655437,26.3709161 C39.8655437,26.5451634 39.7780033,26.632287 39.7780033,26.8065343 C39.5153818,28.9846252 38.9025985,31.0755926 37.9396533,33.0794363 C36.8016272,35.3446509 35.3134392,37 29.6233084,37 Z M7.65064978,3.98014094 L8.96375687,4.50288277 L7.65064978,4.85137732 C7.56310931,4.85137732 7.56310931,4.85137732 7.47556884,4.93850096 C6.51262364,5.19987188 3.71132851,5.89686099 2.31068095,8.42344651 C0.647411969,10.7757848 0.559871497,13.9993594 2.13560001,16.4388213 C4.23657135,19.5752723 5.46213797,20.0108905 9.05129735,21.2306214 C9.48899971,21.4048687 9.92670207,21.4919923 10.4519449,21.6662396 L11.1522687,20.8821268 L10.4519449,22.6245996 C9.05129735,26.632287 9.40145924,29.4202434 10.8896473,31.5983344 C12.8155377,34.5605381 16.7548589,34.9090327 16.7548589,34.9090327 C16.7548589,34.9090327 20.6066397,35.3446509 25.5089062,35.8673927 C35.0508177,36.8257527 36.1013034,34.821909 37.2393296,32.7309417 C38.1147343,30.8142217 38.7275176,28.810378 38.990139,26.7194106 C39.0776795,26.4580397 39.0776795,26.1095452 39.16522,25.8481742 L39.2527604,25.3254324 L39.7780033,25.4125561 C40.9160294,25.673927 44.9428912,26.3709161 48.0068077,24.0185778 C49.5825362,22.7117233 50.8081028,21.0563741 51.6835075,19.2267777 C52.2962909,17.1358104 52.3838313,14.9577194 52.1212099,12.8667521 C51.771048,10.6886611 50.4579409,8.8590647 48.5320505,7.7264574 L46.956322,6.85522101 L48.7071315,6.85522101 C47.6566458,6.24535554 46.5186197,5.98398463 45.293053,5.89686099 C44.2425674,5.89686099 43.1045412,6.07110826 42.141596,6.50672646 L40.1281652,7.37796284 L41.6163532,5.80973735 C40.653408,6.07110826 39.7780033,6.41960282 38.990139,6.94234465 C35.663601,9.12043562 34.9632773,12.8667521 34.7881963,13.9993594 L34.7006558,14.6092249 L34.0878725,14.3478539 C31.9869012,13.5637412 29.7108489,12.9538757 27.5223371,12.5182575 L27.1721752,12.4311339 L27.1721752,11.4727739 L26.9970942,11.8212684 L26.5593919,11.1242793 C26.3843109,10.6015375 26.3843109,9.99167201 26.5593919,9.46893017 C26.20923,9.64317745 25.9466086,9.99167201 25.8590681,10.4272902 L25.5089062,12.0826393 L25.7715276,12.3440102 L24.545961,12.2568866 C21.9197468,12.0826393 19.2059922,12.2568866 16.579778,12.6925048 L15.9669947,12.7796284 L16.0545352,12.169763 C16.3171566,10.1659193 15.8794542,8.16207559 14.6538876,6.5938501 C14.3037257,6.1582319 13.9535638,5.80973735 13.5158615,5.54836643 L13.6034019,6.94234465 L12.6404567,5.98398463 C11.5899711,4.76425368 10.1893235,4.06726457 8.61359498,3.98014094 L7.65064978,3.98014094 Z M24.8085824,9.38180653 C24.545961,9.55605381 24.3708801,9.90454837 24.3708801,10.2530429 C24.3708801,10.7757848 24.545961,11.2114029 24.8961229,11.5598975 L25.4213657,12.0826393 L24.9836634,10.5144138 C24.9836634,10.4272902 24.8961229,9.90454837 24.8085824,9.38180653 Z" id="Shape" fill="#141516"></path>
                <polygon id="Shape" fill="#E7B34E" points="25 51 25.5764706 43 32 41 31.3411765 49.6956522"></polygon>
                <path d="M25.5764706,42.4576271 C25.5764706,42.4576271 31.0117647,40.8474576 31.1764706,41.6949153 C31.3411765,42.5423729 31.2588235,44.4915254 31.2588235,44.4915254 L30.6,48.1355932 C30.3529412,48.4745763 30.0235294,48.7288136 29.6117647,48.8983051 C28.1294118,49.2372881 26.5647059,49.5762712 25,49.7457627 L25,50 L31.2588235,48.8135593 L32,40 L29.6117647,40.6779661 L25.4941176,42.1186441 L25.5764706,42.4576271 Z" id="Shape" fill="#CF9D49"></path>
                <path d="M28.0334603,33 C27.374791,33 26.8102172,32.9165035 26.1515478,32.8330069 C26.1515478,32.8330069 23.7991572,32.4990208 19.564854,31.6640555 C17.9652284,31.3300694 16.8360809,30.7455937 16.3656027,29.8271318 C15.8951246,28.9921665 15.8951246,27.9902082 16.2715071,27.0717463 C16.7419852,26.069788 18.7179934,22.4794372 24.7401134,23.0639129 C29.4448947,23.6483886 31.4209029,25.5688088 32.2677635,26.9882498 C33.1146241,28.2406978 33.2087198,29.7436353 32.644146,31.0795798 C31.7972854,32.6660139 29.633086,33 28.0334603,33 Z M17.4006546,27.5727255 C17.2124634,28.1572012 17.2124634,28.7416769 17.4947502,29.2426561 C18.059324,29.9106284 18.9061846,30.4116076 19.8471409,30.4951041 C24.0814441,31.3300694 26.4338347,31.6640555 26.4338347,31.6640555 C27.5629822,31.8310486 30.7622335,31.9980416 31.5149985,30.5786006 C31.891381,29.5766423 31.7972854,28.4911874 31.138616,27.5727255 C30.385851,26.3202776 28.6921297,24.81734 24.5519222,24.2328643 C18.7179934,23.6483886 17.4006546,27.489229 17.4006546,27.5727255 Z" id="Shape" fill="#131415"></path>
                <path d="M16.2815236,25 C15.7956081,25 15.3096927,24.9078263 14.8237773,24.8156526 C14.0463126,24.6313052 13.366031,24.1704368 13.0744818,23.5252209 C12.8801156,22.5113103 13.0744818,21.4973997 13.5603972,20.6678365 C14.1434957,19.5617522 15.3096927,18.9165363 16.5730728,19.00871 C17.7392698,19.1930574 18.6139176,20.7600102 18.6139176,20.7600102 C19.0026499,21.6817471 19.5857484,23.7095683 17.5449036,24.7234789 C17.1561713,24.9078263 16.767439,25 16.2815236,25 Z M17.4477206,24.3547842 C19.5857484,22.7878314 17.7392698,20.1147943 16.6702559,19.8382732 C15.6984251,19.6539259 14.8237773,20.0226206 14.2406788,20.7600102 C13.5603972,21.405226 13.2688479,22.4191366 13.5603972,23.3408735 C13.8519465,23.9860894 14.3378619,24.2626105 15.3096927,24.4469578 C15.9899743,24.5391315 16.767439,24.5391315 17.4477206,24.3547842 Z" id="Shape" fill="#1D1D1B"></path>
                <path d="M33.9978997,26 C32.6869425,26 30.6700853,25.820885 30.0650281,24.2088496 C29.7624995,23.4028319 30.5692424,21.6116814 31.3759853,20.8952212 C32.283571,20.178761 33.4936854,19.820531 34.7037997,20.0892035 C35.6113854,20.3578761 36.4181283,20.9847788 36.7206569,21.7907965 C36.7206569,21.880354 37.7290855,24.3879646 35.913914,25.6417699 C35.3088568,25.9104425 34.7037997,26 33.9978997,26 Z M35.7122283,25.2835398 C36.8214998,24.5670796 37.0231855,21.3430088 34.3004282,20.8952212 C33.2919996,20.6265487 32.1827282,20.9847788 31.577671,21.7012389 C30.871771,22.4176991 30.4683995,23.3132743 30.5692424,24.2984071 C30.6700853,24.8357522 31.1742996,25.2835398 31.7793567,25.3730973 C33.1911568,25.820885 34.4012711,26.0895575 35.7122283,25.2835398 Z" id="Shape" fill="#141516"></path>
                <path d="M18,40.3707502 C18,40.3707502 24.166065,41.8537512 24.6714801,42.7435518 C25.1768953,43.6333524 24.9747292,41.9279013 24.8736462,41.8537512 C24.7725632,41.7796012 18,40 18,40 L18,40.3707502 Z" id="Shape" fill="#CF9D49"></path>
                <path d="M14.1369265,19 C13.8454984,18.6809827 14.0397838,18.2343584 14.5254974,18.042948 C14.5254974,18.042948 14.5254974,18.042948 14.6226401,18.042948 C15.7883525,17.8515376 16.0797807,18.3619654 15.982638,18.3619654 C15.6912098,18.2343584 15.2054963,18.2343584 14.9140682,18.3619654 C14.5254974,18.4895723 14.2340692,18.6809827 14.1369265,19 Z" id="Shape" fill="#1D1D1B"></path>
                <path d="M34.0084758,19.6771521 C33.9086959,19.5568932 34.7069347,18.5948219 35.5051734,19.1961164 C36.403192,20.1581877 35.804513,21 35.804513,21 C35.7047331,20.6392233 35.6049533,20.1581877 35.3056137,19.9176699 C34.9064944,19.5568932 34.507375,19.5568932 34.0084758,19.6771521 Z" id="Shape" fill="#000105"></path>
                <path d="M35,20 C34.7777778,19.2848355 34.037037,18.8947457 33.2222222,19.0247756 C33.1481481,19.0247756 33.0740741,19.0897906 33,19.0897906" id="Shape" fill="#94948E"></path>
                <path d="M24.2294372,36 C23.4502165,36 22.6709957,35.6666667 22.0649351,35 C21.978355,34.8888889 21.978355,34.6666667 22.0649351,34.5555556 C22.1515152,34.4444444 22.3246753,34.4444444 22.4112554,34.5555556 C23.017316,35.2222222 23.7965368,35.4444444 24.5757576,35.3333333 C25.4415584,35.1111111 26.3073593,34.6666667 27,34 C26.4805195,35 25.6147186,35.7777778 24.6623377,36 L24.2294372,36 Z" id="Shape" fill="#141516"></path>
                <path d="M18.0694918,31 C18.0694918,31 17.2832579,25.7235537 21,26.0113599 C18.2839192,26.6829076 18.0694918,31 18.0694918,31 Z" id="Shape" fill="#FFFFFF" opacity="0.3"></path>
                <path d="M18.1234568,13.3012048 L18.4691358,10.4096386 L10,5.30120482 L28.5802469,0 L45,9.92771084 L35.4074074,12.8192771 L35.1481481,16 C35.1481481,16 33.4197531,14.1686747 26.9382716,13.3012048 C20.9753086,12.626506 18.1234568,13.3012048 18.1234568,13.3012048 Z" id="Shape" fill="#1D1D1B"></path>
                <path d="M34.7019231,17 C34.5288462,17 34.4423077,16.9039548 34.3557692,16.8079096 C34.3557692,16.8079096 32.625,15.079096 26.3942308,14.3107345 C23.5384615,13.8305085 20.6826923,13.8305085 17.8269231,14.2146893 C17.6538462,14.2146893 17.5673077,14.2146893 17.3942308,14.1186441 C17.3076923,14.0225989 17.2211538,13.8305085 17.2211538,13.6384181 L17.4807692,11.1412429 L9.25961538,6.24293785 C9.08653846,6.14689266 9,5.95480226 9,5.76271186 C9,5.57062147 9.17307692,5.37853107 9.34615385,5.28248588 L27.9519231,0 L28.2980769,0 L44.7403846,9.89265537 C44.9134615,9.98870056 45,10.180791 45,10.3728814 C45,10.5649718 44.8269231,10.7570621 44.6538462,10.8531073 L35.3942308,13.6384181 L35.1346154,16.519774 C35.1346154,16.7118644 35.0480769,16.8079096 34.875,16.9039548 C34.7884615,17 34.7884615,17 34.7019231,17 Z M21.2884615,12.9661017 C23.0192308,12.9661017 24.8365385,13.0621469 26.5673077,13.3502825 C31.0673077,13.9265537 33.3173077,14.9830508 34.3557692,15.559322 L34.5288462,13.2542373 C34.5288462,13.0621469 34.7019231,12.8700565 34.875,12.7740113 L43.3557692,10.180791 L28.125,1.05649718 L10.8173077,5.95480226 L18.2596154,10.4689266 C18.4326923,10.5649718 18.5192308,10.7570621 18.5192308,10.9491525 L18.2596154,13.1581921 C19.2980769,12.9661017 20.25,12.9661017 21.2884615,12.9661017 Z" id="Shape" fill="#000105"></path>
                <path d="M36.4653465,14 C36.4653465,14 37,9.91740788 37,9.59720457 C31.6534653,7.03557814 25.4158416,6.31512071 19.5346535,7.67598475 L19,11.5984752 C22.1188119,11.1982211 25.2376238,11.1982211 28.3564356,11.678526 C31.2079208,11.9987294 33.970297,12.7992376 36.4653465,14 Z" id="Shape" fill="#555555"></path>
                <path d="M36.3785047,15 L35.7570093,14.7310965 C33.271028,13.4762136 30.6074766,12.6695031 27.8551402,12.2213307 C24.8364486,11.6835237 21.728972,11.6835237 18.7102804,12.1316962 L18,12.2213307 L18.7102804,6.84326097 L18.9766355,6.75362648 C24.9252336,5.22984006 31.317757,6.03655052 36.7336449,8.99448885 L37,9.08412334 L37,9.44266132 C37,9.8011993 36.4672897,14.3725585 36.4672897,14.3725585 L36.3785047,15 Z M22.8831776,10.7871787 C24.5700935,10.7871787 26.3457944,10.9664477 28.0327103,11.2353512 C30.6962617,11.6835237 33.182243,12.4902341 35.6682243,13.5658481 C35.7570093,12.4902341 36.0233645,10.4286408 36.1121495,9.62193031 C31.0514019,7.02252996 25.1915888,6.305454 19.6869159,7.56033693 L19.2429907,11.0560822 C20.4859813,10.8768132 21.6401869,10.7871787 22.8831776,10.7871787 Z" id="Shape" fill="#000105"></path>
                <path d="M16.6072736,44 C15.0067381,43.8494624 13.594501,42.9462366 13.1237553,41.6666667 C12.4647113,39.3333333 14.4418433,37.3010753 18.9610021,37 C19.0551513,37.7526882 18.9610021,38.4301075 18.866853,39.1075269 C18.7727039,39.4086022 17.2663176,38.5053763 17.1721684,38.8817204 C16.6072736,39.1075269 17.4546159,40.7634409 17.1721684,41.2150538 C16.6072736,41.9677419 16.4189753,42.8709677 16.6072736,43.6989247 C16.7014227,43.6989247 16.7955718,43.7741935 16.7955718,43.8494624 C16.7955718,43.9247312 16.7014227,44 16.6072736,44 Z" id="Shape" fill="#94948E"></path>
                <path d="M18,37.6111111 L23.0424242,38.6666667 L25.5636364,39 L34,37.6666667 C34,37.6666667 31.0909091,37 30.9939394,37 C30.8969697,37 25.1757576,38.6666667 25.1757576,38.6666667 L22.4606061,37.7777778 L18.2909091,37.1666667 L18,37.6111111 Z" id="Shape" fill="#FFFFFF"></path>
                <path d="M18,37.1304348 C18.0909091,37.1956522 18.1818182,37.326087 18.2727273,37.4565217 C18.3636364,37.5869565 18.3636364,37.7826087 18.2727273,37.9130435 C18.3636364,37.9130435 18.8181818,38.1086957 18.9090909,37.9130435 C19,37.5869565 19,37.326087 19,37 L18,37.1304348 C18.1818182,37.1304348 18.2727273,37.1304348 18.4545455,37.0652174" id="Shape" fill="#5E5E5E"></path>
                <path d="M26.2504088,51 L25.2042621,51 C22.4462388,50.9138943 19.7833197,50.3972603 17.3106092,49.4500978 C17.1204007,49.3639922 16.9301922,49.1917808 17.0252964,49.0195695 L17.6910262,40.409002 C17.6910262,40.2367906 17.7861304,40.1506849 17.9763389,40.0645793 C18.1665475,39.9784736 18.2616517,39.9784736 18.4518602,40.0645793 C18.5469645,40.0645793 23.3972813,42.0450098 25.1091578,42.3033268 C25.6797833,42.3894325 26.1553046,42.3894325 26.7259301,42.3033268 C29.2937449,41.7866928 31.7664554,41.0978474 34.1440617,40.2367906 C34.239166,40.1506849 34.4293745,40.0645793 34.619583,40.1506849 C34.8097915,40.2367906 35,40.409002 35,40.667319 L34.7146872,49.4500978 C32.0517682,50.3972603 29.1986406,50.9138943 26.2504088,51 Z M18.0714432,48.6751468 C20.3539452,49.4500978 22.8266558,49.9667319 25.2993663,50.0528376 C27.9622854,50.1389432 30.6252044,49.8806262 33.097915,49.1056751 L33.858749,41.2700587 C33.097915,41.5283757 32.337081,41.7866928 31.4811427,41.9589041 C29.9594747,42.3894325 28.4378066,42.8199609 26.9161386,43.0782779 C26.2504088,43.1643836 25.5846791,43.1643836 24.9189493,43.0782779 C22.7315515,42.5616438 20.639258,41.8727984 18.6420687,41.0117417 L18.0714432,48.6751468 Z" id="Shape" fill="#000105"></path>
                <path d="M26.0170455,40 L25.7272727,39.761654 C24.2784091,38.8877186 22.5397727,38.3315779 20.8011364,38.0932319 C20.125,37.9343345 19.3522727,38.0137832 18.6761364,38.3315779 L18,37.6959885 C18.8693182,37.2192965 19.9318182,37.0603991 20.9943182,37.2987451 C22.8295455,37.6165398 24.5681818,38.1726805 26.1136364,38.9671673 C27.3693182,38.3315779 31.1363636,36.6631558 32.5852273,37.0603991 C33.3579545,37.2987451 34.2272727,37.5370912 35,37.7754372 L34.6136364,38.5699239 C34.6136364,38.5699239 32.6818182,38.0137832 32.2954545,37.9343345 C31.4261364,37.6959885 28.3352273,38.9671673 26.3068182,39.9205513 L26.0170455,40 Z" id="Shape" fill="#000105"></path>
                <path d="M23,50.9221261 L24.6,51 L25,44.0692213 C25,44.0692213 23.48,43.9134734 23.48,44.0692213 L23,50.9221261" id="Shape" fill="#E7B34E"></path>
                <path d="M24.3888889,51 L23.2777778,50.9116397 C23.1666667,50.9116397 23.1111111,50.8232795 23.0555556,50.7349192 C23,50.646559 23,50.4698385 23,50.3814782 L23.3333333,42.517416 C23.3333333,42.3406955 23.3888889,42.2523352 23.4444444,42.163975 C23.5555556,42.0756147 23.6111111,41.8988942 24.7222222,42.0756147 C24.8888889,42.0756147 25,42.3406955 25,42.6057762 L24.7222222,50.5581987 C24.6666667,50.7349192 24.5555556,51 24.3888889,51 Z M23.6111111,50.0280372 L24.1111111,50.0280372 L24.3333333,43.0475775 L23.8888889,43.0475775 L23.6111111,50.0280372 Z" id="Shape" fill="#000105"></path>
                <ellipse id="Oval" fill="#FFFFFF" opacity="0.7" cx="13.5" cy="42" rx="1" ry="1"></ellipse>
                <path d="M17.2623517,47.5849364 C17.8314291,48.1380106 19.2225073,48.3592402 18.969584,46.8106327 C18.9063532,46.0363289 17.8314291,45.9257141 17.3888133,46.0363289 C17.1991208,46.1469437 16.6932742,47.0318623 17.2623517,47.5849364 Z" id="Shape" fill="#94948E"></path>
                <path d="M17.994363,45.3353527 C18.270575,45.2379922 18.6020293,45.2379922 18.8782413,45.3353527 C18.8782413,45.4327131 19.0439684,46.4063176 18.988726,46.4063176 C18.9334837,46.4063176 18.6572717,47.0878408 18.4915445,46.9904803 C18.1048478,46.7957594 17.7733935,46.698399 17.3866967,46.6010385 C17.3314543,46.5036781 17,46.2115967 17,46.0168758 C17,45.8221549 17.0552424,45.0432713 17.1104848,45.0432713 C17.1657272,45.0432713 17.3866967,44.9459109 17.3866967,45.0432713 C17.6076663,45.1406318 17.7733935,45.2379922 17.994363,45.3353527 Z" id="Shape" fill="#94948E"></path>
                <path d="M17.994363,44.4477959 C18.0496054,44.0799363 18.8782413,44.6685117 18.8782413,44.7420836 C18.8782413,44.8156555 19.0439684,45.5513748 18.988726,45.5513748 C18.9334837,45.5513748 18.6572717,46.0663782 18.4915445,45.9928063 C18.3258174,45.9192344 17.4971815,45.6985186 17.3866967,45.6985186 C17.276212,45.6985186 17,45.4042309 17,45.2570871 C17,45.1099432 17.0552424,44.5213678 17.1104848,44.5213678 C17.1657272,44.5213678 17.276212,43.9327924 17.276212,44.0063644 L17.994363,44.4477959 Z" id="Shape" fill="#94948E"></path>
                <path d="M17.8,47 C17.8,47 17.7,46.9069767 17.7,46.3488372 C17.7,45.7906977 17.1,46.0697674 17,46.0697674 C17,46.3488372 17.1,46.627907 17.2,46.9069767 C17.3,47 17.8,47 17.8,47 Z" id="Shape" fill="#94948E"></path>
                <path d="M17.3571429,46 C17.3571429,45.8085106 17.3571429,45.6170213 17.4285714,45.4255319 C17.5714286,45.2340426 17.7857143,45.0425532 18,45.0425532 C18,45.0425532 17.8571429,44.9468085 17.8571429,45.0425532 C17.8571429,45.1382979 17.1428571,45.1382979 17.1428571,45.1382979 L17,45.9042553 L17.3571429,46 Z" id="Shape" fill="#FFFFFF" opacity="0.9"></path>
                <path d="M18,48.8122605 C17.9103982,48.6245211 17.8207965,48.3429119 17.8207965,48.1551724 C17.9103982,47.8735632 17.2831858,48.0613027 17.2831858,48.0613027 C17.2831858,48.0613027 16.9247788,49 17.0143805,49 C17.1039823,49 18,48.8122605 18,48.8122605 Z" id="Shape" fill="#FFFFFF" opacity="0.9"></path>
                <path d="M17.6,45.8560381 C17.5,45.6400952 17.5,45.4241523 17.6,45.2082094 C17.8,44.8483046 17,45.0642475 17,45.0642475 L17.3,46 L17.6,45.8560381 Z" id="Shape" fill="#FFFFFF" opacity="0.9"></path>
                <path d="M18,45.0126819 C18.3,45.1707185 18.4,45.4867915 18.2,45.7238462 C18.2,45.8028645 18.1,45.8028645 18.1,45.8818827 C18.7,46.3559923 18.9,45.2497367 18.9,45.2497367 C18.9,45.2497367 18.9,44.9336637 18,45.0126819 Z" id="Shape" fill="#5E5E5D"></path>
                <path d="M18,45.0364171 C18.3,45.1906544 18.4,45.499129 18.2,45.730485 C18.2,45.8076036 18.1,45.8076036 18.1,45.8847223 C18.7,46.3474342 18.9,45.2677731 18.9,45.2677731 C18.9,45.2677731 18.9,44.8821798 18,45.0364171 Z" id="Shape" fill="#5E5E5D"></path>
                <path d="M18.3571429,48.0195802 C18.3571429,48.0195802 18.4285714,48.4033517 18,48.8830661 C18.4285714,49.3627804 19,48.2114659 19,48.2114659 C19,48.2114659 18.9285714,47.9236373 18.3571429,48.0195802 Z" id="Shape" fill="#5E5E5D"></path>
                <path d="M20.0588235,38 L19,37.9130435 C19.1176471,37.2173913 19.4705882,36.5217391 20.0588235,36 L21,36.173913 C20.5294118,36.6956522 20.2941176,37.3043478 20.0588235,38 Z" id="Shape" fill="#000105"></path>
                <path d="M31.3333333,39 C31.2666667,38.4444444 31.1333333,38 31,37.4444444 L31.6666667,37 C31.6666667,37.1111111 32,38.6666667 32,38.6666667 L31.3333333,39 Z" id="Shape" fill="#000105"></path>
                <path d="M16.1123506,45 C16.0151593,44.9142857 12.9050398,42.5142857 13.002231,40.4571429 C13.6825697,36.7714286 19.4168526,36 19.7084263,36 L20,36.8571429 C19.9028088,36.8571429 14.2657171,37.4571429 13.6825697,40.4571429 C13.5853784,41.7428571 15.7235856,43.8857143 16.4039243,44.3142857 L16.1123506,45 Z" id="Shape" fill="#000105"></path>
                <path d="M18.7949192,46 C18.3641386,46 17.933358,45.9309529 17.5025774,45.7238117 C17.1435935,45.5166705 17,45.1714351 17,44.8261997 C17.0717968,44.4119173 17.3589838,44.135729 17.7897645,44.0666819 C18.4359354,43.9285877 19.0821063,43.9976348 19.6564805,44.3428702 C19.800074,44.4809643 19.9436676,44.6190585 19.9436676,44.8261997 C20.0872611,45.1714351 19.9436676,45.5857175 19.6564805,45.7928588 C19.4410902,45.9309529 19.0821063,46 18.7949192,46 Z M18.3641386,44.6881056 L17.933358,44.6881056 C17.933358,44.6881056 17.7897645,44.8261997 17.7897645,44.8952468 L17.933358,45.0333409 C18.3641386,45.2404822 18.866716,45.3095292 19.2974966,45.1714351 C19.2974966,45.1714351 19.3692934,45.102388 19.2974966,44.9642939 L19.2974966,44.8952468 C19.2256999,44.7571526 18.7949192,44.6881056 18.3641386,44.6881056 Z" id="Shape" fill="#000105"></path>
                <path d="M17.8504698,47 C17.3878524,47 16.9252349,46.8709677 16.5287057,46.6774194 C16.1982646,46.483871 16,46.1612903 16,45.8387097 C16,45.516129 16.1321764,45.1935484 16.4626175,45 L16.7930585,45.5806452 C16.7269703,45.5806452 16.6608821,45.7741935 16.7269703,45.9032258 C16.7930585,46.0322581 16.7930585,46.0322581 16.8591467,46.0967742 C17.255676,46.3548387 17.7843816,46.4193548 18.2469991,46.2258065 C18.3791755,46.0322581 18.3791755,45.7741935 18.2469991,45.5806452 L18.9078812,45.3225806 C19.0400576,45.7096774 19.0400576,46.1612903 18.841793,46.5483871 C18.7096165,46.7419355 18.5113519,46.8709677 18.2469991,46.9354839 C18.1148227,46.9354839 17.9826463,47 17.8504698,47 Z" id="Shape" fill="#000105"></path>
                <path d="M17.3775265,48 C16.9000196,48 16.0814364,47.44 16.0132211,47.04 C15.9450059,46.64 16.1496517,46.24 16.4225127,46 L16.7635891,46.4 L16.6953738,46.32 L16.7635891,46.4 C16.6271585,46.48 16.6953738,46.88 16.6271585,46.96 C17.1046654,47.36 17.7868181,47.36 18.1961097,46.88 C18.264325,46.8 18.264325,46.64 18.264325,46.56 L18.9464776,46.4 C19.0829082,46.8 18.9464776,47.28 18.6736166,47.52 C18.3325402,47.84 17.8550334,48 17.3775265,48 Z" id="Shape" fill="#000105"></path>
                <ellipse id="Oval" fill="#FFFFFF" opacity="0.7" cx="35.5" cy="43" rx="1" ry="1"></ellipse>
                <path d="M33.005637,45.3879047 C32.9503946,45.0692451 32.1217587,45.5791005 32.1217587,45.6428325 C32.1217587,45.7065644 31.9560316,46.3438837 32.011274,46.3438837 C32.0665163,46.3438837 31.9560316,48.000914 32.1217587,47.9371821 C32.2874859,47.8734501 34.3866967,48.5745014 33.6133033,46.4713476 C33.5580609,46.4076157 34,46.2164199 34,46.088956 C34,45.9614921 33.9447576,45.4516367 33.8895152,45.4516367 C33.8342728,45.4516367 33.723788,44.9417812 33.723788,45.0055131 L33.005637,45.3879047 Z" id="Shape" fill="#94948E"></path>
                <path d="M33.5714286,45.9444444 C33.5714286,45.7444444 33.5714286,45.5444444 33.5,45.3444444 C33.3571429,45.1444444 33.2142857,45.0444444 33,45.0444444 C33,45.0444444 33.1428571,44.9444444 33.1428571,45.0444444 C33.1428571,45.1444444 33.8571429,45.1444444 33.8571429,45.1444444 L34,45.9444444 L33.5714286,45.9444444 Z" id="Shape" fill="#5D5D5C" opacity="0.9"></path>
                <path d="M33,48.7969925 C33.0714286,48.612782 33.1428571,48.3364662 33.1428571,48.1522556 C33.0714286,47.8759398 34,48.0601504 34,48.0601504 C33.7857143,48.4285714 33.5714286,48.7048872 33.3571429,48.981203 C33.2857143,49.0733083 33,48.7969925 33,48.7969925 Z" id="Shape" fill="#5D5D5C" opacity="0.9"></path>
                <path d="M34.0086505,46.8518519 C34.1086505,46.6296296 34.1086505,46.4074074 34.0086505,46.1851852 C33.9086505,45.8888889 34.7086505,46.037037 34.7086505,46.037037 L34.4086505,47 L34.0086505,46.8518519 Z" id="Shape" fill="#5D5D5C" opacity="0.9"></path>
                <path d="M35.9187231,46 L35.5455114,45.4705882 C36.1986319,45.0294118 38.4379023,43.0882353 38.4379023,41.7647059 C37.8780847,38.7647059 32,37.7058824 32,37.7058824 L32.0933029,37 C32.3732117,37 38.3445993,37.7058824 38.9977198,41.6764706 L38.9977198,41.7647059 C39.0910228,43.9705882 36.2919348,45.8235294 35.9187231,46 Z" id="Shape" fill="#000105"></path>
                <path d="M33.3020684,47 C32.9360023,47 32.6431495,46.9341253 32.3502966,46.7365013 C32.0574438,46.4730026 31.9110174,46.0777545 32.0574438,45.7483811 C32.0574438,45.5507571 32.2038702,45.4190077 32.3502966,45.2872584 C32.9360023,45.0237597 33.5949212,44.957885 34.2538401,45.0237597 C34.6199062,45.0896343 34.912759,45.4190077 34.9859722,45.7483811 C35.0591854,46.1436292 34.8395458,46.5388773 34.4734797,46.7365013 C34.1074137,46.8682506 33.7413476,47 33.3020684,47 Z M33.7413476,45.6825064 C33.3020684,45.6825064 32.8627891,45.7483811 32.7895759,45.8801305 C32.7163627,45.9460052 32.7163627,46.0118798 32.7163627,46.0777545 C32.7163627,46.1436292 32.7895759,46.2095039 32.8627891,46.2095039 C33.3020684,46.3412532 33.7413476,46.3412532 34.1074137,46.1436292 C34.2538401,46.0777545 34.2538401,46.0118798 34.2538401,45.9460052 C34.2538401,45.8801305 34.2538401,45.6825064 33.7413476,45.6825064 Z" id="Shape" fill="#000105"></path>
                <path d="M33.1495302,47 C33.0173537,47 32.8190891,47 32.6869127,46.9354839 C32.4886481,46.8709677 32.2903835,46.7419355 32.158207,46.5483871 C31.9599424,46.1612903 31.9599424,45.7096774 32.0921188,45.3225806 L32.7530009,45.5806452 C32.6208245,45.7741935 32.6208245,46.0322581 32.7530009,46.2258065 C32.8190891,46.3548387 33.6121476,46.3548387 34.1408533,46.0967742 C34.2069415,46.0322581 34.2730297,45.9677419 34.2730297,45.9032258 C34.2730297,45.7741935 34.2730297,45.7096774 34.2069415,45.5806452 L34.5373825,45 C34.8017354,45.1935484 35,45.516129 35,45.8387097 C35,46.2258065 34.8017354,46.5483871 34.4712943,46.6774194 C34.0747651,46.8709677 33.6121476,47 33.1495302,47 Z" id="Shape" fill="#000105"></path>
                <path d="M10.7865169,24 L10,23.75 C10.0786517,23.4166667 12.9101124,14.5833333 16.4494382,14 L17,14.6666667 C14.4831461,15 11.5730337,21.5833333 10.7865169,24 Z" id="Shape" fill="#000105"></path>
                <path d="M20.3846154,7.14634146 L20,10 L20.6153846,9.92682927 C20.6923077,8.97560976 20.7692308,7.95121951 21,7 C20.7692308,7 20.6153846,7 20.3846154,7.14634146" id="Shape" fill="#FFFFFF" opacity="0.7"></path>
                <path d="M24.974359,48.9974516 C14.1111111,49.1669216 5.17521368,40.862895 5,30.3557594 C5,30.2710245 5,30.1015545 5,30.0168196 L5.96367521,30.0168196 C5.96367521,40.1850153 14.3739316,48.065367 25.0619658,48.065367 C36.0128205,48.065367 45.1239316,39.0834608 45.1239316,29.3389399 L46,29 C46,34.0840979 43.8974359,39.8460755 39.8675214,43.4896789 C35.75,46.9638125 30.4935897,48.9127167 24.974359,48.9974516 Z" id="Shape" fill="#000105"></path>
                <path d="M40.3070342,30 C40.0031518,30 39.8005635,29.9002794 39.8005635,29.6011177 C39.8005635,29.5013972 39.8005635,29.5013972 39.8005635,29.4016766 C41.0160933,20.5265463 35.4449148,17.0363265 35.2423265,16.9366059 C35.0397382,16.8368854 34.938444,16.4380031 35.0397382,16.238562 C35.1410323,16.0391209 35.546209,15.9394003 35.7487973,16.0391209 C36.0526797,16.238562 42.130329,20.0279435 40.813505,29.6011177 C40.813505,29.8005589 40.5096225,30 40.3070342,30 Z" id="Shape" fill="#141516"></path>
                <path d="M32.3829371,50 C32.083481,49.9130435 32.2032634,49.826087 32.1433722,49.6521739 C31.9636985,49.1304348 31.9636985,48.5217391 32.083481,48 L32.6823932,48.3478261 C32.5626107,48.6086957 32.5626107,48.9565217 32.6823932,49.2173913 C32.7422844,49.3913043 34,48.3478261 34,48.3478261 C33.460979,48.9565217 32.9219581,49.4782609 32.3829371,50 Z" id="Shape" fill="#000105"></path>
                <g id="Group" transform="translate(59.000000, 36.000000)" fill="#0C0C0C">
                    <path d="M0.62,4.6375 L0.62,0.175 C0.62,0.0875 0.708571429,0.0875 0.708571429,0.0875 L1.50571429,0.0875 C1.59428571,0.0875 1.59428571,0.175 1.59428571,0.175 L1.59428571,3.85 L3.54285714,3.85 L3.54285714,0.175 C3.54285714,0.0875 3.63142857,0.0875 3.63142857,0.0875 L4.42857143,0.0875 C4.51714286,0.0875 4.51714286,0.175 4.51714286,0.175 L4.51714286,3.85 L5.40285714,3.85 C5.49142857,3.85 5.49142857,3.9375 5.49142857,3.9375 L5.49142857,6.125 C5.49142857,6.2125 5.40285714,6.2125 5.40285714,6.2125 L4.60571429,6.2125 C4.51714286,6.2125 4.51714286,6.125 4.51714286,6.125 L4.51714286,4.6375 L0.62,4.6375 C0.708571429,4.725 0.62,4.6375 0.62,4.6375 Z" id="Shape"></path>
                    <path d="M12.5771429,0.0875 C12.6657143,0.0875 12.6657143,0.175 12.6657143,0.175 L12.6657143,0.875 C12.6657143,0.9625 12.5771429,0.9625 12.5771429,0.9625 L10.1857143,0.9625 L10.1857143,1.925 L12.2228571,1.925 C12.3114286,1.925 12.3114286,2.0125 12.3114286,2.0125 L12.3114286,2.7125 C12.3114286,2.8 12.2228571,2.8 12.2228571,2.8 L10.1857143,2.8 L10.1857143,3.85 L12.5771429,3.85 C12.6657143,3.85 12.6657143,3.85 12.6657143,3.9375 L12.6657143,4.6375 C12.6657143,4.725 12.5771429,4.725 12.5771429,4.725 L9.3,4.725 C9.21142857,4.725 9.21142857,4.6375 9.21142857,4.6375 L9.21142857,0.175 C9.21142857,0.0875 9.3,0.0875 9.3,0.0875 L12.5771429,0.0875 Z" id="Shape"></path>
                    <path d="M20.3714286,0.0875 C20.46,0.0875 20.46,0.175 20.46,0.175 L20.46,4.6375 C20.46,4.725 20.3714286,4.725 20.3714286,4.725 L19.5742857,4.725 C19.4857143,4.725 19.4857143,4.6375 19.4857143,4.6375 L19.4857143,2.8 L17.36,2.8 L17.36,4.6375 C17.36,4.725 17.36,4.725 17.2714286,4.725 L16.4742857,4.725 C16.3857143,4.725 16.3857143,4.6375 16.3857143,4.6375 L16.3857143,0.175 C16.3857143,0.0875 16.4742857,0.0875 16.4742857,0.0875 L17.2714286,0.0875 C17.36,0.0875 17.36,0.175 17.36,0.175 L17.36,1.925 L19.4857143,1.925 L19.4857143,0.175 C19.4857143,0.0875 19.5742857,0.0875 19.5742857,0.0875 L20.3714286,0.0875 Z" id="Shape"></path>
                    <path d="M27.9,0.0875 C27.9885714,0.0875 27.9885714,0.175 27.9885714,0.175 L27.9885714,0.875 C27.9885714,0.9625 27.9,0.9625 27.9,0.9625 L26.5714286,0.9625 L26.5714286,4.6375 C26.5714286,4.725 26.4828571,4.725 26.4828571,4.725 L25.6857143,4.725 C25.5971429,4.725 25.5971429,4.6375 25.5971429,4.6375 L25.5971429,0.9625 L24.18,0.9625 C24.0914286,0.9625 24.0914286,0.875 24.0914286,0.875 L24.0914286,0.175 C24.0914286,0.0875 24.18,0.0875 24.18,0.0875 L27.9,0.0875 Z" id="Shape"></path>
                    <path d="M33.6571429,0.0875 C34.0114286,0.0875 34.4542857,0.175 34.72,0.4375 C35.0742857,0.7 35.2514286,1.1375 35.2514286,1.75 C35.2514286,2.275 34.9857143,2.8 34.6314286,3.0625 C34.2771429,3.325 33.9228571,3.4125 33.5685714,3.4125 L32.5057143,3.4125 L32.5057143,4.725 C32.5057143,4.8125 32.5057143,4.8125 32.4171429,4.8125 L31.62,4.8125 C31.5314286,4.8125 31.5314286,4.725 31.5314286,4.725 L31.5314286,0.2625 C31.5314286,0.175 31.62,0.175 31.62,0.175 L33.6571429,0.175 L33.6571429,0.0875 Z M34.0114286,1.05 C33.8342857,0.9625 33.6571429,0.875 33.48,0.875 L32.5942857,0.875 L32.5942857,2.3625 L33.48,2.3625 C33.6571429,2.3625 33.8342857,2.3625 34.0114286,2.275 C34.1885714,2.1875 34.2771429,1.925 34.2771429,1.6625 C34.2771429,1.4 34.1885714,1.225 34.0114286,1.05 Z" id="Shape"></path>
                    <path d="M46.1457143,4.8125 C44.7285714,4.8125 43.6657143,3.85 43.6657143,2.45 C43.6657143,1.05 44.7285714,0.0875 46.1457143,0.0875 C47.5628571,0.0875 48.6257143,1.05 48.6257143,2.45 C48.6257143,3.85 47.4742857,4.8125 46.1457143,4.8125 Z M46.1457143,0.9625 C45.3485714,0.9625 44.7285714,1.575 44.7285714,2.45 C44.7285714,3.325 45.3485714,3.9375 46.1457143,3.9375 C46.9428571,3.9375 47.5628571,3.325 47.5628571,2.45 C47.5628571,1.575 46.9428571,0.9625 46.1457143,0.9625 Z" id="Shape"></path>
                    <path d="M55.4457143,0.0875 C55.5342857,0.0875 55.5342857,0.175 55.5342857,0.175 L55.5342857,0.875 C55.5342857,0.9625 55.4457143,0.9625 55.4457143,0.9625 L53.4085714,0.9625 L53.4085714,2.0125 L54.1171429,2.0125 C54.4714286,2.0125 54.8257143,2.0125 55.18,2.1875 C55.5342857,2.3625 55.8885714,2.7125 55.8885714,3.325 C55.8885714,3.9375 55.6228571,4.2875 55.2685714,4.4625 C55.0028571,4.6375 54.6485714,4.6375 54.2942857,4.6375 L52.6114286,4.6375 C52.5228571,4.6375 52.5228571,4.55 52.5228571,4.55 L52.5228571,0.0875 C52.5228571,0 52.6114286,0 52.6114286,0 L55.4457143,0 L55.4457143,0.0875 Z M54.56,2.8 C54.3828571,2.7125 54.2057143,2.7125 54.0285714,2.7125 L53.4085714,2.7125 L53.4085714,3.85 L54.1171429,3.85 C54.2942857,3.85 54.4714286,3.85 54.6485714,3.7625 C54.8257143,3.675 54.9142857,3.5 54.9142857,3.2375 C54.8257143,3.0625 54.7371429,2.975 54.56,2.8 Z" id="Shape"></path>
                    <path d="M61.6457143,0.0875 C62,0.0875 62.4428571,0.175 62.7085714,0.4375 C63.0628571,0.7 63.24,1.1375 63.24,1.75 C63.24,2.275 62.9742857,2.8 62.62,3.0625 C62.2657143,3.325 61.9114286,3.4125 61.5571429,3.4125 L60.4942857,3.4125 L60.4942857,4.725 C60.4942857,4.8125 60.4942857,4.8125 60.4057143,4.8125 L59.6085714,4.8125 C59.52,4.8125 59.52,4.725 59.52,4.725 L59.52,0.2625 C59.52,0.175 59.6085714,0.175 59.6085714,0.175 L61.6457143,0.175 L61.6457143,0.0875 Z M62.0885714,1.05 C61.9114286,0.9625 61.7342857,0.875 61.5571429,0.875 L60.6714286,0.875 L60.6714286,2.3625 L61.5571429,2.3625 C61.7342857,2.3625 61.9114286,2.3625 62.0885714,2.275 C62.2657143,2.1875 62.3542857,1.925 62.3542857,1.6625 C62.3542857,1.4 62.2657143,1.225 62.0885714,1.05 Z" id="Shape"></path>
                    <path d="M67.6685714,4.6375 C67.6685714,4.725 67.58,4.725 67.4914286,4.725 L66.6942857,4.725 C66.6057143,4.725 66.6057143,4.725 66.6057143,4.6375 C66.6057143,4.6375 66.6057143,4.6375 66.6057143,4.55 L68.2,0.175 C68.2,0.0875 68.2885714,0.0875 68.3771429,0.0875 L69.1742857,0.0875 C69.2628571,0.0875 69.3514286,0.0875 69.3514286,0.175 L70.9457143,4.55 C70.9457143,4.55 70.9457143,4.6375 70.9457143,4.6375 C70.9457143,4.725 70.9457143,4.725 70.8571429,4.725 L70.06,4.725 C69.9714286,4.725 69.8828571,4.725 69.8828571,4.6375 L69.6171429,3.85 L67.9342857,3.85 L67.6685714,4.6375 Z M68.82,1.225 L68.2,2.975 L69.3514286,2.975 L68.82,1.225 Z" id="Shape"></path>
                    <path d="M74.9314286,2.7125 C74.8428571,2.7125 74.8428571,2.7125 74.8428571,2.625 L74.8428571,2.1 C74.8428571,2.0125 74.9314286,2.0125 74.9314286,2.0125 L75.3742857,2.0125 C75.64,2.0125 75.8171429,2.0125 75.9942857,1.925 C76.1714286,1.8375 76.26,1.6625 76.26,1.4 C76.26,1.225 76.1714286,1.1375 76.0828571,1.05 C75.9942857,0.9625 75.8171429,0.875 75.64,0.875 C75.2857143,0.875 75.02,0.9625 74.7542857,1.1375 C74.6657143,1.225 74.6657143,1.1375 74.5771429,1.1375 L74.3114286,0.6125 C74.3114286,0.525 74.3114286,0.525 74.3114286,0.4375 C74.6657143,0.2625 75.02,-1.42108547e-14 75.64,-1.42108547e-14 C76.0828571,-1.42108547e-14 76.4371429,0.175 76.6142857,0.35 C76.88,0.6125 76.9685714,0.875 76.9685714,1.225 C76.9685714,1.6625 76.7914286,2.1 76.26,2.275 C76.7914286,2.45 77.1457143,2.8875 77.1457143,3.5 C77.1457143,3.9375 76.9685714,4.2875 76.7028571,4.4625 C76.4371429,4.6375 76.0828571,4.8125 75.64,4.8125 C75.02,4.8125 74.6657143,4.6375 74.3114286,4.4625 C74.2228571,4.4625 74.2228571,4.375 74.3114286,4.2875 L74.5771429,3.7625 C74.5771429,3.675 74.6657143,3.675 74.7542857,3.7625 C75.1085714,4.025 75.3742857,4.025 75.64,4.025 C75.9057143,4.025 76.0828571,3.9375 76.1714286,3.85 C76.3485714,3.7625 76.3485714,3.5875 76.3485714,3.4125 C76.3485714,3.15 76.26,2.975 75.9942857,2.8875 C75.8171429,2.8 75.64,2.8 75.3742857,2.8 L74.9314286,2.8 L74.9314286,2.7125 Z" id="Shape"></path>
                    <path d="M83.3457143,4.8125 C81.9285714,4.8125 80.8657143,3.85 80.8657143,2.45 C80.8657143,1.05 81.9285714,0.0875 83.3457143,0.0875 C84.7628571,0.0875 85.8257143,1.05 85.8257143,2.45 C85.8257143,3.85 84.7628571,4.8125 83.3457143,4.8125 Z M83.3457143,0.9625 C82.5485714,0.9625 81.9285714,1.575 81.9285714,2.45 C81.9285714,3.325 82.5485714,3.9375 83.3457143,3.9375 C84.1428571,3.9375 84.7628571,3.325 84.7628571,2.45 C84.7628571,1.575 84.1428571,0.9625 83.3457143,0.9625 Z" id="Shape"></path>
                    <path d="M91.4942857,4.725 L89.7228571,4.725 C89.6342857,4.725 89.6342857,4.6375 89.6342857,4.6375 L89.6342857,0.175 C89.6342857,0.0875 89.7228571,0.0875 89.7228571,0.0875 L91.14,0.0875 C91.4942857,0.0875 91.9371429,0.175 92.2914286,0.35 C92.5571429,0.525 92.7342857,0.875 92.7342857,1.225 C92.7342857,1.6625 92.5571429,2.0125 92.2028571,2.1875 C92.8228571,2.3625 93.1771429,2.8 93.1771429,3.4125 C93.0885714,4.2875 92.2914286,4.725 91.4942857,4.725 Z M91.4942857,0.9625 C91.4057143,0.875 91.2285714,0.875 91.14,0.875 L90.6085714,0.875 L90.6085714,1.925 L91.0514286,1.925 C91.14,1.925 91.3171429,1.925 91.4057143,1.8375 C91.5828571,1.75 91.6714286,1.575 91.6714286,1.4 C91.6714286,1.225 91.5828571,1.05 91.4942857,0.9625 Z M91.76,2.8 C91.5828571,2.7125 91.4057143,2.7125 91.2285714,2.7125 L90.6085714,2.7125 L90.6085714,3.85 L91.3171429,3.85 C91.4942857,3.85 91.6714286,3.85 91.76,3.7625 C91.9371429,3.675 92.1142857,3.5 92.1142857,3.2375 C92.0257143,3.15 91.9371429,2.975 91.76,2.8 Z" id="Shape"></path>
                    <path d="M97.4285714,4.6375 C97.4285714,4.725 97.34,4.725 97.2514286,4.725 L96.5428571,4.725 C96.4542857,4.725 96.4542857,4.725 96.4542857,4.6375 C96.4542857,4.6375 96.4542857,4.6375 96.4542857,4.55 L98.0485714,0.175 C98.0485714,0.0875 98.1371429,0.0875 98.2257143,0.0875 L99.0228571,0.0875 C99.1114286,0.0875 99.2,0.0875 99.2,0.175 L100.705714,4.55 C100.705714,4.55 100.705714,4.6375 100.705714,4.6375 C100.705714,4.725 100.705714,4.725 100.617143,4.725 L99.82,4.725 C99.7314286,4.725 99.6428571,4.725 99.6428571,4.6375 L99.3771429,3.85 L97.6942857,3.85 L97.4285714,4.6375 Z M98.58,1.225 L97.96,2.975 L99.1114286,2.975 L98.58,1.225 Z" id="Shape"></path>
                    <path d="M108.145714,0.0875 C108.234286,0.0875 108.234286,0.175 108.234286,0.175 L108.234286,4.6375 C108.234286,4.725 108.145714,4.725 108.145714,4.725 L107.348571,4.725 C107.26,4.725 107.26,4.6375 107.26,4.6375 L107.26,2.8 L105.134286,2.8 L105.134286,4.6375 C105.134286,4.725 105.134286,4.725 105.045714,4.725 L104.248571,4.725 C104.16,4.725 104.16,4.6375 104.16,4.6375 L104.16,0.175 C104.16,0.0875 104.248571,0.0875 104.248571,0.0875 L105.045714,0.0875 C105.134286,0.0875 105.134286,0.175 105.134286,0.175 L105.134286,1.925 L107.26,1.925 L107.26,0.175 C107.26,0.0875 107.348571,0.0875 107.348571,0.0875 L108.145714,0.0875 Z" id="Shape"></path>
                    <path d="M115.408571,1.925 L113.282857,4.1125 L113.282857,4.6375 C113.282857,4.725 113.282857,4.725 113.194286,4.725 L112.397143,4.725 C112.308571,4.725 112.308571,4.6375 112.308571,4.6375 L112.308571,0.175 C112.308571,0.0875 112.397143,0.0875 112.397143,0.0875 L113.194286,0.0875 C113.282857,0.0875 113.282857,0.175 113.282857,0.175 L113.282857,2.8875 L115.408571,0.7 L115.408571,0.175 C115.408571,0.0875 115.497143,0.0875 115.497143,0.0875 L116.294286,0.0875 C116.382857,0.0875 116.382857,0.175 116.382857,0.175 L116.382857,4.6375 C116.382857,4.725 116.294286,4.725 116.294286,4.725 L115.497143,4.725 C115.408571,4.725 115.408571,4.725 115.408571,4.6375 L115.408571,1.925 Z" id="Shape"></path>
                    <path d="M120.102857,1.575 C120.102857,1.05 120.28,0.6125 120.634286,0.35 C120.9,0.0875 121.342857,0 121.785714,0 L123.734286,0 C123.822857,0 123.822857,0.0875 123.822857,0.0875 L123.822857,4.55 C123.822857,4.6375 123.734286,4.6375 123.734286,4.6375 L122.937143,4.6375 C122.848571,4.6375 122.848571,4.55 122.848571,4.55 L122.848571,3.0625 L121.962857,3.0625 L121.077143,4.55 C120.988571,4.6375 120.988571,4.6375 120.9,4.6375 L120.014286,4.6375 C119.925714,4.6375 119.925714,4.6375 119.925714,4.55 C119.925714,4.55 119.925714,4.4625 119.925714,4.4625 L120.9,2.8875 C120.722857,2.8875 120.634286,2.8 120.457143,2.7125 C120.28,2.45 120.102857,2.0125 120.102857,1.575 Z M121.874286,0.875 C121.697143,0.875 121.52,0.875 121.342857,0.9625 C121.165714,1.05 121.077143,1.225 121.077143,1.4875 C121.077143,1.75 121.165714,1.925 121.342857,2.0125 C121.52,2.1 121.697143,2.1 121.874286,2.1 L122.848571,2.1 L122.848571,0.875 L121.874286,0.875 Z" id="Shape"></path>
                </g>
                <g id="Group" transform="translate(59.000000, 16.000000)" fill="#0C0C0C">
                    <path d="M12.1342857,0.755555556 C12.4885714,0.755555556 12.5771429,1.03888889 12.4,1.41666667 L7.70571429,8.40555556 L12.5771429,15.8666667 C12.8428571,16.2444444 12.7542857,16.6222222 12.4,16.6222222 L9.12285714,16.6222222 C8.76857143,16.6222222 8.59142857,16.5277778 8.41428571,16.2444444 L4.87142857,10.4833333 L4.16285714,10.4833333 L4.16285714,16.2444444 C4.16285714,16.4333333 3.98571429,16.6222222 3.80857143,16.6222222 L1.06285714,16.6222222 C0.885714286,16.6222222 0.708571429,16.4333333 0.708571429,16.2444444 L0.708571429,1.22777778 C0.708571429,1.03888889 0.885714286,0.85 1.06285714,0.85 L3.80857143,0.85 C3.98571429,0.85 4.16285714,1.03888889 4.16285714,1.22777778 L4.16285714,6.8 L4.87142857,6.8 L8.41428571,1.22777778 C8.59142857,0.944444444 8.76857143,0.85 9.12285714,0.85 L12.1342857,0.85 L12.1342857,0.755555556 Z" id="Shape"></path>
                    <path d="M22.0542857,16.8111111 C18.1571429,16.8111111 14.7028571,13.6 14.7028571,8.68888889 C14.7028571,3.77777778 18.0685714,0.566666667 22.0542857,0.566666667 C25.9514286,0.566666667 29.4057143,3.77777778 29.4057143,8.68888889 C29.4057143,13.6944444 25.9514286,16.8111111 22.0542857,16.8111111 Z M22.0542857,4.43888889 C19.9285714,4.43888889 18.4228571,6.23333333 18.4228571,8.78333333 C18.4228571,11.3333333 19.9285714,13.0333333 22.0542857,13.0333333 C24.18,13.0333333 25.6857143,11.2388889 25.6857143,8.78333333 C25.6857143,6.23333333 24.18,4.43888889 22.0542857,4.43888889 Z" id="Shape"></path>
                    <path d="M43.8428571,16.15 C43.8428571,16.3388889 43.6657143,16.5277778 43.4885714,16.5277778 L40.7428571,16.5277778 C40.5657143,16.5277778 40.3885714,16.3388889 40.3885714,16.15 L40.3885714,12.0888889 L36.0485714,12.0888889 L36.0485714,16.15 C36.0485714,16.3388889 35.8714286,16.5277778 35.6942857,16.5277778 L32.9485714,16.5277778 C32.7714286,16.5277778 32.5942857,16.3388889 32.5942857,16.15 L32.5942857,6.98888889 C32.5942857,5.1 33.3028571,3.02222222 34.72,1.79444444 C35.6057143,1.03888889 36.7571429,0.566666667 38.2628571,0.566666667 C39.7685714,0.566666667 40.92,1.03888889 41.8057143,1.79444444 C43.3114286,3.11666667 43.9314286,5.1 43.9314286,6.98888889 L43.9314286,16.15 L43.8428571,16.15 Z M36.7571429,5.00555556 C36.4028571,5.47777778 36.0485714,6.13888889 36.0485714,7.27222222 L36.0485714,8.5 L40.3885714,8.5 L40.3885714,7.27222222 C40.3885714,6.13888889 40.1228571,5.47777778 39.68,5.00555556 C39.2371429,4.53333333 38.7057143,4.43888889 38.1742857,4.43888889 C37.7314286,4.43888889 37.2,4.53333333 36.7571429,5.00555556 Z" id="Shape"></path>
                    <path d="M49.2457143,16.6222222 L47.12,16.6222222 C46.7657143,16.6222222 46.5,16.3388889 46.8542857,15.7722222 C47.5628571,14.45 48.0057143,13.1277778 48.2714286,11.6166667 C48.5371429,10.0111111 48.6257143,8.21666667 48.6257143,6.04444444 L48.6257143,1.32222222 C48.6257143,1.13333333 48.8028571,0.944444444 48.98,0.944444444 L58.9885714,0.944444444 C59.1657143,0.944444444 59.3428571,1.13333333 59.3428571,1.32222222 L59.3428571,16.2444444 C59.3428571,16.4333333 59.1657143,16.6222222 58.9885714,16.6222222 L56.2428571,16.6222222 C56.0657143,16.6222222 55.8885714,16.4333333 55.8885714,16.2444444 L55.8885714,4.43888889 L52.1685714,4.43888889 L52.1685714,5.95 C52.1685714,7.74444444 51.9914286,10.0111111 51.6371429,11.9 C51.3714286,13.3166667 50.6628571,15.2055556 50.1314286,16.0555556 C49.8657143,16.5277778 49.6885714,16.6222222 49.2457143,16.6222222 Z" id="Shape"></path>
                    <path d="M71.8314286,8.12222222 L66.6057143,14.3555556 L66.6057143,16.15 C66.6057143,16.3388889 66.4285714,16.5277778 66.2514286,16.5277778 L63.5057143,16.5277778 C63.3285714,16.5277778 63.1514286,16.3388889 63.1514286,16.15 L63.1514286,1.22777778 C63.1514286,1.03888889 63.3285714,0.85 63.5057143,0.85 L66.2514286,0.85 C66.4285714,0.85 66.6057143,1.03888889 66.6057143,1.22777778 L66.6057143,9.35 L71.8314286,3.21111111 L71.8314286,1.22777778 C71.8314286,1.03888889 72.0085714,0.85 72.1857143,0.85 L74.9314286,0.85 C75.1085714,0.85 75.2857143,1.03888889 75.2857143,1.22777778 L75.2857143,16.15 C75.2857143,16.3388889 75.1085714,16.5277778 74.9314286,16.5277778 L72.1857143,16.5277778 C72.0085714,16.5277778 71.8314286,16.3388889 71.8314286,16.15 L71.8314286,8.12222222 Z" id="Shape"></path>
                    <path d="M79.0942857,16.15 L79.0942857,1.22777778 C79.0942857,1.03888889 79.2714286,0.85 79.4485714,0.85 L82.1942857,0.85 C82.3714286,0.85 82.5485714,1.03888889 82.5485714,1.22777778 L82.5485714,13.0333333 L87.42,13.0333333 L87.42,1.22777778 C87.42,1.03888889 87.5971429,0.85 87.7742857,0.85 L90.52,0.85 C90.6971429,0.85 90.8742857,1.03888889 90.8742857,1.22777778 L90.8742857,13.0333333 L93.9742857,13.0333333 C94.1514286,13.0333333 94.3285714,13.2222222 94.3285714,13.4111111 L94.3285714,16.15 C94.3285714,16.4333333 94.1514286,16.6222222 93.8857143,16.6222222 L90.7857143,16.6222222 L79.36,16.6222222 C79.1828571,16.6222222 79.0942857,16.4333333 79.0942857,16.15 Z" id="Shape"></path>
                    <path d="M105.842857,8.12222222 L100.617143,14.3555556 L100.617143,16.15 C100.617143,16.3388889 100.44,16.5277778 100.262857,16.5277778 L97.5171429,16.5277778 C97.34,16.5277778 97.1628571,16.3388889 97.1628571,16.15 L97.1628571,1.22777778 C97.1628571,1.03888889 97.34,0.85 97.5171429,0.85 L100.262857,0.85 C100.44,0.85 100.617143,1.03888889 100.617143,1.22777778 L100.617143,9.35 L105.842857,3.21111111 L105.842857,1.22777778 C105.842857,1.03888889 106.02,0.85 106.197143,0.85 L108.942857,0.85 C109.12,0.85 109.297143,1.03888889 109.297143,1.22777778 L109.297143,16.15 C109.297143,16.3388889 109.12,16.5277778 108.942857,16.5277778 L106.197143,16.5277778 C106.02,16.5277778 105.842857,16.3388889 105.842857,16.15 L105.842857,8.12222222 Z" id="Shape"></path>
                    <path d="M112.574286,6.04444444 C112.574286,4.34444444 113.105714,2.83333333 114.168571,1.88888889 C115.054286,1.03888889 116.294286,0.755555556 117.622857,0.755555556 L123.645714,0.755555556 C123.822857,0.755555556 124,0.944444444 124,1.13333333 L124,16.0555556 C124,16.2444444 123.822857,16.4333333 123.645714,16.4333333 L120.9,16.4333333 C120.722857,16.4333333 120.545714,16.2444444 120.545714,16.0555556 L120.545714,11.3333333 L118.42,11.3333333 L116.294286,16.0555556 C116.117143,16.4333333 115.94,16.4333333 115.585714,16.4333333 L112.485714,16.4333333 C112.308571,16.4333333 112.131429,16.3388889 112.131429,16.15 C112.131429,16.0555556 112.131429,15.8666667 112.22,15.7722222 L114.788571,10.5777778 C114.522857,10.3888889 114.257143,10.2 113.991429,9.91666667 C113.017143,8.87777778 112.574286,7.46111111 112.574286,6.04444444 Z M117.888571,4.25 C117.445714,4.25 117.002857,4.34444444 116.737143,4.62777778 C116.382857,4.91111111 116.205714,5.38333333 116.205714,6.13888889 C116.205714,6.89444444 116.471429,7.36666667 116.825714,7.65 C117.18,7.83888889 117.534286,8.02777778 117.977143,8.02777778 L120.545714,8.02777778 L120.545714,4.25 L117.888571,4.25 Z" id="Shape"></path>
                </g>
            </g>
        </g>
    </g>
</svg>