<?xml version="1.0" encoding="UTF-8"?>
<svg width="55px" height="59px" viewBox="0 0 55 59" version="1.1" xmlns="http://www.w3.org/2000/svg" xmlns:xlink="http://www.w3.org/1999/xlink">
    <!-- Generator: Sketch 48.1 (47250) - http://www.bohemiancoding.com/sketch -->
    <title>Combined Shape</title>
    <desc>Created with Sketch.</desc>
    <defs>
        <filter x="-12.8%" y="-5.6%" width="125.6%" height="118.2%" filterUnits="objectBoundingBox" id="filter-1">
            <feOffset dx="0" dy="15" in="SourceAlpha" result="shadowOffsetOuter1"></feOffset>
            <feGaussianBlur stdDeviation="10.5" in="shadowOffsetOuter1" result="shadowBlurOuter1"></feGaussianBlur>
            <feColorMatrix values="0 0 0 0 0.842952806   0 0 0 0 0.842952806   0 0 0 0 0.842952806  0 0 0 0.0712749094 0" type="matrix" in="shadowBlurOuter1" result="shadowMatrixOuter1"></feColorMatrix>
            <feMerge>
                <feMergeNode in="shadowMatrixOuter1"></feMergeNode>
                <feMergeNode in="SourceGraphic"></feMergeNode>
            </feMerge>
        </filter>
        <path d="M5.14875951,19.0272742 C3.72344195,19.0272742 2.47428723,18.5754446 1.52140639,17.7291605 C0.536495937,16.847017 0,15.6995132 0,14.4802904 C0,13.2682395 0.536495937,12.1135638 1.52140639,11.2314202 L11.9710661,1.87926412 C13.3083022,0.681557012 15.0939529,0.0217423199 17.0077219,0.000226623421 C18.9535206,-0.0141171742 20.7792083,0.652869417 22.1484741,1.87926412 C24.8789982,4.32488162 24.8870056,8.41286395 22.1484741,10.9875756 L14.6215161,17.7291605 C14.261183,18.051896 13.7246871,18.051896 13.364354,17.7291605 C13.0040209,17.4064251 13.0040209,16.9259079 13.364354,16.6031724 L20.8913119,9.86158752 C23.0372957,7.93951863 23.0372957,4.92732112 20.8913119,2.99808034 C19.8503497,2.06573349 18.4890913,1.55652867 17.0637738,1.55652867 C15.6384562,1.55652867 14.2771978,2.07290539 13.2362356,2.99808034 L2.77856851,12.3645802 C2.12996894,12.945504 1.76963585,13.7415848 1.79365806,14.5448375 C1.81768026,15.2978868 2.16199855,15.9863891 2.77056111,16.4740782 L2.77856851,16.4812501 C3.42716808,17.0621739 4.3159897,17.3849094 5.21281873,17.3633937 C6.05359595,17.341878 6.82230654,17.0334863 7.36680988,16.488422 L7.37481728,16.4812501 L16.8475739,7.99689382 C17.3200106,7.57375179 17.3200106,6.92828089 16.8475739,6.50513886 C16.3751372,6.08199683 15.654471,6.08199683 15.1820343,6.50513886 L8.6319794,12.3717521 C8.27164631,12.6944876 7.73515038,12.6944876 7.37481728,12.3717521 C7.01448419,12.0490167 7.01448419,11.5684994 7.37481728,11.245764 L13.9248722,5.37915075 C14.5014051,4.86277403 15.2460935,4.57589808 16.0148041,4.57589808 C16.7835147,4.57589808 17.5282031,4.86277403 18.104736,5.37915075 C18.681269,5.89552746 19.0015651,6.56251405 19.0015651,7.25101634 C19.0015651,7.93951863 18.681269,8.60650522 18.104736,9.12288194 L8.63998681,17.6000664 C7.77518739,18.4965537 6.46998085,19.0272742 5.14875951,19.0272742 Z" id="path-2"></path>
    </defs>
    <g id="Мои-вебинары" stroke="none" stroke-width="1" fill="none" fill-rule="evenodd" transform="translate(-1317.000000, -1196.000000)" opacity="0.325407609">
        <g id="Вебинары" transform="translate(548.000000, 142.000000)" fill-rule="nonzero">
            <g id="--Вебинар-1-Copy-8" filter="url(#filter-1)" transform="translate(715.000000, 679.000000)">
                <g id="Material" transform="translate(81.581539, 389.606246) rotate(2.000000) translate(-81.581539, -389.606246) translate(65.581539, 375.106246)">
                    <g id="attachment" transform="translate(16.132520, 14.516129) rotate(-23.000000) translate(-16.132520, -14.516129) translate(3.632520, 4.516129)">
                        <g id="Combined-Shape">
                            <use fill="#41454D" fill-rule="evenodd" xlink:href="#path-2"></use>
                            <path stroke="#41454D" stroke-width="0.2" d="M5.14875951,19.1272742 C3.70456364,19.1272742 2.43007167,18.6699206 1.45468878,17.8036505 C0.449607277,16.9034406 -0.1,15.729294 -0.1,14.4802904 C-0.1,13.235832 0.451721008,12.0552469 1.45471716,11.1569048 L11.9043484,1.80477412 C13.2555505,0.594558361 15.0625854,-0.0779113481 17.0069848,-0.0997706596 C18.9776049,-0.114297433 20.8273255,0.56171975 22.2151917,1.80477412 C24.9925391,4.29232933 24.995061,8.448529 22.2151917,11.0620656 L14.6882337,17.8036505 C14.2899249,18.1603993 13.6959453,18.1603993 13.2976364,17.8036505 C12.8929268,17.4411689 12.8929268,16.8911641 13.2976364,16.5286824 L20.8245943,9.78709752 C22.9262245,7.90475427 22.9262245,4.96193748 20.8245943,3.07257034 C19.8045935,2.15899775 18.4680813,1.65652867 17.0637738,1.65652867 C15.6664658,1.65652867 14.3279205,2.16161223 13.3029532,3.07257034 L2.84528612,12.4390702 C2.21770356,13.00117 1.87051036,13.7693315 1.89360722,14.5416491 C1.91680014,15.2687021 2.24990689,15.9286883 2.83727872,16.3995882 L2.84528612,16.4067601 C3.47522123,16.970967 4.33944704,17.2843179 5.21026054,17.2634264 C6.02985889,17.2424527 6.77263898,16.9417109 7.30009227,16.413932 L16.7808563,7.92240382 C17.2089165,7.539008 17.2089165,6.96302468 16.7808563,6.57962886 C16.3463953,6.19050017 15.6832128,6.19050017 15.2487519,6.57962886 L8.69869702,12.4462421 C8.30038815,12.8029909 7.70640854,12.8029909 7.30809967,12.4462421 C6.90339006,12.0837605 6.90339006,11.5337556 7.30809967,11.171274 L13.8581545,5.30466075 C14.4534526,4.77147694 15.2220351,4.47589808 16.0148041,4.47589808 C16.8075731,4.47589808 17.5761556,4.77147694 18.1714536,5.30466075 C18.7689612,5.83982356 19.1015651,6.53361585 19.1015651,7.25101634 C19.1015651,7.96841684 18.7689612,8.66220912 18.1714536,9.19737194 L8.71195802,17.6694936 C7.82959446,18.5841887 6.49917103,19.1272742 5.14875951,19.1272742 Z"></path>
                        </g>
                    </g>
                </g>
            </g>
        </g>
    </g>
</svg>