<?xml version="1.0" encoding="UTF-8"?>
<svg width="7px" height="12px" viewBox="0 0 7 12" version="1.1" xmlns="http://www.w3.org/2000/svg" xmlns:xlink="http://www.w3.org/1999/xlink">
    <!-- Generator: Sketch 48.1 (47250) - http://www.bohemiancoding.com/sketch -->
    <title>Shape</title>
    <desc>Created with Sketch.</desc>
    <defs></defs>
    <g id="Дистанционный-курс-урок" stroke="none" stroke-width="1" fill="none" fill-rule="evenodd" transform="translate(-32.000000, -102.000000)">
        <g id="Назад" transform="translate(-9.000000, 77.000000)" fill="#65696D" fill-rule="nonzero">
            <path d="M47.4705742,30.8893846 L42.4324544,25.9943349 C42.3159289,25.8810269 42.1603774,25.8186047 41.9945171,25.8186047 C41.8286569,25.8186047 41.6731054,25.8810269 41.5565798,25.9943349 L41.1855573,26.3547385 C40.9441303,26.5895821 40.9441303,26.9712701 41.1855573,27.205756 L45.4161899,31.3163242 L41.1808631,35.4314533 C41.0643376,35.5447613 41,35.6958089 41,35.8568726 C41,36.0181152 41.0643376,36.1691628 41.1808631,36.2825602 L41.5518857,36.6428744 C41.6685033,36.7561824 41.8239627,36.8186047 41.989823,36.8186047 C42.1556832,36.8186047 42.3112347,36.7561824 42.4277603,36.6428744 L47.4705742,31.7433532 C47.5873759,31.6296875 47.6515294,31.4779245 47.6511612,31.3165925 C47.6515294,31.1546344 47.5873759,31.0029609 47.4705742,30.8893846 Z" id="Shape" transform="translate(44.325581, 31.318605) rotate(-180.000000) translate(-44.325581, -31.318605) "></path>
        </g>
    </g>
</svg>