<?xml version="1.0" encoding="UTF-8"?>
<svg width="13px" height="10px" viewBox="0 0 13 10" version="1.1" xmlns="http://www.w3.org/2000/svg" xmlns:xlink="http://www.w3.org/1999/xlink">
    <!-- Generator: Sketch 51.3 (57544) - http://www.bohemiancoding.com/sketch -->
    <title>Shape</title>
    <desc>Created with Sketch.</desc>
    <defs></defs>
    <g id="Page-1" stroke="none" stroke-width="1" fill="none" fill-rule="evenodd">
        <g id="Artboard-Copy-30" transform="translate(-73.000000, -53.000000)" fill="#FFFFFF" fill-rule="nonzero">
            <g id="Group-5" transform="translate(61.000000, 40.000000)">
                <path d="M12.1770601,17.5071348 L16.0456399,13.1972191 C16.2816717,12.9342603 16.6644677,12.9342603 16.9004994,13.1972191 C17.1365795,13.4602317 17.1365795,13.8865901 16.9004994,14.1496027 L14.0638148,17.3099023 L24.3955344,17.3099023 C24.7293445,17.3099023 25,17.6114347 25,17.9833266 C25,18.3551646 24.7293445,18.6567509 24.3955344,18.6567509 L14.0638148,18.6567509 L16.9004027,21.8170505 C17.1364828,22.0800631 17.1364828,22.5064215 16.9004027,22.7694341 C16.782411,22.9008327 16.6276678,22.9666667 16.4729729,22.9666667 C16.3182781,22.9666667 16.1635833,22.9008327 16.0455432,22.7694341 L12.1770601,18.4595184 C11.94098,18.1965058 11.94098,17.7701474 12.1770601,17.5071348 Z" id="Shape" transform="translate(18.500000, 17.983333) scale(1, -1) translate(-18.500000, -17.983333) "></path>
            </g>
        </g>
    </g>
</svg>