<?xml version="1.0" encoding="UTF-8"?>
<svg width="13px" height="10px" viewBox="0 0 13 10" version="1.1" xmlns="http://www.w3.org/2000/svg" xmlns:xlink="http://www.w3.org/1999/xlink">
    <!-- Generator: Sketch 51.3 (57544) - http://www.bohemiancoding.com/sketch -->
    <title>Shape</title>
    <desc>Created with Sketch.</desc>
    <defs></defs>
    <g id="Page-1" stroke="none" stroke-width="1" fill="none" fill-rule="evenodd">
        <g id="iPhone-8-Copy" transform="translate(-34.000000, -35.000000)" fill="#5C5A5A" fill-rule="nonzero">
            <g id="Group-5" transform="translate(20.000000, 20.000000)">
                <path d="M14.1770601,19.5071348 L18.0456399,15.1972191 C18.2816717,14.9342603 18.6644677,14.9342603 18.9004994,15.1972191 C19.1365795,15.4602317 19.1365795,15.8865901 18.9004994,16.1496027 L16.0638148,19.3099023 L26.3955344,19.3099023 C26.7293445,19.3099023 27,19.6114347 27,19.9833266 C27,20.3551646 26.7293445,20.6567509 26.3955344,20.6567509 L16.0638148,20.6567509 L18.9004027,23.8170505 C19.1364828,24.0800631 19.1364828,24.5064215 18.9004027,24.7694341 C18.782411,24.9008327 18.6276678,24.9666667 18.4729729,24.9666667 C18.3182781,24.9666667 18.1635833,24.9008327 18.0455432,24.7694341 L14.1770601,20.4595184 C13.94098,20.1965058 13.94098,19.7701474 14.1770601,19.5071348 Z" id="Shape" transform="translate(20.500000, 19.983333) scale(1, -1) translate(-20.500000, -19.983333) "></path>
            </g>
        </g>
    </g>
</svg>