<?xml version="1.0" encoding="UTF-8"?>
<svg width="70px" height="63px" viewBox="0 0 70 63" version="1.1" xmlns="http://www.w3.org/2000/svg" xmlns:xlink="http://www.w3.org/1999/xlink">
    <!-- Generator: Sketch 52.2 (67145) - http://www.bohemiancoding.com/sketch -->
    <title>warning (1)</title>
    <desc>Created with Sketch.</desc>
    <g id="Page-1" stroke="none" stroke-width="1" fill="none" fill-rule="evenodd">
        <g id="Одиночный-вебинар" transform="translate(-993.000000, -2042.000000)" fill="#E04242" fill-rule="nonzero">
            <g id="Group-2" transform="translate(943.000000, 2016.000000)">
                <g id="warning-(1)" transform="translate(50.000000, 26.000000)">
                    <path d="M61.9101744,62.7374494 L8.06450734,62.7374494 C5.14657484,62.7374494 2.53689236,61.234809 1.08362269,58.7175384 C-0.363950417,56.210395 -0.360785509,53.2114439 1.09058525,50.696705 L28.0140517,4.08510569 C29.4660554,1.57036671 32.0675094,0.0689922917 34.9727828,0.0689922917 C37.8900825,0.0689922917 40.5029298,1.57732928 41.9625289,4.10472725 L68.8840965,50.696705 C70.3367332,53.2114439 70.339265,56.210395 68.8923249,58.7175384 C67.4371564,61.2354419 64.82874,62.7374494 61.9101744,62.7374494 Z M34.9721499,2.28181058 C32.8669344,2.28181058 30.9813549,3.369864 29.92938,5.19214775 L3.00591359,51.8031142 C1.95457176,53.6260309 1.95203993,55.7970739 2.99895102,57.6117622 C4.05219176,59.4365777 5.94599963,60.525897 8.06387442,60.525897 L61.9095413,60.525897 C64.0274161,60.525897 65.921224,59.4365777 66.9744647,57.6117622 C68.0220089,55.7970739 68.019477,53.6260309 66.9668692,51.8031142 L40.0446686,5.21113639 C40.0446686,5.21113639 40.0446686,5.21113639 40.0440357,5.21113639 C38.9863642,3.37682657 37.0893916,2.28181058 34.9721499,2.28181058 Z" id="Shape"></path>
                    <path d="M35.6051071,54.9944842 C33.1245478,54.9944842 31.1054145,52.9766167 31.1054145,50.4947917 C31.1054145,48.0129666 33.1239149,45.9944661 35.6051071,45.9944661 C38.0862992,45.9944661 40.1047996,48.0129666 40.1047996,50.4947917 C40.1047996,52.9766167 38.0862992,54.9944842 35.6051071,54.9944842 Z M35.6051071,48.2072844 C34.3442564,48.2072844 33.3182328,49.2333081 33.3182328,50.4954246 C33.3182328,51.7556424 34.3436234,52.782299 35.6051071,52.782299 C36.8665907,52.782299 37.8926142,51.7562753 37.8926142,50.4954246 C37.8926142,49.2333081 36.8659578,48.2072844 35.6051071,48.2072844 Z" id="Shape"></path>
                    <path d="M35.6051071,42.5499132 C33.8106734,42.5499132 32.2991717,41.147913 32.1643519,39.3585432 L30.7933665,21.1907733 C30.6920934,19.8552336 31.156684,18.5266566 32.0668765,17.5455729 C32.9770689,16.5638563 34.2670355,16.0011574 35.6051071,16.0011574 C36.9438115,16.0011574 38.2337782,16.5638563 39.1439707,17.5455729 C40.054163,18.5266566 40.5181207,19.8552336 40.4174805,21.1907733 L39.0464952,39.3585432 C38.9110424,41.147913 37.3995407,42.5499132 35.6051071,42.5499132 Z M35.6051071,18.2139757 C34.8696107,18.2139757 34.188549,18.5108326 33.6885127,19.0501121 C33.1884765,19.5906576 32.9435222,20.2913411 32.9992224,21.0249385 L34.3702076,39.1927083 C34.4189452,39.8338939 34.9607566,40.3370949 35.6044741,40.3370949 C36.2488245,40.3370949 36.7912689,39.8338939 36.8393735,39.1927083 L38.2103588,21.0249385 C38.266059,20.2913411 38.0211046,19.5900247 37.5210685,19.0501121 C37.0216651,18.5108326 36.3406034,18.2139757 35.6051071,18.2139757 Z" id="Shape"></path>
                </g>
            </g>
        </g>
    </g>
</svg>