<?xml version="1.0" encoding="UTF-8"?>
<svg width="16px" height="12px" viewBox="0 0 16 12" version="1.1" xmlns="http://www.w3.org/2000/svg" xmlns:xlink="http://www.w3.org/1999/xlink">
    <!-- Generator: Sketch 52.2 (67145) - http://www.bohemiancoding.com/sketch -->
    <title>Page 1</title>
    <desc>Created with Sketch.</desc>
    <defs>
        <polygon id="path-1" points="0 0 16 0 16 12 0 12"></polygon>
    </defs>
    <g id="Page-1" stroke="none" stroke-width="1" fill="none" fill-rule="evenodd">
        <g id="Финал-страница-курса-с-блоками" transform="translate(-830.000000, -614.000000)">
            <g id="Блок-2" transform="translate(728.000000, 453.000000)">
                <g id="Урок-1-Copy-2" transform="translate(0.000000, 56.000000)">
                    <g id="ДЗ-Copy-6" transform="translate(88.000000, 96.000000)">
                        <g id="Page-1" transform="translate(14.000000, 9.000000)">
                            <mask id="mask-2" fill="white">
                                <use xlink:href="#path-1"></use>
                            </mask>
                            <g id="Clip-2"></g>
                            <path d="M14.5454545,9.08937697 C12.5607758,8.64586404 10.4490667,8.96969112 8.72727273,9.99084155 L8.72727273,2.76090991 C10.7064242,1.30997444 12.6816485,1.05141036 14.5454545,1.57840128 L14.5454545,9.08937697 Z M7.27272727,9.99079712 C6.05532121,9.26881689 4.64305455,8.89536505 3.21842424,8.89536505 C2.62831515,8.89536505 2.03587879,8.95942852 1.45454545,9.0894214 L1.45454545,1.57840128 C3.33430303,1.04696767 5.30647273,1.31939293 7.27272727,2.76090991 L7.27272727,9.99079712 Z M8,1.58724222 C5.65415758,-0.132386658 2.83403636,-0.381976526 0.457163636,0.48910011 C0.181042424,0.590259976 0,0.835273882 0,1.10783242 L0,10.0007932 C0,10.2219054 0.119709091,10.4286234 0.319563636,10.5526187 C0.519369697,10.6766139 0.773236364,10.7016262 0.997381818,10.619481 C2.99747879,9.8863941 5.28523636,10.196982 6.96756364,11.4301816 C7.58647273,11.8838239 7.6086303,11.9145228 7.76135758,11.9631257 C7.82967273,11.9848949 7.92019394,11.9999111 7.99932121,12 C8.33779394,11.999689 8.50739394,11.8150956 9.03243636,11.4301816 C9.93585707,10.7679502 11.0138934,10.3717675 12.1282295,10.2604106 C13.0889222,10.1644074 14.0765948,10.2801018 15.0026182,10.6195255 C15.2267152,10.7016706 15.4805818,10.6766139 15.6804364,10.5526631 C15.8802909,10.4286678 16,10.2219054 16,10.0007932 L16,1.10778799 C16,0.835229455 15.8189576,0.590259976 15.5427879,0.489055683 C13.1766788,-0.378200246 10.3553455,-0.139361668 8,1.58724222 Z" id="Fill-1" stroke="#F2F4F6" stroke-width="0.3" fill="#41454D" mask="url(#mask-2)"></path>
                        </g>
                    </g>
                </g>
            </g>
        </g>
    </g>
</svg>