<?xml version="1.0" encoding="UTF-8"?>
<svg width="19px" height="15px" viewBox="0 0 19 15" version="1.1" xmlns="http://www.w3.org/2000/svg" xmlns:xlink="http://www.w3.org/1999/xlink">
    <!-- Generator: Sketch 52.2 (67145) - http://www.bohemiancoding.com/sketch -->
    <title>Page 1</title>
    <desc>Created with Sketch.</desc>
    <defs>
        <polygon id="path-1" points="0 0 18.5921053 0 18.5921053 15 0 15"></polygon>
    </defs>
    <g id="Page-1" stroke="none" stroke-width="1" fill="none" fill-rule="evenodd">
        <g id="Вебинарный-курс-урок" transform="translate(-873.000000, -599.000000)">
            <g id="Вебинаор" transform="translate(504.000000, 165.000000)">
                <g id="ДЗ-Copy-6" transform="translate(344.000000, 423.000000)">
                    <g id="Page-1" transform="translate(25.000000, 11.000000)">
                        <mask id="mask-2" fill="white">
                            <use xlink:href="#path-1"></use>
                        </mask>
                        <g id="Clip-2"></g>
                        <path d="M16.9019139,11.3617212 C14.5957041,10.80733 12.1418842,11.2121139 10.1411483,12.4885519 L10.1411483,3.45113739 C12.4409354,1.63746805 14.736159,1.31426294 16.9019139,1.9730016 L16.9019139,11.3617212 Z M8.45095694,12.4884964 C7.03632309,11.5860211 5.39525993,11.1192063 3.73983014,11.1192063 C3.0541195,11.1192063 2.36570455,11.1992857 1.69019139,11.3617767 L1.69019139,1.9730016 C3.87448206,1.30870959 6.16615622,1.64924116 8.45095694,3.45113739 L8.45095694,12.4884964 Z M9.29605263,1.98405277 C6.5701683,-0.165483322 3.2931689,-0.477470657 0.531227153,0.611375138 C0.210372488,0.737824971 0,1.04409235 0,1.38479052 L0,12.5009914 C0,12.7773818 0.139102751,13.0357793 0.371335048,13.1907733 C0.603511005,13.3457674 0.898505742,13.3770328 1.15896423,13.2743513 C3.48309007,12.3579926 6.14147943,12.7462275 8.09635478,14.287727 C8.81553122,14.8547798 8.84127847,14.8931535 9.01874856,14.9539072 C9.09813122,14.9811186 9.20331746,14.9998889 9.29526388,15 C9.68857141,14.9996113 9.88564773,14.7688695 10.4957505,14.287727 C11.5455313,13.4599377 12.7982166,12.9647094 14.0930824,12.8255132 C15.2094137,12.7055092 16.3570958,12.8501272 17.433141,13.2744068 C17.6935432,13.3770883 17.9885379,13.3457674 18.2207702,13.1908289 C18.4530025,13.0358348 18.5921053,12.7773818 18.5921053,12.5009914 L18.5921053,1.38473499 C18.5921053,1.04403682 18.3817328,0.737824971 18.0608218,0.611319604 C15.3113874,-0.472750307 12.0329795,-0.174202085 9.29605263,1.98405277 Z" id="Fill-1" stroke="#F2F4F6" stroke-width="0.3" fill="#41454D" mask="url(#mask-2)"></path>
                    </g>
                </g>
            </g>
        </g>
    </g>
</svg>