<?xml version="1.0" encoding="UTF-8"?>
<svg width="36px" height="29px" viewBox="0 0 36 29" version="1.1" xmlns="http://www.w3.org/2000/svg" xmlns:xlink="http://www.w3.org/1999/xlink">
    <!-- Generator: Sketch 52.2 (67145) - http://www.bohemiancoding.com/sketch -->
    <title>DZ</title>
    <desc>Created with Sketch.</desc>
    <defs>
        <polygon id="path-1" points="0 0 26 0 26 21 0 21"></polygon>
    </defs>
    <g id="Page-1" stroke="none" stroke-width="1" fill="none" fill-rule="evenodd">
        <g id="Дистанционный-курс-урок" transform="translate(-243.000000, -1512.000000)">
            <g id="DZ" transform="translate(243.000000, 1512.000000)">
                <g id="Page-1" opacity="0.182348279">
                    <mask id="mask-2" fill="white">
                        <use xlink:href="#path-1"></use>
                    </mask>
                    <g id="Clip-2"></g>
                    <path d="M23.6363636,15.9064097 C20.4112606,15.1302621 16.9797333,15.6969595 14.1818182,17.4839727 L14.1818182,4.83159235 C17.3979394,2.29245527 20.6076788,1.83996812 23.6363636,2.76220224 L23.6363636,15.9064097 Z M11.8181818,17.483895 C9.83989697,16.2204296 7.54496364,15.5668888 5.22993939,15.5668888 C4.27101212,15.5668888 3.30830303,15.6789999 2.36363636,15.9064874 L2.36363636,2.76220224 C5.41824242,1.83219343 8.62301818,2.30893762 11.8181818,4.83159235 L11.8181818,17.483895 Z M13,2.77767388 C9.18800606,-0.231676651 4.60530909,-0.66845892 0.742890909,0.855925193 C0.294193939,1.03295496 0,1.46172929 0,1.93870673 L0,17.501388 C0,17.8883345 0.194527273,18.250091 0.519290909,18.4670827 C0.843975758,18.6840744 1.25650909,18.7278459 1.62074545,18.5840918 C4.87090303,17.3011897 8.58850909,17.8447185 11.3222909,20.0028178 C12.3280182,20.7966918 12.3640242,20.8504149 12.6122061,20.93547 C12.7232182,20.973566 12.8703152,20.9998445 12.998897,21 C13.5489152,20.9994558 13.8245152,20.6764173 14.6777091,20.0028178 C17.4114121,17.8447962 21.1290182,17.3011897 24.3792545,18.5841696 C24.7434121,18.7279236 25.1559455,18.6840744 25.4807091,18.4671604 C25.8054727,18.2501687 26,17.8883345 26,17.501388 L26,1.93862898 C26,1.46165155 25.7058061,1.03295496 25.2570303,0.855847446 C21.412103,-0.66185043 16.8274364,-0.243882919 13,2.77767388 Z" id="Fill-1" fill="#000000" mask="url(#mask-2)"></path>
                </g>
                <g id="CHECK" transform="translate(18.000000, 11.000000)">
                    <circle id="Oval-5" stroke="#FFFFFF" stroke-width="2" fill="#B1CD43" cx="8.5" cy="8.5" r="8.5"></circle>
                    <g id="done-tick" transform="translate(5.000000, 5.000000)" fill="#FFFFFF" fill-rule="nonzero">
                        <path d="M7.6993534,0.399379941 L7.485143,0.212172076 C7.12957201,-0.0986573615 6.5952531,-0.064010134 6.28132688,0.290111745 L2.69785375,4.33202279 L1.61616627,3.38433483 C1.26097045,3.07315693 0.726569986,3.10710723 0.412268586,3.46084746 L0.222868879,3.67404075 C0.0692742146,3.84682886 -0.0104756061,4.07475717 0.00110597965,4.30758057 C0.01280175,4.54027121 0.114850201,4.75872464 0.284969015,4.91490266 L2.26775281,6.76194171 C2.43942127,6.92593527 2.66948702,7.01145817 2.90464215,6.99876414 C3.13979728,6.9861033 3.35965166,6.87620455 3.51326264,6.69462188 L7.79102736,1.63841657 C7.94047875,1.46176217 8.01478034,1.23197539 7.99755477,0.999633201 C7.98034551,0.767125083 7.87310981,0.551243651 7.6993534,0.399379941 Z" id="Shape"></path>
                    </g>
                </g>
            </g>
        </g>
    </g>
</svg>