<?xml version="1.0" encoding="UTF-8"?>
<svg width="16px" height="19px" viewBox="0 0 16 19" version="1.1" xmlns="http://www.w3.org/2000/svg" xmlns:xlink="http://www.w3.org/1999/xlink">
    <!-- Generator: Sketch 48.1 (47250) - http://www.bohemiancoding.com/sketch -->
    <title>Shape</title>
    <desc>Created with Sketch.</desc>
    <defs></defs>
    <g id="-Загрузка-ДЗ-процесс-загрузки" stroke="none" stroke-width="1" fill="none" fill-rule="evenodd" transform="translate(-563.000000, -491.000000)">
        <g id="Модалочка-4-Copy-9" transform="translate(519.000000, 243.000000)" fill="#969DA6" fill-rule="nonzero" stroke="#969DA6" stroke-width="0.4">
            <g id="Шаги" transform="translate(30.000000, 0.000000)">
                <g id="Плашка-с-иконками">
                    <g id="2-шаг" transform="translate(0.000000, 235.000000)">
                        <g id="Иконка">
                            <g id="Проверяется" transform="translate(13.000000, 13.000000)">
                                <g id="edit" transform="translate(9.000000, 9.000000) rotate(-7.000000) translate(-9.000000, -9.000000) translate(1.000000, 1.000000)">
                                    <path d="M0.0169133192,12 L0,15.2911392 C0,15.4767932 0.067653277,15.6624473 0.202959831,15.7974684 C0.338266385,15.9324895 0.507399577,16 0.693446089,16 L3.97463002,15.9831224 C4.16067653,15.9831224 4.32980973,15.9156118 4.46511628,15.7805907 L15.7970402,4.47257384 C16.0676533,4.20253165 16.0676533,3.76371308 15.7970402,3.47679325 L12.5496829,0.202531646 C12.2790698,-0.0675105485 11.8393235,-0.0675105485 11.551797,0.202531646 L9.28541226,2.48101266 L0.21987315,11.5105485 C0.101479915,11.6455696 0.0169133192,11.814346 0.0169133192,12 Z M12.0591966,1.68776371 L14.3424947,3.96624473 L13.0570825,5.24894515 L10.7737844,2.97046414 L12.0591966,1.68776371 Z M1.42071882,12.3037975 L9.77589852,3.96624473 L12.0591966,6.24472574 L3.70401691,14.5654008 L1.4038055,14.5822785 L1.42071882,12.3037975 Z" id="Shape"></path>
                                </g>
                            </g>
                        </g>
                    </g>
                </g>
            </g>
        </g>
    </g>
</svg>