<?xml version="1.0" encoding="UTF-8"?>
<svg width="17px" height="17px" viewBox="0 0 17 17" version="1.1" xmlns="http://www.w3.org/2000/svg" xmlns:xlink="http://www.w3.org/1999/xlink">
    <!-- Generator: Sketch 48.1 (47250) - http://www.bohemiancoding.com/sketch -->
    <title>clock</title>
    <desc>Created with Sketch.</desc>
    <defs></defs>
    <g id="Дистанционный-курс-урок" stroke="none" stroke-width="1" fill="none" fill-rule="evenodd" transform="translate(-838.000000, -493.000000)">
        <g id="Урок" transform="translate(578.000000, 187.000000)" fill="#fff" fill-rule="nonzero">
            <g id="Шапка" transform="translate(149.000000, 304.000000)">
                <g id="Время" transform="translate(111.000000, 0.000000)">
                    <g id="clock" transform="translate(0.000000, 2.000000)">
                        <path d="M8.5,17 C13.1977547,17 17,13.1830743 17,8.5 C17,3.80224525 13.1830743,0 8.5,0 C3.81692573,0 0,3.80224525 0,8.5 C0,13.1830743 3.80224525,17 8.5,17 Z M8.5,1.18911917 C12.537133,1.18911917 15.8108808,4.46286701 15.8108808,8.5 C15.8108808,12.537133 12.537133,15.8108808 8.5,15.8108808 C4.46286701,15.8108808 1.18911917,12.5224525 1.18911917,8.5 C1.18911917,4.46286701 4.46286701,1.18911917 8.5,1.18911917 Z" id="Shape"></path>
                        <path d="M11.4036364,9 C11.7381818,9 12,8.75069252 12,8.43213296 C12,8.11357341 11.7381818,7.86426593 11.4036364,7.86426593 L9.19272727,7.86426593 L9.19272727,4.56786704 C9.19272727,4.24930748 8.93090909,4 8.59636364,4 C8.26181818,4 8,4.24930748 8,4.56786704 L8,8.43213296 C8,8.75069252 8.26181818,9 8.59636364,9 L11.4036364,9 Z" id="Shape"></path>
                    </g>
                </g>
            </g>
        </g>
    </g>
</svg>