<?xml version="1.0" encoding="UTF-8"?>
<svg width="66px" height="48px" viewBox="0 0 66 48" version="1.1" xmlns="http://www.w3.org/2000/svg" xmlns:xlink="http://www.w3.org/1999/xlink">
    <!-- Generator: Sketch 52.2 (67145) - http://www.bohemiancoding.com/sketch -->
    <title>Shape</title>
    <desc>Created with Sketch.</desc>
    <g id="Page-1" stroke="none" stroke-width="1" fill="none" fill-rule="evenodd">
        <g id="-Загрузка-ДЗ-открыли-модалку" transform="translate(-1154.000000, -516.000000)" fill="#D9DFE2" fill-rule="nonzero">
            <g id="Модалочка-4-Copy-6" transform="translate(519.000000, 285.000000)">
                <g id="Загрузка-работы" transform="translate(382.000000, 43.000000)">
                    <g id="cloud-storage-uploading-option" transform="translate(253.000000, 188.000000)">
                        <path d="M63.1285921,26.7778325 C61.2147216,24.4028717 58.768926,22.8635054 55.7891586,22.1587785 C56.7294787,20.7498022 57.1983144,19.18154 57.1983144,17.4543501 C57.1983144,15.0451201 56.3387823,12.9884924 54.6206814,11.2837505 C52.9022192,9.57960567 50.8283377,8.72717503 48.3990368,8.72717503 C46.2218525,8.72717503 44.3200219,9.43178256 42.6933041,10.8409976 C41.3418197,7.56811296 39.1811301,4.94323796 36.2137639,2.96625323 C33.2463976,0.988671473 29.9749022,0 26.3995184,0 C21.5415187,0 17.3933944,1.70498067 13.9558681,5.11410618 C10.518101,8.52239586 8.7997592,12.6364871 8.7997592,17.4547083 C8.7997592,17.7501157 8.82275551,18.2388394 8.86850732,18.9204018 C6.16445478,20.1704503 4.01050759,22.045344 2.40594336,24.5450828 C0.801981119,27.045538 0,29.7722653 0,32.7274138 C0,36.9321333 1.50704063,40.5280079 4.52027911,43.5165898 C7.53363798,46.506127 11.1603119,48 15.3998194,48 L52.8002408,48 C56.4434095,48 59.5541716,46.7210555 62.1326474,44.1647189 C64.7107621,41.6083822 66,38.5233212 66,34.9089389 C65.9996388,31.8635204 65.0425831,29.1535098 63.1285921,26.7778325 Z M43.6723929,25.8579382 C43.4541086,26.0733444 43.1969353,26.1811669 42.8994281,26.1811669 L35.1995184,26.1811669 L35.1995184,38.1815848 C35.1995184,38.476634 35.0907976,38.732399 34.8731153,38.9481634 C34.654831,39.1646442 34.3976577,39.2718697 34.1001505,39.2718697 L27.4991271,39.2718697 C27.2012587,39.2718697 26.9434834,39.1647637 26.7258011,38.9481634 C26.5086004,38.732399 26.3992776,38.476634 26.3992776,38.1815848 L26.3992776,26.1811669 L18.6992475,26.1811669 C18.378744,26.1811669 18.1149487,26.0790758 17.9090655,25.8751325 C17.7028212,25.6704727 17.5998796,25.4089763 17.5998796,25.0911208 C17.5998796,24.8181615 17.7142591,24.5452022 17.943259,24.2726011 L30.0088548,12.3070494 C30.2150992,12.1023896 30.4787741,12.0001791 30.7995184,12.0001791 C31.1205035,12.0001791 31.3841784,12.1023896 31.590182,12.3070494 L43.6902121,24.3066314 C43.8965768,24.5110524 43.9986756,24.7724294 43.9986756,25.0912402 C43.9985552,25.3860505 43.8898345,25.6426514 43.6723929,25.8579382 Z" id="Shape"></path>
                    </g>
                </g>
            </g>
        </g>
    </g>
</svg>