<?xml version="1.0" encoding="UTF-8"?>
<svg width="13px" height="10px" viewBox="0 0 13 10" version="1.1" xmlns="http://www.w3.org/2000/svg" xmlns:xlink="http://www.w3.org/1999/xlink">
    <!-- Generator: Sketch 51.3 (57544) - http://www.bohemiancoding.com/sketch -->
    <title>Shape</title>
    <desc>Created with Sketch.</desc>
    <defs></defs>
    <g id="Page-1" stroke="none" stroke-width="1" fill="none" fill-rule="evenodd">
        <g id="Artboard-Copy-30" transform="translate(-1470.000000, -813.000000)" fill="#FFA42E" fill-rule="nonzero">
            <g id="Заявка-Copy-2" transform="translate(1265.000000, 241.000000)">
                <g id="Group-2" transform="translate(131.000000, 536.000000)">
                    <g id="Group-3">
                        <path d="M74.1770601,40.5071348 L78.0456399,36.1972191 C78.2816717,35.9342603 78.6644677,35.9342603 78.9004994,36.1972191 C79.1365795,36.4602317 79.1365795,36.8865901 78.9004994,37.1496027 L76.0638148,40.3099023 L86.3955344,40.3099023 C86.7293445,40.3099023 87,40.6114347 87,40.9833266 C87,41.3551646 86.7293445,41.6567509 86.3955344,41.6567509 L76.0638148,41.6567509 L78.9004027,44.8170505 C79.1364828,45.0800631 79.1364828,45.5064215 78.9004027,45.7694341 C78.782411,45.9008327 78.6276678,45.9666667 78.4729729,45.9666667 C78.3182781,45.9666667 78.1635833,45.9008327 78.0455432,45.7694341 L74.1770601,41.4595184 C73.94098,41.1965058 73.94098,40.7701474 74.1770601,40.5071348 Z" id="Shape" transform="translate(80.500000, 40.983333) scale(-1, -1) translate(-80.500000, -40.983333) "></path>
                    </g>
                </g>
            </g>
        </g>
    </g>
</svg>