<?xml version="1.0" encoding="UTF-8"?>
<svg width="10px" height="10px" viewBox="0 0 10 10" version="1.1" xmlns="http://www.w3.org/2000/svg" xmlns:xlink="http://www.w3.org/1999/xlink">
    <!-- Generator: Sketch 48.1 (47250) - http://www.bohemiancoding.com/sketch -->
    <title>Shape</title>
    <desc>Created with Sketch.</desc>
    <defs></defs>
    <g id="-Загрузка-ДЗ-загрузили-файл" stroke="none" stroke-width="1" fill="none" fill-rule="evenodd" transform="translate(-1268.000000, -463.000000)">
        <g id="Модалочка-4-Copy-10" transform="translate(521.000000, 246.000000)" fill="#ABABAB" fill-rule="nonzero">
            <g id="Загрузка-работы" transform="translate(387.000000, 43.000000)">
                <g id="Загрузка" transform="translate(190.000000, 158.000000)">
                    <path d="M176.547779,21.0000521 L179.93884,17.608939 C180.020248,17.5275331 180.020248,17.3955743 179.93884,17.3141684 L178.686046,16.0610805 C178.646958,16.0219931 178.593798,16 178.538658,16 C178.483414,16 178.430358,16.0219931 178.39127,16.0610805 L175,19.4522978 L171.60873,16.0610805 C171.530554,15.9829058 171.39213,15.9829058 171.313954,16.0610805 L170.061055,17.3141684 C169.979648,17.3955743 169.979648,17.5275331 170.061055,17.608939 L173.452221,21.0000521 L170.061055,24.3911652 C169.979648,24.4725711 169.979648,24.60453 170.061055,24.6859359 L171.313954,25.9389195 C171.353042,25.9780069 171.406098,26 171.461342,26 C171.516586,26 171.569642,25.9780069 171.60873,25.9389195 L175,22.5477022 L178.39127,25.9389195 C178.430358,25.9780069 178.483414,26 178.538658,26 C178.593798,26 178.646958,25.9780069 178.686046,25.9389195 L179.938945,24.6859359 C180.020352,24.60453 180.020352,24.4724669 179.938945,24.3911652 L176.547779,21.0000521 Z" id="Shape"></path>
                </g>
            </g>
        </g>
    </g>
</svg>