<?xml version="1.0" encoding="UTF-8"?>
<svg width="20px" height="20px" viewBox="0 0 20 20" version="1.1" xmlns="http://www.w3.org/2000/svg" xmlns:xlink="http://www.w3.org/1999/xlink">
    <!-- Generator: Sketch 48.1 (47250) - http://www.bohemiancoding.com/sketch -->
    <title>Shape</title>
    <desc>Created with Sketch.</desc>
    <defs></defs>
    <g id="-Загрузка-ДЗ-процесс-загрузки" stroke="none" stroke-width="1" fill="none" fill-rule="evenodd" transform="translate(-563.000000, -365.000000)">
        <g id="Модалочка-4-Copy-9" transform="translate(519.000000, 243.000000)" fill="#ADCC2C" fill-rule="nonzero">
            <g id="Шаги" transform="translate(30.000000, 0.000000)">
                <g id="Плашка-с-иконками">
                    <g id="1" transform="translate(2.000000, 110.000000)">
                        <g id="Иконка">
                            <g id="down-arrow-inside-a-circle-(1)" transform="translate(12.000000, 12.000000)">
                                <path d="M12.1206364,9.55036455 L10.9997172,10.6711528 L10.9997172,6.50022847 C10.9997172,5.94836762 10.5516551,5.50037072 9.99985616,5.50037072 C9.44786614,5.50037072 8.99999515,5.94836762 8.99999515,6.50022847 L8.99999515,10.6711528 L7.87875747,9.55036455 C7.4881997,9.16006278 6.85527067,9.16006278 6.46496763,9.55036455 C6.07440985,9.94066632 6.07440985,10.5742301 6.46496763,10.9642135 L9.2929294,13.7922934 L9.29241995,13.7922934 C9.48792172,13.9877308 9.74347501,14.0852267 9.99979248,14.0852267 C10.1276646,14.0852267 10.2559189,14.0607731 10.3757035,14.012057 C10.4961887,13.9632773 10.6089684,13.8906171 10.7067192,13.7928665 L13.5342989,10.9647866 C13.9244746,10.5745485 13.9244746,9.94130313 13.5342989,9.55100136 C13.1445053,9.15948965 12.5108121,9.15948965 12.1206364,9.55036455 Z M14.9990339,1.34116372 C10.2168822,-1.41979625 4.10194345,0.21878344 1.34129288,5.00091946 C-1.41967611,9.78267339 0.218399482,15.8978469 5.00067847,18.6591253 C9.78232064,21.4195758 15.8977689,19.7811872 18.6588015,14.9995606 C21.4200889,10.2171699 19.780676,4.10225106 14.9990339,1.34116372 Z M16.9265412,13.9997029 C14.7175622,17.825348 9.82587869,19.1357787 6.0004758,16.9265522 C2.17520027,14.7178352 0.863810051,9.82648602 3.07259797,6.0007772 C5.28125853,2.17494103 10.1730058,0.864128222 13.9989181,3.07329102 C17.824321,5.28143493 19.1352655,10.173803 16.9265412,13.9997029 Z" id="Shape"></path>
                            </g>
                        </g>
                    </g>
                </g>
            </g>
        </g>
    </g>
</svg>