<?xml version="1.0" encoding="UTF-8"?>
<svg width="17px" height="20px" viewBox="0 0 17 20" version="1.1" xmlns="http://www.w3.org/2000/svg" xmlns:xlink="http://www.w3.org/1999/xlink">
    <!-- Generator: Sketch 48.1 (47250) - http://www.bohemiancoding.com/sketch -->
    <title>test (1)</title>
    <desc>Created with Sketch.</desc>
    <defs></defs>
    <g id="-Загрузка-ДЗ-процесс-загрузки" stroke="none" stroke-width="1" fill="none" fill-rule="evenodd" transform="translate(-563.000000, -663.000000)">
        <g id="Модалочка-4-Copy-9" transform="translate(519.000000, 243.000000)" fill="#EFA21E" fill-rule="nonzero" stroke="#EFA21E">
            <g id="Шаги" transform="translate(30.000000, 0.000000)">
                <g id="Плашка-с-иконками">
                    <g id="3" transform="translate(1.000000, 408.000000)">
                        <g id="Иконка" transform="translate(0.000000, -0.000000)">
                            <g id="test-(1)" transform="translate(14.000000, 13.000000)">
                                <path d="M6.6998256,9.61508302 L5.94327008,8.82959647 C5.72747052,8.60554464 5.3776216,8.60554464 5.16184967,8.82959647 C4.94605011,9.05361962 4.94605011,9.41684691 5.16184967,9.64089874 L6.3091154,10.8320364 C6.52474919,11.0559161 6.8747915,11.0560596 7.0905358,10.8320364 L9.83816069,7.97934114 C10.0539603,7.75531799 10.0539326,7.39209071 9.83816069,7.16803887 C9.62238876,6.94398704 9.27253984,6.94398704 9.05674028,7.16803887 L6.6998256,9.61508302 Z" id="Shape" stroke-width="0.2"></path>
                                <path d="M14.2105263,1.3359375 L9.78671053,1.3359375 L9.78671053,0.703125 C9.78671053,0.314789063 9.43326316,0 8.99723684,0 L5.99723684,0 C5.56121053,0 5.20776316,0.314789063 5.20776316,0.703125 L5.20776316,1.3359375 L0.789473684,1.3359375 C0.353447368,1.3359375 0,1.65072656 0,2.0390625 L0,17.296875 C0,17.6852109 0.353447368,18 0.789473684,18 L14.2105263,18 C14.6465526,18 15,17.6852109 15,17.296875 L15,2.0390625 C15,1.65072656 14.6465526,1.3359375 14.2105263,1.3359375 Z M7,1 L8,1 C8,1.34975 8,1.65025 8,2 L7,2 C7,1.65025 7,1.34975 7,1 Z M14,17 L2,17 L2,3 L5.6772,3 L5.6772,3.63959391 C5.6772,4.03209137 6.03536,4.35025381 6.4772,4.35025381 L9.5172,4.35025381 C9.95904,4.35025381 10.3172,4.03209137 10.3172,3.63959391 L10.3172,3 L14,3 L14,17 Z" id="Shape" stroke-width="0.3"></path>
                            </g>
                        </g>
                    </g>
                </g>
            </g>
        </g>
    </g>
</svg>