<?xml version="1.0" encoding="UTF-8"?>
<svg width="566px" height="359px" viewBox="0 0 566 359" version="1.1" xmlns="http://www.w3.org/2000/svg" xmlns:xlink="http://www.w3.org/1999/xlink">
    <!-- Generator: Sketch 52.2 (67145) - http://www.bohemiancoding.com/sketch -->
    <title>error</title>
    <desc>Created with Sketch.</desc>
    <defs>
        <path d="M179.384497,366.309572 L175.380591,366.309572 L175.380591,373.926759 L168.569068,373.926759 L168.569068,366.309572 L154.555396,366.309572 L154.555396,360.23047 L167.568091,338.746095 L175.380591,338.746095 L175.380591,360.865236 L179.384497,360.865236 L179.384497,366.309572 Z M168.569068,360.865236 L168.569068,345.582033 L159.706763,360.865236 L168.569068,360.865236 Z M189.711646,356.568361 C189.711646,360.637392 190.045301,363.750154 190.712622,365.90674 C191.379943,368.063326 192.747117,369.141603 194.814185,369.141603 C196.881252,369.141603 198.236219,368.063326 198.879126,365.90674 C199.522033,363.750154 199.843482,360.637392 199.843482,356.568361 C199.843482,352.304017 199.522033,349.146496 198.879126,347.095705 C198.236219,345.044913 196.881252,344.019533 194.814185,344.019533 C192.747117,344.019533 191.379943,345.044913 190.712622,347.095705 C190.045301,349.146496 189.711646,352.304017 189.711646,356.568361 Z M194.814185,338.282228 C199.322671,338.282228 202.48426,339.869126 204.299048,343.04297 C206.113836,346.216814 207.021216,350.725233 207.021216,356.568361 C207.021216,362.411489 206.113836,366.91177 204.299048,370.069338 C202.48426,373.226905 199.322671,374.805666 194.814185,374.805666 C190.305699,374.805666 187.144109,373.226905 185.329321,370.069338 C183.514534,366.91177 182.607153,362.411489 182.607153,356.568361 C182.607153,350.725233 183.514534,346.216814 185.329321,343.04297 C187.144109,339.869126 190.305699,338.282228 194.814185,338.282228 Z M234.999732,366.309572 L230.995825,366.309572 L230.995825,373.926759 L224.184302,373.926759 L224.184302,366.309572 L210.17063,366.309572 L210.17063,360.23047 L223.183325,338.746095 L230.995825,338.746095 L230.995825,360.865236 L234.999732,360.865236 L234.999732,366.309572 Z M224.184302,360.865236 L224.184302,345.582033 L215.321997,360.865236 L224.184302,360.865236 Z" id="path-1"></path>
    </defs>
    <g id="Page-1" stroke="none" stroke-width="1" fill="none" fill-rule="evenodd">
        <g id="Профиль-Copy" transform="translate(-1127.000000, -330.000000)">
            <g id="error" transform="translate(1067.000000, 154.000000)">
                <g id="Objects">
                    <polygon id="Path" fill="#414042" points="450.053232 477.357146 397.19982 467.389463 408.895928 482.984273 330.051166 478.864644 340.889559 495.759022 227.463305 485.050585 227.437314 485.050585 200.965123 482.555416 205.292683 471.288165 177.572908 468.68903 196.19571 460.891625 143.355294 439.227834 227.827184 434.900274 207.891818 422.775309 254.247392 429.273147 245.150419 413.236484 283.266735 416.277472 322.253761 401.540376 321.396046 414.536051 454.809649 417.135186 405.426083 443.997247 434.887279 450.923942 412.365773 458.721347"></polygon>
                    <polygon id="Path" fill="#474647" points="254.247392 429.273147 207.891818 422.775309 227.827184 434.900274 227.437314 485.050585 254.247392 487.584742"></polygon>
                    <polygon id="Path" fill="#515151" points="227.827184 434.900274 227.463305 485.050585 227.437314 485.050585 200.965123 482.555416 205.292683 471.288165 177.572908 468.68903 196.19571 460.891625 143.355294 439.227834"></polygon>
                    <polygon id="Path" fill="#686868" points="177.754847 468.598061 196.169719 460.891625 196.169719 470.430451"></polygon>
                    <polygon id="Path" fill="#686868" points="205.266692 471.288165 205.266692 482.958282 200.939132 482.54242"></polygon>
                    <polygon id="Path" fill="#686868" points="330.025175 478.864644 330.025175 494.732364 340.863568 495.759022"></polygon>
                    <polygon id="Path" fill="#686868" points="397.173829 467.389463 397.173829 482.256515 408.869937 482.984273"></polygon>
                    <polygon id="Path" fill="#686868" points="412.573704 458.747339 412.573704 470.287498 450.027241 477.34415"></polygon>
                    <polygon id="Path" fill="#565656" points="405.400091 443.997247 405.400091 468.935948 412.573704 470.287498 412.573704 458.747339 434.861287 450.923942"></polygon>
                    <path d="M553.576781,180.808831 C553.395293,179.540422 552.705653,178.400406 551.666417,177.650882 C550.864503,177.05991 549.894487,176.741126 548.898338,176.741184 L164.408288,176.741184 C161.893783,176.852722 159.915336,178.928659 159.92478,181.445619 L159.92478,244.864514 C159.928062,245.179102 159.962891,245.492568 160.028746,245.800203 C160.028746,245.800203 160.028746,245.904168 160.028746,245.969147 C160.080054,246.199555 160.149583,246.425524 160.236677,246.644922 C160.236677,246.748887 160.327646,246.839857 160.379629,246.930827 C160.457442,247.091517 160.544216,247.247711 160.639543,247.398671 C160.704521,247.502636 160.782495,247.606602 160.860469,247.710567 C160.938443,247.814533 160.964434,247.879511 161.029413,247.957485 L161.133378,248.06145 C161.271457,248.209538 161.419055,248.348454 161.575231,248.477312 L161.835145,248.685243 C162.017252,248.815517 162.20833,248.93277 162.406954,249.036126 L162.653872,249.166083 C162.901487,249.274653 163.158023,249.361614 163.420617,249.425996 L163.56357,249.425996 C163.900421,249.502772 164.24474,249.541998 164.590228,249.542957 L181.965446,249.542957 L181.965446,294.235085 L164.421284,294.235085 C161.90472,294.353378 159.928038,296.433191 159.937776,298.952515 L159.937776,315.846893 C159.937776,318.452258 162.049842,320.564323 164.655206,320.564323 L181.965446,320.564323 L181.965446,362.969212 L172.348646,362.969212 L172.348646,369.077179 L209.685221,369.077179 L209.685221,363.060181 L193.557588,363.060181 L193.557588,320.60331 L520.606753,320.60331 L520.606753,363.008199 L510.600083,363.008199 L510.600083,369.077179 L547.923663,369.077179 L547.923663,363.060181 L532.146913,363.060181 L532.146913,320.60331 L548.885343,320.60331 C551.492818,320.60332 553.608605,318.493345 553.615768,315.88588 L553.615768,298.991502 C553.619202,298.409511 553.513406,297.832043 553.303872,297.289069 C552.590966,295.47702 550.845563,294.282526 548.898338,294.274072 L532.146913,294.274072 L532.146913,249.607936 L548.885343,249.607936 C550.451678,249.601004 551.912428,248.817068 552.784045,247.515632 C552.923678,247.305282 553.045399,247.083576 553.147924,246.852853 L553.225898,246.722896 C553.474292,246.139354 553.602471,245.511718 553.602773,244.87751 L553.602773,181.458614 C553.60832,181.241685 553.599638,181.024624 553.576781,180.808831 Z M501.308175,294.300063 L193.557588,294.300063 L193.557588,249.607936 L520.606753,249.607936 L520.606753,294.300063 L501.308175,294.300063 Z" id="Shape" fill="#D1D3D4" fill-rule="nonzero" style="mix-blend-mode: multiply;"></path>
                    <rect id="Rectangle" fill="#5F5F5F" x="183.836823" y="178.560579" width="11.5401597" height="192.284012"></rect>
                    <rect id="Rectangle" fill="#474747" x="189.606903" y="178.560579" width="5.77007984" height="192.284012"></rect>
                    <rect id="Rectangle" fill="#5F5F5F" x="522.426148" y="178.560579" width="11.5401597" height="192.284012"></rect>
                    <rect id="Rectangle" fill="#474747" x="528.196228" y="178.560579" width="5.77007984" height="192.284012"></rect>
                    <path d="M555.435163,183.239022 L555.435163,246.657917 C555.435163,249.263282 553.323098,252.458681 550.717733,252.458681 L166.474601,251.375348 C163.869236,251.375348 161.757171,249.263282 161.757171,246.657917 L161.757171,183.239022 C161.747726,180.722062 163.726173,178.646126 166.240679,178.534587 L550.717733,178.534587 C551.713882,178.534529 552.683898,178.853313 553.485812,179.444285 C554.525048,180.193809 555.214687,181.333825 555.396176,182.602234 C555.422847,182.813438 555.43587,183.026142 555.435163,183.239022 Z" id="Path" fill="#FFD150"></path>
                    <path d="M452.444436,237.266737 C355.34075,241.308392 258.717904,237.942512 161.757171,239.424019 L161.757171,247.793234 C161.757171,250.398598 163.869236,252.510664 166.474601,252.510664 L550.717733,252.510664 C553.325208,252.510674 555.440995,250.400699 555.448159,247.793234 L555.448159,206.415003 C544.11593,214.966158 529.963639,220.710246 517.227878,225.154767 C496.229898,231.90523 474.462946,235.974798 452.444436,237.266737 Z" id="Path" fill="#D1D3D4" style="mix-blend-mode: multiply;"></path>
                    <path d="M199.717538,178.560579 L162.90079,249.789875 C162.154192,248.932507 161.743324,247.833781 161.744175,246.696905 L161.744175,216.884825 L181.549584,178.560579 L199.717538,178.560579 Z" id="Path" fill="#414042"></path>
                    <polygon id="Path" fill="#414042" points="239.471309 178.560579 201.809842 251.440326 183.654884 251.440326 221.316351 178.560579"></polygon>
                    <polygon id="Path" fill="#414042" points="279.22508 178.560579 241.563613 251.440326 223.408654 251.440326 261.057126 178.560579"></polygon>
                    <polygon id="Path" fill="#414042" points="318.978851 178.560579 281.317384 251.440326 263.162425 251.440326 300.810897 178.560579"></polygon>
                    <polygon id="Path" fill="#414042" points="358.732621 178.560579 321.071154 251.440326 302.916196 251.440326 340.564667 178.560579"></polygon>
                    <polygon id="Path" fill="#414042" points="398.486392 178.560579 360.824925 251.440326 342.669967 251.440326 380.318438 178.560579"></polygon>
                    <polygon id="Path" fill="#414042" points="438.240163 178.560579 400.578696 251.440326 382.423738 251.440326 420.072209 178.560579"></polygon>
                    <polygon id="Path" fill="#414042" points="477.993934 178.560579 440.332467 251.440326 422.164513 251.440326 459.82598 178.560579"></polygon>
                    <polygon id="Path" fill="#414042" points="517.747705 178.560579 480.086238 251.440326 461.918283 251.440326 499.57975 178.560579"></polygon>
                    <path d="M555.396176,183.711559 L519.853004,252.510664 L501.659059,252.510664 L539.346517,178.560579 L550.730729,178.560579 C551.726878,178.56052 552.696894,178.879305 553.498807,179.470276 C554.533148,180.222246 555.217889,182.445251 555.396176,183.711559 Z" id="Path" fill="#414042"></path>
                    <path d="M555.435163,224.318352 L555.435163,246.7099 C555.435163,249.315265 553.323098,252.510664 550.717733,252.510664 L541.438821,252.510664 L555.435163,224.318352 Z" id="Path" fill="#414042"></path>
                    <path d="M555.435163,301.920221 L555.435163,318.814599 C555.428,321.422065 553.312213,323.532039 550.704737,323.532029 C536.879226,323.532029 526.510092,323.532029 519.597337,323.532029 C441.125618,323.532029 323.418039,323.532029 166.474601,323.532029 C163.869236,323.532029 161.757171,321.419964 161.757171,318.814599 L161.757171,301.920221 C161.754397,299.405921 163.729151,297.33386 166.240679,297.215787 L550.717733,297.215787 C551.971123,297.212334 553.174361,297.707823 554.061864,298.592887 C554.949366,299.477951 555.448163,300.679822 555.448159,301.933217 L555.435163,301.920221 Z" id="Path" fill="#FFD150"></path>
                    <path d="M181.86148,296.119458 L168.268004,322.422705 L166.474601,322.422705 C163.869236,322.422705 161.757171,320.310639 161.757171,317.705274 L161.757171,310.050822 L168.96977,296.119458 L181.86148,296.119458 Z" id="Path" fill="#414042"></path>
                    <polygon id="Path" fill="#414042" points="208.645567 296.119458 195.039095 322.4357 182.13439 322.4357 195.727866 296.119458"></polygon>
                    <polygon id="Path" fill="#414042" points="235.403663 296.119458 221.810186 322.4357 208.905481 322.4357 222.498957 296.119458"></polygon>
                    <polygon id="Path" fill="#414042" points="262.18775 296.119458 248.581277 322.4357 235.676572 322.4357 249.270048 296.119458"></polygon>
                    <polygon id="Path" fill="#414042" points="288.958841 296.119458 275.352369 322.4357 262.447663 322.4357 276.041139 296.119458"></polygon>
                    <polygon id="Path" fill="#414042" points="315.729932 296.119458 302.136455 322.4357 289.23175 322.4357 302.825226 296.119458"></polygon>
                    <polygon id="Path" fill="#414042" points="342.501023 296.119458 328.907547 322.4357 316.002841 322.4357 329.596317 296.119458"></polygon>
                    <polygon id="Path" fill="#414042" points="369.272114 296.119458 355.678638 322.4357 342.773932 322.4357 356.367409 296.119458"></polygon>
                    <polygon id="Path" fill="#414042" points="396.043205 296.119458 382.449729 322.4357 369.532028 322.4357 383.125504 296.119458"></polygon>
                    <polygon id="Path" fill="#414042" points="422.814296 296.119458 409.22082 322.4357 396.316114 322.4357 409.909591 296.119458"></polygon>
                    <polygon id="Path" fill="#414042" points="449.585388 296.119458 435.991911 322.4357 423.087206 322.4357 436.680682 296.119458"></polygon>
                    <polygon id="Path" fill="#414042" points="476.356479 296.119458 462.763002 322.4357 449.858297 322.4357 463.451773 296.119458"></polygon>
                    <polygon id="Path" fill="#414042" points="489.534093 323.519034 476.629388 323.519034 490.222864 296.119458 503.12757 296.119458"></polygon>
                    <polygon id="Path" fill="#414042" points="516.305185 324.602367 503.400479 324.602367 516.993955 297.202791 529.911657 297.202791"></polygon>
                    <path d="M544.172605,323.506038 L531.167213,323.537543 L543.778042,296.119458 L550.717733,296.119458 C552.664957,296.127912 554.41036,297.322406 555.123267,299.134454 L544.172605,323.506038 Z" id="Path" fill="#414042"></path>
                    <rect id="Rectangle" fill="#474747" x="174.220023" y="364.840589" width="37.3365752" height="6.01699767"></rect>
                    <rect id="Rectangle" fill="#474747" x="512.419478" y="365.923922" width="37.3365752" height="6.01699767"></rect>
                    <path d="M157.039741,377.732299 L149.034405,377.732299 L145.252663,362.85225 L144.277987,359.044518 L143.953095,357.74495 L143.043398,354.184135 L140.509242,344.229448 L138.728834,337.25077 L137.793145,333.547003 L136.610539,328.907547 L135.726833,325.450697 L133.75149,317.653292 L132.867784,314.157455 L127.786475,294.118124 C127.191919,292.109485 125.383191,290.703277 123.289972,290.622287 L109.280634,290.622287 C107.192274,290.708724 105.39014,292.113865 104.797126,294.118124 L99.7158167,314.157455 L97.9484049,321.149128 L97.1556687,324.255095 L96.6488373,326.28242 L96.2719627,327.750931 L95.9080838,329.180456 L94.8034514,333.521011 L93.8677628,337.224779 L92.100351,344.216452 L90.9957186,348.479034 L88.6694927,357.666976 L88.2406354,359.343418 L87.3569295,362.839255 L83.5881836,377.719303 L75.6218347,377.719303 C73.6366789,377.726431 72.0291607,379.333949 72.0220326,381.319105 L72.0220326,386.842267 C72.0079648,387.023935 72.0079648,387.206418 72.0220326,387.388085 C72.0534408,387.582386 72.1012628,387.773674 72.164985,387.959895 L72.164985,388.024874 C72.2259037,388.194887 72.2997621,388.359983 72.3859115,388.518709 L72.3859115,388.63567 C72.4674842,388.77609 72.5586715,388.9107 72.6588207,389.038536 L72.7757818,389.194484 C72.8686339,389.304743 72.9684729,389.408923 73.0746823,389.506381 L73.2826131,389.675324 L73.5815136,389.896251 L73.8804142,390.052199 L74.166319,390.195151 L74.569185,390.325108 L74.8031071,390.390086 C75.0301126,390.433572 75.260745,390.45533 75.4918779,390.455065 L156.922779,390.455065 C158.907935,390.447937 160.515453,388.840419 160.522582,386.855263 L160.522582,381.332101 C160.516857,379.391516 158.979078,377.802096 157.039741,377.732299 Z" id="Path" fill="#D1D3D4" style="mix-blend-mode: multiply;"></path>
                    <path d="M150.697851,379.473719 C150.970647,380.316911 150.808485,381.240461 150.264757,381.940282 C149.72103,382.640104 148.86621,383.025493 147.981755,382.969556 L87.9287392,382.969556 C87.0442841,383.025493 86.1894642,382.640104 85.6457367,381.940282 C85.1020092,381.240461 84.9398468,380.316911 85.212643,379.473719 L89.0073802,364.47671 L90.099017,360.14915 L91.2036494,355.82159 L93.7248104,345.866903 L95.4922222,338.87523 L96.4279108,335.171462 L97.5975216,330.532006 L98.7671324,325.905546 L99.5598686,322.799579 L101.392259,315.79491 L106.473568,295.755579 C107.066583,293.75132 108.868716,292.346179 110.957076,292.259742 L124.992405,292.259742 C127.085625,292.340732 128.894353,293.74694 129.488909,295.755579 L134.518235,315.79491 L136.285647,322.786583 L137.078383,325.89255 L138.26099,330.51901 L139.443596,335.158466 L140.379285,338.862234 L142.146697,345.853907 L144.667858,355.808594 L145.77249,360.136154 L146.877122,364.463714 L150.697851,379.473719 Z" id="Path" fill="#FF6B03"></path>
                    <polygon id="Path" fill="#FFFFFF" points="145.993417 360.980873 89.8910862 360.980873 90.3199434 359.304431 94.621512 342.371066 141.262991 342.371066 145.577555 359.304431"></polygon>
                    <polygon id="Path" fill="#FFFFFF" points="138.55989 331.688621 97.3246124 331.688621 97.8964222 329.401382 100.45657 319.303743 135.414937 319.303743 137.975085 329.401382"></polygon>
                    <path d="M150.697851,379.473719 L146.877122,364.463714 L145.77249,360.136154 L144.667858,355.808594 L142.146697,345.853907 L140.379285,338.87523 L139.443596,335.171462 L138.26099,330.532006 L137.078383,325.905546 L136.285647,322.799579 L134.518235,315.79491 L129.42393,295.755579 C128.829374,293.74694 127.020646,292.340732 124.927427,292.259742 L123.874777,292.259742 C132.685845,291.363041 133.244659,349.596662 110.450245,367.569681 C103.185662,373.378748 94.6085163,375.938896 85.8364355,376.991545 L85.212643,379.473719 C84.9398468,380.316911 85.1020092,381.240461 85.6457367,381.940282 C86.1894642,382.640104 87.0442841,383.025493 87.9287392,382.969556 L147.981755,382.969556 C148.86621,383.025493 149.72103,382.640104 150.264757,381.940282 C150.808485,381.240461 150.970647,380.316911 150.697851,379.473719 Z" id="Path" fill="#D1D3D4" style="mix-blend-mode: multiply;"></path>
                    <path d="M126.084042,294.533985 C126.084042,293.816254 125.502206,293.234418 124.784474,293.234418 L111.100028,293.234418 C110.382297,293.234418 109.800461,293.816254 109.800461,294.533985 C109.800461,295.251717 110.382297,295.833553 111.100028,295.833553 L124.784474,295.833553 C125.502206,295.833553 126.084042,295.251717 126.084042,294.533985 Z" id="Path" fill="#D1D3D4" style="mix-blend-mode: multiply;"></path>
                    <rect id="Rectangle" fill="#FF6B03" x="73.6334963" y="380.440091" width="88.6305057" height="12.7357618" rx="2.77"></rect>
                    <path d="M158.6642,379.356758 L158.57323,379.356758 C159.391958,382.514707 158.677196,384.918907 156.584892,386.32244 C149.385288,391.13084 101.236311,389.480389 73.7114704,389.038536 C73.9854364,390.788647 75.4878962,392.081974 77.2592898,392.09252 L158.690191,392.09252 C160.675347,392.085392 162.282865,390.477874 162.289993,388.492718 L162.289993,382.969556 C162.29,382.009126 161.907583,381.088222 161.227239,380.410316 C160.546895,379.732411 159.624623,379.353303 158.6642,379.356758 Z" id="Path" fill="#D1D3D4" style="mix-blend-mode: multiply;"></path>
                    <path d="M555.721068,184.616564 C555.539579,183.348155 554.84994,182.208139 553.810704,181.458614 C553.656622,181.349339 553.496047,181.249521 553.329864,181.159714 C552.505948,179.66199 550.93262,178.730938 549.22323,178.729523 L164.746176,178.729523 C162.231671,178.841061 160.253223,180.916997 160.262668,183.433957 L160.262668,246.917831 C160.266036,247.232414 160.300865,247.54587 160.366633,247.85352 C160.366633,247.85352 160.366633,247.970481 160.366633,248.022463 C160.417941,248.252872 160.48747,248.478841 160.574564,248.698239 C160.574564,248.802204 160.665534,248.893174 160.717517,248.984143 C160.79533,249.144833 160.882104,249.301027 160.97743,249.451988 C161.042409,249.555953 161.120383,249.659918 161.198357,249.763884 C161.276331,249.867849 161.302322,249.932828 161.3673,250.010802 L161.471266,250.114767 C161.609344,250.262855 161.756942,250.401771 161.913119,250.530629 L162.173032,250.73856 C162.318872,250.838828 162.470779,250.929972 162.627881,251.011469 L162.783829,251.271382 C162.848807,251.375348 162.926781,251.479313 163.004755,251.583278 C163.08273,251.687244 163.108721,251.752222 163.186695,251.830196 L163.29066,251.934162 C163.433024,252.082575 163.584966,252.221494 163.745509,252.350023 L164.005422,252.557954 C164.187432,252.688374 164.378522,252.805633 164.577232,252.908837 L164.82415,253.038794 C165.075935,253.148139 165.336855,253.235113 165.603891,253.298708 L165.746843,253.298708 C166.083747,253.37517 166.428032,253.414392 166.773501,253.415669 L182.368312,253.415669 L182.368312,296.301397 L164.746176,296.301397 C162.229612,296.41969 160.25293,298.499504 160.262668,301.018827 L160.262668,317.913205 C160.26687,319.62183 161.197147,321.193849 162.692859,322.019839 C163.515446,323.52057 165.08812,324.456212 166.799493,324.463026 L182.394303,324.463026 L182.394303,365.04852 L172.777503,365.04852 L172.777503,371.065517 L174.596898,371.065517 L174.596898,372.884912 L211.855499,372.884912 L211.855499,366.867914 L210.036104,366.867914 L210.036104,365.04852 L195.740862,365.04852 L195.740862,324.411043 L520.931645,324.411043 L520.931645,364.996537 L510.924975,364.996537 L510.924975,371.013535 L512.74437,371.013535 L512.74437,372.832929 L550.080945,372.832929 L550.080945,366.815931 L548.26155,366.815931 L548.26155,364.996537 L534.304195,364.996537 L534.304195,324.411043 L551.042625,324.411043 C553.6501,324.411053 555.765887,322.301078 555.773051,319.693613 L555.773051,302.799235 C555.776484,302.217244 555.670688,301.639776 555.461154,301.096801 C555.133398,300.253417 554.569376,299.522445 553.836695,298.991502 C553.686871,298.882593 553.530642,298.78278 553.368851,298.692601 C552.519819,297.205747 550.935392,296.291846 549.22323,296.301397 L534.304195,296.301397 L534.304195,253.415669 L551.042625,253.415669 C552.83024,253.470444 554.475568,252.445317 555.214237,250.816534 C555.214237,250.699573 555.344193,250.595607 555.396176,250.478646 C555.64457,249.895105 555.772749,249.267468 555.773051,248.63326 L555.773051,185.214365 C555.767857,185.014228 555.750497,184.814593 555.721068,184.616564 Z M195.71487,296.301397 L195.71487,253.415669 L520.931645,253.415669 L520.931645,296.301397 L195.71487,296.301397 Z" id="Shape" stroke="#000000" stroke-width="3" style="mix-blend-mode: multiply;"></path>
                    <path d="M160.58756,381.734967 C159.986202,380.509086 158.743039,379.728963 157.377628,379.720637 L150.58089,379.720637 L147.21501,366.478044 L146.188352,362.423393 L145.902447,361.305765 L145.902447,361.2018 L145.044732,357.822924 L142.523571,347.868237 L140.756159,340.889559 L139.820471,337.185792 L138.637864,332.546336 L137.455258,327.919875 L137.377284,327.620975 L135.778816,321.318072 L134.89511,317.822236 L129.800805,297.782904 C129.46258,296.614744 128.690887,295.619911 127.643523,295.00183 C126.78989,293.600697 125.293105,292.718227 123.653851,292.649612 L109.618521,292.649612 C107.530161,292.736049 105.728028,294.141191 105.135013,296.145449 L100.092691,316.171785 L98.3252794,323.163458 L97.4935562,326.269424 L96.9867249,328.29675 L96.6098503,329.765261 L96.2459714,331.194785 L95.141339,335.535341 L94.2056504,339.187126 L92.4382385,346.178799 L91.3595975,350.428385 L89.0333716,359.616327 L88.6045143,361.279774 L87.7208084,364.77561 L83.9520625,379.655659 L75.9467265,379.655659 C74.9725212,379.658759 74.0408574,380.05517 73.3630854,380.754963 C72.6853135,381.454757 72.3188847,382.398615 72.3469245,383.372422 L72.3469245,388.895584 C72.3328567,389.077251 72.3328567,389.259735 72.3469245,389.441402 C72.3783326,389.635702 72.4261547,389.82699 72.4898769,390.013212 L72.4898769,390.07819 C72.5508427,390.248185 72.6246996,390.413277 72.7108034,390.572026 L72.7108034,390.688987 C72.7923761,390.829407 72.8835634,390.964017 72.9837126,391.091853 L73.1006737,391.247801 C73.1935257,391.35806 73.2933648,391.462239 73.3995742,391.559697 L73.607505,391.728641 L73.9064055,391.949568 L74.2053061,392.105516 L74.2053061,392.209481 L74.2053061,392.326442 C74.2870513,392.466754 74.3782308,392.601352 74.4782152,392.729308 L74.5951763,392.87226 C74.6884993,392.982095 74.7883112,393.086246 74.8940768,393.184157 L75.089012,393.340105 L75.4009082,393.561031 L75.686813,393.716979 L75.9727179,393.859932 L76.3755838,393.989889 L76.6225017,394.054867 C76.8494386,394.098831 77.0801173,394.120594 77.3112725,394.119845 L158.742174,394.119845 C160.72733,394.112717 162.334848,392.505199 162.341976,390.520043 L162.341976,384.996881 C162.404287,383.66905 161.72977,382.414948 160.58756,381.734967 Z" id="Path" stroke="#000000" stroke-width="3" style="mix-blend-mode: multiply;"></path>
                    <polygon id="Shape" stroke="#000000" stroke-width="3" points="446.45343 475.238851 413.431419 458.838308 434.224499 451.547735 435.78398 451.014912 406.322784 444.088217 455.706351 417.226156 322.318739 414.562043 323.176454 401.566367 284.189428 416.303463 246.021129 413.262475 255.118102 429.299138 208.762528 422.801301 228.749877 434.991244 144.277987 439.253826 197.118403 460.917616 197.118403 460.917616 178.690536 468.637048 178.690536 468.637048 178.4956 468.715022 206.189385 471.314157 201.861825 482.581407 201.861825 482.581407 228.32102 485.076577 228.32102 485.076577 255.144093 487.610734 255.144093 487.610734 330.921876 494.771351 330.921876 494.771351 341.747274 495.798009 341.747274 495.798009 330.908881 478.903631 409.753643 483.02326 398.057535 467.42845 411.326119 469.936615 413.431419 470.339481 446.180521 476.512427 450.910946 477.409128"></polygon>
                    <polygon id="Path" points="250.751555 192.764852 204.395981 186.267014 85.0566949 226.553608 143.329303 439.227834 196.169719 460.891625 177.546916 468.68903 205.266692 471.288165 200.939132 482.54242 340.863568 495.759022 330.025175 478.864644 408.869937 482.984273 397.173829 467.389463 450.027241 477.34415 412.339782 458.721347 434.861287 450.923942 405.400091 443.997247 454.783658 417.135186 317.90021 178.040752 300.460013 189.308002 279.770898 179.769177 241.654583 176.741184"></polygon>
                    <g id="Group">
                        <path d="M381.020205,288.1791 C381.020205,288.1791 413.665341,304.709599 407.466404,360.954882" id="Path" stroke="#000001" stroke-width="4.01"></path>
                        <path d="M363.969879,505.284852 C366.391026,504.774776 368.679276,503.765644 370.688643,502.321838 C371.533362,502.412808 372.274115,502.763691 373.053856,502.321838 C373.833596,501.879985 373.859587,500.944296 374.717302,499.930634 C375.379769,499.176573 376.246377,498.630429 377.212472,498.358157 C378.044195,496.343827 373.170817,490.911635 373.937562,488.936292 C375.237129,485.596404 374.743293,480.956948 375.821934,480.125225 C381.137166,476.096565 384.347097,470.469438 385.074855,467.233515 C388.973558,449.702349 375.237129,436.121868 348.362073,433.600707 C348.362073,435.978916 358.381738,478.630722 356.159478,480.723026 C355.574672,481.268844 356.289434,491.730363 358.758613,497.617404 C359.707297,503.491449 363.554017,505.336835 363.969879,505.284852 Z" id="Path" fill="#94948E"></path>
                        <path d="M357.121158,435.186179 C356.653313,435.57605 353.820256,438.305141 350.935216,440.527402 C350.647343,438.343104 350.508401,436.141753 350.519355,433.938594 L357.108162,435.238162 L354.431053,434.900274" id="Path" fill="#5E5E5E"></path>
                        <path d="M316.769586,275.586291 C316.769586,275.586291 297.367043,262.512641 315.171118,251.102438 C314.937196,252.025131 317.575318,258.574952 318.58898,261.382018 C321.019172,253.584612 327.893884,252.116101 328.660629,252.609937 C328.660629,252.609937 324.346065,264.137101 328.101815,265.722573 C328.101815,265.722573 328.751598,261.693914 333.910882,260.758225 C333.910882,260.758225 329.674291,257.652259 337.185792,259.458658 C337.185792,259.458658 328.68662,268.373691 330.557997,273.078125 C330.690107,273.408601 330.874389,273.715737 331.103816,273.987823 C326.421054,275.172179 321.598215,275.709993 316.769586,275.586291 Z" id="Path" fill="#94948E"></path>
                        <path d="M373.001873,290.180434 C373.001873,290.180434 375.601008,238.730556 428.480411,228.022119 C428.480411,228.022119 423.360115,230.829185 422.5024,234.325022 C441.464231,227.409061 462.678314,231.18861 478.084904,244.227726 C478.084904,244.227726 466.960605,240.887838 464.93328,242.122427 C464.93328,242.122427 500.307508,265.254729 490.001938,307.789574 C490.001938,307.789574 490.001938,321.110141 487.402803,317.198443 C487.402803,317.198443 486.908967,329.180456 477.201198,335.769263 C477.201198,335.769263 461.008586,374.57435 395.328443,358.836587 C344.697292,347.16647 373.001873,290.180434 373.001873,290.180434 Z" id="Path" fill="#94948E"></path>
                        <path d="M373.001873,290.713257 C373.001873,290.713257 375.601008,239.263378 428.480411,228.554942 C428.480411,228.554942 423.360115,231.362008 422.5024,234.857844 C441.464231,227.941883 462.678314,231.721432 478.084904,244.760549 C478.084904,244.760549 466.960605,241.42066 464.93328,242.65525 C464.93328,242.65525 508.494784,273.84487 486.584075,316.36672 C486.584075,316.36672 485.986274,331.66263 476.278505,338.251437 C476.278505,338.251437 461.021582,375.120168 395.380426,359.382405 C344.697292,347.686297 373.001873,290.713257 373.001873,290.713257 Z" id="Path" fill="#5E5E5D" opacity="0.4"></path>
                        <path d="M257.847194,291.103127 C257.847194,291.103127 272.597285,244.448653 235.884503,224.825183 C235.884503,224.825183 238.886504,228.723886 238.379672,231.647913 C238.379672,231.647913 213.752868,209.95813 192.374982,220.783528 C192.374982,220.783528 202.043764,221.914152 203.187384,223.538611 C203.187384,223.538611 161.380296,232.128752 158.443273,270.946835 C158.443273,270.946835 158.443273,299.05648 168.073069,304.73559 C168.073069,304.73559 180.41896,328.517676 223.278698,336.406051 C266.138435,344.294426 257.847194,291.103127 257.847194,291.103127 Z" id="Path" fill="#94948E"></path>
                        <path d="M252.674915,282.811886 C252.674915,282.811886 248.555286,247.723563 218.275363,238.62659 L221.368333,247.424662 C214.038772,247.242723 208.840502,247.944489 199.275685,255.442994 C188.736193,263.695248 183.901801,272.779225 182.550251,280.043807 C180.808831,287.542312 181.250684,319.719604 218.691224,332.195452 C256.131765,344.671301 252.674915,282.811886 252.674915,282.811886 Z" id="Path" fill="#E6D4DD"></path>
                        <path d="M249.750888,290.635283 C249.750888,290.635283 249.516966,256.703575 216.20905,258.782883 L219.172064,266.72324 C216.389852,266.865964 213.656098,267.508682 211.10175,268.620609 C197.716204,274.50765 194.987112,291.505993 194.675216,293.650279 C194.675216,293.650279 192.271016,319.64163 222.096091,325.931537 C226.236668,326.78918 230.540578,326.358335 234.428987,324.696948 C244.0068,320.044496 254.741228,310.739592 249.750888,290.635283 Z" id="Path" fill="#FFFFFF"></path>
                        <path d="M246.13809,293.195431 C245.995138,292.259742 249.010135,273.857866 227.580266,270.933839 C227.580266,270.933839 229.139747,273.753901 230.829185,277.028811 C224.465626,277.099772 218.537344,280.272519 214.94847,285.527982 C210.984789,291.15511 210.776858,311.350389 230.647246,312.195108 C234.597931,314.079481 246.13809,293.195431 246.13809,293.195431 Z" id="Path" fill="#5E5E5E"></path>
                        <path d="M385.373756,302.799235 C385.373756,302.799235 389.493385,267.710912 419.773308,258.613939 L416.680338,267.412011 C424.009899,267.230072 429.208169,267.931838 438.772986,275.430343 C449.312478,283.682596 454.14687,292.766574 455.49842,300.031156 C457.23984,307.529661 456.797987,339.706953 419.357447,352.182801 C381.916906,364.658649 385.373756,302.799235 385.373756,302.799235 Z" id="Path" fill="#E6D4DD"></path>
                        <path d="M388.297783,310.68761 C388.297783,310.68761 388.596683,276.807884 421.839621,278.822214 L418.876607,286.762572 C421.658819,286.905296 424.392573,287.548014 426.946921,288.65994 C440.332467,294.546981 443.061559,311.545324 443.373455,313.689611 C443.373455,313.689611 445.777655,339.680961 415.95258,345.970868 C411.812003,346.828511 407.508093,346.397666 403.619684,344.736279 C394.041871,340.096823 383.398413,330.791919 388.297783,310.68761 Z" id="Path" fill="#FFFFFF"></path>
                        <path d="M391.910581,313.195775 C392.053533,312.260086 389.038536,293.85821 410.468405,290.934183 C410.468405,290.934183 408.908924,293.754245 407.219486,297.029155 C413.583045,297.100117 419.511327,300.272863 423.100201,305.528327 C427.063882,311.155454 427.271813,331.350734 407.401425,332.195452 C403.45074,334.131808 391.910581,313.195775 391.910581,313.195775 Z" id="Path" fill="#5E5E5E"></path>
                        <path d="M215.078426,369.817932 C215.078426,369.817932 209.126407,418.74665 276.457001,425.127527 C355.106828,432.574049 373.924566,434.497409 390.416078,415.003896 C399.513051,404.308455 429.156186,317.302409 377.225467,286.619619 C364.931559,280.589626 345.72395,275.963165 332.416379,273.961831 C325.32074,272.896186 324.216108,273.961831 317.14646,273.026143 C280.680595,268.516643 254.429331,276.353036 248.932161,282.201089 C240.277041,291.389032 216.637908,346.880566 215.078426,369.817932 Z" id="Path" fill="#94948E"></path>
                        <path d="M262.798546,420.449083 C341.201455,430.182844 374.197475,432.950923 390.701983,413.45741 C399.798955,402.761969 437.642362,296.782237 355.886569,278.978162 C355.886569,278.978162 408.947911,310.583644 387.076189,380.500378 C368.115499,436.329799 262.798546,420.449083 262.798546,420.449083 Z" id="Path" fill="#5E5E5E" opacity="0.4"></path>
                        <path d="M223.863503,398.967232 C227.541279,409.246811 235.650581,419.500399 286.16477,425.920263 C324.865892,430.845624 356.081504,431.014568 370.714634,420.410096 C388.076856,407.830283 388.479722,364.398736 361.305765,351.753944 C334.131808,339.109152 275.417347,327.698949 239.575274,354.911893 C225.539945,365.555351 219.133077,385.724639 223.863503,398.967232 Z" id="Path" fill="#DDD8CD"></path>
                        <path d="M268.698583,337.120813 C267.139102,343.514686 259.536632,345.983864 251.388343,343.98253 C243.240055,341.981196 239.003465,338.056502 240.991803,329.908214 C242.980141,321.759925 250.907503,314.040494 259.055792,316.028832 C267.20408,318.017171 270.686921,328.972525 268.698583,337.120813 Z" id="Path" fill="#FFFFFF"></path>
                        <path d="M267.983821,334.079825 C266.346366,340.759602 260.901178,341.136477 258.224069,340.473698 C254.325366,339.369065 251.934162,335.431376 253.116768,329.765261 C253.909504,325.463693 258.626934,323.436367 262.09678,324.151129 C264.773889,324.813909 269.153431,329.297417 267.983821,334.079825 Z" id="Path" fill="#191A18"></path>
                        <path d="M343.540677,391.013879 C339.576996,407.232482 316.249759,408.713989 294.676938,403.45074 C273.104117,398.187492 241.849518,398.564366 253.53263,365.321429 C257.600276,353.729286 279.978829,343.384729 301.850551,346.919553 C330.778924,351.585 347.504358,374.860254 343.540677,391.013879 Z" id="Path" fill="#191A18"></path>
                        <path d="M371.455388,350.545346 C369.428062,357.783937 360.668977,360.318094 351.442048,357.731954 C342.215118,355.145815 337.536675,350.506359 340.109819,341.279429 C342.682962,332.0525 352.754611,324.385052 361.98154,326.984187 C371.20847,329.583322 374.028531,341.331412 371.455388,350.545346 Z" id="Path" fill="#FFFFFF"></path>
                        <path d="M366.69897,347.049509 C364.671645,355.470707 358.056846,354.548014 354.85991,353.651312 C351.662974,352.754611 347.621319,347.751276 349.544679,340.967533 C350.844247,336.250103 356.978205,334.469696 360.188137,335.32741 C362.609105,336.013637 364.656955,337.636052 365.878793,339.835849 C367.100632,342.035646 367.395782,344.631566 366.69897,347.049509 Z" id="Path" fill="#191A18"></path>
                        <path d="M278.549305,423.308132 C276.236075,430.637693 257.353358,473.848313 274.442671,503.972289 C279.378455,512.737711 286.004194,520.436819 293.936184,526.623751 C293.936184,526.623751 288.65994,525.882997 288.672936,528.261206 C288.672936,530.275536 288.672936,531.120254 288.672936,531.120254 L309.375047,530.496462 L309.621964,518.046605 C309.621964,518.046605 313.832563,522.647074 322.61764,517.149904 L323.696281,532.510792 L339.291091,530.496462 C340.850572,530.496462 343.761603,530.899328 343.761603,529.742713 C343.761603,528.586098 340.681628,524.544443 338.082493,524.635413 C338.082493,524.635413 336.211116,523.738711 356.00353,501.451128 L358.693634,500.15156 C360.357081,498.696045 362.592337,483.387139 362.007532,476.408461 C361.422726,469.429784 350.012523,433.418767 348.089163,428.090541 C346.4777,430.858619 278.549305,423.308132 278.549305,423.308132 Z" id="Path" fill="#94948E"></path>
                        <path d="M347.322418,430.351788 C347.881233,431.651356 349.778601,436.953591 349.778601,436.953591 C349.778601,436.953591 342.799923,430.741658 340.265767,430.039892 C337.73161,429.338125 347.322418,430.351788 347.322418,430.351788 Z" id="Path" fill="#5E5E5D"></path>
                        <path d="M272.246402,496.889646 C272.246402,496.889646 278.913184,511.743703 308.28341,518.42348 C319.34273,519.645073 316.548659,518.046605 322.578653,517.123912 C328.608646,516.201219 344.359405,516.565098 357.381071,500.736366 C360.733955,493.094909 362.007532,471.327152 354.262109,451.001916 C353.888864,448.039049 353.128632,445.137933 352.000862,442.372788 C352.000862,442.372788 352.728619,447.32414 351.182134,465.32315 C347.751276,493.471783 318.342063,505.375822 272.246402,496.889646 Z" id="Path" fill="#5E5E5E" opacity="0.4"></path>
                        <circle id="Oval" fill="#FFFFFF" cx="262.083784" cy="328.829573" r="2.71609614"></circle>
                        <circle id="Oval" fill="#FFFFFF" cx="358.511695" cy="340.733611" r="2.71609614"></circle>
                        <g transform="translate(0.025991, 0.000000)"></g>
                        <path d="M240.445985,236.521291 C240.445985,236.521291 227.450309,221.524281 203.343332,222.226048 C179.236354,222.927814 196.221702,219.224047 196.221702,219.224047 L217.209717,217.74254 C217.209717,217.74254 233.402329,226.943478 234.221056,227.65824 C235.039784,228.373002 238.314694,231.634917 238.314694,231.634917 L240.445985,236.521291 Z" id="Path" fill="#FFFFFF" opacity="0.8"></path>
                        <path d="M203.707211,225.293027 C191.467336,229.151517 180.851065,236.957195 173.518257,247.489641 C155.064398,273.571961 165.8768,301.369711 165.8768,301.369711 C164.018418,302.474343 141.172021,241.615595 203.707211,225.293027 Z" id="Path" fill="#FFFFFF" opacity="0.8"></path>
                        <path d="M278.055469,273.493987 C278.055469,273.493987 251.375348,268.061795 240.991803,291.856876 C232.024787,308.621297 221.706221,337.34174 221.706221,337.34174 C221.706221,337.34174 208.554597,376.835597 216.20905,387.894917 C216.936808,377.693312 217.17073,369.597006 218.691224,360.993869 C227.164405,313.208771 248.581277,288.932849 248.581277,288.932849 C248.581277,288.932849 260.069454,275.027477 278.055469,273.493987 Z" id="Path" fill="#FFFFFF" opacity="0.9"></path>
                        <path d="M335.080492,260.56329 C335.080492,260.56329 324.553995,267.191084 330.246101,273.961831 L331.116811,273.961831 L335.080492,260.56329 Z" id="Path" fill="#5D5D5C"></path>
                        <path d="M315.820902,272.909182 C315.820902,272.909182 307.529661,260.706243 313.923533,251.895175 C311.096873,253.04801 308.840597,255.271586 307.646622,258.081116 L309.985843,271.180757 L315.820902,272.909182 Z" id="Path" fill="#FFFFFF" opacity="0.8"></path>
                        <path d="M261.239065,421.683673 C261.239065,421.683673 192.946791,416.485403 220.263701,336.847904 C190.477613,326.451364 181.874476,325.71061 166.227683,302.110464 C152.400284,281.317384 159.729845,259.393679 167.52725,247.723563 C177.71586,229.334682 198.625902,224.942144 203.200379,223.642577 C199.668383,222.440826 196.043302,221.532382 192.361986,220.92648 C198.069268,218.484259 204.268919,217.411671 210.464962,217.794523 C226.163738,218.821181 236.014459,229.165739 238.379672,231.790865 C238.090009,229.353488 237.235638,227.017317 235.884503,224.968135 C241.6751,227.51349 246.82511,231.318282 250.959486,236.105429 C263.955161,251.271382 261.1351,270.595951 260.589281,273.974827 C285.281065,269.712246 311.909203,271.375692 311.909203,271.375692 C311.909203,271.375692 299.407364,259.51064 316.405707,249.179079 C315.534997,254.247392 317.536331,261.641931 317.536331,261.641931 C318.975841,255.409824 324.866711,251.253209 331.220777,251.986144 C324.372056,259.432666 327.504014,264.98182 327.504014,264.98182 C327.504014,264.98182 331.285755,258.380017 336.938874,260.108441 C330.596984,267.087119 331.311747,272.259398 331.311747,272.259398 C331.311747,272.259398 362.94322,278.848205 373.859587,284.254406 C374.431397,279.692924 378.265121,252.47998 401.91725,237.197066 C409.941895,232.076193 419.068743,228.935916 428.545389,228.035115 L422.567379,234.338017 C429.28286,231.530648 436.5124,230.162658 443.789316,230.322354 C461.983262,230.764207 474.303162,240.835855 478.149882,244.240722 C473.844312,243.115743 469.43985,242.410681 464.998258,242.135422 C467.597394,243.681908 485.882309,254.871184 489.469115,277.405685 C492.06825,293.962176 489.469115,313.182779 486.649054,319.524669 C481.204326,331.94414 472.925827,342.915377 462.477097,351.559009 C439.786648,369.259118 409.753643,361.5007 407.492395,360.980873 C404.815286,375.938896 402.943909,391.676658 394.899586,406.205823 C386.062527,422.151517 375.9259,433.392776 317.133465,427.70067 C285.592961,424.620695 261.239065,421.683673 261.239065,421.683673 Z" id="Path" stroke="#0C0D0F" stroke-width="4.01" stroke-linecap="round"></path>
                        <g stroke-linecap="round" transform="translate(0.025991, 0.000000)"></g>
                        <g stroke-linecap="round" transform="translate(0.025991, 0.000000)"></g>
                        <g stroke-linecap="round" transform="translate(0.025991, 0.000000)"></g>
                        <g stroke-linecap="round" transform="translate(0.025991, 0.000000)"></g>
                        <g stroke-linecap="round" transform="translate(0.025991, 0.000000)"></g>
                        <path d="M251.375348,369.947889 C251.375348,369.947889 242.668245,389.844268 268.139769,395.27646 C293.611292,400.708653 307.217764,403.073866 307.217764,403.073866 C307.217764,403.073866 334.690622,408.194162 341.474365,393.755966 C346.672635,382.787616 342.384062,352.286766 297.484004,345.606989 C259.289714,341.18846 250.998473,371.078513 250.998473,371.078513" id="Path" stroke="#0A0C0D" stroke-width="5.35"></path>
                        <path d="M257.340363,347.387397 C254.573715,347.374367 251.825516,346.936058 249.192074,346.087829 C248.230394,345.827916 241.394669,343.657638 239.055447,338.290424 C237.106096,333.767929 239.627257,324.865892 241.862513,321.058159 C245.761216,314.560321 252.259054,310.1158 259.250727,311.129463 C265.956495,312.078147 270.829874,321.616973 270.946835,321.902878 C273.377026,327.478022 276.457001,339.823914 264.734902,345.827916 C262.429158,346.92843 259.894156,347.463053 257.340363,347.387397 Z M263.526304,343.241776 C275.781226,333.88489 265.37169,317.549326 259.003809,316.028832 C255.741895,315.184113 248.828195,316.834564 245.306367,321.513007 C239.536287,328.621642 240.25105,334.170795 241.563613,337.263766 C243.136089,340.980529 245.93016,342.773932 251.739227,344.086495 C251.778214,344.0735 258.717904,345.762937 263.565291,343.241776 L263.526304,343.241776 Z" id="Shape" fill="#171714" fill-rule="nonzero"></path>
                        <path d="M358.31676,360.305098 C350.974203,360.305098 339.888892,359.005531 336.67896,349.063839 C335.041505,344.047508 339.278095,332.975193 344.125482,328.270758 C348.893865,323.529038 355.794801,321.626352 362.319428,323.254428 C369.908902,324.995848 373.573683,333.49502 373.703639,333.832908 C373.950557,334.378726 379.408741,349.895562 369.142157,357.770941 C365.867247,360.24012 361.864579,360.305098 358.31676,360.305098 Z M368.128495,355.665642 C374.314436,351.286099 375.302107,330.973859 360.331089,328.29675 C355.028854,327.361061 350.23345,327.880888 345.542011,333.183124 C341.136477,338.147472 338.953204,345.619985 340.109819,349.206791 C341.266434,352.793598 343.059837,354.548014 346.802591,356.094499 C354.184135,359.122492 360.811929,360.850917 368.128495,355.652646 L368.128495,355.665642 Z" id="Shape" fill="#0C0D0F" fill-rule="nonzero"></path>
                        <g stroke-linecap="round" transform="translate(0.025991, 0.000000)"></g>
                        <path d="M239.380339,312.182112 C238.821525,312.182112 236.911161,306.230093 241.979474,303.903867 C248.646256,302.006499 250.16675,306.645955 249.854854,306.905868 C247.933609,306.01954 245.730229,305.97246 243.772878,306.775912 C241.530026,307.773964 239.898132,309.782449 239.380339,312.182112 Z" id="Path" fill="#171714"></path>
                        <g transform="translate(0.025991, 0.000000)"></g>
                        <path d="M364.463714,319.472686 C364.177809,318.991846 368.284443,314.274416 372.884912,317.406374 C377.953225,322.123804 374.769285,325.840567 374.39241,325.697615 C374.156677,323.592473 373.054782,321.680638 371.351422,320.421371 C369.337503,319.026581 366.779715,318.674282 364.463714,319.472686 Z" id="Path" fill="#000001"></path>
                        <path d="M378.278117,319.498678 C374.210471,307.32173 363.138155,311.701272 363.138155,311.701272" id="Path" fill="#94948E"></path>
                        <path d="M259.432666,382.995547 C259.432666,382.995547 253.53263,352.533684 282.188094,353.768273 C261.122104,358.082838 259.432666,382.995547 259.432666,382.995547 Z" id="Path" fill="#FFFFFF" opacity="0.3"></path>
                        <path d="M271.635605,272.389355 L273.688922,255.806873 L219.055103,226.12475 L338.849238,195.480948 L444.647031,252.661919 L382.878586,269.556297 L381.020205,288.114122 C381.020205,288.114122 370.090842,277.522646 328.062828,272.779225 C290.154443,268.568626 271.635605,272.389355 271.635605,272.389355 Z" id="Path" stroke="#000001" stroke-width="4.01" fill="#171714" stroke-linecap="round" stroke-linejoin="round"></path>
                        <path d="M381.020205,288.1791 C381.020205,288.1791 384.113175,259.705576 384.39908,257.457324 C329.518343,227.242379 275.235408,243.902834 275.235408,243.902834 L271.830541,271.336705 C309.088556,266.034145 347.08208,271.914096 380.994213,288.231083 L381.020205,288.1791 Z" id="Path" stroke="#000001" stroke-width="4.01" fill="#545454"></path>
                        <path d="M268.412678,430.741658 C268.880522,431.131529 273.182091,438.928934 273.052134,439.513739 C273.455,439.682683 273.636939,438.733999 274.351702,437.174518 C274.698549,434.623428 274.902467,432.054938 274.962498,429.481078 L268.373691,430.780645 L271.0508,430.442758" id="Path" fill="#5E5E5E"></path>
                        <g stroke-linecap="round" stroke-linejoin="round" transform="translate(0.025991, 0.000000)"></g>
                        <g transform="translate(0.025991, 0.000000)"></g>
                        <g transform="translate(0.025991, 0.000000)"></g>
                        <g transform="translate(0.025991, 0.000000)"></g>
                        <path d="M277.21075,437.954258 C276.301053,440.319471 274.520645,441.372121 273.636939,441.008242 C272.753234,440.644363 272.480324,439.201843 272.779225,437.49941 C273.237129,434.107513 274.04277,430.771724 275.183425,427.544722 C276.1581,424.789639 277.067798,422.905266 277.145772,422.749318 L281.14844,424.685674 C279.192973,428.891758 277.866235,433.362381 277.21075,437.954258 Z" id="Path" fill="#000001"></path>
                        <path d="M348.725951,438.448094 C348.725951,438.448094 346.321751,431.144524 346.061838,430.390775 L350.259441,428.909268 C350.53235,429.676013 352.962542,437.057557 352.962542,437.057557 C353.716291,438.967921 353.196464,440.748328 352.338749,441.125203 C351.481035,441.502078 349.531683,440.644363 348.725951,438.448094 Z" id="Path" fill="#000001"></path>
                        <ellipse id="Oval" fill="#FFFFFF" opacity="0.7" cx="383.060526" cy="460.410785" rx="3.85971557" ry="8.1093014"></ellipse>
                        <path d="M375.003207,486.168214 L373.274782,483.062247 C374.188806,481.132963 375.221785,479.262315 376.367753,477.461111 C379.135832,472.951612 384.944899,471.833984 385.321773,463.282829 C382.631668,434.276482 348.453042,435.861954 348.12815,435.835963 L348.621986,431.417433 C350.090497,431.586377 381.99488,434.653357 388.15483,459.332144 C390.143169,472.53575 376.01687,478.240852 375.003207,486.168214 Z" id="Path" fill="#000001"></path>
                        <path d="M220.211718,336.847904 C220.211718,336.847904 240.108097,277.314716 263.617274,273.493987" id="Path" stroke="#000001" stroke-width="4.01"></path>
                        <path d="M276.703919,245.254385 L273.273061,269.257397 L276.976828,269.257397 C276.328494,260.767507 277.612569,252.241077 280.732578,244.318696 L276.755902,245.228393" id="Path" fill="#FFFFFF" opacity="0.7"></path>
                        <g transform="translate(0.025991, 0.000000)"></g>
                        <g transform="translate(0.025991, 0.000000)"></g>
                        <path d="M344.021517,534.40816 L320.629301,534.291199 C320.629301,534.291199 320.629301,522.127247 320.629301,521.009619 C317.344504,522.020717 313.812208,521.87392 310.622631,520.593757 L311.55832,534.304195 L286.177766,534.304195 L285.579965,533.004627 C285.398026,532.601761 283.825549,528.936981 285.761905,525.870002 C286.36826,524.922329 287.222076,524.158388 288.231083,523.660737 C276.405018,516.40915 270.323042,498.098244 269.60828,496.889646 L268.594617,484.764681 C272.142437,495.031264 275.092455,510.405148 292.584634,523.751707 C294.863524,525.026439 297.251109,526.096286 299.71926,526.948643 L293.221422,527.052608 C291.285067,527.052608 289.959508,527.507457 289.478668,528.235215 C289.220722,528.730466 289.138262,529.298526 289.244746,529.846678 L307.23076,529.846678 L307.490674,517.097921 L310.284744,517.916648 C313.568251,518.878291 317.069357,518.796553 320.30441,517.682726 L323.345398,516.630077 L323.254428,519.853004 C323.254428,521.841342 323.254428,523.894659 323.254428,525.882997 C323.254428,527.182565 323.254428,528.482132 323.319406,529.87267 L341.643308,529.963639 C341.62745,529.610571 341.588379,529.258928 341.526347,528.91099 C340.902555,528.222219 337.627645,527.455474 334.911549,527.351509 L329.466361,527.130582 L333.508016,523.478797 C342.736509,515.262842 351.093569,506.117544 358.446717,496.187879 L359.616327,500.918305 C353.753118,509.045708 347.167888,516.626988 339.940875,523.569767 C342.695958,524.219551 345.42505,525.506123 345.879899,528.053275 C346.620652,532.1859 345.152141,533.654411 344.489361,534.083268 L344.021517,534.40816 Z" id="Path" fill="#000001"></path>
                        <path d="M381.020205,288.1791 C381.020205,288.1791 412.833618,304.995504 407.466404,360.954882" id="Path" stroke="#000001" stroke-width="4.01"></path>
                        <g transform="translate(0.025991, 0.000000)"></g>
                        <path d="M369.012201,504.232202 C368.269379,504.199396 367.544286,503.994769 366.893906,503.634401 L367.569681,502.334834 C368.206469,502.659726 369.064183,502.971622 369.532028,502.633734 C370.24679,502.113907 370.06485,500.268521 369.934894,499.449794 C369.558019,497.786347 369.116166,496.720702 368.427395,496.538762 C367.738624,496.356823 367.127828,497.487447 366.841923,497.83833 L365.282442,496.538762 C365.451386,496.343827 367.036858,494.65439 368.80427,495.109238 C370.103837,495.447126 371.403405,496.720702 371.897241,499.085915 C372.350308,500.822833 371.769638,502.665832 370.402738,503.829336 C369.994668,504.109789 369.506992,504.251078 369.012201,504.232202 Z" id="Path" fill="#000001"></path>
                        <path d="M371.702305,503.595414 C371.199494,503.593306 370.698396,503.53666 370.207803,503.42647 L370.63666,501.438132 C371.676314,501.659059 372.94989,502.25686 373.586678,501.256193 C374.379415,500.021603 373.898575,497.643395 372.46905,495.720035 C371.884245,494.940294 371.50737,494.940294 371.104504,495.005273 C370.469267,495.168431 369.940188,495.606947 369.661984,496.200875 L368.258451,495.720035 C368.336425,495.486113 369.10317,493.393809 370.72763,493.1209 C371.715301,492.951956 372.702972,493.536761 373.664652,494.810338 C375.510038,497.279516 375.990878,500.255526 374.847259,502.035933 C374.152999,503.080477 372.953997,503.675023 371.702305,503.595414 Z" id="Path" fill="#000001"></path>
                        <path d="M374.977216,501.516106 L374.327432,499.293846 C375.261968,499.187319 376.024925,498.497523 376.2248,497.578417 C376.458383,496.779183 376.325084,495.917495 375.860921,495.226199 C374.39241,493.51077 373.547691,494.745359 373.43073,495.070251 L372.040193,494.550424 C372.118167,494.355489 372.780946,492.653056 374.223466,492.484112 C375.198142,492.367151 376.172818,493.003939 377.095511,494.394476 C377.839586,495.401304 378.11421,496.679726 377.84926,497.903308 C377.36626,499.418449 376.344402,500.703862 374.977216,501.516106 Z" id="Path" fill="#000001"></path>
                        <path d="M357.718959,499.618738 C356.570238,494.86762 357.620172,489.851797 360.578007,485.960283 C361.5007,484.816663 362.384406,484.023927 363.268112,485.076577 C363.567013,485.375477 363.190138,487.064915 362.384406,487.857651 C361.680774,488.689375 361.122766,489.634034 360.733955,490.651722 C360.071176,492.510103 361.162813,499.37182 362.033523,503.335501 L357.718959,499.618738 Z" id="Path" fill="#000001"></path>
                        <path d="M373.508704,493.640727 L372.741959,489.936959 C370.056709,491.40069 367.086199,492.265241 364.034857,492.471116 C363.58243,492.380481 363.22879,492.026841 363.138155,491.574415 C363.060181,491.0156 364.099835,491.054587 364.840589,490.989609 C367.700672,490.780345 370.4582,489.835803 372.845925,488.247522 L373.937562,487.454785 L375.471051,493.666718 L373.508704,493.640727 Z" id="Path" fill="#000001"></path>
                        <path d="M374.30144,489.18321 L372.07918,488.689375 C372.165764,486.962398 372.418174,485.247745 372.832929,483.569079 C373.595253,480.998703 374.958368,478.646662 376.809606,476.707362 C377.446394,476.928288 375.665986,479.501432 376.302774,479.722359 L374.30144,489.18321 Z" id="Path" fill="#000001"></path>
                        <path d="M364.320762,506.142567 C363.391199,506.140865 362.484344,505.855206 361.721627,505.323839 C359.460379,503.90731 357.913894,500.021603 357.35508,497.526434 L361.253782,498.981949 C361.604666,504.063258 364.723628,504.336168 365.620329,504.18022 C367.881577,503.738367 366.192139,498.137231 365.880243,497.916304 C365.361897,498.524087 364.925025,499.196871 364.580675,499.917638 C364.419186,500.491823 363.822804,500.826379 363.248619,500.664889 C362.674434,500.5034 362.339878,499.907018 362.501367,499.332833 C362.669753,498.83736 362.901247,498.365636 363.190138,497.9293 C363.833085,496.954952 364.732487,496.176969 365.789273,495.681048 C366.187134,495.399022 366.727555,495.431447 367.088841,495.759022 C368.017568,497.840677 368.533925,500.082639 368.609335,502.360825 C368.677446,504.043322 367.553498,505.541919 365.91923,505.947631 C365.398171,506.087175 364.860086,506.152795 364.320762,506.142567 Z" id="Path" fill="#000001"></path>
                        <g transform="translate(0.025991, 0.000000)"></g>
                        <path d="M363.372078,460.683694 C363.567013,464.829315 358.550682,468.754009 358.550682,468.754009 C359.705235,466.053823 360.000176,463.063574 359.395401,460.189859 C359.395401,460.189859 358.953548,458.305486 354.755945,451.352799 C354.937884,451.716678 363.203134,457.226845 363.372078,460.683694 Z" id="Path" fill="#171714"></path>
                        <g stroke-linecap="round" transform="translate(0.025991, 0.000000)"></g>
                        <path d="M210.776858,411.638016 C213.440002,412.466696 215.873742,413.903804 217.885492,415.835619 C220.056271,418.034732 221.642261,420.742084 222.498957,423.710998 C224.006455,428.103536 234.688901,433.769651 277.21075,438.733999 C276.82088,440.29348 275.612282,441.16419 272.454333,446.778322 C271.401683,448.649699 270.310047,486.09024 268.126773,483.166213 C239.536287,444.738001 217.573596,436.524734 213.609915,437.681349 C212.804183,437.915271 209.113412,439.344795 205.81251,437.785314 C204.199306,436.868387 202.661034,435.825491 201.212041,434.666352 C201.202135,434.695867 201.202135,434.727808 201.212041,434.757322 C201.458959,435.147192 206.709212,430.611702 206.605246,426.570047 C206.501281,422.528392 201.406976,421.44975 201.497946,418.369775 C201.562924,416.589368 203.40831,414.237151 210.776858,411.638016 Z" id="Path" fill="#94948E"></path>
                        <g transform="translate(0.025991, 0.000000)"></g>
                        <path d="M248.373347,438.863955 C243.112974,437.556453 238.048466,435.55949 233.311359,432.924932 L233.571272,429.182177 C252.713902,438.474085 273.532974,436.862621 275.586291,436.108872 C275.429037,436.175132 275.284059,436.267391 275.157433,436.381781 L277.756569,439.305808 C276.664932,440.215506 263.578287,442.684684 248.373347,438.863955 Z" id="Path" fill="#171714"></path>
                        <path d="M269.621276,496.889646 C258.06812,459.072231 220.497623,442.710675 220.315684,442.60671 L222.083095,439.214839 C222.278031,439.3318 260.498312,455.966264 268.620609,484.699702 L269.621276,496.889646 Z" id="Path" fill="#000001"></path>
                        <g transform="translate(0.025991, 0.000000)"></g>
                        <path d="M245.566281,455.251502 C245.566281,455.251502 262.317706,450.832972 265.176755,439.474752 C267.484276,439.225539 269.816472,439.335135 272.090454,439.799644 C272.090454,439.799644 255.352024,462.061236 254.650258,466.141878" id="Path" fill="#000000" opacity="0.1"></path>
                        <path d="M210.257031,415.432753 C210.257031,415.432753 213.272028,414.042216 214.779526,416.576372 C213.090088,411.118189 209.035437,413.704328 209.035437,413.704328 L209.347334,415.536718" id="Path" fill="#FFFFFF" opacity="0.9"></path>
                        <path d="M217.326678,419.591369 C219.113869,419.789806 220.520817,421.207577 220.705554,422.996236 C222.187061,417.914927 217.820514,417.330121 217.820514,417.330121 L217.326678,419.591369 Z" id="Path" fill="#FFFFFF" opacity="0.9"></path>
                        <path d="M205.630571,436.290812 C204.843618,435.872334 204.27119,435.139593 204.0556,434.274758 C203.840011,433.409923 204.00151,432.494225 204.499947,431.755321 C196.936464,436.26482 205.630571,436.290812 205.630571,436.290812 Z" id="Path" fill="#FFFFFF" opacity="0.9"></path>
                        <path d="M237.210062,434.91327 L227.138413,430.156853 L226.8785,429.312134 C226.774534,428.987242 225.695893,425.998237 222.732879,426.115198 C222.273792,426.377192 221.710459,426.377192 221.251372,426.115198 C220.599433,425.680419 220.371376,424.829375 220.71855,424.12686 C220.794026,423.007638 220.661846,421.884109 220.328679,420.812962 C220.158929,420.071322 219.758566,419.402534 219.18506,418.902598 C218.546244,418.490223 217.764354,418.363048 217.027778,418.551715 L215.884158,414.847947 C217.784037,414.285278 219.836827,414.620232 221.459303,415.757645 C223.226715,417.057212 224.253373,419.266477 224.526282,422.359448 C227.091659,423.002135 229.210752,424.804085 230.257375,427.232826 C232.458635,428.547785 234.746828,429.71142 237.106096,430.715667 C238.197733,431.183511 239.259046,431.6167 240.290037,432.015235 L237.210062,434.91327 Z" id="Path" fill="#000000"></path>
                        <path d="M211.452633,413.808293 C210.496331,413.9754 209.69746,414.631263 209.347334,415.536718 L205.682553,414.237151 C206.538252,411.785524 208.771389,410.078733 211.361663,409.896595 L211.608581,409.896595 C217.482626,410.325452 218.106419,417.473074 218.106419,421.72266 C217.926615,422.320406 217.422607,422.763932 216.806851,422.866279 C216.06687,422.964949 215.352791,422.55462 215.065431,421.865612 C215.288955,420.251029 215.142304,418.606754 214.636574,417.057212 C214.353582,415.417792 213.086002,414.124343 211.452633,413.808293 Z" id="Path" fill="#000000"></path>
                        <path d="M230.309358,448.883621 C230.24438,448.883621 223.616585,444.478087 217.469631,440.904276 C215.24737,439.604709 212.440304,440.085549 209.945135,440.514406 C207.769397,440.834534 205.549665,440.665834 203.447297,440.020571 C201.160058,439.227834 199.418638,437.993245 198.924802,434.237495 C198.50894,431.092542 202.14773,429.260151 205.214709,428.285476 C202.940466,425.764315 199.847495,422.02156 199.17172,419.695334 C198.59991,417.681005 200.068421,413.093531 202.8365,411.677003 C203.811176,411.170171 206.371324,410.377435 208.99645,413.704328 L209.074424,413.821289 C212.973127,419.019559 213.207049,422.242487 212.492287,422.59337 C211.556028,422.989218 210.471742,422.620337 209.971126,421.735655 C208.539111,419.923939 207.198872,418.041532 205.955462,416.095532 C203.993115,413.496397 202.862492,417.992901 202.953461,418.694667 C203.460293,420.436088 207.566926,425.192505 210.309014,428.012567 L212.908149,430.611702 L209.321342,431.274481 C206.410311,431.807304 203.044431,432.911936 202.823505,433.873616 C202.485617,435.48508 206.111411,437.603375 209.321342,436.732665 C212.141404,436.26482 216.014115,435.602041 219.431978,437.603375 C225.539945,441.16419 233.220389,446.27149 233.298363,446.323473 L230.309358,448.883621 Z" id="Path" fill="#000000"></path>
                        <path d="M224.331347,412.443748 C224.331347,412.443748 195.584914,412.5867 193.947458,422.749318 C192.421774,430.584291 195.593018,438.591048 202.069755,443.256494 C206.813177,446.570391 217.014782,447.752997 222.771866,433.509737 C228.52895,419.266477 224.331347,412.443748 224.331347,412.443748 Z" id="Path" stroke="#231F20" stroke-width="1.59" fill="#94948E"></path>
                        <path d="M208.619166,384.463533 L215.336756,384.463533 C217.971155,384.463533 220.106756,386.599135 220.106756,389.233533 L220.106756,483.866867 C220.106756,486.501265 217.971155,488.636867 215.336756,488.636867 L208.619166,488.636867 C205.984768,488.636867 203.849166,486.501265 203.849166,483.866867 L203.849166,389.233533 C203.849166,386.599135 205.984768,384.463533 208.619166,384.463533 Z" id="Rectangle" fill="#FFD150" transform="translate(211.977961, 436.550200) rotate(-9.260000) translate(-211.977961, -436.550200) "></path>
                        <path d="M208.619166,384.463533 L215.336756,384.463533 C217.971155,384.463533 220.106756,386.599135 220.106756,389.233533 L220.106756,483.866867 C220.106756,486.501265 217.971155,488.636867 215.336756,488.636867 L208.619166,488.636867 C205.984768,488.636867 203.849166,486.501265 203.849166,483.866867 L203.849166,389.233533 C203.849166,386.599135 205.984768,384.463533 208.619166,384.463533 Z" id="Rectangle" stroke="#000000" stroke-width="3" transform="translate(211.977961, 436.550200) rotate(-9.260000) translate(-211.977961, -436.550200) "></path>
                        <polygon id="Rectangle" fill="#FFDF78" style="mix-blend-mode: multiply;" transform="translate(205.197654, 395.003097) rotate(-9.260000) translate(-205.197654, -395.003097) " points="197.068859 385.028916 213.326449 385.028916 213.326449 404.977278 197.068859 404.977278"></polygon>
                        <path d="M132.859735,310.314299 L258.065903,310.314299 C260.203245,310.314299 261.935903,312.046957 261.935903,314.184299 L261.935903,397.76415 C261.935903,399.901492 260.203245,401.63415 258.065903,401.63415 L132.859735,401.63415 C130.722393,401.63415 128.989735,399.901492 128.989735,397.76415 L128.989735,314.184299 C128.989735,312.046957 130.722393,310.314299 132.859735,310.314299 Z" id="Rectangle" fill="#FFD150" transform="translate(195.462819, 355.974224) rotate(-9.180542) translate(-195.462819, -355.974224) "></path>
                        <path d="M132.859735,310.314299 L258.065903,310.314299 C260.203245,310.314299 261.935903,312.046957 261.935903,314.184299 L261.935903,397.76415 C261.935903,399.901492 260.203245,401.63415 258.065903,401.63415 L132.859735,401.63415 C130.722393,401.63415 128.989735,399.901492 128.989735,397.76415 L128.989735,314.184299 C128.989735,312.046957 130.722393,310.314299 132.859735,310.314299 Z" id="Rectangle" stroke="#000000" stroke-width="3.00853785" transform="translate(195.462819, 355.974224) rotate(-9.180542) translate(-195.462819, -355.974224) "></path>
                        <path d="M141.5792,315.231863 L248.824935,315.231863 C250.962277,315.231863 252.694935,316.964521 252.694935,319.101863 L252.694935,390.336582 C252.694935,392.473924 250.962277,394.206582 248.824935,394.206582 L141.5792,394.206582 C139.441858,394.206582 137.7092,392.473924 137.7092,390.336582 L137.7092,319.101863 C137.7092,316.964521 139.441858,315.231863 141.5792,315.231863 Z" id="Rectangle" fill="#FEFBF2" transform="translate(195.202068, 354.719223) rotate(-9.260000) translate(-195.202068, -354.719223) "></path>
                        <path d="M198.98978,412.599696 C203.879475,412.479967 208.179763,415.813777 209.282355,420.57904 C211.439637,428.987242 207.190052,435.706006 203.01844,437.291479 C198.846828,438.876951 196.442628,438.708007 194.857156,435.991911 C193.271683,433.275815 189.437959,416.771307 198.98978,412.599696 Z" id="Path" stroke="#231F20" stroke-width="3.18" fill="#94948E"></path>
                        <path d="M221.19939,410.000561 C217.713871,410.011765 214.704199,412.443277 213.960798,415.848614 C212.336339,421.904599 214.727543,426.128194 222.64191,421.618694 C230.556276,417.109195 224.461304,409.233816 221.19939,410.000561 Z" id="Path" stroke="#231F20" stroke-width="3.18" fill="#94948E"></path>
                        <circle id="Oval" fill="#0C0D0F" cx="314.9242" cy="416.017558" r="6.06898037"></circle>
                        <g id="404" transform="translate(194.777564, 356.543947) rotate(-8.810000) translate(-194.777564, -356.543947) ">
                            <use fill="#000000" xlink:href="#path-1"></use>
                            <use fill="#414042" xlink:href="#path-1"></use>
                        </g>
                    </g>
                </g>
                <g id="Designed_by_Freepik" transform="translate(61.079674, 318.394045)">
                    <path d="M485.024594,113.140349 L465.141211,102.120017 L461.671366,100.196657 L451.664696,94.6475033 L451.092886,94.3356071 L450.534072,94.0237109 L445.933603,91.4245758 L442.255827,89.3842548 L438.357124,87.2529641 L436.017903,85.9533965 L435.290145,85.5505306 L427.557718,81.2619578 L421.943586,78.1559914 L421.813629,78.0780173 L421.111863,77.688147 L416.849281,75.3749168 L402.073199,67.1876414 L404.32145,58.6754741 C404.874676,56.5590631 403.614653,54.3932159 401.501389,53.8280872 L395.627344,52.2816018 C395.20306,52.17425 394.76373,52.1391036 394.327776,52.1776364 C394.126111,52.1967089 393.926239,52.2314693 393.729975,52.2816018 L393.600018,52.2816018 C393.427083,52.3304944 393.257735,52.3912859 393.093187,52.4635413 L392.898252,52.554511 L392.48239,52.7884331 L392.248468,52.9573769 L391.936572,53.2172904 C391.845602,53.3082601 391.767628,53.3992299 391.676658,53.4901996 L391.455732,53.7501131 C391.360454,53.8786267 391.273633,54.0131992 391.195818,54.152979 C391.195818,54.2309531 391.104849,54.2959315 391.065862,54.3739055 C390.951678,54.6026357 390.860268,54.8420422 390.792952,55.0886677 L367.93356,141.652861 C367.380334,143.769272 368.640357,145.935119 370.753621,146.500248 L376.627666,148.046733 C378.744077,148.599959 380.909925,147.339935 381.475053,145.226672 L383.723305,136.714504 L400.617683,136.870452 L404.516386,136.870452 L406.42675,136.870452 L421.189837,137.000409 L423.892937,137.000409 L429.611035,137.000409 L433.808638,137.000409 L437.70734,137.000409 L439.006908,137.000409 L444.205178,137.000409 L446.037568,137.000409 L448.207846,137.000409 L455.654368,137.065388 L478.3968,137.273318 C480.698066,137.206816 482.700602,135.680078 483.374143,133.478581 L483.673044,132.347957 C483.673044,132.347957 483.673044,132.425931 483.673044,132.477914 L487.35082,118.559546 C487.726191,116.450805 486.811858,114.320765 485.024594,113.140349 Z" id="Path" fill="#D1D3D4" style="mix-blend-mode: multiply;"></path>
                    <path d="M383.502379,136.329326 C382.521672,136.388453 381.576354,135.953293 380.983525,135.169818 C380.390695,134.386342 380.22888,133.358332 380.55236,132.430624 L397.446738,68.5698752 C397.632626,67.6140042 398.280198,66.8124134 399.175645,66.4297662 C400.071091,66.047119 401.097976,66.1331712 401.91725,66.659511 L416.797299,74.9117648 L421.098867,77.2899734 L425.400436,79.668182 L435.277149,85.1393613 L442.203844,89.0380639 L445.88162,91.0783849 L450.482089,93.67752 L455.082558,96.276655 L458.162533,97.9920842 L465.089228,101.890787 L484.972611,112.911119 C486.941382,114.104715 487.929594,116.421 487.428794,118.668204 L483.530091,133.600235 C482.85655,135.801732 480.854014,137.328469 478.552748,137.394972 L455.810316,137.187041 L447.882954,137.109067 L444.361126,137.109067 L439.162856,137.109067 L433.964586,137.109067 L429.766983,137.109067 L421.839621,137.031093 L410.546379,136.927127 L405.634014,136.927127 L400.721648,136.927127 L383.502379,136.329326 Z" id="Path" fill="#FF6B03"></path>
                    <polygon id="Path" fill="#FFFFFF" points="404.477399 135.440928 420.215161 75.7777828 421.891603 76.7004757 438.695012 86.0183749 425.608367 135.635863 406.387763 135.466919"></polygon>
                    <polygon id="Path" fill="#FFFFFF" points="437.733332 135.752824 449.299483 91.9054158 451.573726 93.1530007 461.580396 98.702154 451.768661 135.882781 440.319471 135.778816"></polygon>
                    <path d="M383.502379,136.329326 L400.513718,136.485274 L405.426083,136.485274 L410.338448,136.485274 L421.63169,136.58924 L429.559052,136.667214 L433.756655,136.667214 L438.954925,136.667214 L444.153195,136.667214 L447.675023,136.667214 L455.602385,136.745188 L478.344817,136.953119 C480.646083,136.886616 482.648619,135.359879 483.322161,133.158382 L483.621061,132.027758 C482.100567,141.657553 420.007231,125.906795 407.29746,96.6145426 C403.15184,87.2576564 402.839943,77.4199301 404.191494,67.7901347 L401.748307,66.4905672 C400.929033,65.9642275 399.902148,65.8781752 399.006701,66.2608224 C398.111254,66.6434697 397.463682,67.4450605 397.277794,68.4009315 L380.383417,132.26168 C379.963104,133.238383 380.103515,134.365988 380.750518,135.209788 C381.397521,136.053588 382.450064,136.481794 383.502379,136.329326 Z" id="Path" fill="#D1D3D4" style="mix-blend-mode: multiply;"></path>
                    <path d="M480.736021,132.88078 C481.474736,133.070601 482.228485,132.629948 482.425459,131.893109 L486.324162,117.337952 C486.513983,116.599238 486.07333,115.845489 485.33649,115.648515 C484.597776,115.458693 483.844027,115.899347 483.647053,116.636186 L479.74835,131.204338 C479.558529,131.943052 479.999182,132.696801 480.736021,132.893776 L480.736021,132.88078 Z" id="Path" fill="#D1D3D4" style="mix-blend-mode: multiply;"></path>
                    <path d="M376.536697,148.744889 C378.653108,149.298115 380.818955,148.038091 381.384083,145.924827 L404.191494,59.3476381 C404.74472,57.2312271 403.484696,55.0653799 401.371432,54.5002512 L395.497387,52.9537658 C393.380976,52.4005399 391.215129,53.6605636 390.65,55.7738273 L367.803603,142.351016 C367.250377,144.467427 368.510401,146.633274 370.623664,147.198403 L376.536697,148.744889 Z" id="Path" fill="#FF6B03"></path>
                    <path d="M381.371088,143.75816 L381.371088,143.641199 C377.784281,143.641199 375.419069,142.185684 374.522367,139.573553 C371.442392,130.56755 386.699315,79.7934464 394.88659,50.6701381 C392.939462,50.4333196 391.119563,51.6799782 390.637004,53.5811693 L367.803603,140.18435 C367.250377,142.300761 368.510401,144.466608 370.623664,145.031737 L376.49771,146.578222 C377.51797,146.851811 378.605161,146.708241 379.519428,146.179186 C380.433694,145.65013 381.099907,144.779064 381.371088,143.75816 Z" id="Path" fill="#D1D3D4" style="mix-blend-mode: multiply;"></path>
                    <path d="M147.279988,197.170386 L119.98907,93.9457369 C119.909288,93.6498289 119.800462,93.3625284 119.664178,93.0880223 C119.664178,92.9970526 119.560213,92.9190785 119.50823,92.8281088 C119.413711,92.6618953 119.309569,92.5013421 119.196334,92.3472688 C119.11836,92.2433034 119.02739,92.139338 118.93642,92.0483683 C118.845451,91.9573985 118.741485,91.8274418 118.624524,91.7234764 C118.504021,91.6175504 118.378235,91.5177893 118.24765,91.4245758 L117.961745,91.216645 C117.802586,91.1161387 117.637694,91.0250138 117.467909,90.9437359 L117.246983,90.8397705 C117.052316,90.7578806 116.852648,90.6884307 116.649182,90.6318397 L116.493234,90.6318397 C116.258319,90.5746438 116.019364,90.5355421 115.778471,90.5148786 L115.713493,90.5148786 C115.207977,90.4716368 114.698792,90.5111426 114.205995,90.6318397 L107.201326,92.4772255 C104.685661,93.1505264 103.183251,95.7260868 103.835446,98.2473054 L106.512555,108.383932 L88.9034148,118.143684 L83.7831188,120.976742 L78.6628227,123.822794 L66.8887409,130.320632 L66.6158317,130.463584 L62.7171291,132.607871 L58.5845043,134.89511 L54.2049617,137.325301 L49.4095576,140.054393 L47.5251846,141.094047 L35.5951547,147.708846 L31.4625299,149.996084 L7.71943114,163.134712 C5.37343887,164.557636 4.19683968,167.318722 4.79540419,169.996429 L9.48684298,187.787508 C10.2839641,190.421991 12.6746835,192.252958 15.4258666,192.335995 L42.5218496,192.089077 L51.4758699,192.011103 L58.8964005,192.011103 L61.3395875,192.011103 L63.9387226,192.011103 L68.6561527,192.011103 L73.6594877,192.011103 L78.3769178,192.011103 L101.275298,191.803172 L103.549541,191.803172 L108.266971,191.803172 L128.397272,191.621233 L131.152355,201.432967 C131.819541,203.953294 134.400168,205.45866 136.922435,204.798847 L143.927104,202.953461 C146.443936,202.274557 147.941298,199.691899 147.279988,197.170386 Z" id="Path" fill="#D1D3D4" style="mix-blend-mode: multiply;"></path>
                    <path d="M125.928094,190.061751 C127.088433,190.125731 128.205178,189.611063 128.910324,188.687348 C129.61547,187.763633 129.817531,186.550713 129.449922,185.448287 L109.371603,109.332616 C109.147392,108.191976 108.372815,107.23642 107.303264,106.781016 C106.233714,106.325611 105.008043,106.429479 104.030381,107.058373 L86.2912841,116.883104 L81.170988,119.716161 L76.0506919,122.562214 L64.2766101,129.060052 L56.0113606,133.647525 L51.631818,136.077716 L46.147643,139.118704 L40.6634681,142.159692 L37.0116833,144.251996 L28.7464338,148.826474 L5.04232202,161.926114 C2.69632975,163.349038 1.51973056,166.110124 2.11829508,168.787831 L6.80973387,186.578911 C7.63715773,189.173066 10.0138953,190.960831 12.7357618,191.036427 L39.8317448,190.789509 L49.2796008,190.69854 L53.4772039,190.69854 L59.7411194,190.69854 L66.0180306,190.69854 L71.0213656,190.69854 L80.4692216,190.60757 L93.9327412,190.490609 L99.7937908,190.490609 L105.65484,190.490609 L125.928094,190.061751 Z" id="Path" fill="#FF6B03"></path>
                    <polygon id="Path" fill="#FFFFFF" points="100.93741 190.295674 82.171655 119.183338 80.1833167 120.274975 60.156981 131.386277 75.7517914 190.5166 98.663167 190.308669"></polygon>
                    <polygon id="Path" fill="#FFFFFF" points="61.3006005 190.659553 47.512189 138.390946 44.8090885 139.885449 32.8790585 146.500248 44.5751663 190.802505 58.2206254 190.685544"></polygon>
                    <path d="M125.928094,191.145085 L105.65484,191.327024 L99.7937908,191.327024 L93.9327412,191.327024 L80.4692216,191.443985 L71.0213656,191.534955 L66.0180306,191.534955 L59.7411194,191.534955 L53.4772039,191.534955 L49.2796008,191.534955 L39.8317448,191.625925 L12.7357618,192.11976 C9.99645756,192.034891 7.61448376,190.217069 6.80973387,187.597265 L6.45885063,186.297698 C8.2652495,197.772879 82.2756204,178.994128 97.4285778,144.087745 C102.366934,132.937455 102.743809,121.215356 101.132345,109.740175 L104.043377,108.128711 C105.021039,107.499817 106.24671,107.395949 107.31626,107.851353 C108.38581,108.306758 109.160388,109.262314 109.384599,110.402954 L129.462917,186.518624 C129.837013,187.624944 129.63616,188.844881 128.927132,189.772873 C128.218105,190.700865 127.09384,191.215273 125.928094,191.145085 Z" id="Path" fill="#D1D3D4" style="mix-blend-mode: multiply;"></path>
                    <path d="M10.045657,187.228694 C9.62170237,187.339328 9.17115493,187.276844 8.79330862,187.055011 C8.41546231,186.833179 8.14133036,186.470207 8.03132735,186.046088 L3.45684963,168.683866 C3.34621565,168.259911 3.40870016,167.809364 3.63053251,167.431517 C3.85236486,167.053671 4.21533728,166.779539 4.63945609,166.669536 C5.5184062,166.438284 6.41891141,166.961158 6.65378576,167.839147 L11.2282635,185.201369 C11.3388975,185.625324 11.2764129,186.075871 11.0545806,186.453717 C10.8327482,186.831564 10.4697758,187.105696 10.045657,187.215699 L10.045657,187.228694 Z" id="Path" fill="#D1D3D4" style="mix-blend-mode: multiply;"></path>
                    <path d="M134.23233,204.647591 C131.710063,205.307404 129.129437,203.802038 128.46225,201.281712 L101.171332,98.0570625 C100.519138,95.535844 102.021548,92.9602836 104.537212,92.2869827 L111.541881,90.4415968 C114.064148,89.7817846 116.644775,91.2871501 117.311961,93.8074767 L144.602879,197.032126 C145.255074,199.553344 143.752664,202.128905 141.236999,202.802206 L134.23233,204.647591 Z" id="Path" fill="#FF6B03"></path>
                    <path d="M128.46225,200.198378 L128.46225,200.055426 C132.737828,200.055426 135.557889,198.327001 136.623535,195.208039 C140.301311,184.473611 122.107365,123.991738 112.347613,89.2542981 C114.657117,89.0087838 116.801724,90.4807892 117.402931,92.7241434 L144.693849,195.948792 C145.346044,198.470011 143.843633,201.045571 141.327969,201.718872 L134.3233,203.564258 C133.099318,203.908896 131.788125,203.746251 130.685444,203.113004 C129.582762,202.479756 128.781457,201.429238 128.46225,200.198378 Z" id="Path" fill="#D1D3D4" style="mix-blend-mode: multiply;"></path>
                    <path d="M557.293545,133.296642 L545.090605,133.296642 L539.346517,110.593197 L537.644083,103.965403 L535.967641,97.3635995 L532.068939,82.1846507 C531.31519,79.2606238 530.106592,74.4652196 529.365838,71.5281969 L527.936314,65.8880739 L526.636747,60.559847 L526.454807,59.8710762 L526.181898,58.8184265 L524.687395,52.9703726 L521.815351,41.6901264 L520.515783,36.3618995 L512.718378,5.80906687 C511.809573,2.75131068 509.057001,0.609841335 505.869657,0.480839987 L484.452784,0.480839987 C481.264004,0.605912343 478.509414,2.74895223 477.604064,5.80906687 L469.806658,36.3618995 L467.103558,47.0183533 L465.907956,51.7487791 L464.894293,55.7384514 L464.556406,57.038019 L463.776665,60.1049983 L462.321149,65.8490868 L460.891625,71.4892099 L458.188525,82.1456637 L455.251502,93.7378061 L453.951934,98.9360762 L453.263164,101.639177 L453.00325,102.639844 L452.600384,104.238312 L452.535406,104.511221 L452.366462,105.199992 L451.066895,110.528219 L446.219508,129.644857 L445.30981,133.231663 L433.106871,133.231663 C430.073832,133.238808 427.616846,135.695795 427.609701,138.728834 L427.609701,147.150032 C427.615043,147.738561 427.715992,148.322311 427.908601,148.878456 L427.908601,148.982422 C428.001843,149.241921 428.114802,149.493906 428.246489,149.736171 L428.337458,149.905115 C428.461777,150.118092 428.600732,150.322182 428.75332,150.515912 L428.935259,150.736838 C429.076985,150.906193 429.228882,151.06677 429.390108,151.217678 L429.689009,151.464596 C429.83886,151.585435 429.995028,151.698223 430.156853,151.802483 L430.58571,152.036406 L431.027563,152.257332 C431.227398,152.329966 431.431353,152.390718 431.63836,152.439271 L432.015235,152.543237 C432.361912,152.611972 432.714458,152.646791 433.067884,152.647202 L557.254558,152.647202 C560.287597,152.640057 562.744583,150.183071 562.751728,147.150032 L562.751728,138.728834 C562.709507,135.736274 560.286272,133.324578 557.293545,133.296642 Z" id="Path" fill="#D1D3D4" style="mix-blend-mode: multiply;"></path>
                    <path d="M547.143922,135.155023 C547.560031,136.44121 547.312168,137.849991 546.482049,138.916915 C545.651931,139.983838 544.347311,140.570411 542.998302,140.48325 L451.365795,140.48325 C450.016786,140.570411 448.712166,139.983838 447.882048,138.916915 C447.051929,137.849991 446.804066,136.44121 447.220175,135.155023 L453.016246,112.282635 L454.692688,105.680832 L456.36913,99.0790286 L460.267833,83.9130755 L462.970933,73.2566218 L464.400457,67.6164987 L466.193861,60.5468513 L467.987264,53.4772039 L469.182866,48.7467781 L471.885966,38.0903244 L479.683372,7.53749168 C480.592177,4.4797355 483.344749,2.33826615 486.532092,2.2092648 L507.93597,2.2092648 C511.123313,2.33826615 513.875885,4.4797355 514.784691,7.53749168 L522.582096,38.0903244 L525.285196,48.7467781 L526.493794,53.4772039 L528.300193,60.5468513 L530.093596,67.6164987 L531.52312,73.2566218 C532.263874,76.1806487 533.485467,80.9760529 534.226221,83.9130755 L538.124923,99.0920243 L539.801366,105.693827 L541.477808,112.29563 L547.143922,135.155023 Z" id="Path" fill="#FF6B03"></path>
                    <polygon id="Path" fill="#FFFFFF" points="539.918327 106.993395 454.367796 106.993395 455.01758 104.433247 461.5674 78.61084 532.705727 78.61084 539.268543 104.433247"></polygon>
                    <polygon id="Path" fill="#FFFFFF" points="528.573102 62.3142631 465.700025 62.3142631 466.570735 58.8314222 470.469438 43.4445426 523.777698 43.4445426 527.689396 58.8314222"></polygon>
                    <path d="M547.143922,135.155023 L541.334855,112.282635 L539.658413,105.680832 L537.981971,99.0790286 L534.083268,83.9000798 C533.329519,80.9760529 532.120921,76.1806487 531.380168,73.2436261 L529.950644,67.603503 L528.157241,60.5338556 L526.350842,53.5031953 L525.142244,48.7727695 L522.439143,38.1163157 L514.641738,7.56348303 C513.732932,4.50572685 510.980361,2.3642575 507.793017,2.23525615 L506.168558,2.23525615 C519.606086,0.857714571 520.463801,89.6831554 485.687374,117.078039 C474.602063,125.941089 461.528413,129.839792 448.155863,131.43826 L447.207179,135.19401 C446.79107,136.480197 447.038933,137.888978 447.869052,138.955902 C448.699171,140.022825 450.00379,140.609398 451.352799,140.522237 L542.933323,140.522237 C544.302839,140.63773 545.638493,140.056067 546.486803,138.974733 C547.335113,137.8934 547.582106,136.457677 547.143922,135.155023 Z" id="Path" fill="#D1D3D4" style="mix-blend-mode: multiply;"></path>
                    <path d="M509.456464,5.65311876 C509.456464,4.5908764 508.595346,3.72975882 507.533104,3.72975882 L486.714032,3.72975882 C485.65179,3.72975882 484.790672,4.5908764 484.790672,5.65311876 C484.790672,6.71536113 485.65179,7.57647871 486.714032,7.57647871 L507.598082,7.57647871 C508.660325,7.57647871 509.521442,6.71536113 509.521442,5.65311876 L509.456464,5.65311876 Z" id="Path" fill="#D1D3D4" style="mix-blend-mode: multiply;"></path>
                    <rect id="Rectangle" fill="#FF6B03" x="427.405381" y="135.025067" width="135.168019" height="19.4155389" rx="4.23"></rect>
                    <path d="M559.242896,135.012071 L559.073952,135.012071 C560.37352,139.820471 559.242896,143.498247 556.04596,145.629538 C545.051618,152.959098 471.57407,150.437937 429.663017,149.762162 C430.072155,152.435408 432.364879,154.413984 435.069218,154.42761 L559.255892,154.42761 C562.288931,154.420465 564.745917,151.963478 564.753062,148.930439 L564.753062,140.509242 C564.745897,137.471137 562.281009,135.012062 559.242896,135.012071 Z" id="Path" fill="#D1D3D4" style="mix-blend-mode: multiply;"></path>
                    <path d="M118.754481,94.8684298 C118.674699,94.5725219 118.565873,94.2852213 118.429589,94.0107152 C118.429589,93.9197455 118.325624,93.8417715 118.273641,93.7508017 C118.179148,93.5845728 118.075004,93.4240182 117.961745,93.2699617 C117.883771,93.1659963 117.792801,93.0620309 117.701831,92.9710612 C117.610862,92.8800915 117.506896,92.7501347 117.389935,92.6461693 C117.263072,92.5128353 117.128555,92.3869976 116.987069,92.2692947 L116.701164,92.0613639 C116.541991,91.960883 116.3771,91.8697589 116.207329,91.7884548 L115.986402,91.6844894 C115.791723,91.6026321 115.592057,91.5331829 115.388601,91.4765585 L115.232653,91.4765585 C115.048285,91.4355173 114.861704,91.4051437 114.673839,91.3855888 C114.556878,91.2816234 114.439917,91.1906537 114.30996,91.0866883 L114.024055,90.8787575 C113.86502,90.7780429 113.700115,90.6869111 113.53022,90.6058483 L113.296297,90.5018829 C113.10191,90.419268 112.902194,90.3498015 112.698496,90.2939521 L112.542548,90.2939521 C112.307674,90.2365539 112.068705,90.1974497 111.827786,90.176991 L111.788799,90.176991 C111.283284,90.1335158 110.774061,90.1730244 110.281301,90.2939521 L103.276632,92.139338 C100.760967,92.8126389 99.2585572,95.3881993 99.9107518,97.9094178 L102.587861,108.046045 L84.9787209,117.805797 L79.8584248,120.638854 L74.7511244,123.458916 L64.3545842,129.216 L58.8314222,132.269983 L54.6987974,134.557222 L50.3192548,136.987414 L45.510855,139.677518 L43.5744993,140.743164 L31.6444694,147.357962 L27.5118446,149.645201 L3.74275449,162.783829 C1.39676222,164.206753 0.220163029,166.967839 0.818727545,169.645546 L5.51016633,187.436625 C6.21675671,189.699226 8.09935212,191.397546 10.4225316,191.86815 C11.4769936,192.694345 12.7738234,193.150975 14.1133034,193.167718 L41.2092864,192.9208 L50.1633067,192.842826 L57.5838373,192.842826 L60.0270243,192.842826 L62.6261593,192.842826 L67.3435895,192.842826 L72.3469245,192.842826 L77.0643546,192.842826 L100.092691,192.335995 L102.366934,192.335995 L107.084365,192.335995 L124.862448,192.180047 L127.214666,201.082084 C127.724232,202.967508 129.340136,204.345931 131.282312,204.551929 C132.462416,205.644922 134.1181,206.061293 135.67485,205.656562 L142.679519,203.811176 C145.195184,203.137875 146.697594,200.562315 146.045399,198.041096 L118.754481,94.8684298 Z" id="Path" stroke="#231F20" stroke-width="3" style="mix-blend-mode: multiply;"></path>
                    <path d="M560.529468,136.558556 C559.507611,135.05714 557.810135,134.157332 555.993977,134.154356 L545.298536,134.154356 L539.970309,113.179336 L538.293867,106.564538 L536.617425,99.9627345 L532.718723,84.7837858 C531.964973,81.8597588 530.756376,77.0643546 530.015622,74.127332 L528.586098,68.4872089 L527.28653,63.158982 L527.104591,62.4572156 L526.844677,61.4175615 L525.376166,55.634486 L522.452139,44.3022572 L521.152572,38.9740303 L513.355166,8.4211976 C512.841893,6.651087 511.676138,5.14164359 510.093252,4.19760313 C508.752829,2.48682812 506.728731,1.45102194 504.557094,1.36454591 L483.153217,1.36454591 C479.964437,1.48961826 477.209847,3.63265815 476.304496,6.69277279 L468.507091,37.2456055 L465.80399,47.9020592 L464.608388,52.632485 L463.594726,56.6221574 L463.256838,57.9217249 L462.477097,60.9887043 L461.021582,66.7327927 L459.592058,72.3729158 L456.888957,83.0293696 L453.951934,94.621512 L453.640038,95.9210795 L450.196184,94.0107152 L449.624375,93.6858234 L449.065561,93.3739271 L444.465091,90.7747921 L440.787315,88.7344711 L436.797643,86.5252063 L434.562387,85.2256387 L433.86062,84.8357685 L425.972246,80.573187 L420.592036,77.5841816 L419.825291,77.1553244 L415.523723,74.7771158 L401.22848,66.8237625 L403.138844,59.5721756 C403.310693,58.9205357 403.310693,58.2354772 403.138844,57.5838373 C403.396095,55.6154074 402.157479,53.7602605 400.240808,53.2432818 L394.366763,51.6967964 C393.94248,51.5894447 393.50315,51.5542982 393.067196,51.592831 C392.86553,51.6119035 392.665658,51.6466639 392.469395,51.6967964 L392.339438,51.6967964 L391.832606,51.8787359 L391.637671,51.9697056 L391.22181,52.2036277 L390.987888,52.3725715 L390.675991,52.632485 L390.416078,52.9053942 L390.195151,53.1653077 C390.100331,53.2941371 390.013529,53.4286801 389.935238,53.5681737 C389.935238,53.6461477 389.844268,53.7111261 389.805281,53.7891001 C389.691097,54.0178303 389.599687,54.2572368 389.532372,54.5038623 L366.504035,141.05506 C366.332186,141.7067 366.332186,142.391758 366.504035,143.043398 C366.246784,145.011828 367.4854,146.866975 369.402071,147.383954 L375.276116,148.930439 C377.392527,149.483665 379.558374,148.223641 380.123503,146.110378 L382.371755,137.59821 L399.266133,137.754158 L403.164835,137.754158 L405.0752,137.754158 L419.838287,137.884115 L422.541387,137.884115 L426.44009,137.884115 C426.260743,138.411879 426.164296,138.964257 426.154185,139.52157 L426.154185,147.942768 C426.159527,148.531297 426.260476,149.115048 426.453085,149.671193 L426.453085,149.775158 C426.546374,150.034638 426.659332,150.28662 426.790973,150.528907 L426.881943,150.697851 C427.006262,150.910828 427.145216,151.114918 427.297804,151.308648 L427.479744,151.529574 C427.621469,151.698929 427.773366,151.859506 427.934592,152.010414 L428.233493,152.257332 C428.383344,152.378171 428.539512,152.49096 428.701337,152.59522 L429.026229,152.764163 C429.091208,152.855133 429.182177,152.946103 429.247156,153.037073 L429.429095,153.257999 C429.575132,153.427633 429.73137,153.58821 429.896939,153.738839 L430.19584,153.985757 C430.34575,154.106519 430.501914,154.219304 430.663684,154.323644 L431.092542,154.557567 C431.235494,154.635541 431.378446,154.713515 431.534395,154.778493 C431.733968,154.855469 431.937924,154.920561 432.145191,154.973428 L432.522066,155.077394 C432.868732,155.14621 433.221286,155.18103 433.574716,155.181359 L557.761389,155.181359 C560.794428,155.174214 563.251415,152.717227 563.25856,149.684188 L563.25856,141.262991 C563.245273,139.322444 562.207433,137.533405 560.529468,136.558556 Z" id="Path" stroke="#231F20" stroke-width="3" style="mix-blend-mode: multiply;"></path>
                </g>
            </g>
        </g>
    </g>
</svg>