<?xml version="1.0" encoding="UTF-8"?>
<svg width="41px" height="49px" viewBox="0 0 41 49" version="1.1" xmlns="http://www.w3.org/2000/svg" xmlns:xlink="http://www.w3.org/1999/xlink">
    <!-- Generator: Sketch 48.1 (47250) - http://www.bohemiancoding.com/sketch -->
    <title>blank-file</title>
    <desc>Created with Sketch.</desc>
    <defs></defs>
    <g id="-Загрузка-ДЗ-процесс-загрузки" stroke="none" stroke-width="1" fill="none" fill-rule="evenodd" transform="translate(-1173.000000, -509.000000)">
        <g id="Модалочка-4-Copy-9" transform="translate(519.000000, 243.000000)" fill="#C7CDD6" fill-rule="nonzero">
            <g id="Загрузка-работы" transform="translate(387.000000, 43.000000)">
                <g id="Загрузка" transform="translate(190.000000, 158.000000)">
                    <g id="blank-file" transform="translate(77.000000, 65.000000)">
                        <path d="M40.3599391,14.546676 C39.9329329,13.5259683 39.4207723,12.7181176 38.8225597,12.1225652 L28.8286401,2.16901768 C28.2304275,1.57402391 27.4194972,1.06339075 26.3943906,0.637788632 C25.3697328,0.212633456 24.4301173,0 23.5763293,0 L3.07487095,0 C2.22085856,0 1.49474607,0.297552755 0.896870083,0.89310521 C0.298881899,1.48832246 0,2.21147733 0,3.06234636 L0,45.9375419 C0,46.7886344 0.298881899,47.5117893 0.896870083,48.1071183 C1.49485827,48.702112 2.22085856,49 3.07498314,49 L37.9258018,49 C38.779702,49 39.5053657,48.702112 40.1031295,48.1071183 C40.7008933,47.5113423 40.9999996,46.7886344 40.9999996,45.9375419 L40.9999996,17.354041 C41.0003362,16.5032837 40.7868331,15.5673836 40.3599391,14.546676 Z M24.1794872,4.17021277 C24.7738191,4.39198548 25.1940636,4.63625012 25.4403284,4.90207438 L35.0674928,15.3166517 C35.3130034,15.5830586 35.5386923,16.0375587 35.7435897,16.6808511 L24.1794872,16.6808511 L24.1794872,4.17021277 Z M36.7948718,44.8297872 L4.20512821,44.8297872 L4.20512821,4.17021277 L20.4997771,4.17021277 L20.4997771,17.3846913 C20.4997771,18.231826 20.7965136,18.9516792 21.3906555,19.5446957 C21.9850204,20.1373785 22.7060166,20.4341093 23.5550934,20.4341093 L36.7948718,20.4341093 L36.7948718,44.8297872 Z" id="Shape"></path>
                    </g>
                </g>
            </g>
        </g>
    </g>
</svg>