<?xml version="1.0" encoding="UTF-8"?>
<svg width="13px" height="13px" viewBox="0 0 13 13" version="1.1" xmlns="http://www.w3.org/2000/svg" xmlns:xlink="http://www.w3.org/1999/xlink">
    <!-- Generator: Sketch 48.1 (47250) - http://www.bohemiancoding.com/sketch -->
    <title>flag</title>
    <desc>Created with Sketch.</desc>
    <defs></defs>
    <g id="Дистанционный-курс-урок" stroke="none" stroke-width="1" fill="none" fill-rule="evenodd" transform="translate(-323.000000, -283.000000)">
        <g id="Оглавление" transform="translate(-1.000000, 116.000000)" fill="#CDD0D0" fill-rule="nonzero">
            <g id="Прогресс" transform="translate(34.000000, 149.000000)">
                <g id="Group" transform="translate(279.000000, 8.000000)">
                    <g id="flag" transform="translate(11.000000, 10.000000)">
                        <path d="M1.23802001,0.642028267 C1.23802001,0.287457456 0.960868595,0 0.619010004,0 C0.277151412,0 0,0.287457456 0,0.642028267 L0,12.2668489 C0,12.6214197 0.277151412,12.9088771 0.619010004,12.9088771 C0.960868595,12.9088771 1.23802001,12.6214197 1.23802001,12.2668489 L1.23802001,7.18549476 C1.23806128,7.18553756 1.23814381,7.18553756 1.23818508,7.18558037 L1.23802001,0.642028267 Z" id="Shape"></path>
                        <path d="M10.0288749,3.49225498 C9.91559713,3.33918275 9.91689818,3.13344427 10.0320408,2.99432337 C10.6469588,2.25586216 11.279571,1.65024375 11.8767948,1.16700464 C12.4031982,0.741096761 11.7168528,0.430505329 11.5628956,0.365370068 C8.42932488,-0.960965213 5.29857312,1.81452063 2.16682389,0.969506153 L2.16682389,7.52091883 C5.30325689,8.36650008 8.43973325,5.57902481 11.5761229,6.92258126 C11.7292127,6.98776012 11.8689885,6.97171609 11.9363393,6.86969701 C12.0036902,6.76807031 11.98695,6.59350432 11.8931879,6.42246976 C11.2717647,5.29337138 10.6502981,4.33678988 10.0288749,3.49225498 Z" id="Shape"></path>
                    </g>
                </g>
            </g>
        </g>
    </g>
</svg>