<?xml version="1.0" encoding="UTF-8"?>
<svg width="7px" height="9px" viewBox="0 0 7 9" version="1.1" xmlns="http://www.w3.org/2000/svg" xmlns:xlink="http://www.w3.org/1999/xlink">
    <!-- Generator: Sketch 52.2 (67145) - http://www.bohemiancoding.com/sketch -->
    <title>left-arrow (3)</title>
    <desc>Created with Sketch.</desc>
    <g id="Page-1" stroke="none" stroke-width="1" fill="none" fill-rule="evenodd">
        <g id="Дистанционный-курс-урок" transform="translate(-876.000000, -675.000000)" fill="#FFFFFF">
            <g id="Group-2" transform="translate(872.000000, 672.000000)">
                <g id="left-arrow-(3)" transform="translate(7.750000, 7.750000) rotate(270.000000) translate(-7.750000, -7.750000) translate(3.750000, 4.250000)">
                    <path d="M7.55030894,2.70598374 L7.56279675,2.70871545 L2.20956098,2.70871545 L3.89242276,1.02214634 C3.97482927,0.939804878 4.02003252,0.828260163 4.02003252,0.711186992 C4.02003252,0.594113821 3.97482927,0.483349593 3.89242276,0.400813008 L3.63056911,0.138829268 C3.54822764,0.0564878049 3.43850407,0.0109593496 3.32149593,0.0109593496 C3.20442276,0.0109593496 3.09463415,0.0561626016 3.01229268,0.138504065 L0.127544715,3.02299187 C0.0448780488,3.10565854 -0.000325203252,3.21577236 -4.23516474e-22,3.33291057 C-0.000325203252,3.45069919 0.0448780488,3.56087805 0.127544715,3.64341463 L3.01229268,6.5281626 C3.09463415,6.61043902 3.20435772,6.65570732 3.32149593,6.65570732 C3.43850407,6.65570732 3.54822764,6.61037398 3.63056911,6.5281626 L3.89242276,6.26617886 C3.97482927,6.18396748 4.02003252,6.07417886 4.02003252,5.95710569 C4.02003252,5.84009756 3.97482927,5.73609756 3.89242276,5.65382114 L2.19056911,3.95782114 L7.55629268,3.95782114 C7.79739837,3.95782114 8,3.75001626 8,3.50904065 L8,3.13850407 C8,2.89752846 7.79141463,2.70598374 7.55030894,2.70598374 Z" id="Path"></path>
                </g>
            </g>
        </g>
    </g>
</svg>