<?xml version="1.0" encoding="UTF-8"?>
<svg width="11px" height="13px" viewBox="0 0 11 13" version="1.1" xmlns="http://www.w3.org/2000/svg" xmlns:xlink="http://www.w3.org/1999/xlink">
    <!-- Generator: Sketch 52.2 (67145) - http://www.bohemiancoding.com/sketch -->
    <title>padlock</title>
    <desc>Created with Sketch.</desc>
    <g id="Page-1" stroke="none" stroke-width="1" fill="none" fill-rule="evenodd" opacity="0.900000036">
        <g id="Финал-страница-курса-с-блоками" transform="translate(-766.000000, -1269.000000)" fill="#9D9D9D" fill-rule="nonzero">
            <g id="Блок-2" transform="translate(728.000000, 453.000000)">
                <g id="Урок-1-Copy-7" transform="translate(0.000000, 779.000000)">
                    <g id="padlock" transform="translate(38.000000, 37.000000)">
                        <path d="M10.7324103,6.16762521 C10.5541176,5.99526117 10.3377651,5.90914383 10.0830183,5.90914383 L9.77763643,5.90914383 L9.77763643,4.1363166 C9.77763643,3.00375873 9.35760683,2.03130861 8.51728005,1.21880457 C7.67702017,0.40626819 6.67141063,0 5.49994976,0 C4.32852233,0 3.32271212,0.40626819 2.48251913,1.21877223 C1.64219236,2.03130861 1.22216275,3.00372639 1.22216275,4.1363166 L1.22216275,5.90914383 L0.916647145,5.90914383 C0.662100975,5.90914383 0.445614658,5.99526117 0.267355417,6.16762521 C0.0890961761,6.3398599 0,6.54918681 0,6.79554127 L0,12.1136672 C0,12.3597953 0.0891296206,12.5691869 0.267355417,12.7415833 C0.445614658,12.9137856 0.662100975,13 0.916647145,13 L10.0832524,13 C10.3379992,13 10.5543183,12.9138827 10.7326444,12.7415833 C10.9107365,12.5691869 10.9999999,12.3597953 10.9999999,12.1136672 L10.9999999,6.79544426 C11.0001336,6.54928383 10.9107365,6.33998925 10.7324103,6.16762521 Z M7.94437559,5.90914383 L3.05552393,5.90914383 L3.05552393,4.1363166 C3.05552393,3.48388798 3.29428429,2.92679317 3.77170468,2.4652262 C4.24919195,2.00359455 4.8252402,1.77282723 5.50005009,1.77282723 C6.17492687,1.77282723 6.75084134,2.00356221 7.22836206,2.4652262 C7.70564867,2.92676083 7.94437559,3.48388798 7.94437559,4.1363166 L7.94437559,5.90914383 Z" id="Shape"></path>
                    </g>
                </g>
            </g>
        </g>
    </g>
</svg>