<?xml version="1.0" encoding="UTF-8"?>
<svg width="207px" height="58px" viewBox="0 0 207 58" version="1.1" xmlns="http://www.w3.org/2000/svg" xmlns:xlink="http://www.w3.org/1999/xlink">
    <!-- Generator: Sketch 52.2 (67145) - http://www.bohemiancoding.com/sketch -->
    <title>Новый лого коалиции</title>
    <desc>Created with Sketch.</desc>
    <g id="Page-1" stroke="none" stroke-width="1" fill="none" fill-rule="evenodd">
        <g id="Вход-на-вебинар-для-незарегистрированныъ-Copy" transform="translate(-475.000000, -25.000000)" fill-rule="nonzero">
            <g id="Новый-лого-коалиции" transform="translate(475.000000, 25.000000)">
                <path d="M51.4,34.1 C51.4,46.8 40.5,57 27.9,57 C15.3,57 5.6,46.7 5.6,34.1 C5.6,21.5 15.8,11.2 28.5,11.2 C41.2,11.2 51.4,21.4 51.4,34.1 C51.4,34.1 51.4,34.1 51.4,34.1 Z" id="Shape" fill="#89B75E"></path>
                <path d="M27.9,57.5 C15.1,57.5 5.1,47.2 5.1,34.1 C5.1,21.2 15.6,10.7 28.5,10.7 C41.4,10.7 51.9,21.2 51.9,34.1 C51.9,34.1 51.9,34.1 51.9,34.1 C51.9,40.4 49.3,46.4 44.7,50.7 C40.2,55.1 34.2,57.5 27.9,57.5 Z M28.5,11.7 C16.1,11.7 6.1,21.7 6.1,34.1 C6.1,46.6 15.7,56.5 27.9,56.5 C40.4,56.5 50.9,46.3 50.9,34.1 C50.9,21.7 40.9,11.7 28.5,11.7 C28.6,11.7 28.5,11.7 28.5,11.7 Z" id="Shape" fill="#000105"></path>
                <path d="M37.7,53.3 C39.4,53.1 40.9,51.9 41.4,50.2 C42.1,47.1 39.6,44.6 34.8,44.2 C34.9,45.5 35.2,46.8 35.7,48.1 C37.6,49.1 36.6,52.2 36.2,52.6 C36,52.8 37.5,53.4 37.7,53.3 Z" id="Shape" fill="#94948E"></path>
                <path d="M36.3,44.5 C36.2,44.6 36.1,44.8 36,45 C35.9,45.2 35.9,45.5 36,45.7 C35.9,45.7 35.4,46 35.3,45.7 C35.2,45.2 35.2,44.8 35.2,44.3 L36.3,44.5 C36.1,44.5 36,44.5 35.8,44.4" id="Shape" fill="#5E5E5E"></path>
                <path d="M29.1,15.8 C29.1,15.8 25.6,13.5 28.8,11.4 C29,12 29.2,12.6 29.4,13.2 C29.6,12.3 30.3,11.7 31.2,11.6 C31.2,11.6 30.4,13.7 31.1,14 C31.2,13.5 31.6,13.2 32.1,13.1 C32.1,13.1 31.3,12.5 32.7,12.9 C32.7,12.9 31.2,14.5 31.5,15.3 C31.5,15.4 31.6,15.4 31.6,15.5 C30.8,15.7 30,15.8 29.1,15.8 Z" id="Shape" fill="#94948E"></path>
                <path d="M39.2,18.4 C39.2,18.4 39.7,9.2 49.1,7.3 C49.1,7.3 48.2,7.8 48,8.4 C51.4,7.2 55.2,7.9 58,10.2 C57.2,9.9 56.4,9.8 55.6,9.8 C59.4,12.4 61.1,17.1 60.1,21.6 C60.1,21.6 60.1,24 59.6,23.3 C59.5,24.6 58.8,25.8 57.8,26.6 C57.8,26.6 54.9,33.6 43.1,30.7 C34.1,28.7 39.2,18.4 39.2,18.4 Z" id="Shape" fill="#94948E"></path>
                <path d="M39.2,18.5 C39.2,18.5 39.7,9.3 49.1,7.4 C49.1,7.4 48.2,7.9 48,8.5 C51.4,7.3 55.2,8 58,10.3 C57.2,10 56.4,9.9 55.6,9.9 C55.6,9.9 63.4,15.5 59.5,23.1 C59.5,23.1 59.4,25.8 57.7,27 C57.7,27 55,33.6 43.2,30.8 C34.1,28.8 39.2,18.5 39.2,18.5 Z" id="Shape" fill="#5E5E5D" opacity="0.4"></path>
                <path d="M18.5,18.6 C18.5,18.6 21.1,10.2 14.6,6.7 C14.9,7 15,7.4 15,7.9 C15,7.9 10.6,4 6.7,6 C6.7,6 8.4,6.2 8.6,6.5 C8.6,6.5 1.1,8 0.6,15 C0.6,15 0.6,20 2.3,21.1 C2.3,21.1 4.5,25.4 12.2,26.8 C19.9,28.2 18.5,18.6 18.5,18.6 Z" id="Shape" fill="#94948E"></path>
                <path d="M17.6,17.1 C17.6,17.1 16.9,10.8 11.4,9.2 L12,10.8 C10.5,10.7 9.1,11.2 8,12.2 C6.5,13.2 5.4,14.8 5,16.6 C4.7,17.9 4.8,23.7 11.5,26 C18.2,28.3 17.6,17.1 17.6,17.1 Z" id="Shape" fill="#E1D4DD"></path>
                <path d="M17.1,18.5 C17.1,18.5 17.1,12.4 11.1,12.8 L11.6,14.2 C11.1,14.2 10.6,14.3 10.2,14.5 C7.8,15.6 7.3,18.6 7.3,19 C7.3,19 6.9,23.7 12.2,24.8 C12.9,25 13.7,24.9 14.4,24.6 C16,23.8 18,22.1 17.1,18.5 Z" id="Shape" fill="#FFFFFF"></path>
                <path d="M16.4,19 C16.7,17.1 15.4,15.3 13.5,15 C13.4,15 13.2,15 13.1,15 C13.1,15 13.4,15.5 13.7,16.1 C12.6,16.1 11.5,16.7 10.9,17.6 C10,19.2 10.6,21.2 12.2,22 C12.7,22.2 13.2,22.4 13.7,22.4 C14.4,22.7 16.4,19 16.4,19 Z" id="Shape" fill="#5E5E5E"></path>
                <path d="M41.4,20.7 C41.4,20.7 42.1,14.4 47.6,12.8 L47,14.4 C48.5,14.3 49.9,14.8 51,15.8 C52.5,16.8 53.6,18.4 54,20.2 C54.3,21.5 54.2,27.3 47.5,29.6 C40.8,31.9 41.4,20.7 41.4,20.7 Z" id="Shape" fill="#E1D4DD"></path>
                <path d="M41.9,22.1 C41.9,22.1 41.9,16 47.9,16.4 L47.4,17.8 C47.9,17.8 48.4,17.9 48.8,18.1 C51.2,19.2 51.7,22.2 51.7,22.6 C51.7,22.6 52.1,27.3 46.8,28.4 C46.1,28.6 45.3,28.5 44.6,28.2 C43,27.4 41,25.7 41.9,22.1 Z" id="Shape" fill="#FFFFFF"></path>
                <path d="M42.6,22.6 C42.3,20.7 43.6,18.9 45.5,18.6 C45.6,18.6 45.8,18.6 45.9,18.6 C45.9,18.6 45.6,19.1 45.3,19.7 C46.4,19.7 47.5,20.3 48.1,21.2 C49,22.8 48.4,24.8 46.8,25.6 C46.3,25.8 45.8,26 45.3,26 C44.6,26.3 42.6,22.6 42.6,22.6 Z" id="Shape" fill="#5E5E5E"></path>
                <path d="M10.9,32.7 C10.9,32.7 9.8,41.5 21.9,42.6 C36,43.9 39.4,44.3 42.3,40.8 C43.9,38.9 49.2,23.3 39.9,17.8 C37.3,16.7 34.7,15.9 31.9,15.5 C30.6,15.3 30.4,15.5 29.2,15.3 C22.7,14.5 18,15.9 17,16.9 C15.4,18.7 11.1,28.6 10.9,32.7 Z" id="Shape" fill="#94948E"></path>
                <g id="Group" opacity="0.4" transform="translate(19.000000, 16.000000)" fill="#5E5E5E">
                    <path d="M0.4,25.8 C14.5,27.5 20.4,28 23.3,24.5 C24.9,22.6 31.7,3.6 17.1,0.4 C17.1,0.4 26.6,6.1 22.7,18.6 C19.3,28.7 0.4,25.8 0.4,25.8 Z" id="Shape"></path>
                </g>
                <path d="M12.4,38 C13.1,39.8 14.5,41.7 23.6,42.8 C30.5,43.7 36.1,43.7 38.8,41.8 C41.9,39.5 42,31.8 37.1,29.5 C32.2,27.2 21.7,25.2 15.3,30.1 C12.7,32 11.6,35.6 12.4,38 Z" id="Shape" fill="#DCD8CD"></path>
                <path d="M20.5,26.9 C20.2,28 18.9,28.5 17.4,28.1 C15.9,27.7 15.2,27 15.5,25.6 C15.8,24.2 17.3,22.8 18.7,23.1 C20.1,23.4 20.8,25.4 20.5,26.9 Z" id="Shape" fill="#FFFFFF"></path>
                <path d="M20.6,27.2 C20.5,27.9 19.9,28.4 19.2,28.4 C19.1,28.4 19,28.4 18.9,28.3 C18.1,28 17.7,27.2 18,26.4 C18,26.4 18,26.4 18,26.4 C18.2,25.7 18.9,25.2 19.6,25.4 C20.3,25.7 20.7,26.4 20.6,27.2 Z" id="Shape" fill="#1F201E"></path>
                <path d="M33.9,36.5 C33.2,39.4 29,39.7 25.1,38.7 C21.2,37.7 15.6,37.8 17.7,31.9 C18.4,29.8 22.4,28 26.4,28.6 C31.6,29.5 34.6,33.6 33.9,36.5 Z" id="Shape" fill="#1F201E"></path>
                <path d="M38.9,29.3 C38.5,30.6 37,31.1 35.3,30.6 C33.6,30.1 32.8,29.3 33.3,27.7 C33.8,26 35.4,24.9 37.2,25.1 C38.9,25.5 39.4,27.6 38.9,29.3 Z" id="Shape" fill="#FFFFFF"></path>
                <path d="M36.4,29.4 C36.3,30.2 35.5,30.8 34.6,30.7 C34.5,30.7 34.4,30.7 34.3,30.6 C33.4,30.2 33,29.2 33.3,28.3 C33.6,27.5 34.4,27.1 35.2,27.3 C36.1,27.5 36.7,28.4 36.4,29.4 C36.4,29.3 36.4,29.3 36.4,29.4 Z" id="Shape" fill="#1F201E"></path>
                <path d="M50.9,7.7 C56.6,8.9 55.8,9.7 56.1,9.8 C56.5,9.8 57,9.8 57.4,9.7 C54.6,7.7 54.3,8.1 50.9,7.7 Z" id="Shape" fill="#5E5E5D"></path>
                <path d="M22.3,42.6 C21.9,43.9 18,50.9 21,56.3 C22.3,56.8 34.7,56.7 34.7,56.5 C34.7,56.3 37.3,53.4 37.2,52.1 C37.1,50.8 35,44.4 34.7,43.4 C34.4,44 22.3,42.6 22.3,42.6 Z" id="Shape" fill="#94948E"></path>
                <g id="Group" opacity="0.9" transform="translate(21.000000, 42.000000)" fill="#FFFFFF">
                    <path d="M1.4,2.6 C1.4,1.9 1.6,1.3 1.9,0.7 C2.3,0.2 1.3,0.6 1.3,0.6 L0.7,2.6 L1.5,3 L1.4,2.6 Z" id="Shape"></path>
                </g>
                <path d="M34.6,43.6 C34.7,43.8 35,44.8 35,44.8 L34.1,44.7 C34.1,44.7 33.7,43.7 33.3,43.6 C32.9,43.5 34.6,43.6 34.6,43.6 Z" id="Shape" fill="#5E5E5D"></path>
                <path d="M20.5,56.6 C20.5,56.6 23.8,56.7 25.8,56.9 C27.1,57.1 28.3,57.2 29.6,57 C30.7,56.8 33.7,57 35.3,56.1 C36.8,53.4 37,50.1 35.9,47.2 C35.7,46.1 35.5,45.3 35.5,45.3 C35.5,45.3 35.9,45.1 35.4,49.8 C34.7,54.9 28.8,58.1 20.5,56.6 Z" id="Shape" fill="#5E5E5E" opacity="0.4"></path>
                <circle id="Oval" fill="#FFFFFF" cx="19.6" cy="26.3" r="1"></circle>
                <circle id="Oval" fill="#FFFFFF" cx="35" cy="28.3" r="1"></circle>
                <path d="M56.8,10.6 C58.2,12.9 59.1,15.4 59.5,18 C59.8,20.5 59.4,23.1 58.4,25.4 C59,24.1 59.6,22.7 60.3,21.4 L59.6,14.4 L56.8,10.6 Z" id="Shape" fill="#5D5D5C"></path>
                <path d="M15.4,8.8 C13.6,7 11.2,6 8.7,6.2 C4.3,6.3 7.5,5.7 7.5,5.7 L11.3,5.4 C11.3,5.4 14.2,7.1 14.4,7.2 L15.1,7.9 L15.4,8.8 Z" id="Shape" fill="#FFFFFF" opacity="0.8"></path>
                <path d="M26,57.2 C26,56.7 27.2,48.5 26.5,48.2 C25.8,47.9 19.7,45.4 19.8,45.7 C19.9,46 19,55.6 19,55.6 L26,57.2 Z" id="Shape" fill="#E7B34E"></path>
                <path d="M19.3,55.2 C19.3,55.2 21.5,54.9 21.5,54.1 C21.5,53.3 19.2,54.5 19.2,54.6 C19.2,54.7 19.3,55.2 19.3,55.2 Z" id="Shape" fill="#8AA15E"></path>
                <path d="M22.2,15.5 C22.2,15.5 17.4,14.5 15.6,18.8 C14.3,21.5 13.1,24.2 12.1,27 C12.1,27 9.7,34.1 11.1,36.1 C11.3,34.4 11.6,32.7 12.1,31 C14.4,20.2 17.1,18.9 17.5,18.3 C18.5,17 18.9,15.7 22.2,15.5 Z" id="Shape" fill="#FFFFFF" opacity="0.9"></path>
                <path d="M32.4,13.1 C32.4,13.1 30.5,14.3 31.5,15.5 L31.7,15.5 L32.4,13.1 Z" id="Shape" fill="#5D5D5C"></path>
                <path d="M28.9,15.4 C28.9,15.4 27.4,13.2 28.6,11.6 C28.1,11.8 27.7,12.2 27.5,12.7 L27.9,15 L28.9,15.4 Z" id="Shape" fill="#FFFFFF" opacity="0.8"></path>
                <path d="M34,43.9 C32.4,43.9 30.7,43.8 29.1,43.6 C23.6,43.1 19.3,42.6 19.1,42.5 C16.1,42.2 13.4,40.6 11.6,38.2 C9.8,35.5 9.6,31.7 11.1,27 C10.7,26.9 10.3,26.8 10,26.6 C5.9,25.2 4.2,24.6 1.6,20.7 C-0.4,17.5 -0.3,13.5 1.8,10.4 C3,8.6 4.7,7.2 6.8,6.6 L6.7,6.6 L4.9,6.2 L6.6,5.5 C7.7,5 8.9,4.8 10.1,4.9 C11.3,5 12.4,5.3 13.4,5.9 L13.1,5.4 L14.8,6.3 C15.9,6.8 16.9,7.5 17.7,8.4 C19.1,10.2 19.8,12.6 19.6,14.9 C22.1,14.6 24.6,14.5 27.1,14.5 C26.9,14.1 26.8,13.6 26.8,13.1 C27,12.1 27.7,11.2 28.6,10.7 L29.6,10.1 L29.4,11.3 L29.4,11.9 C30,11.3 30.8,11.1 31.6,11.2 L32.7,11.3 L32,12.1 C31.8,12.4 31.6,12.6 31.5,12.8 C31.9,12.6 32.4,12.5 32.8,12.7 L33.6,12.9 L33,13.5 C32.6,13.9 32.4,14.4 32.2,14.9 C34.4,15.4 36.6,16 38.8,16.7 C39.2,14.8 40.3,10.9 44,8.6 C45.5,7.6 47.2,7.1 49,6.9 L50.4,6.8 L49.8,7.3 C50.5,7.2 51.1,7.1 51.8,7.1 C54.2,7.2 56.5,8.1 58.3,9.7 L59.9,11.1 L57.8,10.6 C57.7,10.6 57.6,10.6 57.5,10.5 C59,11.9 60.1,13.8 60.5,15.9 C60.9,18.5 60.7,21.2 60,23.8 C59,26.1 57.4,28.2 55.5,29.8 C52,32.5 47.6,32.1 45.7,31.7 C45.7,31.9 45.6,32 45.6,32.2 C45.3,34.7 44.6,37.1 43.5,39.4 C42.2,42 40.5,43.9 34,43.9 Z M8.9,6 L10.4,6.6 L8.9,7 C8.8,7 8.8,7 8.7,7.1 C7.6,7.4 4.4,8.2 2.8,11.1 C0.9,13.8 0.8,17.5 2.6,20.3 C5,23.9 6.4,24.4 10.5,25.8 C11,26 11.5,26.1 12.1,26.3 L12.9,25.4 L12.1,27.4 C10.5,32 10.9,35.2 12.6,37.7 C14.8,41.1 19.3,41.5 19.3,41.5 C19.3,41.5 23.7,42 29.3,42.6 C40.2,43.7 41.4,41.4 42.7,39 C43.7,36.8 44.4,34.5 44.7,32.1 C44.8,31.8 44.8,31.4 44.9,31.1 L45,30.5 L45.6,30.6 C46.9,30.9 51.5,31.7 55,29 C56.8,27.5 58.2,25.6 59.2,23.5 C59.9,21.1 60,18.6 59.7,16.2 C59.3,13.7 57.8,11.6 55.6,10.3 L53.8,9.3 L55.8,9.3 C54.6,8.6 53.3,8.3 51.9,8.2 C50.7,8.2 49.4,8.4 48.3,8.9 L46,9.9 L47.7,8.1 C46.6,8.4 45.6,8.8 44.7,9.4 C40.9,11.9 40.1,16.2 39.9,17.5 L39.8,18.2 L39.1,17.9 C36.7,17 34.1,16.3 31.6,15.8 L31.2,15.7 L31.2,14.6 L31,15 L30.5,14.2 C30.3,13.6 30.3,12.9 30.5,12.3 C30.1,12.5 29.8,12.9 29.7,13.4 L29.3,15.3 L29.6,15.6 L28.2,15.5 C25.2,15.3 22.1,15.5 19.1,16 L18.4,16.1 L18.5,15.4 C18.8,13.1 18.3,10.8 16.9,9 C16.5,8.5 16.1,8.1 15.6,7.8 L15.7,9.4 L14.6,8.3 C13.4,6.9 11.8,6.1 10,6 L8.9,6 Z M28.5,12.2 C28.2,12.4 28,12.8 28,13.2 C28,13.8 28.2,14.3 28.6,14.7 L29.2,15.3 L28.7,13.5 C28.7,13.4 28.6,12.8 28.5,12.2 Z" id="Shape" fill="#141516"></path>
                <polygon id="Shape" fill="#E7B34E" points="28.2 57.4 28.9 48.2 36.7 45.9 35.9 55.9"></polygon>
                <path d="M29,48.6 C29,48.6 35.6,46.7 35.8,47.7 C36,48.7 35.9,51 35.9,51 L35.1,55.3 C34.8,55.7 34.4,56 33.9,56.2 C32.1,56.6 30.2,57 28.3,57.2 L28.3,57.5 L35.9,56.1 L36.8,45.7 L33.9,46.5 L28.9,48.2 L29,48.6 Z" id="Shape" fill="#CF9D49"></path>
                <path d="M29.3,39.6 C28.6,39.6 28,39.5 27.3,39.4 C27.3,39.4 24.8,39 20.3,38 C18.6,37.6 17.4,36.9 16.9,35.8 C16.4,34.8 16.4,33.6 16.8,32.5 C17.3,31.3 19.4,27 25.8,27.7 C30.8,28.4 32.9,30.7 33.8,32.4 C34.7,33.9 34.8,35.7 34.2,37.3 C33.3,39.2 31,39.6 29.3,39.6 Z M18,33.1 C17.8,33.8 17.8,34.5 18.1,35.1 C18.7,35.9 19.6,36.5 20.6,36.6 C25.1,37.6 27.6,38 27.6,38 C28.8,38.2 32.2,38.4 33,36.7 C33.4,35.5 33.3,34.2 32.6,33.1 C31.8,31.6 30,29.8 25.6,29.1 C19.4,28.4 18,33 18,33.1 Z" id="Shape" fill="#131415"></path>
                <path d="M18.4,28.7 C17.9,28.7 17.4,28.6 16.9,28.5 C16.1,28.3 15.4,27.8 15.1,27.1 C14.9,26 15.1,24.9 15.6,24 C16.2,22.8 17.4,22.1 18.7,22.2 C19.9,22.4 20.8,24.1 20.8,24.1 C21.2,25.1 21.8,27.3 19.7,28.4 C19.3,28.6 18.9,28.7 18.4,28.7 Z M19.6,28 C21.8,26.3 19.9,23.4 18.8,23.1 C17.8,22.9 16.9,23.3 16.3,24.1 C15.6,24.8 15.3,25.9 15.6,26.9 C15.9,27.6 16.4,27.9 17.4,28.1 C18.1,28.2 18.9,28.2 19.6,28 Z" id="Shape" fill="#1D1D1B"></path>
                <path d="M36.6,31 C35.3,31 33.3,30.8 32.7,29 C32.4,28.1 33.2,26.1 34,25.3 C34.9,24.5 36.1,24.1 37.3,24.4 C38.2,24.7 39,25.4 39.3,26.3 C39.3,26.4 40.3,29.2 38.5,30.6 C37.9,30.9 37.3,31 36.6,31 Z M38.3,30.2 C39.4,29.4 39.6,25.8 36.9,25.3 C35.9,25 34.8,25.4 34.2,26.2 C33.5,27 33.1,28 33.2,29.1 C33.3,29.7 33.8,30.2 34.4,30.3 C35.8,30.8 37,31.1 38.3,30.2 Z" id="Shape" fill="#141516"></path>
                <path d="M20,46.2 C20,46.2 26.1,48.2 26.6,49.4 C27.1,50.6 26.9,48.3 26.8,48.2 C26.7,48.1 20,45.7 20,45.7 L20,46.2 Z" id="Shape" fill="#CF9D49"></path>
                <path d="M16.2,22.4 C15.9,21.9 16.1,21.2 16.6,20.9 C16.6,20.9 16.6,20.9 16.7,20.9 C17.9,20.6 18.2,21.4 18.1,21.4 C17.8,21.2 17.3,21.2 17,21.4 C16.6,21.6 16.3,21.9 16.2,22.4 Z" id="Shape" fill="#1D1D1B"></path>
                <path d="M37.7,23.7 C37.6,23.6 38.4,22.8 39.2,23.3 C40.1,24.1 39.5,24.8 39.5,24.8 C39.4,24.5 39.3,24.1 39,23.9 C38.6,23.6 38.2,23.6 37.7,23.7 Z" id="Shape" fill="#000105"></path>
                <path d="M40.1,23.7 C39.8,22.6 38.8,22 37.7,22.2 C37.6,22.2 37.5,22.3 37.4,22.3" id="Shape" fill="#94948E"></path>
                <path d="M27.5,41.8 C26.6,41.8 25.7,41.5 25,40.9 C24.9,40.8 24.9,40.6 25,40.5 C25.1,40.4 25.3,40.4 25.4,40.5 C26.1,41.1 27,41.3 27.9,41.2 C28.9,41 29.9,40.6 30.7,40 C30.1,40.9 29.1,41.6 28,41.8 L27.5,41.8 Z" id="Shape" fill="#141516"></path>
                <path d="M18.8,35.1 C18.8,35.1 17.7,29.6 22.9,29.9 C19.1,30.6 18.8,35.1 18.8,35.1 Z" id="Shape" fill="#FFFFFF" opacity="0.3"></path>
                <path d="M21,15.3 L21.4,12.3 L11.6,7 L33.1,1.5 L52.1,11.8 L41,14.8 L40.7,18.1 C40.7,18.1 38.7,16.2 31.2,15.3 C24.3,14.6 21,15.3 21,15.3 Z" id="Shape" fill="#1D1D1B"></path>
                <path d="M40.6,18.6 C40.4,18.6 40.3,18.5 40.2,18.4 C40.2,18.4 38.2,16.6 31,15.8 C27.7,15.3 24.4,15.3 21.1,15.7 C20.9,15.7 20.8,15.7 20.6,15.6 C20.5,15.5 20.4,15.3 20.4,15.1 L20.7,12.5 L11.2,7.4 C11,7.3 10.9,7.1 10.9,6.9 C10.9,6.7 11.1,6.5 11.3,6.4 L32.8,0.9 L33.2,0.9 L52.2,11.2 C52.4,11.3 52.5,11.5 52.5,11.7 C52.5,11.9 52.3,12.1 52.1,12.2 L41.4,15.1 L41.1,18.1 C41.1,18.3 41,18.4 40.8,18.5 C40.7,18.6 40.7,18.6 40.6,18.6 Z M25.1,14.4 C27.1,14.4 29.2,14.5 31.2,14.8 C36.4,15.4 39,16.5 40.2,17.1 L40.4,14.7 C40.4,14.5 40.6,14.3 40.8,14.2 L50.6,11.5 L33,2 L13,7.1 L21.6,11.8 C21.8,11.9 21.9,12.1 21.9,12.3 L21.6,14.6 C22.8,14.4 23.9,14.4 25.1,14.4 Z" id="Shape" fill="#000105"></path>
                <path d="M40.6,18.1 C40.6,18.1 41.2,13 41.2,12.6 C35.2,9.4 28.2,8.5 21.6,10.2 L21,15.1 C24.5,14.6 28,14.6 31.5,15.2 C34.7,15.6 37.8,16.6 40.6,18.1 Z" id="Shape" fill="#555555"></path>
                <path d="M41.1,18.9 L40.4,18.6 C37.6,17.2 34.6,16.3 31.5,15.8 C28.1,15.2 24.6,15.2 21.2,15.7 L20.4,15.8 L21.2,9.8 L21.5,9.7 C28.2,8 35.4,8.9 41.5,12.2 L41.8,12.3 L41.8,12.7 C41.8,13.1 41.2,18.2 41.2,18.2 L41.1,18.9 Z M25.9,14.2 C27.8,14.2 29.8,14.4 31.7,14.7 C34.7,15.2 37.5,16.1 40.3,17.3 C40.4,16.1 40.7,13.8 40.8,12.9 C35.1,10 28.5,9.2 22.3,10.6 L21.8,14.5 C23.2,14.3 24.5,14.2 25.9,14.2 Z" id="Shape" fill="#000105"></path>
                <path d="M19.1,52.9 C17.4,52.7 15.9,51.5 15.4,49.8 C14.7,46.7 16.8,44 21.6,43.6 C21.7,44.6 21.6,45.5 21.5,46.4 C21.4,46.8 19.8,45.6 19.7,46.1 C19.1,46.4 20,48.6 19.7,49.2 C19.1,50.2 18.9,51.4 19.1,52.5 C19.2,52.5 19.3,52.6 19.3,52.7 C19.3,52.8 19.2,52.9 19.1,52.9 Z" id="Shape" fill="#94948E"></path>
                <path d="M20.3,45.6 L25.5,47.5 L28.1,48.1 L36.8,45.7 C36.8,45.7 33.8,44.5 33.7,44.5 C33.6,44.5 27.7,47.5 27.7,47.5 L24.9,45.9 L20.6,44.8 L20.3,45.6 Z" id="Shape" fill="#FFFFFF"></path>
                <path d="M20.4,43.7 C20.5,43.8 20.6,44 20.7,44.2 C20.8,44.4 20.8,44.7 20.7,44.9 C20.8,44.9 21.3,45.2 21.4,44.9 C21.5,44.4 21.5,44 21.5,43.5 L20.4,43.7 C20.6,43.7 20.7,43.7 20.9,43.6" id="Shape" fill="#5E5E5E"></path>
                <path d="M28.2,57.7 L27.1,57.7 C24.2,57.6 21.4,57 18.8,55.9 C18.6,55.8 18.4,55.6 18.5,55.4 L19.2,45.4 C19.2,45.2 19.3,45.1 19.5,45 C19.7,44.9 19.8,44.9 20,45 C20.1,45 25.2,47.3 27,47.6 C27.6,47.7 28.1,47.7 28.7,47.6 C31.4,47 34,46.2 36.5,45.2 C36.6,45.1 36.8,45 37,45.1 C37.2,45.2 37.4,45.4 37.4,45.7 L37.1,55.9 C34.3,57 31.3,57.6 28.2,57.7 Z M19.6,55 C22,55.9 24.6,56.5 27.2,56.6 C30,56.7 32.8,56.4 35.4,55.5 L36.2,46.4 C35.4,46.7 34.6,47 33.7,47.2 C32.1,47.7 30.5,48.2 28.9,48.5 C28.2,48.6 27.5,48.6 26.8,48.5 C24.5,47.9 22.3,47.1 20.2,46.1 L19.6,55 Z" id="Shape" fill="#000105"></path>
                <path d="M27.7,47.9 L27.4,47.6 C25.9,46.5 24.1,45.8 22.3,45.5 C21.6,45.3 20.8,45.4 20.1,45.8 L19.4,45 C20.3,44.4 21.4,44.2 22.5,44.5 C24.4,44.9 26.2,45.6 27.8,46.6 C29.1,45.8 33,43.7 34.5,44.2 C35.3,44.5 36.2,44.8 37,45.1 L36.6,46.1 C36.6,46.1 34.6,45.4 34.2,45.3 C33.3,45 30.1,46.6 28,47.8 L27.7,47.9 Z" id="Shape" fill="#000105"></path>
                <path d="M26.2,57.1 L28.2,57.2 L28.7,48.3 C28.7,48.3 26.8,48.1 26.8,48.3 L26.2,57.1" id="Shape" fill="#E7B34E"></path>
                <path d="M28.2,57.7 L26.2,57.6 C26,57.6 25.9,57.5 25.8,57.4 C25.7,57.3 25.7,57.1 25.7,57 L26.3,48.1 C26.3,47.9 26.4,47.8 26.5,47.7 C26.7,47.6 26.8,47.4 28.8,47.6 C29.1,47.6 29.3,47.9 29.3,48.2 L28.8,57.2 C28.7,57.4 28.5,57.7 28.2,57.7 Z M26.8,56.6 L27.7,56.6 L28.1,48.7 L27.3,48.7 L26.8,56.6 Z" id="Shape" fill="#000105"></path>
                <ellipse id="Oval" fill="#FFFFFF" opacity="0.7" cx="15.8" cy="48.2" rx="1" ry="1.5"></ellipse>
                <path d="M18.5,54 C19.4,54.5 21.6,54.7 21.2,53.3 C21.1,52.6 19.4,52.5 18.7,52.6 C18.4,52.7 17.6,53.5 18.5,54 Z" id="Shape" fill="#94948E"></path>
                <path d="M19.6,51.8 C20.1,51.7 20.7,51.7 21.2,51.8 C21.2,51.9 21.5,52.9 21.4,52.9 C21.3,52.9 20.8,53.6 20.5,53.5 C19.8,53.3 19.2,53.2 18.5,53.1 C18.4,53 17.8,52.7 17.8,52.5 C17.8,52.3 17.9,51.5 18,51.5 C18.1,51.5 18.5,51.4 18.5,51.5 C18.9,51.6 19.2,51.7 19.6,51.8 Z" id="Shape" fill="#94948E"></path>
                <path d="M19.6,50.3 C19.7,49.8 21.2,50.6 21.2,50.7 C21.2,50.8 21.5,51.8 21.4,51.8 C21.3,51.8 20.8,52.5 20.5,52.4 C20.2,52.3 18.7,52 18.5,52 C18.3,52 17.8,51.6 17.8,51.4 C17.8,51.2 17.9,50.4 18,50.4 C18.1,50.4 18.3,49.6 18.3,49.7 L19.6,50.3 Z" id="Shape" fill="#94948E"></path>
                <path d="M18.8,54.2 C18.8,54.2 18.7,54.1 18.7,53.5 C18.7,52.9 18.1,53.2 18,53.2 C18,53.5 18.1,53.8 18.2,54.1 C18.3,54.2 18.8,54.2 18.8,54.2 Z" id="Shape" fill="#94948E"></path>
                <path d="M18.8,51.4 C18.8,51.2 18.8,51 18.9,50.8 C19.1,50.6 19.4,50.4 19.7,50.4 C19.7,50.4 19.5,50.3 19.5,50.4 C19.5,50.5 18.5,50.5 18.5,50.5 L18.3,51.3 L18.8,51.4 Z" id="Shape" fill="#FFFFFF" opacity="0.9"></path>
                <path d="M18.8,54.2 C18.7,54 18.6,53.7 18.6,53.5 C18.7,53.2 18,53.4 18,53.4 C18,53.4 17.6,54.4 17.7,54.4 C17.8,54.4 18.8,54.2 18.8,54.2 Z" id="Shape" fill="#FFFFFF" opacity="0.9"></path>
                <path d="M18.6,52.8 C18.5,52.5 18.5,52.2 18.6,51.9 C18.8,51.4 18,51.7 18,51.7 L18.3,53 L18.6,52.8 Z" id="Shape" fill="#FFFFFF" opacity="0.9"></path>
                <path d="M20.4,50.6 C20.7,50.8 20.8,51.2 20.6,51.5 C20.6,51.6 20.5,51.6 20.5,51.7 C21.1,52.3 21.3,50.9 21.3,50.9 C21.3,50.9 21.3,50.5 20.4,50.6 Z" id="Shape" fill="#5E5E5D"></path>
                <path d="M20.4,52.1 C20.7,52.3 20.8,52.7 20.6,53 C20.6,53.1 20.5,53.1 20.5,53.2 C21.1,53.8 21.3,52.4 21.3,52.4 C21.3,52.4 21.3,51.9 20.4,52.1 Z" id="Shape" fill="#5E5E5D"></path>
                <path d="M20.3,53.5 C20.3,53.5 20.4,53.9 19.8,54.4 C20.4,54.9 21.2,53.7 21.2,53.7 C21.2,53.7 21.1,53.4 20.3,53.5 Z" id="Shape" fill="#5E5E5D"></path>
                <path d="M21.7,44.9 L20.8,44.8 C20.9,44 21.2,43.2 21.7,42.6 L22.5,42.8 C22.1,43.4 21.9,44.1 21.7,44.9 Z" id="Shape" fill="#000105"></path>
                <path d="M34.7,45.1 C34.6,44.6 34.4,44.2 34.2,43.7 L35.2,43.3 C35.2,43.4 35.7,44.8 35.7,44.8 L34.7,45.1 Z" id="Shape" fill="#000105"></path>
                <path d="M17.7,53 C17.6,52.9 14.4,50.1 14.5,47.7 C15.2,43.4 21.1,42.5 21.4,42.5 L21.7,43.5 C21.6,43.5 15.8,44.2 15.2,47.7 C15.1,49.2 17.3,51.7 18,52.2 L17.7,53 Z" id="Shape" fill="#000105"></path>
                <path d="M20.2,52.6 C19.6,52.6 19,52.5 18.4,52.2 C17.9,51.9 17.7,51.4 17.7,50.9 C17.8,50.3 18.2,49.9 18.8,49.8 C19.7,49.6 20.6,49.7 21.4,50.2 C21.6,50.4 21.8,50.6 21.8,50.9 C22,51.4 21.8,52 21.4,52.3 C21.1,52.5 20.6,52.6 20.2,52.6 Z M19.6,50.7 L19,50.7 C19,50.7 18.8,50.9 18.8,51 L19,51.2 C19.6,51.5 20.3,51.6 20.9,51.4 C20.9,51.4 21,51.3 20.9,51.1 L20.9,51 C20.8,50.8 20.2,50.7 19.6,50.7 Z" id="Shape" fill="#000105"></path>
                <path d="M20.2,54 C19.5,54 18.8,53.8 18.2,53.5 C17.7,53.2 17.4,52.7 17.4,52.2 C17.4,51.7 17.6,51.2 18.1,50.9 L18.6,51.8 C18.5,51.8 18.4,52.1 18.5,52.3 C18.6,52.5 18.6,52.5 18.7,52.6 C19.3,53 20.1,53.1 20.8,52.8 C21,52.5 21,52.1 20.8,51.8 L21.8,51.4 C22,52 22,52.7 21.7,53.3 C21.5,53.6 21.2,53.8 20.8,53.9 C20.6,53.9 20.4,54 20.2,54 Z" id="Shape" fill="#000105"></path>
                <path d="M19.4,55.1 C18.7,55.1 17.5,54.4 17.4,53.9 C17.3,53.4 17.6,52.9 18,52.6 L18.5,53.1 L18.4,53 L18.5,53.1 C18.3,53.2 18.4,53.7 18.3,53.8 C19,54.3 20,54.3 20.6,53.7 C20.7,53.6 20.7,53.4 20.7,53.3 L21.7,53.1 C21.9,53.6 21.7,54.2 21.3,54.5 C20.8,54.9 20.1,55.1 19.4,55.1 Z" id="Shape" fill="#000105"></path>
                <ellipse id="Oval" fill="#FFFFFF" opacity="0.7" cx="41" cy="49" rx="1" ry="1.5"></ellipse>
                <path d="M37.2,51.1 C37.1,50.6 35.6,51.4 35.6,51.5 C35.6,51.6 35.3,52.6 35.4,52.6 C35.5,52.6 35.3,55.2 35.6,55.1 C35.9,55 39.7,56.1 38.3,52.8 C38.2,52.7 39,52.4 39,52.2 C39,52 38.9,51.2 38.8,51.2 C38.7,51.2 38.5,50.4 38.5,50.5 L37.2,51.1 Z" id="Shape" fill="#94948E"></path>
                <path d="M37.9,52.2 C37.9,52 37.9,51.8 37.8,51.6 C37.6,51.4 37.4,51.3 37.1,51.3 C37.1,51.3 37.3,51.2 37.3,51.3 C37.3,51.4 38.3,51.4 38.3,51.4 L38.5,52.2 L37.9,52.2 Z" id="Shape" fill="#5D5D5C" opacity="0.9"></path>
                <path d="M37.3,55 C37.4,54.8 37.5,54.5 37.5,54.3 C37.4,54 38.7,54.2 38.7,54.2 C38.4,54.6 38.1,54.9 37.8,55.2 C37.7,55.3 37.3,55 37.3,55 Z" id="Shape" fill="#5D5D5C" opacity="0.9"></path>
                <path d="M38.1,53.6 C38.2,53.3 38.2,53 38.1,52.7 C38,52.3 38.8,52.5 38.8,52.5 L38.5,53.8 L38.1,53.6 Z" id="Shape" fill="#5D5D5C" opacity="0.9"></path>
                <path d="M39,53.6 L38.6,53 C39.3,52.5 41.7,50.3 41.7,48.8 C41.1,45.4 34.8,44.2 34.8,44.2 L34.9,43.4 C35.2,43.4 41.6,44.2 42.3,48.7 L42.3,48.8 C42.4,51.3 39.4,53.4 39,53.6 Z" id="Shape" fill="#000105"></path>
                <path d="M36.6,53.5 C36.1,53.5 35.7,53.4 35.3,53.1 C34.9,52.7 34.7,52.1 34.9,51.6 C34.9,51.3 35.1,51.1 35.3,50.9 C36.1,50.5 37,50.4 37.9,50.5 C38.4,50.6 38.8,51.1 38.9,51.6 C39,52.2 38.7,52.8 38.2,53.1 C37.7,53.3 37.2,53.5 36.6,53.5 Z M37.2,51.5 C36.6,51.5 36,51.6 35.9,51.8 C35.8,51.9 35.8,52 35.8,52.1 C35.8,52.2 35.9,52.3 36,52.3 C36.6,52.5 37.2,52.5 37.7,52.2 C37.9,52.1 37.9,52 37.9,51.9 C37.9,51.8 37.9,51.5 37.2,51.5 Z" id="Shape" fill="#000105"></path>
                <path d="M36.6,54.8 C36.4,54.8 36.1,54.8 35.9,54.7 C35.6,54.6 35.3,54.4 35.1,54.1 C34.8,53.5 34.8,52.8 35,52.2 L36,52.6 C35.8,52.9 35.8,53.3 36,53.6 C36.1,53.8 37.3,53.8 38.1,53.4 C38.2,53.3 38.3,53.2 38.3,53.1 C38.3,52.9 38.3,52.8 38.2,52.6 L38.7,51.7 C39.1,52 39.4,52.5 39.4,53 C39.4,53.6 39.1,54.1 38.6,54.3 C38,54.6 37.3,54.8 36.6,54.8 Z" id="Shape" fill="#000105"></path>
                <path d="M12.3,27 L11.3,26.7 C11.4,26.3 15,15.7 19.5,15 L20.2,15.8 C17,16.2 13.3,24.1 12.3,27 Z" id="Shape" fill="#000105"></path>
                <path d="M22.3,10.6 L21.8,14.5 L22.6,14.4 C22.7,13.1 22.8,11.7 23.1,10.4 C22.8,10.4 22.6,10.4 22.3,10.6" id="Shape" fill="#FFFFFF" opacity="0.7"></path>
                <path d="M27.9,57.7 C15.5,57.9 5.3,48.1 5.1,35.7 C5.1,35.6 5.1,35.4 5.1,35.3 L6.2,35.3 C6.2,47.3 15.8,56.6 28,56.6 C40.5,56.6 50.9,46 50.9,34.5 L51.9,34.1 C51.9,40.1 49.5,46.9 44.9,51.2 C40.2,55.3 34.2,57.6 27.9,57.7 Z" id="Shape" fill="#000105"></path>
                <path d="M45.4,31.7 C45.1,31.7 44.9,31.6 44.9,31.3 C44.9,31.2 44.9,31.2 44.9,31.1 C46.1,22.2 40.6,18.7 40.4,18.6 C40.2,18.5 40.1,18.1 40.2,17.9 C40.3,17.7 40.7,17.6 40.9,17.7 C41.2,17.9 47.2,21.7 45.9,31.3 C45.9,31.5 45.6,31.7 45.4,31.7 Z" id="Shape" fill="#141516"></path>
                <path d="M35.5,56.3 C35,56.2 35.2,56.1 35.1,55.9 C34.8,55.3 34.8,54.6 35,54 L36,54.4 C35.8,54.7 35.8,55.1 36,55.4 C36.1,55.6 38.2,54.4 38.2,54.4 C37.3,55.1 36.4,55.7 35.5,56.3 Z" id="Shape" fill="#000105"></path>
                <g id="Group" transform="translate(67.000000, 42.000000)" fill="#0C0C0C">
                    <path d="M0.7,5.3 L0.7,0.2 C0.7,0.1 0.8,0.1 0.8,0.1 L1.7,0.1 C1.8,0.1 1.8,0.2 1.8,0.2 L1.8,4.4 L4,4.4 L4,0.2 C4,0.1 4.1,0.1 4.1,0.1 L5,0.1 C5.1,0.1 5.1,0.2 5.1,0.2 L5.1,4.4 L6.1,4.4 C6.2,4.4 6.2,4.5 6.2,4.5 L6.2,7 C6.2,7.1 6.1,7.1 6.1,7.1 L5.2,7.1 C5.1,7.1 5.1,7 5.1,7 L5.1,5.3 L0.7,5.3 C0.8,5.4 0.7,5.3 0.7,5.3 Z" id="Shape"></path>
                    <path d="M14.2,0.1 C14.3,0.1 14.3,0.2 14.3,0.2 L14.3,1 C14.3,1.1 14.2,1.1 14.2,1.1 L11.5,1.1 L11.5,2.2 L13.8,2.2 C13.9,2.2 13.9,2.3 13.9,2.3 L13.9,3.1 C13.9,3.2 13.8,3.2 13.8,3.2 L11.5,3.2 L11.5,4.4 L14.2,4.4 C14.3,4.4 14.3,4.4 14.3,4.5 L14.3,5.3 C14.3,5.4 14.2,5.4 14.2,5.4 L10.5,5.4 C10.4,5.4 10.4,5.3 10.4,5.3 L10.4,0.2 C10.4,0.1 10.5,0.1 10.5,0.1 L14.2,0.1 Z" id="Shape"></path>
                    <path d="M23,0.1 C23.1,0.1 23.1,0.2 23.1,0.2 L23.1,5.3 C23.1,5.4 23,5.4 23,5.4 L22.1,5.4 C22,5.4 22,5.3 22,5.3 L22,3.2 L19.6,3.2 L19.6,5.3 C19.6,5.4 19.6,5.4 19.5,5.4 L18.6,5.4 C18.5,5.4 18.5,5.3 18.5,5.3 L18.5,0.2 C18.5,0.1 18.6,0.1 18.6,0.1 L19.5,0.1 C19.6,0.1 19.6,0.2 19.6,0.2 L19.6,2.2 L22,2.2 L22,0.2 C22,0.1 22.1,0.1 22.1,0.1 L23,0.1 Z" id="Shape"></path>
                    <path d="M31.5,0.1 C31.6,0.1 31.6,0.2 31.6,0.2 L31.6,1 C31.6,1.1 31.5,1.1 31.5,1.1 L30,1.1 L30,5.3 C30,5.4 29.9,5.4 29.9,5.4 L29,5.4 C28.9,5.4 28.9,5.3 28.9,5.3 L28.9,1.1 L27.3,1.1 C27.2,1.1 27.2,1 27.2,1 L27.2,0.2 C27.2,0.1 27.3,0.1 27.3,0.1 L31.5,0.1 Z" id="Shape"></path>
                    <path d="M38,0.1 C38.4,0.1 38.9,0.2 39.2,0.5 C39.6,0.8 39.8,1.3 39.8,2 C39.8,2.6 39.5,3.2 39.1,3.5 C38.7,3.8 38.3,3.9 37.9,3.9 L36.7,3.9 L36.7,5.4 C36.7,5.5 36.7,5.5 36.6,5.5 L35.7,5.5 C35.6,5.5 35.6,5.4 35.6,5.4 L35.6,0.3 C35.6,0.2 35.7,0.2 35.7,0.2 L38,0.2 L38,0.1 Z M38.4,1.2 C38.2,1.1 38,1 37.8,1 L36.8,1 L36.8,2.7 L37.8,2.7 C38,2.7 38.2,2.7 38.4,2.6 C38.6,2.5 38.7,2.2 38.7,1.9 C38.7,1.6 38.6,1.4 38.4,1.2 Z" id="Shape"></path>
                    <path d="M52.1,5.5 C50.5,5.5 49.3,4.4 49.3,2.8 C49.3,1.2 50.5,0.1 52.1,0.1 C53.7,0.1 54.9,1.2 54.9,2.8 C54.9,4.4 53.6,5.5 52.1,5.5 Z M52.1,1.1 C51.2,1.1 50.5,1.8 50.5,2.8 C50.5,3.8 51.2,4.5 52.1,4.5 C53,4.5 53.7,3.8 53.7,2.8 C53.7,1.8 53,1.1 52.1,1.1 Z" id="Shape"></path>
                    <path d="M62.6,0.1 C62.7,0.1 62.7,0.2 62.7,0.2 L62.7,1 C62.7,1.1 62.6,1.1 62.6,1.1 L60.3,1.1 L60.3,2.3 L61.1,2.3 C61.5,2.3 61.9,2.3 62.3,2.5 C62.7,2.7 63.1,3.1 63.1,3.8 C63.1,4.5 62.8,4.9 62.4,5.1 C62.1,5.3 61.7,5.3 61.3,5.3 L59.4,5.3 C59.3,5.3 59.3,5.2 59.3,5.2 L59.3,0.1 C59.3,0 59.4,0 59.4,0 L62.6,0 L62.6,0.1 Z M61.6,3.2 C61.4,3.1 61.2,3.1 61,3.1 L60.3,3.1 L60.3,4.4 L61.1,4.4 C61.3,4.4 61.5,4.4 61.7,4.3 C61.9,4.2 62,4 62,3.7 C61.9,3.5 61.8,3.4 61.6,3.2 Z" id="Shape"></path>
                    <path d="M69.6,0.1 C70,0.1 70.5,0.2 70.8,0.5 C71.2,0.8 71.4,1.3 71.4,2 C71.4,2.6 71.1,3.2 70.7,3.5 C70.3,3.8 69.9,3.9 69.5,3.9 L68.3,3.9 L68.3,5.4 C68.3,5.5 68.3,5.5 68.2,5.5 L67.3,5.5 C67.2,5.5 67.2,5.4 67.2,5.4 L67.2,0.3 C67.2,0.2 67.3,0.2 67.3,0.2 L69.6,0.2 L69.6,0.1 Z M70.1,1.2 C69.9,1.1 69.7,1 69.5,1 L68.5,1 L68.5,2.7 L69.5,2.7 C69.7,2.7 69.9,2.7 70.1,2.6 C70.3,2.5 70.4,2.2 70.4,1.9 C70.4,1.6 70.3,1.4 70.1,1.2 Z" id="Shape"></path>
                    <path d="M76.4,5.3 C76.4,5.4 76.3,5.4 76.2,5.4 L75.3,5.4 C75.2,5.4 75.2,5.4 75.2,5.3 C75.2,5.3 75.2,5.3 75.2,5.2 L77,0.2 C77,0.1 77.1,0.1 77.2,0.1 L78.1,0.1 C78.2,0.1 78.3,0.1 78.3,0.2 L80.1,5.2 C80.1,5.2 80.1,5.3 80.1,5.3 C80.1,5.4 80.1,5.4 80,5.4 L79.1,5.4 C79,5.4 78.9,5.4 78.9,5.3 L78.6,4.4 L76.7,4.4 L76.4,5.3 Z M77.7,1.4 L77,3.4 L78.3,3.4 L77.7,1.4 Z" id="Shape"></path>
                    <path d="M84.6,3.1 C84.5,3.1 84.5,3.1 84.5,3 L84.5,2.4 C84.5,2.3 84.6,2.3 84.6,2.3 L85.1,2.3 C85.4,2.3 85.6,2.3 85.8,2.2 C86,2.1 86.1,1.9 86.1,1.6 C86.1,1.4 86,1.3 85.9,1.2 C85.8,1.1 85.6,1 85.4,1 C85,1 84.7,1.1 84.4,1.3 C84.3,1.4 84.3,1.3 84.2,1.3 L83.9,0.7 C83.9,0.6 83.9,0.6 83.9,0.5 C84.3,0.3 84.7,-1.42108547e-14 85.4,-1.42108547e-14 C85.9,-1.42108547e-14 86.3,0.2 86.5,0.4 C86.8,0.7 86.9,1 86.9,1.4 C86.9,1.9 86.7,2.4 86.1,2.6 C86.7,2.8 87.1,3.3 87.1,4 C87.1,4.5 86.9,4.9 86.6,5.1 C86.3,5.3 85.9,5.5 85.4,5.5 C84.7,5.5 84.3,5.3 83.9,5.1 C83.8,5.1 83.8,5 83.9,4.9 L84.2,4.3 C84.2,4.2 84.3,4.2 84.4,4.3 C84.8,4.6 85.1,4.6 85.4,4.6 C85.7,4.6 85.9,4.5 86,4.4 C86.2,4.3 86.2,4.1 86.2,3.9 C86.2,3.6 86.1,3.4 85.8,3.3 C85.6,3.2 85.4,3.2 85.1,3.2 L84.6,3.2 L84.6,3.1 Z" id="Shape"></path>
                    <path d="M94.1,5.5 C92.5,5.5 91.3,4.4 91.3,2.8 C91.3,1.2 92.5,0.1 94.1,0.1 C95.7,0.1 96.9,1.2 96.9,2.8 C96.9,4.4 95.7,5.5 94.1,5.5 Z M94.1,1.1 C93.2,1.1 92.5,1.8 92.5,2.8 C92.5,3.8 93.2,4.5 94.1,4.5 C95,4.5 95.7,3.8 95.7,2.8 C95.7,1.8 95,1.1 94.1,1.1 Z" id="Shape"></path>
                    <path d="M103.3,5.4 L101.3,5.4 C101.2,5.4 101.2,5.3 101.2,5.3 L101.2,0.2 C101.2,0.1 101.3,0.1 101.3,0.1 L102.9,0.1 C103.3,0.1 103.8,0.2 104.2,0.4 C104.5,0.6 104.7,1 104.7,1.4 C104.7,1.9 104.5,2.3 104.1,2.5 C104.8,2.7 105.2,3.2 105.2,3.9 C105.1,4.9 104.2,5.4 103.3,5.4 Z M103.3,1.1 C103.2,1 103,1 102.9,1 L102.3,1 L102.3,2.2 L102.8,2.2 C102.9,2.2 103.1,2.2 103.2,2.1 C103.4,2 103.5,1.8 103.5,1.6 C103.5,1.4 103.4,1.2 103.3,1.1 Z M103.6,3.2 C103.4,3.1 103.2,3.1 103,3.1 L102.3,3.1 L102.3,4.4 L103.1,4.4 C103.3,4.4 103.5,4.4 103.6,4.3 C103.8,4.2 104,4 104,3.7 C103.9,3.6 103.8,3.4 103.6,3.2 Z" id="Shape"></path>
                    <path d="M110,5.3 C110,5.4 109.9,5.4 109.8,5.4 L109,5.4 C108.9,5.4 108.9,5.4 108.9,5.3 C108.9,5.3 108.9,5.3 108.9,5.2 L110.7,0.2 C110.7,0.1 110.8,0.1 110.9,0.1 L111.8,0.1 C111.9,0.1 112,0.1 112,0.2 L113.7,5.2 C113.7,5.2 113.7,5.3 113.7,5.3 C113.7,5.4 113.7,5.4 113.6,5.4 L112.7,5.4 C112.6,5.4 112.5,5.4 112.5,5.3 L112.2,4.4 L110.3,4.4 L110,5.3 Z M111.3,1.4 L110.6,3.4 L111.9,3.4 L111.3,1.4 Z" id="Shape"></path>
                    <path d="M122.1,0.1 C122.2,0.1 122.2,0.2 122.2,0.2 L122.2,5.3 C122.2,5.4 122.1,5.4 122.1,5.4 L121.2,5.4 C121.1,5.4 121.1,5.3 121.1,5.3 L121.1,3.2 L118.7,3.2 L118.7,5.3 C118.7,5.4 118.7,5.4 118.6,5.4 L117.7,5.4 C117.6,5.4 117.6,5.3 117.6,5.3 L117.6,0.2 C117.6,0.1 117.7,0.1 117.7,0.1 L118.6,0.1 C118.7,0.1 118.7,0.2 118.7,0.2 L118.7,2.2 L121.1,2.2 L121.1,0.2 C121.1,0.1 121.2,0.1 121.2,0.1 L122.1,0.1 Z" id="Shape"></path>
                    <path d="M130.3,2.2 L127.9,4.7 L127.9,5.3 C127.9,5.4 127.9,5.4 127.8,5.4 L126.9,5.4 C126.8,5.4 126.8,5.3 126.8,5.3 L126.8,0.2 C126.8,0.1 126.9,0.1 126.9,0.1 L127.8,0.1 C127.9,0.1 127.9,0.2 127.9,0.2 L127.9,3.3 L130.3,0.8 L130.3,0.2 C130.3,0.1 130.4,0.1 130.4,0.1 L131.3,0.1 C131.4,0.1 131.4,0.2 131.4,0.2 L131.4,5.3 C131.4,5.4 131.3,5.4 131.3,5.4 L130.4,5.4 C130.3,5.4 130.3,5.4 130.3,5.3 L130.3,2.2 Z" id="Shape"></path>
                    <path d="M135.6,1.8 C135.6,1.2 135.8,0.7 136.2,0.4 C136.5,0.1 137,0 137.5,0 L139.7,0 C139.8,0 139.8,0.1 139.8,0.1 L139.8,5.2 C139.8,5.3 139.7,5.3 139.7,5.3 L138.8,5.3 C138.7,5.3 138.7,5.2 138.7,5.2 L138.7,3.5 L137.7,3.5 L136.7,5.2 C136.6,5.3 136.6,5.3 136.5,5.3 L135.5,5.3 C135.4,5.3 135.4,5.3 135.4,5.2 C135.4,5.2 135.4,5.1 135.4,5.1 L136.5,3.3 C136.3,3.3 136.2,3.2 136,3.1 C135.8,2.8 135.6,2.3 135.6,1.8 Z M137.6,1 C137.4,1 137.2,1 137,1.1 C136.8,1.2 136.7,1.4 136.7,1.7 C136.7,2 136.8,2.2 137,2.3 C137.2,2.4 137.4,2.4 137.6,2.4 L138.7,2.4 L138.7,1 L137.6,1 Z" id="Shape"></path>
                </g>
                <g id="Group" transform="translate(67.000000, 18.000000)" fill="#0C0C0C">
                    <path d="M13.7,0.8 C14.1,0.8 14.2,1.1 14,1.5 L8.7,8.9 L14.2,16.8 C14.5,17.2 14.4,17.6 14,17.6 L10.3,17.6 C9.9,17.6 9.7,17.5 9.5,17.2 L5.5,11.1 L4.7,11.1 L4.7,17.2 C4.7,17.4 4.5,17.6 4.3,17.6 L1.2,17.6 C1,17.6 0.8,17.4 0.8,17.2 L0.8,1.3 C0.8,1.1 1,0.9 1.2,0.9 L4.3,0.9 C4.5,0.9 4.7,1.1 4.7,1.3 L4.7,7.2 L5.5,7.2 L9.5,1.3 C9.7,1 9.9,0.9 10.3,0.9 L13.7,0.9 L13.7,0.8 Z" id="Shape"></path>
                    <path d="M24.9,17.8 C20.5,17.8 16.6,14.4 16.6,9.2 C16.6,4 20.4,0.6 24.9,0.6 C29.3,0.6 33.2,4 33.2,9.2 C33.2,14.5 29.3,17.8 24.9,17.8 Z M24.9,4.7 C22.5,4.7 20.8,6.6 20.8,9.3 C20.8,12 22.5,13.8 24.9,13.8 C27.3,13.8 29,11.9 29,9.3 C29,6.6 27.3,4.7 24.9,4.7 Z" id="Shape"></path>
                    <path d="M49.5,17.1 C49.5,17.3 49.3,17.5 49.1,17.5 L46,17.5 C45.8,17.5 45.6,17.3 45.6,17.1 L45.6,12.8 L40.7,12.8 L40.7,17.1 C40.7,17.3 40.5,17.5 40.3,17.5 L37.2,17.5 C37,17.5 36.8,17.3 36.8,17.1 L36.8,7.4 C36.8,5.4 37.6,3.2 39.2,1.9 C40.2,1.1 41.5,0.6 43.2,0.6 C44.9,0.6 46.2,1.1 47.2,1.9 C48.9,3.3 49.6,5.4 49.6,7.4 L49.6,17.1 L49.5,17.1 Z M41.5,5.3 C41.1,5.8 40.7,6.5 40.7,7.7 L40.7,9 L45.6,9 L45.6,7.7 C45.6,6.5 45.3,5.8 44.8,5.3 C44.3,4.8 43.7,4.7 43.1,4.7 C42.6,4.7 42,4.8 41.5,5.3 Z" id="Shape"></path>
                    <path d="M55.6,17.6 L53.2,17.6 C52.8,17.6 52.5,17.3 52.9,16.7 C53.7,15.3 54.2,13.9 54.5,12.3 C54.8,10.6 54.9,8.7 54.9,6.4 L54.9,1.4 C54.9,1.2 55.1,1 55.3,1 L66.6,1 C66.8,1 67,1.2 67,1.4 L67,17.2 C67,17.4 66.8,17.6 66.6,17.6 L63.5,17.6 C63.3,17.6 63.1,17.4 63.1,17.2 L63.1,4.7 L58.9,4.7 L58.9,6.3 C58.9,8.2 58.7,10.6 58.3,12.6 C58,14.1 57.2,16.1 56.6,17 C56.3,17.5 56.1,17.6 55.6,17.6 Z" id="Shape"></path>
                    <path d="M81.1,8.6 L75.2,15.2 L75.2,17.1 C75.2,17.3 75,17.5 74.8,17.5 L71.7,17.5 C71.5,17.5 71.3,17.3 71.3,17.1 L71.3,1.3 C71.3,1.1 71.5,0.9 71.7,0.9 L74.8,0.9 C75,0.9 75.2,1.1 75.2,1.3 L75.2,9.9 L81.1,3.4 L81.1,1.3 C81.1,1.1 81.3,0.9 81.5,0.9 L84.6,0.9 C84.8,0.9 85,1.1 85,1.3 L85,17.1 C85,17.3 84.8,17.5 84.6,17.5 L81.5,17.5 C81.3,17.5 81.1,17.3 81.1,17.1 L81.1,8.6 Z" id="Shape"></path>
                    <path d="M89.3,17.1 L89.3,1.3 C89.3,1.1 89.5,0.9 89.7,0.9 L92.8,0.9 C93,0.9 93.2,1.1 93.2,1.3 L93.2,13.8 L98.7,13.8 L98.7,1.3 C98.7,1.1 98.9,0.9 99.1,0.9 L102.2,0.9 C102.4,0.9 102.6,1.1 102.6,1.3 L102.6,13.8 L106.1,13.8 C106.3,13.8 106.5,14 106.5,14.2 L106.5,17.1 C106.5,17.4 106.3,17.6 106,17.6 L102.5,17.6 L89.6,17.6 C89.4,17.6 89.3,17.4 89.3,17.1 Z" id="Shape"></path>
                    <path d="M119.5,8.6 L113.6,15.2 L113.6,17.1 C113.6,17.3 113.4,17.5 113.2,17.5 L110.1,17.5 C109.9,17.5 109.7,17.3 109.7,17.1 L109.7,1.3 C109.7,1.1 109.9,0.9 110.1,0.9 L113.2,0.9 C113.4,0.9 113.6,1.1 113.6,1.3 L113.6,9.9 L119.5,3.4 L119.5,1.3 C119.5,1.1 119.7,0.9 119.9,0.9 L123,0.9 C123.2,0.9 123.4,1.1 123.4,1.3 L123.4,17.1 C123.4,17.3 123.2,17.5 123,17.5 L119.9,17.5 C119.7,17.5 119.5,17.3 119.5,17.1 L119.5,8.6 Z" id="Shape"></path>
                    <path d="M127.1,6.4 C127.1,4.6 127.7,3 128.9,2 C129.9,1.1 131.3,0.8 132.8,0.8 L139.6,0.8 C139.8,0.8 140,1 140,1.2 L140,17 C140,17.2 139.8,17.4 139.6,17.4 L136.5,17.4 C136.3,17.4 136.1,17.2 136.1,17 L136.1,12 L133.7,12 L131.3,17 C131.1,17.4 130.9,17.4 130.5,17.4 L127,17.4 C126.8,17.4 126.6,17.3 126.6,17.1 C126.6,17 126.6,16.8 126.7,16.7 L129.6,11.2 C129.3,11 129,10.8 128.7,10.5 C127.6,9.4 127.1,7.9 127.1,6.4 Z M133.1,4.5 C132.6,4.5 132.1,4.6 131.8,4.9 C131.4,5.2 131.2,5.7 131.2,6.5 C131.2,7.3 131.5,7.8 131.9,8.1 C132.3,8.3 132.7,8.5 133.2,8.5 L136.1,8.5 L136.1,4.5 L133.1,4.5 Z" id="Shape"></path>
                </g>
            </g>
        </g>
    </g>
</svg>