<?xml version="1.0" encoding="UTF-8"?>
<svg width="237px" height="66px" viewBox="0 0 237 66" version="1.1" xmlns="http://www.w3.org/2000/svg" xmlns:xlink="http://www.w3.org/1999/xlink">
    <!-- Generator: Sketch 51.3 (57544) - http://www.bohemiancoding.com/sketch -->
    <title>Новый лого коалиции</title>
    <desc>Created with Sketch.</desc>
    <defs></defs>
    <g id="Page-1" stroke="none" stroke-width="1" fill="none" fill-rule="evenodd">
        <g id="Artboard-Copy-30" transform="translate(-1326.000000, -241.000000)" fill-rule="nonzero">
            <g id="Заявка-Copy-2" transform="translate(1265.000000, 241.000000)">
                <g id="Новый-лого-коалиции" transform="translate(61.000000, 0.000000)">
                    <path d="M58.8134615,38.0182692 C58.8134615,52.55 46.3413462,64.2211538 31.9240385,64.2211538 C17.5067308,64.2211538 6.40769231,52.4355769 6.40769231,38.0182692 C6.40769231,23.6009615 18.0788462,11.8153846 32.6105769,11.8153846 C47.1423077,11.8153846 58.8134615,23.4865385 58.8134615,38.0182692 C58.8134615,38.0182692 58.8134615,38.0182692 58.8134615,38.0182692 Z" id="Shape" fill="#89B75E"></path>
                    <path d="M31.9240385,64.7932692 C17.2778846,64.7932692 5.83557692,53.0076923 5.83557692,38.0182692 C5.83557692,23.2576923 17.85,11.2432692 32.6105769,11.2432692 C47.3711538,11.2432692 59.3855769,23.2576923 59.3855769,38.0182692 C59.3855769,38.0182692 59.3855769,38.0182692 59.3855769,38.0182692 C59.3855769,45.2269231 56.4105769,52.0923077 51.1471154,57.0125 C45.9980769,62.0471154 39.1326923,64.7932692 31.9240385,64.7932692 Z M32.6105769,12.3875 C18.4221154,12.3875 6.97980769,23.8298077 6.97980769,38.0182692 C6.97980769,52.3211538 17.9644231,63.6490385 31.9240385,63.6490385 C46.2269231,63.6490385 58.2413462,51.9778846 58.2413462,38.0182692 C58.2413462,23.8298077 46.7990385,12.3875 32.6105769,12.3875 C32.725,12.3875 32.6105769,12.3875 32.6105769,12.3875 Z" id="Shape" fill="#000105"></path>
                    <path d="M43.1375,59.9875 C45.0826923,59.7586538 46.7990385,58.3855769 47.3711538,56.4403846 C48.1721154,52.8932692 45.3115385,50.0326923 39.8192308,49.575 C39.9336538,51.0625 40.2769231,52.55 40.8490385,54.0375 C43.0230769,55.1817308 41.8788462,58.7288462 41.4211538,59.1865385 C41.1923077,59.4153846 42.9086538,60.1019231 43.1375,59.9875 Z" id="Shape" fill="#94948E"></path>
                    <path d="M41.5355769,49.9182692 C41.4211538,50.0326923 41.3067308,50.2615385 41.1923077,50.4903846 C41.0778846,50.7192308 41.0778846,51.0625 41.1923077,51.2913462 C41.0778846,51.2913462 40.5057692,51.6346154 40.3913462,51.2913462 C40.2769231,50.7192308 40.2769231,50.2615385 40.2769231,49.6894231 L41.5355769,49.9182692 C41.3067308,49.9182692 41.1923077,49.9182692 40.9634615,49.8038462" id="Shape" fill="#5E5E5E"></path>
                    <path d="M33.2971154,17.0788462 C33.2971154,17.0788462 29.2923077,14.4471154 32.9538462,12.0442308 C33.1826923,12.7307692 33.4115385,13.4173077 33.6403846,14.1038462 C33.8692308,13.0740385 34.6701923,12.3875 35.7,12.2730769 C35.7,12.2730769 34.7846154,14.6759615 35.5855769,15.0192308 C35.7,14.4471154 36.1576923,14.1038462 36.7298077,13.9894231 C36.7298077,13.9894231 35.8144231,13.3028846 37.4163462,13.7605769 C37.4163462,13.7605769 35.7,15.5913462 36.0432692,16.5067308 C36.0432692,16.6211538 36.1576923,16.6211538 36.1576923,16.7355769 C35.2423077,16.9644231 34.3269231,17.0788462 33.2971154,17.0788462 Z" id="Shape" fill="#94948E"></path>
                    <path d="M44.8538462,20.0538462 C44.8538462,20.0538462 45.4259615,9.52692308 56.1817308,7.35288462 C56.1817308,7.35288462 55.1519231,7.925 54.9230769,8.61153846 C58.8134615,7.23846154 63.1615385,8.03942308 66.3653846,10.6711538 C65.45,10.3278846 64.5346154,10.2134615 63.6192308,10.2134615 C67.9673077,13.1884615 69.9125,18.5663462 68.7682692,23.7153846 C68.7682692,23.7153846 68.7682692,26.4615385 68.1961538,25.6605769 C68.0817308,27.1480769 67.2807692,28.5211538 66.1365385,29.4365385 C66.1365385,29.4365385 62.8182692,37.4461538 49.3163462,34.1278846 C39.0182692,31.8394231 44.8538462,20.0538462 44.8538462,20.0538462 Z" id="Shape" fill="#94948E"></path>
                    <path d="M44.8538462,20.1682692 C44.8538462,20.1682692 45.4259615,9.64134615 56.1817308,7.46730769 C56.1817308,7.46730769 55.1519231,8.03942308 54.9230769,8.72596154 C58.8134615,7.35288462 63.1615385,8.15384615 66.3653846,10.7855769 C65.45,10.4423077 64.5346154,10.3278846 63.6192308,10.3278846 C63.6192308,10.3278846 72.5442308,16.7355769 68.0817308,25.4317308 C68.0817308,25.4317308 67.9673077,28.5211538 66.0221154,29.8942308 C66.0221154,29.8942308 62.9326923,37.4461538 49.4307692,34.2423077 C39.0182692,31.9538462 44.8538462,20.1682692 44.8538462,20.1682692 Z" id="Shape" fill="#5E5E5D" opacity="0.4"></path>
                    <path d="M21.1682692,20.2826923 C21.1682692,20.2826923 24.1432692,10.6711538 16.7057692,6.66634615 C17.0490385,7.00961538 17.1634615,7.46730769 17.1634615,8.03942308 C17.1634615,8.03942308 12.1288462,3.57692308 7.66634615,5.86538462 C7.66634615,5.86538462 9.61153846,6.09423077 9.84038462,6.4375 C9.84038462,6.4375 1.25865385,8.15384615 0.686538462,16.1634615 C0.686538462,16.1634615 0.686538462,21.8846154 2.63173077,23.1432692 C2.63173077,23.1432692 5.14903846,28.0634615 13.9596154,29.6653846 C22.7701923,31.2673077 21.1682692,20.2826923 21.1682692,20.2826923 Z" id="Shape" fill="#94948E"></path>
                    <path d="M20.1384615,18.5663462 C20.1384615,18.5663462 19.3375,11.3576923 13.0442308,9.52692308 L13.7307692,11.3576923 C12.0144231,11.2432692 10.4125,11.8153846 9.15384615,12.9596154 C7.4375,14.1038462 6.17884615,15.9346154 5.72115385,17.9942308 C5.37788462,19.4817308 5.49230769,26.1182692 13.1586538,28.75 C20.825,31.3817308 20.1384615,18.5663462 20.1384615,18.5663462 Z" id="Shape" fill="#E1D4DD"></path>
                    <path d="M19.5663462,20.1682692 C19.5663462,20.1682692 19.5663462,13.1884615 12.7009615,13.6461538 L13.2730769,15.2480769 C12.7009615,15.2480769 12.1288462,15.3625 11.6711538,15.5913462 C8.925,16.85 8.35288462,20.2826923 8.35288462,20.7403846 C8.35288462,20.7403846 7.89519231,26.1182692 13.9596154,27.3769231 C14.7605769,27.6057692 15.6759615,27.4913462 16.4769231,27.1480769 C18.3076923,26.2326923 20.5961538,24.2875 19.5663462,20.1682692 Z" id="Shape" fill="#FFFFFF"></path>
                    <path d="M18.7653846,20.7403846 C19.1086538,18.5663462 17.6211538,16.5067308 15.4471154,16.1634615 C15.3326923,16.1634615 15.1038462,16.1634615 14.9894231,16.1634615 C14.9894231,16.1634615 15.3326923,16.7355769 15.6759615,17.4221154 C14.4173077,17.4221154 13.1586538,18.1086538 12.4721154,19.1384615 C11.4423077,20.9692308 12.1288462,23.2576923 13.9596154,24.1730769 C14.5317308,24.4019231 15.1038462,24.6307692 15.6759615,24.6307692 C16.4769231,24.9740385 18.7653846,20.7403846 18.7653846,20.7403846 Z" id="Shape" fill="#5E5E5E"></path>
                    <path d="M47.3711538,22.6855769 C47.3711538,22.6855769 48.1721154,15.4769231 54.4653846,13.6461538 L53.7788462,15.4769231 C55.4951923,15.3625 57.0971154,15.9346154 58.3557692,17.0788462 C60.0721154,18.2230769 61.3307692,20.0538462 61.7884615,22.1134615 C62.1317308,23.6009615 62.0173077,30.2375 54.3509615,32.8692308 C46.6846154,35.5009615 47.3711538,22.6855769 47.3711538,22.6855769 Z" id="Shape" fill="#E1D4DD"></path>
                    <path d="M47.9432692,24.2875 C47.9432692,24.2875 47.9432692,17.3076923 54.8086538,17.7653846 L54.2365385,19.3673077 C54.8086538,19.3673077 55.3807692,19.4817308 55.8384615,19.7105769 C58.5846154,20.9692308 59.1567308,24.4019231 59.1567308,24.8596154 C59.1567308,24.8596154 59.6144231,30.2375 53.55,31.4961538 C52.7490385,31.725 51.8336538,31.6105769 51.0326923,31.2673077 C49.2019231,30.3519231 46.9134615,28.4067308 47.9432692,24.2875 Z" id="Shape" fill="#FFFFFF"></path>
                    <path d="M48.7442308,24.8596154 C48.4009615,22.6855769 49.8884615,20.6259615 52.0625,20.2826923 C52.1769231,20.2826923 52.4057692,20.2826923 52.5201923,20.2826923 C52.5201923,20.2826923 52.1769231,20.8548077 51.8336538,21.5413462 C53.0923077,21.5413462 54.3509615,22.2278846 55.0375,23.2576923 C56.0673077,25.0884615 55.3807692,27.3769231 53.55,28.2923077 C52.9778846,28.5211538 52.4057692,28.75 51.8336538,28.75 C51.0326923,29.0932692 48.7442308,24.8596154 48.7442308,24.8596154 Z" id="Shape" fill="#5E5E5E"></path>
                    <path d="M12.4721154,36.4163462 C12.4721154,36.4163462 11.2134615,46.4855769 25.0586538,47.7442308 C41.1923077,49.2317308 45.0826923,49.6894231 48.4009615,45.6846154 C50.2317308,43.5105769 56.2961538,25.6605769 45.6548077,19.3673077 C42.6798077,18.1086538 39.7048077,17.1932692 36.5009615,16.7355769 C35.0134615,16.5067308 34.7846154,16.7355769 33.4115385,16.5067308 C25.9740385,15.5913462 20.5961538,17.1932692 19.4519231,18.3375 C17.6211538,20.3971154 12.7009615,31.725 12.4721154,36.4163462 Z" id="Shape" fill="#94948E"></path>
                    <g id="Group" opacity="0.4" transform="translate(21.740385, 17.307692)" fill="#5E5E5E">
                        <path d="M0.457692308,29.5211538 C16.5913462,31.4663462 23.3423077,32.0384615 26.6605769,28.0336538 C28.4913462,25.8596154 36.2721154,4.11923077 19.5663462,0.457692308 C19.5663462,0.457692308 30.4365385,6.97980769 25.9740385,21.2826923 C22.0836538,32.8394231 0.457692308,29.5211538 0.457692308,29.5211538 Z" id="Shape"></path>
                    </g>
                    <path d="M14.1884615,42.4807692 C14.9894231,44.5403846 16.5913462,46.7144231 27.0038462,47.9730769 C34.8990385,49.0028846 41.3067308,49.0028846 44.3961538,46.8288462 C47.9432692,44.1971154 48.0576923,35.3865385 42.4509615,32.7548077 C36.8442308,30.1230769 24.8298077,27.8346154 17.5067308,33.4413462 C14.5317308,35.6153846 13.2730769,39.7346154 14.1884615,42.4807692 Z" id="Shape" fill="#DCD8CD"></path>
                    <path d="M23.4567308,29.7798077 C23.1134615,31.0384615 21.6259615,31.6105769 19.9096154,31.1528846 C18.1932692,30.6951923 17.3923077,29.8942308 17.7355769,28.2923077 C18.0788462,26.6903846 19.7951923,25.0884615 21.3971154,25.4317308 C22.9990385,25.775 23.8,28.0634615 23.4567308,29.7798077 Z" id="Shape" fill="#FFFFFF"></path>
                    <path d="M23.5711538,30.1230769 C23.4567308,30.9240385 22.7701923,31.4961538 21.9692308,31.4961538 C21.8548077,31.4961538 21.7403846,31.4961538 21.6259615,31.3817308 C20.7105769,31.0384615 20.2528846,30.1230769 20.5961538,29.2076923 C20.5961538,29.2076923 20.5961538,29.2076923 20.5961538,29.2076923 C20.825,28.4067308 21.6259615,27.8346154 22.4269231,28.0634615 C23.2278846,28.4067308 23.6855769,29.2076923 23.5711538,30.1230769 Z" id="Shape" fill="#1F201E"></path>
                    <path d="M38.7894231,40.7644231 C37.9884615,44.0826923 33.1826923,44.4259615 28.7201923,43.2817308 C24.2576923,42.1375 17.85,42.2519231 20.2528846,35.5009615 C21.0538462,33.0980769 25.6307692,31.0384615 30.2076923,31.725 C36.1576923,32.7548077 39.5903846,37.4461538 38.7894231,40.7644231 Z" id="Shape" fill="#1F201E"></path>
                    <path d="M44.5105769,32.5259615 C44.0528846,34.0134615 42.3365385,34.5855769 40.3913462,34.0134615 C38.4461538,33.4413462 37.5307692,32.5259615 38.1028846,30.6951923 C38.675,28.75 40.5057692,27.4913462 42.5653846,27.7201923 C44.5105769,28.1778846 45.0826923,30.5807692 44.5105769,32.5259615 Z" id="Shape" fill="#FFFFFF"></path>
                    <path d="M41.65,32.6403846 C41.5355769,33.5557692 40.6201923,34.2423077 39.5903846,34.1278846 C39.4759615,34.1278846 39.3615385,34.1278846 39.2471154,34.0134615 C38.2173077,33.5557692 37.7596154,32.4115385 38.1028846,31.3817308 C38.4461538,30.4663462 39.3615385,30.0086538 40.2769231,30.2375 C41.3067308,30.4663462 41.9932692,31.4961538 41.65,32.6403846 C41.65,32.5259615 41.65,32.5259615 41.65,32.6403846 Z" id="Shape" fill="#1F201E"></path>
                    <path d="M58.2413462,7.81057692 C64.7634615,9.18365385 63.8480769,10.0990385 64.1913462,10.2134615 C64.6490385,10.2134615 65.2211538,10.2134615 65.6788462,10.0990385 C62.475,7.81057692 62.1317308,8.26826923 58.2413462,7.81057692 Z" id="Shape" fill="#5E5E5D"></path>
                    <path d="M25.5163462,47.7442308 C25.0586538,49.2317308 20.5961538,57.2413462 24.0288462,63.4201923 C25.5163462,63.9923077 39.7048077,63.8778846 39.7048077,63.6490385 C39.7048077,63.4201923 42.6798077,60.1019231 42.5653846,58.6144231 C42.4509615,57.1269231 40.0480769,49.8038462 39.7048077,48.6596154 C39.3615385,49.3461538 25.5163462,47.7442308 25.5163462,47.7442308 Z" id="Shape" fill="#94948E"></path>
                    <g id="Group" opacity="0.9" transform="translate(24.028846, 47.057692)" fill="#FFFFFF">
                        <path d="M1.60192308,2.975 C1.60192308,2.17403846 1.83076923,1.4875 2.17403846,0.800961538 C2.63173077,0.228846154 1.4875,0.686538462 1.4875,0.686538462 L0.800961538,2.975 L1.71634615,3.43269231 L1.60192308,2.975 Z" id="Shape"></path>
                    </g>
                    <path d="M39.5903846,48.8884615 C39.7048077,49.1173077 40.0480769,50.2615385 40.0480769,50.2615385 L39.0182692,50.1471154 C39.0182692,50.1471154 38.5605769,49.0028846 38.1028846,48.8884615 C37.6451923,48.7740385 39.5903846,48.8884615 39.5903846,48.8884615 Z" id="Shape" fill="#5E5E5D"></path>
                    <path d="M23.4567308,63.7634615 C23.4567308,63.7634615 27.2326923,63.8778846 29.5211538,64.1067308 C31.0086538,64.3355769 32.3817308,64.45 33.8692308,64.2211538 C35.1278846,63.9923077 38.5605769,64.2211538 40.3913462,63.1913462 C42.1076923,60.1019231 42.3365385,56.3259615 41.0778846,53.0076923 C40.8490385,51.7490385 40.6201923,50.8336538 40.6201923,50.8336538 C40.6201923,50.8336538 41.0778846,50.6048077 40.5057692,55.9826923 C39.7048077,61.8182692 32.9538462,65.4798077 23.4567308,63.7634615 Z" id="Shape" fill="#5E5E5E" opacity="0.4"></path>
                    <circle id="Oval" fill="#FFFFFF" cx="22.4269231" cy="29.0932692" r="1"></circle>
                    <circle id="Oval" fill="#FFFFFF" cx="40.0480769" cy="31.3817308" r="1"></circle>
                    <path d="M64.9923077,11.1288462 C66.5942308,13.7605769 67.6240385,16.6211538 68.0817308,19.5961538 C68.425,22.4567308 67.9673077,25.4317308 66.8230769,28.0634615 C67.5096154,26.5759615 68.1961538,24.9740385 68.9971154,23.4865385 L68.1961538,15.4769231 L64.9923077,11.1288462 Z" id="Shape" fill="#5D5D5C"></path>
                    <path d="M17.6211538,9.06923077 C15.5615385,7.00961538 12.8153846,5.86538462 9.95480769,6.09423077 C4.92019231,6.20865385 8.58173077,5.52211538 8.58173077,5.52211538 L12.9298077,5.17884615 C12.9298077,5.17884615 16.2480769,7.12403846 16.4769231,7.23846154 L17.2778846,8.03942308 L17.6211538,9.06923077 Z" id="Shape" fill="#FFFFFF" opacity="0.8"></path>
                    <path d="M29.75,64.45 C29.75,63.8778846 31.1230769,54.4951923 30.3221154,54.1519231 C29.5211538,53.8086538 22.5413462,50.9480769 22.6557692,51.2913462 C22.7701923,51.6346154 21.7403846,62.6192308 21.7403846,62.6192308 L29.75,64.45 Z" id="Shape" fill="#E7B34E"></path>
                    <path d="M22.0836538,62.1615385 C22.0836538,62.1615385 24.6009615,61.8182692 24.6009615,60.9028846 C24.6009615,59.9875 21.9692308,61.3605769 21.9692308,61.475 C21.9692308,61.5894231 22.0836538,62.1615385 22.0836538,62.1615385 Z" id="Shape" fill="#8AA15E"></path>
                    <path d="M25.4019231,16.7355769 C25.4019231,16.7355769 19.9096154,15.5913462 17.85,20.5115385 C16.3625,23.6009615 14.9894231,26.6903846 13.8451923,29.8942308 C13.8451923,29.8942308 11.0990385,38.0182692 12.7009615,40.3067308 C12.9298077,38.3615385 13.2730769,36.4163462 13.8451923,34.4711538 C16.4769231,22.1134615 19.5663462,20.6259615 20.0240385,19.9394231 C21.1682692,18.4519231 21.6259615,16.9644231 25.4019231,16.7355769 Z" id="Shape" fill="#FFFFFF" opacity="0.9"></path>
                    <path d="M37.0730769,13.9894231 C37.0730769,13.9894231 34.8990385,15.3625 36.0432692,16.7355769 L36.2721154,16.7355769 L37.0730769,13.9894231 Z" id="Shape" fill="#5D5D5C"></path>
                    <path d="M33.0682692,16.6211538 C33.0682692,16.6211538 31.3519231,14.1038462 32.725,12.2730769 C32.1528846,12.5019231 31.6951923,12.9596154 31.4663462,13.5317308 L31.9240385,16.1634615 L33.0682692,16.6211538 Z" id="Shape" fill="#FFFFFF" opacity="0.8"></path>
                    <path d="M38.9038462,49.2317308 C37.0730769,49.2317308 35.1278846,49.1173077 33.2971154,48.8884615 C27.0038462,48.3163462 22.0836538,47.7442308 21.8548077,47.6298077 C18.4221154,47.2865385 15.3326923,45.4557692 13.2730769,42.7096154 C11.2134615,39.6201923 10.9846154,35.2721154 12.7009615,29.8942308 C12.2432692,29.7798077 11.7855769,29.6653846 11.4423077,29.4365385 C6.75096154,27.8346154 4.80576923,27.1480769 1.83076923,22.6855769 C-0.457692308,19.0240385 -0.343269231,14.4471154 2.05961538,10.9 C3.43269231,8.84038462 5.37788462,7.23846154 7.78076923,6.55192308 L7.66634615,6.55192308 L5.60673077,6.09423077 L7.55192308,5.29326923 C8.81057692,4.72115385 10.1836538,4.49230769 11.5567308,4.60673077 C12.9298077,4.72115385 14.1884615,5.06442308 15.3326923,5.75096154 L14.9894231,5.17884615 L16.9346154,6.20865385 C18.1932692,6.78076923 19.3375,7.58173077 20.2528846,8.61153846 C21.8548077,10.6711538 22.6557692,13.4173077 22.4269231,16.0490385 C25.2875,15.7057692 28.1480769,15.5913462 31.0086538,15.5913462 C30.7798077,15.1336538 30.6653846,14.5615385 30.6653846,13.9894231 C30.8942308,12.8451923 31.6951923,11.8153846 32.725,11.2432692 L33.8692308,10.5567308 L33.6403846,11.9298077 L33.6403846,12.6163462 C34.3269231,11.9298077 35.2423077,11.7009615 36.1576923,11.8153846 L37.4163462,11.9298077 L36.6153846,12.8451923 C36.3865385,13.1884615 36.1576923,13.4173077 36.0432692,13.6461538 C36.5009615,13.4173077 37.0730769,13.3028846 37.5307692,13.5317308 L38.4461538,13.7605769 L37.7596154,14.4471154 C37.3019231,14.9048077 37.0730769,15.4769231 36.8442308,16.0490385 C39.3615385,16.6211538 41.8788462,17.3076923 44.3961538,18.1086538 C44.8538462,15.9346154 46.1125,11.4721154 50.3461538,8.84038462 C52.0625,7.69615385 54.0076923,7.12403846 56.0673077,6.89519231 L57.6692308,6.78076923 L56.9826923,7.35288462 C57.7836538,7.23846154 58.4701923,7.12403846 59.2711538,7.12403846 C62.0173077,7.23846154 64.6490385,8.26826923 66.7086538,10.0990385 L68.5394231,11.7009615 L66.1365385,11.1288462 C66.0221154,11.1288462 65.9076923,11.1288462 65.7932692,11.0144231 C67.5096154,12.6163462 68.7682692,14.7903846 69.2259615,17.1932692 C69.6836538,20.1682692 69.4548077,23.2576923 68.6538462,26.2326923 C67.5096154,28.8644231 65.6788462,31.2673077 63.5048077,33.0980769 C59.5,36.1875 54.4653846,35.7298077 52.2913462,35.2721154 C52.2913462,35.5009615 52.1769231,35.6153846 52.1769231,35.8442308 C51.8336538,38.7048077 51.0326923,41.4509615 49.7740385,44.0826923 C48.2865385,47.0576923 46.3413462,49.2317308 38.9038462,49.2317308 Z M10.1836538,5.86538462 L11.9,6.55192308 L10.1836538,7.00961538 C10.0692308,7.00961538 10.0692308,7.00961538 9.95480769,7.12403846 C8.69615385,7.46730769 5.03461538,8.38269231 3.20384615,11.7009615 C1.02980769,14.7903846 0.915384615,19.0240385 2.975,22.2278846 C5.72115385,26.3471154 7.32307692,26.9192308 12.0144231,28.5211538 C12.5865385,28.75 13.1586538,28.8644231 13.8451923,29.0932692 L14.7605769,28.0634615 L13.8451923,30.3519231 C12.0144231,35.6153846 12.4721154,39.2769231 14.4173077,42.1375 C16.9346154,46.0278846 22.0836538,46.4855769 22.0836538,46.4855769 C22.0836538,46.4855769 27.1182692,47.0576923 33.5259615,47.7442308 C45.9980769,49.0028846 47.3711538,46.3711538 48.8586538,43.625 C50.0028846,41.1076923 50.8038462,38.4759615 51.1471154,35.7298077 C51.2615385,35.3865385 51.2615385,34.9288462 51.3759615,34.5855769 L51.4903846,33.8990385 L52.1769231,34.0134615 C53.6644231,34.3567308 58.9278846,35.2721154 62.9326923,32.1826923 C64.9923077,30.4663462 66.5942308,28.2923077 67.7384615,25.8894231 C68.5394231,23.1432692 68.6538462,20.2826923 68.3105769,17.5365385 C67.8528846,14.6759615 66.1365385,12.2730769 63.6192308,10.7855769 L61.5596154,9.64134615 L63.8480769,9.64134615 C62.475,8.84038462 60.9875,8.49711538 59.3855769,8.38269231 C58.0125,8.38269231 56.525,8.61153846 55.2663462,9.18365385 L52.6346154,10.3278846 L54.5798077,8.26826923 C53.3211538,8.61153846 52.1769231,9.06923077 51.1471154,9.75576923 C46.7990385,12.6163462 45.8836538,17.5365385 45.6548077,19.0240385 L45.5403846,19.825 L44.7394231,19.4817308 C41.9932692,18.4519231 39.0182692,17.6509615 36.1576923,17.0788462 L35.7,16.9644231 L35.7,15.7057692 L35.4711538,16.1634615 L34.8990385,15.2480769 C34.6701923,14.5615385 34.6701923,13.7605769 34.8990385,13.0740385 C34.4413462,13.3028846 34.0980769,13.7605769 33.9836538,14.3326923 L33.5259615,16.5067308 L33.8692308,16.85 L32.2673077,16.7355769 C28.8346154,16.5067308 25.2875,16.7355769 21.8548077,17.3076923 L21.0538462,17.4221154 L21.1682692,16.6211538 C21.5115385,13.9894231 20.9394231,11.3576923 19.3375,9.29807692 C18.8798077,8.72596154 18.4221154,8.26826923 17.85,7.925 L17.9644231,9.75576923 L16.7057692,8.49711538 C15.3326923,6.89519231 13.5019231,5.97980769 11.4423077,5.86538462 L10.1836538,5.86538462 Z M32.6105769,12.9596154 C32.2673077,13.1884615 32.0384615,13.6461538 32.0384615,14.1038462 C32.0384615,14.7903846 32.2673077,15.3625 32.725,15.8201923 L33.4115385,16.5067308 L32.8394231,14.4471154 C32.8394231,14.3326923 32.725,13.6461538 32.6105769,12.9596154 Z" id="Shape" fill="#141516"></path>
                    <polygon id="Shape" fill="#E7B34E" points="32.2673077 64.6788462 33.0682692 54.1519231 41.9932692 51.5201923 41.0778846 62.9625"></polygon>
                    <path d="M33.1826923,54.6096154 C33.1826923,54.6096154 40.7346154,52.4355769 40.9634615,53.5798077 C41.1923077,54.7240385 41.0778846,57.3557692 41.0778846,57.3557692 L40.1625,62.2759615 C39.8192308,62.7336538 39.3615385,63.0769231 38.7894231,63.3057692 C36.7298077,63.7634615 34.5557692,64.2211538 32.3817308,64.45 L32.3817308,64.7932692 L41.0778846,63.1913462 L42.1076923,51.2913462 L38.7894231,52.2067308 L33.0682692,54.1519231 L33.1826923,54.6096154 Z" id="Shape" fill="#CF9D49"></path>
                    <path d="M33.5259615,44.3115385 C32.725,44.3115385 32.0384615,44.1971154 31.2375,44.0826923 C31.2375,44.0826923 28.3769231,43.625 23.2278846,42.4807692 C21.2826923,42.0230769 19.9096154,41.2221154 19.3375,39.9634615 C18.7653846,38.8192308 18.7653846,37.4461538 19.2230769,36.1875 C19.7951923,34.8144231 22.1980769,29.8942308 29.5211538,30.6951923 C35.2423077,31.4961538 37.6451923,34.1278846 38.675,36.0730769 C39.7048077,37.7894231 39.8192308,39.8490385 39.1326923,41.6798077 C38.1028846,43.8538462 35.4711538,44.3115385 33.5259615,44.3115385 Z M20.5961538,36.8740385 C20.3673077,37.675 20.3673077,38.4759615 20.7105769,39.1625 C21.3971154,40.0778846 22.4269231,40.7644231 23.5711538,40.8788462 C28.7201923,42.0230769 31.5807692,42.4807692 31.5807692,42.4807692 C32.9538462,42.7096154 36.8442308,42.9384615 37.7596154,40.9932692 C38.2173077,39.6201923 38.1028846,38.1326923 37.3019231,36.8740385 C36.3865385,35.1576923 34.3269231,33.0980769 29.2923077,32.2971154 C22.1980769,31.4961538 20.5961538,36.7596154 20.5961538,36.8740385 Z" id="Shape" fill="#131415"></path>
                    <path d="M21.0538462,31.8394231 C20.4817308,31.8394231 19.9096154,31.725 19.3375,31.6105769 C18.4221154,31.3817308 17.6211538,30.8096154 17.2778846,30.0086538 C17.0490385,28.75 17.2778846,27.4913462 17.85,26.4615385 C18.5365385,25.0884615 19.9096154,24.2875 21.3971154,24.4019231 C22.7701923,24.6307692 23.8,26.5759615 23.8,26.5759615 C24.2576923,27.7201923 24.9442308,30.2375 22.5413462,31.4961538 C22.0836538,31.725 21.6259615,31.8394231 21.0538462,31.8394231 Z M22.4269231,31.0384615 C24.9442308,29.0932692 22.7701923,25.775 21.5115385,25.4317308 C20.3673077,25.2028846 19.3375,25.6605769 18.6509615,26.5759615 C17.85,27.3769231 17.5067308,28.6355769 17.85,29.7798077 C18.1932692,30.5807692 18.7653846,30.9240385 19.9096154,31.1528846 C20.7105769,31.2673077 21.6259615,31.2673077 22.4269231,31.0384615 Z" id="Shape" fill="#1D1D1B"></path>
                    <path d="M41.8788462,34.4711538 C40.3913462,34.4711538 38.1028846,34.2423077 37.4163462,32.1826923 C37.0730769,31.1528846 37.9884615,28.8644231 38.9038462,27.9490385 C39.9336538,27.0336538 41.3067308,26.5759615 42.6798077,26.9192308 C43.7096154,27.2625 44.625,28.0634615 44.9682692,29.0932692 C44.9682692,29.2076923 46.1125,32.4115385 44.0528846,34.0134615 C43.3663462,34.3567308 42.6798077,34.4711538 41.8788462,34.4711538 Z M43.8240385,33.5557692 C45.0826923,32.6403846 45.3115385,28.5211538 42.2221154,27.9490385 C41.0778846,27.6057692 39.8192308,28.0634615 39.1326923,28.9788462 C38.3317308,29.8942308 37.8740385,31.0384615 37.9884615,32.2971154 C38.1028846,32.9836538 38.675,33.5557692 39.3615385,33.6701923 C40.9634615,34.2423077 42.3365385,34.5855769 43.8240385,33.5557692 Z" id="Shape" fill="#141516"></path>
                    <path d="M22.8846154,51.8634615 C22.8846154,51.8634615 29.8644231,54.1519231 30.4365385,55.525 C31.0086538,56.8980769 30.7798077,54.2663462 30.6653846,54.1519231 C30.5509615,54.0375 22.8846154,51.2913462 22.8846154,51.2913462 L22.8846154,51.8634615 Z" id="Shape" fill="#CF9D49"></path>
                    <path d="M18.5365385,24.6307692 C18.1932692,24.0586538 18.4221154,23.2576923 18.9942308,22.9144231 C18.9942308,22.9144231 18.9942308,22.9144231 19.1086538,22.9144231 C20.4817308,22.5711538 20.825,23.4865385 20.7105769,23.4865385 C20.3673077,23.2576923 19.7951923,23.2576923 19.4519231,23.4865385 C18.9942308,23.7153846 18.6509615,24.0586538 18.5365385,24.6307692 Z" id="Shape" fill="#1D1D1B"></path>
                    <path d="M43.1375,26.1182692 C43.0230769,26.0038462 43.9384615,25.0884615 44.8538462,25.6605769 C45.8836538,26.5759615 45.1971154,27.3769231 45.1971154,27.3769231 C45.0826923,27.0336538 44.9682692,26.5759615 44.625,26.3471154 C44.1673077,26.0038462 43.7096154,26.0038462 43.1375,26.1182692 Z" id="Shape" fill="#000105"></path>
                    <path d="M45.8836538,26.1182692 C45.5403846,24.8596154 44.3961538,24.1730769 43.1375,24.4019231 C43.0230769,24.4019231 42.9086538,24.5163462 42.7942308,24.5163462" id="Shape" fill="#94948E"></path>
                    <path d="M31.4663462,46.8288462 C30.4365385,46.8288462 29.4067308,46.4855769 28.6057692,45.7990385 C28.4913462,45.6846154 28.4913462,45.4557692 28.6057692,45.3413462 C28.7201923,45.2269231 28.9490385,45.2269231 29.0634615,45.3413462 C29.8644231,46.0278846 30.8942308,46.2567308 31.9240385,46.1423077 C33.0682692,45.9134615 34.2125,45.4557692 35.1278846,44.7692308 C34.4413462,45.7990385 33.2971154,46.6 32.0384615,46.8288462 L31.4663462,46.8288462 Z" id="Shape" fill="#141516"></path>
                    <path d="M21.5115385,39.1625 C21.5115385,39.1625 20.2528846,32.8692308 26.2028846,33.2125 C21.8548077,34.0134615 21.5115385,39.1625 21.5115385,39.1625 Z" id="Shape" fill="#FFFFFF" opacity="0.3"></path>
                    <path d="M24.0288462,16.5067308 L24.4865385,13.0740385 L13.2730769,7.00961538 L37.8740385,0.716346154 L59.6144231,12.5019231 L46.9134615,15.9346154 L46.5701923,19.7105769 C46.5701923,19.7105769 44.2817308,17.5365385 35.7,16.5067308 C27.8048077,15.7057692 24.0288462,16.5067308 24.0288462,16.5067308 Z" id="Shape" fill="#1D1D1B"></path>
                    <path d="M46.4557692,20.2826923 C46.2269231,20.2826923 46.1125,20.1682692 45.9980769,20.0538462 C45.9980769,20.0538462 43.7096154,17.9942308 35.4711538,17.0788462 C31.6951923,16.5067308 27.9192308,16.5067308 24.1432692,16.9644231 C23.9144231,16.9644231 23.8,16.9644231 23.5711538,16.85 C23.4567308,16.7355769 23.3423077,16.5067308 23.3423077,16.2778846 L23.6855769,13.3028846 L12.8153846,7.46730769 C12.5865385,7.35288462 12.4721154,7.12403846 12.4721154,6.89519231 C12.4721154,6.66634615 12.7009615,6.4375 12.9298077,6.32307692 L37.5307692,0.0298076923 L37.9884615,0.0298076923 L59.7288462,11.8153846 C59.9576923,11.9298077 60.0721154,12.1586538 60.0721154,12.3875 C60.0721154,12.6163462 59.8432692,12.8451923 59.6144231,12.9596154 L47.3711538,16.2778846 L47.0278846,19.7105769 C47.0278846,19.9394231 46.9134615,20.0538462 46.6846154,20.1682692 C46.5701923,20.2826923 46.5701923,20.2826923 46.4557692,20.2826923 Z M28.7201923,15.4769231 C31.0086538,15.4769231 33.4115385,15.5913462 35.7,15.9346154 C41.65,16.6211538 44.625,17.8798077 45.9980769,18.5663462 L46.2269231,15.8201923 C46.2269231,15.5913462 46.4557692,15.3625 46.6846154,15.2480769 L57.8980769,12.1586538 L37.7596154,1.28846154 L14.875,7.12403846 L24.7153846,12.5019231 C24.9442308,12.6163462 25.0586538,12.8451923 25.0586538,13.0740385 L24.7153846,15.7057692 C26.0884615,15.4769231 27.3471154,15.4769231 28.7201923,15.4769231 Z" id="Shape" fill="#000105"></path>
                    <path d="M46.4557692,19.7105769 C46.4557692,19.7105769 47.1423077,13.875 47.1423077,13.4173077 C40.2769231,9.75576923 32.2673077,8.72596154 24.7153846,10.6711538 L24.0288462,16.2778846 C28.0336538,15.7057692 32.0384615,15.7057692 36.0432692,16.3923077 C39.7048077,16.85 43.2519231,17.9942308 46.4557692,19.7105769 Z" id="Shape" fill="#555555"></path>
                    <path d="M47.0278846,20.6259615 L46.2269231,20.2826923 C43.0230769,18.6807692 39.5903846,17.6509615 36.0432692,17.0788462 C32.1528846,16.3923077 28.1480769,16.3923077 24.2576923,16.9644231 L23.3423077,17.0788462 L24.2576923,10.2134615 L24.6009615,10.0990385 C32.2673077,8.15384615 40.5057692,9.18365385 47.4855769,12.9596154 L47.8288462,13.0740385 L47.8288462,13.5317308 C47.8288462,13.9894231 47.1423077,19.825 47.1423077,19.825 L47.0278846,20.6259615 Z M29.6355769,15.2480769 C31.8096154,15.2480769 34.0980769,15.4769231 36.2721154,15.8201923 C39.7048077,16.3923077 42.9086538,17.4221154 46.1125,18.7951923 C46.2269231,17.4221154 46.5701923,14.7903846 46.6846154,13.7605769 C40.1625,10.4423077 32.6105769,9.52692308 25.5163462,11.1288462 L24.9442308,15.5913462 C26.5461538,15.3625 28.0336538,15.2480769 29.6355769,15.2480769 Z" id="Shape" fill="#000105"></path>
                    <path d="M21.8548077,59.5298077 C19.9096154,59.3009615 18.1932692,57.9278846 17.6211538,55.9826923 C16.8201923,52.4355769 19.2230769,49.3461538 24.7153846,48.8884615 C24.8298077,50.0326923 24.7153846,51.0625 24.6009615,52.0923077 C24.4865385,52.55 22.6557692,51.1769231 22.5413462,51.7490385 C21.8548077,52.0923077 22.8846154,54.6096154 22.5413462,55.2961538 C21.8548077,56.4403846 21.6259615,57.8134615 21.8548077,59.0721154 C21.9692308,59.0721154 22.0836538,59.1865385 22.0836538,59.3009615 C22.0836538,59.4153846 21.9692308,59.5298077 21.8548077,59.5298077 Z" id="Shape" fill="#94948E"></path>
                    <path d="M23.2278846,51.1769231 L29.1778846,53.3509615 L32.1528846,54.0375 L42.1076923,51.2913462 C42.1076923,51.2913462 38.675,49.9182692 38.5605769,49.9182692 C38.4461538,49.9182692 31.6951923,53.3509615 31.6951923,53.3509615 L28.4913462,51.5201923 L23.5711538,50.2615385 L23.2278846,51.1769231 Z" id="Shape" fill="#FFFFFF"></path>
                    <path d="M23.3423077,49.0028846 C23.4567308,49.1173077 23.5711538,49.3461538 23.6855769,49.575 C23.8,49.8038462 23.8,50.1471154 23.6855769,50.3759615 C23.8,50.3759615 24.3721154,50.7192308 24.4865385,50.3759615 C24.6009615,49.8038462 24.6009615,49.3461538 24.6009615,48.7740385 L23.3423077,49.0028846 C23.5711538,49.0028846 23.6855769,49.0028846 23.9144231,48.8884615" id="Shape" fill="#5E5E5E"></path>
                    <path d="M32.2673077,65.0221154 L31.0086538,65.0221154 C27.6903846,64.9076923 24.4865385,64.2211538 21.5115385,62.9625 C21.2826923,62.8480769 21.0538462,62.6192308 21.1682692,62.3903846 L21.9692308,50.9480769 C21.9692308,50.7192308 22.0836538,50.6048077 22.3125,50.4903846 C22.5413462,50.3759615 22.6557692,50.3759615 22.8846154,50.4903846 C22.9990385,50.4903846 28.8346154,53.1221154 30.8942308,53.4653846 C31.5807692,53.5798077 32.1528846,53.5798077 32.8394231,53.4653846 C35.9288462,52.7788462 38.9038462,51.8634615 41.7644231,50.7192308 C41.8788462,50.6048077 42.1076923,50.4903846 42.3365385,50.6048077 C42.5653846,50.7192308 42.7942308,50.9480769 42.7942308,51.2913462 L42.4509615,62.9625 C39.2471154,64.2211538 35.8144231,64.9076923 32.2673077,65.0221154 Z M22.4269231,61.9326923 C25.1730769,62.9625 28.1480769,63.6490385 31.1230769,63.7634615 C34.3269231,63.8778846 37.5307692,63.5346154 40.5057692,62.5048077 L41.4211538,52.0923077 C40.5057692,52.4355769 39.5903846,52.7788462 38.5605769,53.0076923 C36.7298077,53.5798077 34.8990385,54.1519231 33.0682692,54.4951923 C32.2673077,54.6096154 31.4663462,54.6096154 30.6653846,54.4951923 C28.0336538,53.8086538 25.5163462,52.8932692 23.1134615,51.7490385 L22.4269231,61.9326923 Z" id="Shape" fill="#000105"></path>
                    <path d="M31.6951923,53.8086538 L31.3519231,53.4653846 C29.6355769,52.2067308 27.5759615,51.4057692 25.5163462,51.0625 C24.7153846,50.8336538 23.8,50.9480769 22.9990385,51.4057692 L22.1980769,50.4903846 C23.2278846,49.8038462 24.4865385,49.575 25.7451923,49.9182692 C27.9192308,50.3759615 29.9788462,51.1769231 31.8096154,52.3211538 C33.2971154,51.4057692 37.7596154,49.0028846 39.4759615,49.575 C40.3913462,49.9182692 41.4211538,50.2615385 42.3365385,50.6048077 L41.8788462,51.7490385 C41.8788462,51.7490385 39.5903846,50.9480769 39.1326923,50.8336538 C38.1028846,50.4903846 34.4413462,52.3211538 32.0384615,53.6942308 L31.6951923,53.8086538 Z" id="Shape" fill="#000105"></path>
                    <path d="M29.9788462,64.3355769 L32.2673077,64.45 L32.8394231,54.2663462 C32.8394231,54.2663462 30.6653846,54.0375 30.6653846,54.2663462 L29.9788462,64.3355769" id="Shape" fill="#E7B34E"></path>
                    <path d="M32.2673077,65.0221154 L29.9788462,64.9076923 C29.75,64.9076923 29.6355769,64.7932692 29.5211538,64.6788462 C29.4067308,64.5644231 29.4067308,64.3355769 29.4067308,64.2211538 L30.0932692,54.0375 C30.0932692,53.8086538 30.2076923,53.6942308 30.3221154,53.5798077 C30.5509615,53.4653846 30.6653846,53.2365385 32.9538462,53.4653846 C33.2971154,53.4653846 33.5259615,53.8086538 33.5259615,54.1519231 L32.9538462,64.45 C32.8394231,64.6788462 32.6105769,65.0221154 32.2673077,65.0221154 Z M30.6653846,63.7634615 L31.6951923,63.7634615 L32.1528846,54.7240385 L31.2375,54.7240385 L30.6653846,63.7634615 Z" id="Shape" fill="#000105"></path>
                    <ellipse id="Oval" fill="#FFFFFF" opacity="0.7" cx="18.0788462" cy="54.1519231" rx="1" ry="1.71634615"></ellipse>
                    <path d="M21.1682692,60.7884615 C22.1980769,61.3605769 24.7153846,61.5894231 24.2576923,59.9875 C24.1432692,59.1865385 22.1980769,59.0721154 21.3971154,59.1865385 C21.0538462,59.3009615 20.1384615,60.2163462 21.1682692,60.7884615 Z" id="Shape" fill="#94948E"></path>
                    <path d="M22.4269231,58.2711538 C22.9990385,58.1567308 23.6855769,58.1567308 24.2576923,58.2711538 C24.2576923,58.3855769 24.6009615,59.5298077 24.4865385,59.5298077 C24.3721154,59.5298077 23.8,60.3307692 23.4567308,60.2163462 C22.6557692,59.9875 21.9692308,59.8730769 21.1682692,59.7586538 C21.0538462,59.6442308 20.3673077,59.3009615 20.3673077,59.0721154 C20.3673077,58.8432692 20.4817308,57.9278846 20.5961538,57.9278846 C20.7105769,57.9278846 21.1682692,57.8134615 21.1682692,57.9278846 C21.6259615,58.0423077 21.9692308,58.1567308 22.4269231,58.2711538 Z" id="Shape" fill="#94948E"></path>
                    <path d="M22.4269231,56.5548077 C22.5413462,55.9826923 24.2576923,56.8980769 24.2576923,57.0125 C24.2576923,57.1269231 24.6009615,58.2711538 24.4865385,58.2711538 C24.3721154,58.2711538 23.8,59.0721154 23.4567308,58.9576923 C23.1134615,58.8432692 21.3971154,58.5 21.1682692,58.5 C20.9394231,58.5 20.3673077,58.0423077 20.3673077,57.8134615 C20.3673077,57.5846154 20.4817308,56.6692308 20.5961538,56.6692308 C20.7105769,56.6692308 20.9394231,55.7538462 20.9394231,55.8682692 L22.4269231,56.5548077 Z" id="Shape" fill="#94948E"></path>
                    <path d="M21.5115385,61.0173077 C21.5115385,61.0173077 21.3971154,60.9028846 21.3971154,60.2163462 C21.3971154,59.5298077 20.7105769,59.8730769 20.5961538,59.8730769 C20.5961538,60.2163462 20.7105769,60.5596154 20.825,60.9028846 C20.9394231,61.0173077 21.5115385,61.0173077 21.5115385,61.0173077 Z" id="Shape" fill="#94948E"></path>
                    <path d="M21.5115385,57.8134615 C21.5115385,57.5846154 21.5115385,57.3557692 21.6259615,57.1269231 C21.8548077,56.8980769 22.1980769,56.6692308 22.5413462,56.6692308 C22.5413462,56.6692308 22.3125,56.5548077 22.3125,56.6692308 C22.3125,56.7836538 21.1682692,56.7836538 21.1682692,56.7836538 L20.9394231,57.6990385 L21.5115385,57.8134615 Z" id="Shape" fill="#FFFFFF" opacity="0.9"></path>
                    <path d="M21.5115385,61.0173077 C21.3971154,60.7884615 21.2826923,60.4451923 21.2826923,60.2163462 C21.3971154,59.8730769 20.5961538,60.1019231 20.5961538,60.1019231 C20.5961538,60.1019231 20.1384615,61.2461538 20.2528846,61.2461538 C20.3673077,61.2461538 21.5115385,61.0173077 21.5115385,61.0173077 Z" id="Shape" fill="#FFFFFF" opacity="0.9"></path>
                    <path d="M21.2826923,59.4153846 C21.1682692,59.0721154 21.1682692,58.7288462 21.2826923,58.3855769 C21.5115385,57.8134615 20.5961538,58.1567308 20.5961538,58.1567308 L20.9394231,59.6442308 L21.2826923,59.4153846 Z" id="Shape" fill="#FFFFFF" opacity="0.9"></path>
                    <path d="M23.3423077,56.8980769 C23.6855769,57.1269231 23.8,57.5846154 23.5711538,57.9278846 C23.5711538,58.0423077 23.4567308,58.0423077 23.4567308,58.1567308 C24.1432692,58.8432692 24.3721154,57.2413462 24.3721154,57.2413462 C24.3721154,57.2413462 24.3721154,56.7836538 23.3423077,56.8980769 Z" id="Shape" fill="#5E5E5D"></path>
                    <path d="M23.3423077,58.6144231 C23.6855769,58.8432692 23.8,59.3009615 23.5711538,59.6442308 C23.5711538,59.7586538 23.4567308,59.7586538 23.4567308,59.8730769 C24.1432692,60.5596154 24.3721154,58.9576923 24.3721154,58.9576923 C24.3721154,58.9576923 24.3721154,58.3855769 23.3423077,58.6144231 Z" id="Shape" fill="#5E5E5D"></path>
                    <path d="M23.2278846,60.2163462 C23.2278846,60.2163462 23.3423077,60.6740385 22.6557692,61.2461538 C23.3423077,61.8182692 24.2576923,60.4451923 24.2576923,60.4451923 C24.2576923,60.4451923 24.1432692,60.1019231 23.2278846,60.2163462 Z" id="Shape" fill="#5E5E5D"></path>
                    <path d="M24.8298077,50.3759615 L23.8,50.2615385 C23.9144231,49.3461538 24.2576923,48.4307692 24.8298077,47.7442308 L25.7451923,47.9730769 C25.2875,48.6596154 25.0586538,49.4605769 24.8298077,50.3759615 Z" id="Shape" fill="#000105"></path>
                    <path d="M39.7048077,50.6048077 C39.5903846,50.0326923 39.3615385,49.575 39.1326923,49.0028846 L40.2769231,48.5451923 C40.2769231,48.6596154 40.8490385,50.2615385 40.8490385,50.2615385 L39.7048077,50.6048077 Z" id="Shape" fill="#000105"></path>
                    <path d="M20.2528846,59.6442308 C20.1384615,59.5298077 16.4769231,56.3259615 16.5913462,53.5798077 C17.3923077,48.6596154 24.1432692,47.6298077 24.4865385,47.6298077 L24.8298077,48.7740385 C24.7153846,48.7740385 18.0788462,49.575 17.3923077,53.5798077 C17.2778846,55.2961538 19.7951923,58.1567308 20.5961538,58.7288462 L20.2528846,59.6442308 Z" id="Shape" fill="#000105"></path>
                    <path d="M23.1134615,59.1865385 C22.4269231,59.1865385 21.7403846,59.0721154 21.0538462,58.7288462 C20.4817308,58.3855769 20.2528846,57.8134615 20.2528846,57.2413462 C20.3673077,56.5548077 20.825,56.0971154 21.5115385,55.9826923 C22.5413462,55.7538462 23.5711538,55.8682692 24.4865385,56.4403846 C24.7153846,56.6692308 24.9442308,56.8980769 24.9442308,57.2413462 C25.1730769,57.8134615 24.9442308,58.5 24.4865385,58.8432692 C24.1432692,59.0721154 23.5711538,59.1865385 23.1134615,59.1865385 Z M22.4269231,57.0125 L21.7403846,57.0125 C21.7403846,57.0125 21.5115385,57.2413462 21.5115385,57.3557692 L21.7403846,57.5846154 C22.4269231,57.9278846 23.2278846,58.0423077 23.9144231,57.8134615 C23.9144231,57.8134615 24.0288462,57.6990385 23.9144231,57.4701923 L23.9144231,57.3557692 C23.8,57.1269231 23.1134615,57.0125 22.4269231,57.0125 Z" id="Shape" fill="#000105"></path>
                    <path d="M23.1134615,60.7884615 C22.3125,60.7884615 21.5115385,60.5596154 20.825,60.2163462 C20.2528846,59.8730769 19.9096154,59.3009615 19.9096154,58.7288462 C19.9096154,58.1567308 20.1384615,57.5846154 20.7105769,57.2413462 L21.2826923,58.2711538 C21.1682692,58.2711538 21.0538462,58.6144231 21.1682692,58.8432692 C21.2826923,59.0721154 21.2826923,59.0721154 21.3971154,59.1865385 C22.0836538,59.6442308 22.9990385,59.7586538 23.8,59.4153846 C24.0288462,59.0721154 24.0288462,58.6144231 23.8,58.2711538 L24.9442308,57.8134615 C25.1730769,58.5 25.1730769,59.3009615 24.8298077,59.9875 C24.6009615,60.3307692 24.2576923,60.5596154 23.8,60.6740385 C23.5711538,60.6740385 23.3423077,60.7884615 23.1134615,60.7884615 Z" id="Shape" fill="#000105"></path>
                    <path d="M22.1980769,62.0471154 C21.3971154,62.0471154 20.0240385,61.2461538 19.9096154,60.6740385 C19.7951923,60.1019231 20.1384615,59.5298077 20.5961538,59.1865385 L21.1682692,59.7586538 L21.0538462,59.6442308 L21.1682692,59.7586538 C20.9394231,59.8730769 21.0538462,60.4451923 20.9394231,60.5596154 C21.7403846,61.1317308 22.8846154,61.1317308 23.5711538,60.4451923 C23.6855769,60.3307692 23.6855769,60.1019231 23.6855769,59.9875 L24.8298077,59.7586538 C25.0586538,60.3307692 24.8298077,61.0173077 24.3721154,61.3605769 C23.8,61.8182692 22.9990385,62.0471154 22.1980769,62.0471154 Z" id="Shape" fill="#000105"></path>
                    <ellipse id="Oval" fill="#FFFFFF" opacity="0.7" cx="46.9134615" cy="55.0673077" rx="1" ry="1.71634615"></ellipse>
                    <path d="M42.5653846,57.4701923 C42.4509615,56.8980769 40.7346154,57.8134615 40.7346154,57.9278846 C40.7346154,58.0423077 40.3913462,59.1865385 40.5057692,59.1865385 C40.6201923,59.1865385 40.3913462,62.1615385 40.7346154,62.0471154 C41.0778846,61.9326923 45.4259615,63.1913462 43.8240385,59.4153846 C43.7096154,59.3009615 44.625,58.9576923 44.625,58.7288462 C44.625,58.5 44.5105769,57.5846154 44.3961538,57.5846154 C44.2817308,57.5846154 44.0528846,56.6692308 44.0528846,56.7836538 L42.5653846,57.4701923 Z" id="Shape" fill="#94948E"></path>
                    <path d="M43.3663462,58.7288462 C43.3663462,58.5 43.3663462,58.2711538 43.2519231,58.0423077 C43.0230769,57.8134615 42.7942308,57.6990385 42.4509615,57.6990385 C42.4509615,57.6990385 42.6798077,57.5846154 42.6798077,57.6990385 C42.6798077,57.8134615 43.8240385,57.8134615 43.8240385,57.8134615 L44.0528846,58.7288462 L43.3663462,58.7288462 Z" id="Shape" fill="#5D5D5C" opacity="0.9"></path>
                    <path d="M42.6798077,61.9326923 C42.7942308,61.7038462 42.9086538,61.3605769 42.9086538,61.1317308 C42.7942308,60.7884615 44.2817308,61.0173077 44.2817308,61.0173077 C43.9384615,61.475 43.5951923,61.8182692 43.2519231,62.1615385 C43.1375,62.2759615 42.6798077,61.9326923 42.6798077,61.9326923 Z" id="Shape" fill="#5D5D5C" opacity="0.9"></path>
                    <path d="M43.5951923,60.3307692 C43.7096154,59.9875 43.7096154,59.6442308 43.5951923,59.3009615 C43.4807692,58.8432692 44.3961538,59.0721154 44.3961538,59.0721154 L44.0528846,60.5596154 L43.5951923,60.3307692 Z" id="Shape" fill="#5D5D5C" opacity="0.9"></path>
                    <path d="M44.625,60.3307692 L44.1673077,59.6442308 C44.9682692,59.0721154 47.7144231,56.5548077 47.7144231,54.8384615 C47.0278846,50.9480769 39.8192308,49.575 39.8192308,49.575 L39.9336538,48.6596154 C40.2769231,48.6596154 47.6,49.575 48.4009615,54.7240385 L48.4009615,54.8384615 C48.5153846,57.6990385 45.0826923,60.1019231 44.625,60.3307692 Z" id="Shape" fill="#000105"></path>
                    <path d="M41.8788462,60.2163462 C41.3067308,60.2163462 40.8490385,60.1019231 40.3913462,59.7586538 C39.9336538,59.3009615 39.7048077,58.6144231 39.9336538,58.0423077 C39.9336538,57.6990385 40.1625,57.4701923 40.3913462,57.2413462 C41.3067308,56.7836538 42.3365385,56.6692308 43.3663462,56.7836538 C43.9384615,56.8980769 44.3961538,57.4701923 44.5105769,58.0423077 C44.625,58.7288462 44.2817308,59.4153846 43.7096154,59.7586538 C43.1375,59.9875 42.5653846,60.2163462 41.8788462,60.2163462 Z M42.5653846,57.9278846 C41.8788462,57.9278846 41.1923077,58.0423077 41.0778846,58.2711538 C40.9634615,58.3855769 40.9634615,58.5 40.9634615,58.6144231 C40.9634615,58.7288462 41.0778846,58.8432692 41.1923077,58.8432692 C41.8788462,59.0721154 42.5653846,59.0721154 43.1375,58.7288462 C43.3663462,58.6144231 43.3663462,58.5 43.3663462,58.3855769 C43.3663462,58.2711538 43.3663462,57.9278846 42.5653846,57.9278846 Z" id="Shape" fill="#000105"></path>
                    <path d="M41.8788462,61.7038462 C41.65,61.7038462 41.3067308,61.7038462 41.0778846,61.5894231 C40.7346154,61.475 40.3913462,61.2461538 40.1625,60.9028846 C39.8192308,60.2163462 39.8192308,59.4153846 40.0480769,58.7288462 L41.1923077,59.1865385 C40.9634615,59.5298077 40.9634615,59.9875 41.1923077,60.3307692 C41.3067308,60.5596154 42.6798077,60.5596154 43.5951923,60.1019231 C43.7096154,59.9875 43.8240385,59.8730769 43.8240385,59.7586538 C43.8240385,59.5298077 43.8240385,59.4153846 43.7096154,59.1865385 L44.2817308,58.1567308 C44.7394231,58.5 45.0826923,59.0721154 45.0826923,59.6442308 C45.0826923,60.3307692 44.7394231,60.9028846 44.1673077,61.1317308 C43.4807692,61.475 42.6798077,61.7038462 41.8788462,61.7038462 Z" id="Shape" fill="#000105"></path>
                    <path d="M14.0740385,29.8942308 L12.9298077,29.5509615 C13.0442308,29.0932692 17.1634615,16.9644231 22.3125,16.1634615 L23.1134615,17.0788462 C19.4519231,17.5365385 15.2182692,26.5759615 14.0740385,29.8942308 Z" id="Shape" fill="#000105"></path>
                    <path d="M25.5163462,11.1288462 L24.9442308,15.5913462 L25.8596154,15.4769231 C25.9740385,13.9894231 26.0884615,12.3875 26.4317308,10.9 C26.0884615,10.9 25.8596154,10.9 25.5163462,11.1288462" id="Shape" fill="#FFFFFF" opacity="0.7"></path>
                    <path d="M31.9240385,65.0221154 C17.7355769,65.2509615 6.06442308,54.0375 5.83557692,39.8490385 C5.83557692,39.7346154 5.83557692,39.5057692 5.83557692,39.3913462 L7.09423077,39.3913462 C7.09423077,53.1221154 18.0788462,63.7634615 32.0384615,63.7634615 C46.3413462,63.7634615 58.2413462,51.6346154 58.2413462,38.4759615 L59.3855769,38.0182692 C59.3855769,44.8836538 56.6394231,52.6644231 51.3759615,57.5846154 C45.9980769,62.2759615 39.1326923,64.9076923 31.9240385,65.0221154 Z" id="Shape" fill="#000105"></path>
                    <path d="M51.9480769,35.2721154 C51.6048077,35.2721154 51.3759615,35.1576923 51.3759615,34.8144231 C51.3759615,34.7 51.3759615,34.7 51.3759615,34.5855769 C52.7490385,24.4019231 46.4557692,20.3971154 46.2269231,20.2826923 C45.9980769,20.1682692 45.8836538,19.7105769 45.9980769,19.4817308 C46.1125,19.2528846 46.5701923,19.1384615 46.7990385,19.2528846 C47.1423077,19.4817308 54.0076923,23.8298077 52.5201923,34.8144231 C52.5201923,35.0432692 52.1769231,35.2721154 51.9480769,35.2721154 Z" id="Shape" fill="#141516"></path>
                    <path d="M40.6201923,63.4201923 C40.0480769,63.3057692 40.2769231,63.1913462 40.1625,62.9625 C39.8192308,62.2759615 39.8192308,61.475 40.0480769,60.7884615 L41.1923077,61.2461538 C40.9634615,61.5894231 40.9634615,62.0471154 41.1923077,62.3903846 C41.3067308,62.6192308 43.7096154,61.2461538 43.7096154,61.2461538 C42.6798077,62.0471154 41.65,62.7336538 40.6201923,63.4201923 Z" id="Shape" fill="#000105"></path>
                    <g id="Group" transform="translate(76.663462, 47.057692)" fill="#333333">
                        <path d="M0.800961538,6.06442308 L0.800961538,0.228846154 C0.800961538,0.114423077 0.915384615,0.114423077 0.915384615,0.114423077 L1.94519231,0.114423077 C2.05961538,0.114423077 2.05961538,0.228846154 2.05961538,0.228846154 L2.05961538,5.03461538 L4.57692308,5.03461538 L4.57692308,0.228846154 C4.57692308,0.114423077 4.69134615,0.114423077 4.69134615,0.114423077 L5.72115385,0.114423077 C5.83557692,0.114423077 5.83557692,0.228846154 5.83557692,0.228846154 L5.83557692,5.03461538 L6.97980769,5.03461538 C7.09423077,5.03461538 7.09423077,5.14903846 7.09423077,5.14903846 L7.09423077,8.00961538 C7.09423077,8.12403846 6.97980769,8.12403846 6.97980769,8.12403846 L5.95,8.12403846 C5.83557692,8.12403846 5.83557692,8.00961538 5.83557692,8.00961538 L5.83557692,6.06442308 L0.800961538,6.06442308 C0.915384615,6.17884615 0.800961538,6.06442308 0.800961538,6.06442308 Z" id="Shape"></path>
                        <path d="M16.2480769,0.114423077 C16.3625,0.114423077 16.3625,0.228846154 16.3625,0.228846154 L16.3625,1.14423077 C16.3625,1.25865385 16.2480769,1.25865385 16.2480769,1.25865385 L13.1586538,1.25865385 L13.1586538,2.51730769 L15.7903846,2.51730769 C15.9048077,2.51730769 15.9048077,2.63173077 15.9048077,2.63173077 L15.9048077,3.54711538 C15.9048077,3.66153846 15.7903846,3.66153846 15.7903846,3.66153846 L13.1586538,3.66153846 L13.1586538,5.03461538 L16.2480769,5.03461538 C16.3625,5.03461538 16.3625,5.03461538 16.3625,5.14903846 L16.3625,6.06442308 C16.3625,6.17884615 16.2480769,6.17884615 16.2480769,6.17884615 L12.0144231,6.17884615 C11.9,6.17884615 11.9,6.06442308 11.9,6.06442308 L11.9,0.228846154 C11.9,0.114423077 12.0144231,0.114423077 12.0144231,0.114423077 L16.2480769,0.114423077 Z" id="Shape"></path>
                        <path d="M26.3173077,0.114423077 C26.4317308,0.114423077 26.4317308,0.228846154 26.4317308,0.228846154 L26.4317308,6.06442308 C26.4317308,6.17884615 26.3173077,6.17884615 26.3173077,6.17884615 L25.2875,6.17884615 C25.1730769,6.17884615 25.1730769,6.06442308 25.1730769,6.06442308 L25.1730769,3.66153846 L22.4269231,3.66153846 L22.4269231,6.06442308 C22.4269231,6.17884615 22.4269231,6.17884615 22.3125,6.17884615 L21.2826923,6.17884615 C21.1682692,6.17884615 21.1682692,6.06442308 21.1682692,6.06442308 L21.1682692,0.228846154 C21.1682692,0.114423077 21.2826923,0.114423077 21.2826923,0.114423077 L22.3125,0.114423077 C22.4269231,0.114423077 22.4269231,0.228846154 22.4269231,0.228846154 L22.4269231,2.51730769 L25.1730769,2.51730769 L25.1730769,0.228846154 C25.1730769,0.114423077 25.2875,0.114423077 25.2875,0.114423077 L26.3173077,0.114423077 Z" id="Shape"></path>
                        <path d="M36.0432692,0.114423077 C36.1576923,0.114423077 36.1576923,0.228846154 36.1576923,0.228846154 L36.1576923,1.14423077 C36.1576923,1.25865385 36.0432692,1.25865385 36.0432692,1.25865385 L34.3269231,1.25865385 L34.3269231,6.06442308 C34.3269231,6.17884615 34.2125,6.17884615 34.2125,6.17884615 L33.1826923,6.17884615 C33.0682692,6.17884615 33.0682692,6.06442308 33.0682692,6.06442308 L33.0682692,1.25865385 L31.2375,1.25865385 C31.1230769,1.25865385 31.1230769,1.14423077 31.1230769,1.14423077 L31.1230769,0.228846154 C31.1230769,0.114423077 31.2375,0.114423077 31.2375,0.114423077 L36.0432692,0.114423077 Z" id="Shape"></path>
                        <path d="M43.4807692,0.114423077 C43.9384615,0.114423077 44.5105769,0.228846154 44.8538462,0.572115385 C45.3115385,0.915384615 45.5403846,1.4875 45.5403846,2.28846154 C45.5403846,2.975 45.1971154,3.66153846 44.7394231,4.00480769 C44.2817308,4.34807692 43.8240385,4.4625 43.3663462,4.4625 L41.9932692,4.4625 L41.9932692,6.17884615 C41.9932692,6.29326923 41.9932692,6.29326923 41.8788462,6.29326923 L40.8490385,6.29326923 C40.7346154,6.29326923 40.7346154,6.17884615 40.7346154,6.17884615 L40.7346154,0.343269231 C40.7346154,0.228846154 40.8490385,0.228846154 40.8490385,0.228846154 L43.4807692,0.228846154 L43.4807692,0.114423077 Z M43.9384615,1.37307692 C43.7096154,1.25865385 43.4807692,1.14423077 43.2519231,1.14423077 L42.1076923,1.14423077 L42.1076923,3.08942308 L43.2519231,3.08942308 C43.4807692,3.08942308 43.7096154,3.08942308 43.9384615,2.975 C44.1673077,2.86057692 44.2817308,2.51730769 44.2817308,2.17403846 C44.2817308,1.83076923 44.1673077,1.60192308 43.9384615,1.37307692 Z" id="Shape"></path>
                        <path d="M59.6144231,6.29326923 C57.7836538,6.29326923 56.4105769,5.03461538 56.4105769,3.20384615 C56.4105769,1.37307692 57.7836538,0.114423077 59.6144231,0.114423077 C61.4451923,0.114423077 62.8182692,1.37307692 62.8182692,3.20384615 C62.8182692,5.03461538 61.3307692,6.29326923 59.6144231,6.29326923 Z M59.6144231,1.25865385 C58.5846154,1.25865385 57.7836538,2.05961538 57.7836538,3.20384615 C57.7836538,4.34807692 58.5846154,5.14903846 59.6144231,5.14903846 C60.6442308,5.14903846 61.4451923,4.34807692 61.4451923,3.20384615 C61.4451923,2.05961538 60.6442308,1.25865385 59.6144231,1.25865385 Z" id="Shape"></path>
                        <path d="M71.6288462,0.114423077 C71.7432692,0.114423077 71.7432692,0.228846154 71.7432692,0.228846154 L71.7432692,1.14423077 C71.7432692,1.25865385 71.6288462,1.25865385 71.6288462,1.25865385 L68.9971154,1.25865385 L68.9971154,2.63173077 L69.9125,2.63173077 C70.3701923,2.63173077 70.8278846,2.63173077 71.2855769,2.86057692 C71.7432692,3.08942308 72.2009615,3.54711538 72.2009615,4.34807692 C72.2009615,5.14903846 71.8576923,5.60673077 71.4,5.83557692 C71.0567308,6.06442308 70.5990385,6.06442308 70.1413462,6.06442308 L67.9673077,6.06442308 C67.8528846,6.06442308 67.8528846,5.95 67.8528846,5.95 L67.8528846,0.114423077 C67.8528846,0 67.9673077,0 67.9673077,0 L71.6288462,0 L71.6288462,0.114423077 Z M70.4846154,3.66153846 C70.2557692,3.54711538 70.0269231,3.54711538 69.7980769,3.54711538 L68.9971154,3.54711538 L68.9971154,5.03461538 L69.9125,5.03461538 C70.1413462,5.03461538 70.3701923,5.03461538 70.5990385,4.92019231 C70.8278846,4.80576923 70.9423077,4.57692308 70.9423077,4.23365385 C70.8278846,4.00480769 70.7134615,3.89038462 70.4846154,3.66153846 Z" id="Shape"></path>
                        <path d="M79.6384615,0.114423077 C80.0961538,0.114423077 80.6682692,0.228846154 81.0115385,0.572115385 C81.4692308,0.915384615 81.6980769,1.4875 81.6980769,2.28846154 C81.6980769,2.975 81.3548077,3.66153846 80.8971154,4.00480769 C80.4394231,4.34807692 79.9817308,4.4625 79.5240385,4.4625 L78.1509615,4.4625 L78.1509615,6.17884615 C78.1509615,6.29326923 78.1509615,6.29326923 78.0365385,6.29326923 L77.0067308,6.29326923 C76.8923077,6.29326923 76.8923077,6.17884615 76.8923077,6.17884615 L76.8923077,0.343269231 C76.8923077,0.228846154 77.0067308,0.228846154 77.0067308,0.228846154 L79.6384615,0.228846154 L79.6384615,0.114423077 Z M80.2105769,1.37307692 C79.9817308,1.25865385 79.7528846,1.14423077 79.5240385,1.14423077 L78.3798077,1.14423077 L78.3798077,3.08942308 L79.5240385,3.08942308 C79.7528846,3.08942308 79.9817308,3.08942308 80.2105769,2.975 C80.4394231,2.86057692 80.5538462,2.51730769 80.5538462,2.17403846 C80.5538462,1.83076923 80.4394231,1.60192308 80.2105769,1.37307692 Z" id="Shape"></path>
                        <path d="M87.4192308,6.06442308 C87.4192308,6.17884615 87.3048077,6.17884615 87.1903846,6.17884615 L86.1605769,6.17884615 C86.0461538,6.17884615 86.0461538,6.17884615 86.0461538,6.06442308 C86.0461538,6.06442308 86.0461538,6.06442308 86.0461538,5.95 L88.1057692,0.228846154 C88.1057692,0.114423077 88.2201923,0.114423077 88.3346154,0.114423077 L89.3644231,0.114423077 C89.4788462,0.114423077 89.5932692,0.114423077 89.5932692,0.228846154 L91.6528846,5.95 C91.6528846,5.95 91.6528846,6.06442308 91.6528846,6.06442308 C91.6528846,6.17884615 91.6528846,6.17884615 91.5384615,6.17884615 L90.5086538,6.17884615 C90.3942308,6.17884615 90.2798077,6.17884615 90.2798077,6.06442308 L89.9365385,5.03461538 L87.7625,5.03461538 L87.4192308,6.06442308 Z M88.9067308,1.60192308 L88.1057692,3.89038462 L89.5932692,3.89038462 L88.9067308,1.60192308 Z" id="Shape"></path>
                        <path d="M96.8019231,3.54711538 C96.6875,3.54711538 96.6875,3.54711538 96.6875,3.43269231 L96.6875,2.74615385 C96.6875,2.63173077 96.8019231,2.63173077 96.8019231,2.63173077 L97.3740385,2.63173077 C97.7173077,2.63173077 97.9461538,2.63173077 98.175,2.51730769 C98.4038462,2.40288462 98.5182692,2.17403846 98.5182692,1.83076923 C98.5182692,1.60192308 98.4038462,1.4875 98.2894231,1.37307692 C98.175,1.25865385 97.9461538,1.14423077 97.7173077,1.14423077 C97.2596154,1.14423077 96.9163462,1.25865385 96.5730769,1.4875 C96.4586538,1.60192308 96.4586538,1.4875 96.3442308,1.4875 L96.0009615,0.800961538 C96.0009615,0.686538462 96.0009615,0.686538462 96.0009615,0.572115385 C96.4586538,0.343269231 96.9163462,-1.42108547e-14 97.7173077,-1.42108547e-14 C98.2894231,-1.42108547e-14 98.7471154,0.228846154 98.9759615,0.457692308 C99.3192308,0.800961538 99.4336538,1.14423077 99.4336538,1.60192308 C99.4336538,2.17403846 99.2048077,2.74615385 98.5182692,2.975 C99.2048077,3.20384615 99.6625,3.77596154 99.6625,4.57692308 C99.6625,5.14903846 99.4336538,5.60673077 99.0903846,5.83557692 C98.7471154,6.06442308 98.2894231,6.29326923 97.7173077,6.29326923 C96.9163462,6.29326923 96.4586538,6.06442308 96.0009615,5.83557692 C95.8865385,5.83557692 95.8865385,5.72115385 96.0009615,5.60673077 L96.3442308,4.92019231 C96.3442308,4.80576923 96.4586538,4.80576923 96.5730769,4.92019231 C97.0307692,5.26346154 97.3740385,5.26346154 97.7173077,5.26346154 C98.0605769,5.26346154 98.2894231,5.14903846 98.4038462,5.03461538 C98.6326923,4.92019231 98.6326923,4.69134615 98.6326923,4.4625 C98.6326923,4.11923077 98.5182692,3.89038462 98.175,3.77596154 C97.9461538,3.66153846 97.7173077,3.66153846 97.3740385,3.66153846 L96.8019231,3.66153846 L96.8019231,3.54711538 Z" id="Shape"></path>
                        <path d="M107.672115,6.29326923 C105.841346,6.29326923 104.468269,5.03461538 104.468269,3.20384615 C104.468269,1.37307692 105.841346,0.114423077 107.672115,0.114423077 C109.502885,0.114423077 110.875962,1.37307692 110.875962,3.20384615 C110.875962,5.03461538 109.502885,6.29326923 107.672115,6.29326923 Z M107.672115,1.25865385 C106.642308,1.25865385 105.841346,2.05961538 105.841346,3.20384615 C105.841346,4.34807692 106.642308,5.14903846 107.672115,5.14903846 C108.701923,5.14903846 109.502885,4.34807692 109.502885,3.20384615 C109.502885,2.05961538 108.701923,1.25865385 107.672115,1.25865385 Z" id="Shape"></path>
                        <path d="M118.199038,6.17884615 L115.910577,6.17884615 C115.796154,6.17884615 115.796154,6.06442308 115.796154,6.06442308 L115.796154,0.228846154 C115.796154,0.114423077 115.910577,0.114423077 115.910577,0.114423077 L117.741346,0.114423077 C118.199038,0.114423077 118.771154,0.228846154 119.228846,0.457692308 C119.572115,0.686538462 119.800962,1.14423077 119.800962,1.60192308 C119.800962,2.17403846 119.572115,2.63173077 119.114423,2.86057692 C119.915385,3.08942308 120.373077,3.66153846 120.373077,4.4625 C120.258654,5.60673077 119.228846,6.17884615 118.199038,6.17884615 Z M118.199038,1.25865385 C118.084615,1.14423077 117.855769,1.14423077 117.741346,1.14423077 L117.054808,1.14423077 L117.054808,2.51730769 L117.626923,2.51730769 C117.741346,2.51730769 117.970192,2.51730769 118.084615,2.40288462 C118.313462,2.28846154 118.427885,2.05961538 118.427885,1.83076923 C118.427885,1.60192308 118.313462,1.37307692 118.199038,1.25865385 Z M118.542308,3.66153846 C118.313462,3.54711538 118.084615,3.54711538 117.855769,3.54711538 L117.054808,3.54711538 L117.054808,5.03461538 L117.970192,5.03461538 C118.199038,5.03461538 118.427885,5.03461538 118.542308,4.92019231 C118.771154,4.80576923 119,4.57692308 119,4.23365385 C118.885577,4.11923077 118.771154,3.89038462 118.542308,3.66153846 Z" id="Shape"></path>
                        <path d="M125.865385,6.06442308 C125.865385,6.17884615 125.750962,6.17884615 125.636538,6.17884615 L124.721154,6.17884615 C124.606731,6.17884615 124.606731,6.17884615 124.606731,6.06442308 C124.606731,6.06442308 124.606731,6.06442308 124.606731,5.95 L126.666346,0.228846154 C126.666346,0.114423077 126.780769,0.114423077 126.895192,0.114423077 L127.925,0.114423077 C128.039423,0.114423077 128.153846,0.114423077 128.153846,0.228846154 L130.099038,5.95 C130.099038,5.95 130.099038,6.06442308 130.099038,6.06442308 C130.099038,6.17884615 130.099038,6.17884615 129.984615,6.17884615 L128.954808,6.17884615 C128.840385,6.17884615 128.725962,6.17884615 128.725962,6.06442308 L128.382692,5.03461538 L126.208654,5.03461538 L125.865385,6.06442308 Z M127.352885,1.60192308 L126.551923,3.89038462 L128.039423,3.89038462 L127.352885,1.60192308 Z" id="Shape"></path>
                        <path d="M139.710577,0.114423077 C139.825,0.114423077 139.825,0.228846154 139.825,0.228846154 L139.825,6.06442308 C139.825,6.17884615 139.710577,6.17884615 139.710577,6.17884615 L138.680769,6.17884615 C138.566346,6.17884615 138.566346,6.06442308 138.566346,6.06442308 L138.566346,3.66153846 L135.820192,3.66153846 L135.820192,6.06442308 C135.820192,6.17884615 135.820192,6.17884615 135.705769,6.17884615 L134.675962,6.17884615 C134.561538,6.17884615 134.561538,6.06442308 134.561538,6.06442308 L134.561538,0.228846154 C134.561538,0.114423077 134.675962,0.114423077 134.675962,0.114423077 L135.705769,0.114423077 C135.820192,0.114423077 135.820192,0.228846154 135.820192,0.228846154 L135.820192,2.51730769 L138.566346,2.51730769 L138.566346,0.228846154 C138.566346,0.114423077 138.680769,0.114423077 138.680769,0.114423077 L139.710577,0.114423077 Z" id="Shape"></path>
                        <path d="M149.093269,2.51730769 L146.347115,5.37788462 L146.347115,6.06442308 C146.347115,6.17884615 146.347115,6.17884615 146.232692,6.17884615 L145.202885,6.17884615 C145.088462,6.17884615 145.088462,6.06442308 145.088462,6.06442308 L145.088462,0.228846154 C145.088462,0.114423077 145.202885,0.114423077 145.202885,0.114423077 L146.232692,0.114423077 C146.347115,0.114423077 146.347115,0.228846154 146.347115,0.228846154 L146.347115,3.77596154 L149.093269,0.915384615 L149.093269,0.228846154 C149.093269,0.114423077 149.207692,0.114423077 149.207692,0.114423077 L150.2375,0.114423077 C150.351923,0.114423077 150.351923,0.228846154 150.351923,0.228846154 L150.351923,6.06442308 C150.351923,6.17884615 150.2375,6.17884615 150.2375,6.17884615 L149.207692,6.17884615 C149.093269,6.17884615 149.093269,6.17884615 149.093269,6.06442308 L149.093269,2.51730769 Z" id="Shape"></path>
                        <path d="M155.157692,2.05961538 C155.157692,1.37307692 155.386538,0.800961538 155.844231,0.457692308 C156.1875,0.114423077 156.759615,0 157.331731,0 L159.849038,0 C159.963462,0 159.963462,0.114423077 159.963462,0.114423077 L159.963462,5.95 C159.963462,6.06442308 159.849038,6.06442308 159.849038,6.06442308 L158.819231,6.06442308 C158.704808,6.06442308 158.704808,5.95 158.704808,5.95 L158.704808,4.00480769 L157.560577,4.00480769 L156.416346,5.95 C156.301923,6.06442308 156.301923,6.06442308 156.1875,6.06442308 L155.043269,6.06442308 C154.928846,6.06442308 154.928846,6.06442308 154.928846,5.95 C154.928846,5.95 154.928846,5.83557692 154.928846,5.83557692 L156.1875,3.77596154 C155.958654,3.77596154 155.844231,3.66153846 155.615385,3.54711538 C155.386538,3.20384615 155.157692,2.63173077 155.157692,2.05961538 Z M157.446154,1.14423077 C157.217308,1.14423077 156.988462,1.14423077 156.759615,1.25865385 C156.530769,1.37307692 156.416346,1.60192308 156.416346,1.94519231 C156.416346,2.28846154 156.530769,2.51730769 156.759615,2.63173077 C156.988462,2.74615385 157.217308,2.74615385 157.446154,2.74615385 L158.704808,2.74615385 L158.704808,1.14423077 L157.446154,1.14423077 Z" id="Shape"></path>
                    </g>
                    <g id="Group" transform="translate(76.663462, 19.596154)" fill="#333333">
                        <path d="M15.6759615,0.915384615 C16.1336538,0.915384615 16.2480769,1.25865385 16.0192308,1.71634615 L9.95480769,10.1836538 L16.2480769,19.2230769 C16.5913462,19.6807692 16.4769231,20.1384615 16.0192308,20.1384615 L11.7855769,20.1384615 C11.3278846,20.1384615 11.0990385,20.0240385 10.8701923,19.6807692 L6.29326923,12.7009615 L5.37788462,12.7009615 L5.37788462,19.6807692 C5.37788462,19.9096154 5.14903846,20.1384615 4.92019231,20.1384615 L1.37307692,20.1384615 C1.14423077,20.1384615 0.915384615,19.9096154 0.915384615,19.6807692 L0.915384615,1.4875 C0.915384615,1.25865385 1.14423077,1.02980769 1.37307692,1.02980769 L4.92019231,1.02980769 C5.14903846,1.02980769 5.37788462,1.25865385 5.37788462,1.4875 L5.37788462,8.23846154 L6.29326923,8.23846154 L10.8701923,1.4875 C11.0990385,1.14423077 11.3278846,1.02980769 11.7855769,1.02980769 L15.6759615,1.02980769 L15.6759615,0.915384615 Z" id="Shape"></path>
                        <path d="M28.4913462,20.3673077 C23.4567308,20.3673077 18.9942308,16.4769231 18.9942308,10.5269231 C18.9942308,4.57692308 23.3423077,0.686538462 28.4913462,0.686538462 C33.5259615,0.686538462 37.9884615,4.57692308 37.9884615,10.5269231 C37.9884615,16.5913462 33.5259615,20.3673077 28.4913462,20.3673077 Z M28.4913462,5.37788462 C25.7451923,5.37788462 23.8,7.55192308 23.8,10.6413462 C23.8,13.7307692 25.7451923,15.7903846 28.4913462,15.7903846 C31.2375,15.7903846 33.1826923,13.6163462 33.1826923,10.6413462 C33.1826923,7.55192308 31.2375,5.37788462 28.4913462,5.37788462 Z" id="Shape"></path>
                        <path d="M56.6394231,19.5663462 C56.6394231,19.7951923 56.4105769,20.0240385 56.1817308,20.0240385 L52.6346154,20.0240385 C52.4057692,20.0240385 52.1769231,19.7951923 52.1769231,19.5663462 L52.1769231,14.6461538 L46.5701923,14.6461538 L46.5701923,19.5663462 C46.5701923,19.7951923 46.3413462,20.0240385 46.1125,20.0240385 L42.5653846,20.0240385 C42.3365385,20.0240385 42.1076923,19.7951923 42.1076923,19.5663462 L42.1076923,8.46730769 C42.1076923,6.17884615 43.0230769,3.66153846 44.8538462,2.17403846 C45.9980769,1.25865385 47.4855769,0.686538462 49.4307692,0.686538462 C51.3759615,0.686538462 52.8634615,1.25865385 54.0076923,2.17403846 C55.9528846,3.77596154 56.7538462,6.17884615 56.7538462,8.46730769 L56.7538462,19.5663462 L56.6394231,19.5663462 Z M47.4855769,6.06442308 C47.0278846,6.63653846 46.5701923,7.4375 46.5701923,8.81057692 L46.5701923,10.2980769 L52.1769231,10.2980769 L52.1769231,8.81057692 C52.1769231,7.4375 51.8336538,6.63653846 51.2615385,6.06442308 C50.6894231,5.49230769 50.0028846,5.37788462 49.3163462,5.37788462 C48.7442308,5.37788462 48.0576923,5.49230769 47.4855769,6.06442308 Z" id="Shape"></path>
                        <path d="M63.6192308,20.1384615 L60.8730769,20.1384615 C60.4153846,20.1384615 60.0721154,19.7951923 60.5298077,19.1086538 C61.4451923,17.5067308 62.0173077,15.9048077 62.3605769,14.0740385 C62.7038462,12.1288462 62.8182692,9.95480769 62.8182692,7.32307692 L62.8182692,1.60192308 C62.8182692,1.37307692 63.0471154,1.14423077 63.2759615,1.14423077 L76.2057692,1.14423077 C76.4346154,1.14423077 76.6634615,1.37307692 76.6634615,1.60192308 L76.6634615,19.6807692 C76.6634615,19.9096154 76.4346154,20.1384615 76.2057692,20.1384615 L72.6586538,20.1384615 C72.4298077,20.1384615 72.2009615,19.9096154 72.2009615,19.6807692 L72.2009615,5.37788462 L67.3951923,5.37788462 L67.3951923,7.20865385 C67.3951923,9.38269231 67.1663462,12.1288462 66.7086538,14.4173077 C66.3653846,16.1336538 65.45,18.4221154 64.7634615,19.4519231 C64.4201923,20.0240385 64.1913462,20.1384615 63.6192308,20.1384615 Z" id="Shape"></path>
                        <path d="M92.7971154,9.84038462 L86.0461538,17.3923077 L86.0461538,19.5663462 C86.0461538,19.7951923 85.8173077,20.0240385 85.5884615,20.0240385 L82.0413462,20.0240385 C81.8125,20.0240385 81.5836538,19.7951923 81.5836538,19.5663462 L81.5836538,1.4875 C81.5836538,1.25865385 81.8125,1.02980769 82.0413462,1.02980769 L85.5884615,1.02980769 C85.8173077,1.02980769 86.0461538,1.25865385 86.0461538,1.4875 L86.0461538,11.3278846 L92.7971154,3.89038462 L92.7971154,1.4875 C92.7971154,1.25865385 93.0259615,1.02980769 93.2548077,1.02980769 L96.8019231,1.02980769 C97.0307692,1.02980769 97.2596154,1.25865385 97.2596154,1.4875 L97.2596154,19.5663462 C97.2596154,19.7951923 97.0307692,20.0240385 96.8019231,20.0240385 L93.2548077,20.0240385 C93.0259615,20.0240385 92.7971154,19.7951923 92.7971154,19.5663462 L92.7971154,9.84038462 Z" id="Shape"></path>
                        <path d="M102.179808,19.5663462 L102.179808,1.4875 C102.179808,1.25865385 102.408654,1.02980769 102.6375,1.02980769 L106.184615,1.02980769 C106.413462,1.02980769 106.642308,1.25865385 106.642308,1.4875 L106.642308,15.7903846 L112.935577,15.7903846 L112.935577,1.4875 C112.935577,1.25865385 113.164423,1.02980769 113.393269,1.02980769 L116.940385,1.02980769 C117.169231,1.02980769 117.398077,1.25865385 117.398077,1.4875 L117.398077,15.7903846 L121.402885,15.7903846 C121.631731,15.7903846 121.860577,16.0192308 121.860577,16.2480769 L121.860577,19.5663462 C121.860577,19.9096154 121.631731,20.1384615 121.288462,20.1384615 L117.283654,20.1384615 L102.523077,20.1384615 C102.294231,20.1384615 102.179808,19.9096154 102.179808,19.5663462 Z" id="Shape"></path>
                        <path d="M136.735577,9.84038462 L129.984615,17.3923077 L129.984615,19.5663462 C129.984615,19.7951923 129.755769,20.0240385 129.526923,20.0240385 L125.979808,20.0240385 C125.750962,20.0240385 125.522115,19.7951923 125.522115,19.5663462 L125.522115,1.4875 C125.522115,1.25865385 125.750962,1.02980769 125.979808,1.02980769 L129.526923,1.02980769 C129.755769,1.02980769 129.984615,1.25865385 129.984615,1.4875 L129.984615,11.3278846 L136.735577,3.89038462 L136.735577,1.4875 C136.735577,1.25865385 136.964423,1.02980769 137.193269,1.02980769 L140.740385,1.02980769 C140.969231,1.02980769 141.198077,1.25865385 141.198077,1.4875 L141.198077,19.5663462 C141.198077,19.7951923 140.969231,20.0240385 140.740385,20.0240385 L137.193269,20.0240385 C136.964423,20.0240385 136.735577,19.7951923 136.735577,19.5663462 L136.735577,9.84038462 Z" id="Shape"></path>
                        <path d="M145.431731,7.32307692 C145.431731,5.26346154 146.118269,3.43269231 147.491346,2.28846154 C148.635577,1.25865385 150.2375,0.915384615 151.953846,0.915384615 L159.734615,0.915384615 C159.963462,0.915384615 160.192308,1.14423077 160.192308,1.37307692 L160.192308,19.4519231 C160.192308,19.6807692 159.963462,19.9096154 159.734615,19.9096154 L156.1875,19.9096154 C155.958654,19.9096154 155.729808,19.6807692 155.729808,19.4519231 L155.729808,13.7307692 L152.983654,13.7307692 L150.2375,19.4519231 C150.008654,19.9096154 149.779808,19.9096154 149.322115,19.9096154 L145.317308,19.9096154 C145.088462,19.9096154 144.859615,19.7951923 144.859615,19.5663462 C144.859615,19.4519231 144.859615,19.2230769 144.974038,19.1086538 L148.292308,12.8153846 C147.949038,12.5865385 147.605769,12.3576923 147.2625,12.0144231 C146.003846,10.7557692 145.431731,9.03942308 145.431731,7.32307692 Z M152.297115,5.14903846 C151.725,5.14903846 151.152885,5.26346154 150.809615,5.60673077 C150.351923,5.95 150.123077,6.52211538 150.123077,7.4375 C150.123077,8.35288462 150.466346,8.925 150.924038,9.26826923 C151.381731,9.49711538 151.839423,9.72596154 152.411538,9.72596154 L155.729808,9.72596154 L155.729808,5.14903846 L152.297115,5.14903846 Z" id="Shape"></path>
                    </g>
                </g>
            </g>
        </g>
    </g>
</svg>