<?xml version="1.0" encoding="UTF-8"?>
<svg width="60px" height="101px" viewBox="0 0 60 101" version="1.1" xmlns="http://www.w3.org/2000/svg" xmlns:xlink="http://www.w3.org/1999/xlink">
    <!-- Generator: Sketch 52.2 (67145) - http://www.bohemiancoding.com/sketch -->
    <title>man (1)</title>
    <desc>Created with Sketch.</desc>
    <g id="Page-1" stroke="none" stroke-width="1" fill="none" fill-rule="evenodd">
        <g id="Artboard" transform="translate(-114.000000, -883.000000)">
            <g id="man-(1)" transform="translate(114.000000, 883.000000)">
                <path d="M48.0421479,77.0795677 L48.0313408,77.0795677 C46.9284701,76.2447146 45.7737251,75.5022627 44.5573793,74.8322188 C44.5260385,74.8116852 44.4952381,74.7911516 44.4541709,74.7808848 C38.7015198,71.6057413 34.8049983,65.4818642 34.8049983,58.4409997 L26.0938872,58.3993921 C26.0938872,65.4613306 22.166025,71.6160081 16.3620399,74.7803445 C16.3620399,74.7803445 16.351773,74.7803445 16.3415062,74.7906113 C15.1143533,75.4606552 13.939615,76.2133739 12.8259372,77.0379601 C5.60945626,82.4091185 0.93968254,90.9964877 0.93968254,100.687268 L59.8765282,100.687268 C59.8770686,91.0175616 55.2278284,82.4501857 48.0421479,77.0795677 Z" id="Path" fill="#ECC19C"></path>
                <path d="M59.8765282,100.684026 L0.939142182,100.684026 C0.939142182,90.9932455 5.60891591,82.4058764 12.8253968,77.034718 C13.9390746,76.2101317 15.1138129,75.457413 16.3404255,74.7873691 C16.3512327,74.7771023 16.3614995,74.7771023 16.3614995,74.7771023 C17.3098278,74.251334 18.2170888,73.6531577 19.0519419,72.972847 C21.9385343,75.9318473 25.9696049,77.7669031 30.4335022,77.7669031 C34.8871327,77.7669031 38.9079365,75.9318473 41.7939885,72.9831138 C42.6185748,73.6634245 43.5161094,74.2616008 44.4536305,74.7771023 C44.4946977,74.7873691 44.5260385,74.8079027 44.5568389,74.8284363 C45.7731847,75.4984802 46.9279298,76.2409321 48.0308004,77.0757852 L48.0416076,77.0757852 C55.2272881,82.4469436 59.8765282,91.0137791 59.8765282,100.684026 Z" id="Path" fill="#FFBB30"></path>
                <path d="M7.7903411,14.4763931 L7.7903411,37.6231678 C7.7903411,53.2805809 21.5354272,65.9730496 30.4086457,65.9730496 C39.2807835,65.9730496 53.0269504,53.2805809 53.0269504,37.6231678 L53.0269504,14.4763931 L7.7903411,14.4763931 Z" id="Path" fill="#ECC19C"></path>
                <path d="M49.3422492,10.2162107 C44.4125633,4.04370145 36.9291456,0.0974670719 28.55846,0.0974670719 C13.6872678,0.0974670719 1.64322864,12.5105708 1.64322864,27.8183722 C1.64322864,35.9431949 5.02965214,43.2488349 10.4370145,48.3152313 C9.04397163,44.8191152 8.26585613,40.900439 8.26585613,36.7623776 C8.26585613,30.1121918 10.286795,24.021817 13.6462006,19.3379939 C17.2104019,20.9223235 22.9868288,21.4956434 29.3225262,20.6218845 C35.6041878,19.7616346 40.956974,17.6861196 43.9748734,15.2145221 C49.4784195,20.0755826 53.0561297,27.9140155 53.0561297,36.7623776 C53.0561297,41.2959811 52.1272543,45.5567038 50.4613306,49.2981425 C55.7730496,47.0994259 59.6787572,39.2615333 59.6787572,29.934414 C59.6787572,19.952381 55.1997298,11.7184059 49.3422492,10.2162107 Z" id="Path" fill="#494846"></path>
            </g>
        </g>
    </g>
</svg>