<?xml version="1.0" encoding="UTF-8"?>
<svg width="9px" height="11px" viewBox="0 0 9 11" version="1.1" xmlns="http://www.w3.org/2000/svg" xmlns:xlink="http://www.w3.org/1999/xlink">
    <!-- Generator: Sketch 48.1 (47250) - http://www.bohemiancoding.com/sketch -->
    <title>padlock</title>
    <desc>Created with Sketch.</desc>
    <defs></defs>
    <g id="-Загрузка-ДЗ-открыли-модалку-Copy" stroke="none" stroke-width="1" fill="none" fill-rule="evenodd" transform="translate(-39.000000, -611.000000)" opacity="0.900000036">
        <g id="Замочек-Copy" transform="translate(30.000000, 603.000000)" fill="#9D9D9D" fill-rule="nonzero">
            <g id="padlock" transform="translate(9.000000, 8.000000)">
                <path d="M8.78106299,5.21875979 C8.63518716,5.0729133 8.45817144,5.00004478 8.24974221,5.00004478 L7.99988436,5.00004478 L7.99988436,3.4999602 C7.99988436,2.541642 7.65622377,1.7187996 6.96868368,1.03129618 C6.28119832,0.343765392 5.45842688,0 4.49995889,0 C3.54151827,0 2.71858265,0.343765392 2.03115201,1.03126881 C1.34361193,1.7187996 0.99995134,2.54161463 0.99995134,3.4999602 L0.99995134,5.00004478 L0.749984028,5.00004478 C0.54171898,5.00004478 0.364593811,5.0729133 0.218745341,5.21875979 C0.0728968713,5.36449684 0,5.54161961 0,5.75007338 L0,10.2500261 C0,10.4582883 0.072924235,10.6354658 0.218745341,10.7813397 C0.364593811,10.9270494 0.54171898,11 0.749984028,11 L8.24993376,11 C8.45836299,11 8.63535134,10.9271315 8.78125454,10.7813397 C8.92696619,10.6354658 8.99999988,10.4582883 8.99999988,10.2500261 L8.99999988,5.74999129 C9.00010933,5.5417017 8.92696619,5.36460629 8.78106299,5.21875979 Z M6.49994366,5.00004478 L2.49997412,5.00004478 L2.49997412,3.4999602 C2.49997412,2.94790521 2.69532351,2.4765173 3.08594019,2.08596063 C3.4766116,1.69534923 3.9479238,1.50008458 4.50004098,1.50008458 C5.05221289,1.50008458 5.52341564,1.69532187 5.91411442,2.08596063 C6.30462164,2.47648993 6.49994366,2.94790521 6.49994366,3.4999602 L6.49994366,5.00004478 Z" id="Shape"></path>
            </g>
        </g>
    </g>
</svg>