<?xml version="1.0" encoding="UTF-8"?>
<svg width="35px" height="31px" viewBox="0 0 35 31" version="1.1" xmlns="http://www.w3.org/2000/svg" xmlns:xlink="http://www.w3.org/1999/xlink">
    <!-- Generator: Sketch 52.2 (67145) - http://www.bohemiancoding.com/sketch -->
    <title>photo-camera</title>
    <desc>Created with Sketch.</desc>
    <g id="Page-1" stroke="none" stroke-width="1" fill="none" fill-rule="evenodd">
        <g id="Профиль" transform="translate(-792.000000, -692.000000)" fill="#FFFFFF">
            <g id="Рабочая-область" transform="translate(639.000000, 192.000000)">
                <g id="Group" transform="translate(109.000000, 475.000000)">
                    <g id="photo-camera" transform="translate(44.000000, 25.000000)">
                        <path d="M30.2880911,5.86216085 L26.6173643,5.84296512 L23.100407,0.596356589 C22.8889826,0.269622093 22.5238566,0.0582655039 22.1394671,0.0582655039 L12.6649128,0.0582655039 C12.2805233,0.0582655039 11.934593,0.269689922 11.7232364,0.577160853 L8.09096899,5.84296512 L4.68932171,5.86216085 C2.1140407,5.86216085 0,7.97620155 0,10.5514147 L0,25.7146899 C0,28.2899709 2.1140407,30.4424031 4.68925388,30.4424031 L30.2880911,30.4424031 C32.8633721,30.4424031 34.977345,28.2899709 34.977345,25.7146899 L34.977345,10.5514147 C34.9774128,7.97620155 32.8633721,5.86216085 30.2880911,5.86216085 Z M32.6712112,25.7146899 C32.6712112,27.0215601 31.5949612,28.1362016 30.2881589,28.1362016 L4.68932171,28.1362016 C3.38245155,28.1362016 2.30626938,27.0215601 2.30626938,25.7146899 L2.30626938,10.5514147 C2.30626938,9.24454457 3.38251938,8.1683624 4.68932171,8.1683624 L8.70597868,8.1683624 C9.09036822,8.1683624 9.43629845,7.95693798 9.64765504,7.64946705 L13.2799225,2.38366279 L21.524593,2.38366279 L25.0223547,7.61107558 C25.2337791,7.91854651 25.598905,8.12997093 25.964031,8.12997093 L30.2689632,8.16843023 C31.5758333,8.16843023 32.6520155,9.24468023 32.6520155,10.5514826 L32.6520155,25.7147578 L32.6712112,25.7147578 L32.6712112,25.7146899 Z" id="Shape" fill-rule="nonzero"></path>
                        <path d="M17.5847868,8.62960271 C13.0684981,8.62960271 9.41696705,12.3003295 9.41696705,16.7974225 C9.41696705,21.2945155 13.0876938,24.9651744 17.5847868,24.9651744 C22.0818798,24.9651744 25.7526066,21.2944477 25.7526066,16.7973547 C25.7526066,12.3002616 22.0818798,8.62960271 17.5847868,8.62960271 Z M17.5847868,22.6589729 C14.3561047,22.6589729 11.7231686,20.0260368 11.7231686,16.7973547 C11.7231686,13.5686725 14.3561047,10.9357364 17.5847868,10.9357364 C20.813469,10.9357364 23.446405,13.5686725 23.446405,16.7973547 C23.446405,20.0260368 20.813469,22.6589729 17.5847868,22.6589729 Z" id="Shape" fill-rule="nonzero"></path>
                        <circle id="Oval" cx="28.5200484" cy="12.0120543" r="1"></circle>
                        <path d="M28.5200484,10.4169089 C27.6360271,10.4169089 26.9249031,11.1279651 26.9249031,12.0120543 C26.9249031,12.8961434 27.6359593,13.6071996 28.5200484,13.6071996 C29.4041376,13.6071996 30.1151938,12.8961434 30.1151938,12.0120543 C30.1151938,11.1279651 29.4040698,10.4169089 28.5200484,10.4169089 Z M28.5200484,12.7231105 C28.1164632,12.7231105 27.8089922,12.396376 27.8089922,12.0120543 C27.8089922,11.6277326 28.1357267,11.3009981 28.5200484,11.3009981 C28.904438,11.3009981 29.2311047,11.6277326 29.2311047,12.0120543 C29.2311047,12.396376 28.9236337,12.7231105 28.5200484,12.7231105 Z" id="Shape" fill-rule="nonzero"></path>
                    </g>
                </g>
            </g>
        </g>
    </g>
</svg>