<?xml version="1.0" encoding="UTF-8"?>
<svg width="13px" height="16px" viewBox="0 0 13 16" version="1.1" xmlns="http://www.w3.org/2000/svg" xmlns:xlink="http://www.w3.org/1999/xlink">
    <!-- Generator: Sketch 52.2 (67145) - http://www.bohemiancoding.com/sketch -->
    <title>edit</title>
    <desc>Created with Sketch.</desc>
    <g id="Page-1" stroke="none" stroke-width="1" fill="none" fill-rule="evenodd">
        <g id="Финал-страница-курса-с-блоками" transform="translate(-960.000000, -943.000000)" fill="#969DA6" fill-rule="nonzero" stroke="#969DA6" stroke-width="0.3">
            <g id="Блок-2" transform="translate(728.000000, 453.000000)">
                <g id="Урок-1-Copy-4" transform="translate(0.000000, 386.000000)">
                    <g id="Проверяется" transform="translate(216.000000, 96.000000)">
                        <g id="edit" transform="translate(22.923197, 15.918739) rotate(-7.000000) translate(-22.923197, -15.918739) translate(15.923197, 8.918739)">
                            <path d="M0.0140123512,9.9417632 L0,12.6684071 C0,12.8222178 0.0560494049,12.9760285 0.168148215,13.0878908 C0.280247025,13.1997531 0.420370537,13.2556843 0.574506401,13.2556843 L3.29290254,13.2417015 C3.4470384,13.2417015 3.58716192,13.1857703 3.69926073,13.073908 L13.0875361,3.70543917 C13.3117337,3.48171454 13.3117337,3.11816202 13.0875361,2.8804546 L10.3971646,0.167793472 C10.172967,-0.0559311572 9.80864586,-0.0559311572 9.57043589,0.167793472 L7.69278083,2.05547003 L0.182160566,9.53626231 C0.0840741074,9.64812462 0.0140123512,9.78795252 0.0140123512,9.9417632 Z M9.99080643,1.39827893 L11.8824738,3.28595549 L10.8175352,4.34864748 L8.92586773,2.46097092 L9.99080643,1.39827893 Z M1.1770375,10.1934534 L8.09913901,3.28595549 L9.99080643,5.17363204 L3.06870492,12.0671472 L1.16302515,12.08113 L1.1770375,10.1934534 Z" id="Shape"></path>
                        </g>
                    </g>
                </g>
            </g>
        </g>
    </g>
</svg>