<?xml version="1.0" encoding="UTF-8"?>
<svg width="16px" height="16px" viewBox="0 0 16 16" version="1.1" xmlns="http://www.w3.org/2000/svg" xmlns:xlink="http://www.w3.org/1999/xlink">
    <!-- Generator: Sketch 52.2 (67145) - http://www.bohemiancoding.com/sketch -->
    <title>Материал</title>
    <desc>Created with Sketch.</desc>
    <g id="Page-1" stroke="none" stroke-width="1" fill="none" fill-rule="evenodd">
        <g id="Вебинарный-курс-урок" transform="translate(-1029.000000, -598.000000)" fill="#41454D" fill-rule="nonzero" stroke="#41454D" stroke-width="0.2">
            <g id="Вебинаор" transform="translate(504.000000, 165.000000)">
                <g id="ДЗ-Copy-7" transform="translate(501.000000, 423.000000)">
                    <g id="Материал" transform="translate(32.102231, 18.245633) rotate(-4.000000) translate(-32.102231, -18.245633) translate(21.602231, 9.245633)">
                        <g id="attachment" transform="translate(10.516505, 8.881815) rotate(-13.000000) translate(-10.516505, -8.881815) translate(2.016505, 1.881815)">
                            <path d="M3.56478944,13.2737025 C2.5575503,13.2737025 1.66784218,12.9544292 0.98664163,12.349432 C0.284389541,11.7204538 -0.1,10.899268 -0.1,10.0255578 C-0.1,9.15500205 0.285848219,8.32935532 0.986670012,7.70165823 L8.22155642,1.22663522 C9.16274973,0.383647307 10.421067,-0.0846226869 11.7747104,-0.0998403783 C13.1466208,-0.109953658 14.434715,0.360806016 15.4014106,1.22663522 C17.3378859,2.96105611 17.3396447,5.85958738 15.4014106,7.6818357 L10.1900543,12.349432 C9.90259873,12.606894 9.47366733,12.606894 9.18621173,12.349432 C8.89235539,12.086237 8.89235539,11.684059 9.18621173,11.4208641 L14.397568,6.75326781 C15.8390054,5.46223197 15.8390054,3.44609095 14.397568,2.15023758 C13.6970499,1.52281252 12.7790262,1.17767647 11.8142555,1.17767647 C10.8543239,1.17767647 9.93484862,1.52462912 9.23094302,2.15023758 L1.99048423,8.63521706 C1.56257219,9.01848017 1.32609265,9.54168881 1.34180427,10.0670592 C1.35757396,10.5614084 1.58396563,11.0099594 1.98494023,11.3314846 L1.99048423,11.3364501 C2.42074881,11.7218203 3.01148552,11.9360095 3.60658322,11.9217328 C4.16636849,11.9074077 4.67308189,11.7022462 5.03375872,11.3414156 L11.59785,5.46223055 C11.8805692,5.20901061 11.8805692,4.83160068 11.59785,4.57838074 C11.30873,4.31942792 10.867254,4.31942792 10.5781341,4.57838074 L6.04314531,8.64018259 C5.75568972,8.89764468 5.32675831,8.89764468 5.03930271,8.64018259 C4.74544638,8.37698762 4.74544638,7.97480967 5.03930271,7.7116147 L9.57429145,3.64981285 C9.99207788,3.27561883 10.5315156,3.06816373 11.087992,3.06816373 C11.6444685,3.06816373 12.1839062,3.27561883 12.6016926,3.64981285 C13.0216886,4.02598589 13.2559025,4.51454257 13.2559025,5.02030564 C13.2559025,5.52606872 13.0216886,6.0146254 12.6016926,6.39079843 L6.05394291,12.2549897 C5.4371202,12.894414 4.50795842,13.2737025 3.56478944,13.2737025 Z" id="Combined-Shape"></path>
                        </g>
                    </g>
                </g>
            </g>
        </g>
    </g>
</svg>