<?xml version="1.0" encoding="UTF-8"?>
<svg width="16px" height="16px" viewBox="0 0 16 16" version="1.1" xmlns="http://www.w3.org/2000/svg" xmlns:xlink="http://www.w3.org/1999/xlink">
    <!-- Generator: Sketch 48.1 (47250) - http://www.bohemiancoding.com/sketch -->
    <title>Материал</title>
    <desc>Created with Sketch.</desc>
    <defs>
        <path d="M3.56478944,13.1737025 C2.57795815,13.1737025 1.71309477,12.8608742 1.05335924,12.274942 C0.371447733,11.664182 0,10.8696975 0,10.0255578 C0,9.18638358 0.371447733,8.38693358 1.05335924,7.77617365 L8.28827404,1.30112522 C9.21412137,0.471882058 10.4504325,0.0150534885 11.7754475,0.000156904741 C13.1226386,-0.00977415112 14.3866696,0.452019947 15.334693,1.30112522 C17.2251956,2.99437025 17.2307396,5.82472117 15.334693,7.6073457 L10.1233367,12.274942 C9.8738569,12.4983907 9.50240916,12.4983907 9.25292934,12.274942 C9.00344952,12.0514932 9.00344952,11.7188028 9.25292934,11.4953541 L14.4642856,6.82775781 C15.9500765,5.49699633 15.9500765,3.41147459 14.4642856,2.07574758 C13.7435661,1.43022895 12.8010868,1.07767647 11.8142555,1.07767647 C10.8274242,1.07767647 9.88494489,1.43519448 9.16422541,2.07574758 L1.92376662,8.56072706 C1.47470294,8.96293482 1.22522312,9.51410842 1.24185511,10.0702476 C1.25848709,10.591628 1.49687892,11.0683187 1.91822262,11.4059746 L1.92376662,11.4109401 C2.37283029,11.8131479 2.98821385,12.0365966 3.6091414,12.0217 C4.19126098,12.0068034 4.7234846,11.7932857 5.10047633,11.4159056 L5.10602033,11.4109401 L11.6645676,5.53672055 C11.9916634,5.2437544 11.9916634,4.79685689 11.6645676,4.50389074 C11.3374718,4.21092459 10.8385122,4.21092459 10.5114164,4.50389074 L5.9764277,8.56569259 C5.72694788,8.78914134 5.35550015,8.78914134 5.10602033,8.56569259 C4.85654051,8.34224383 4.85654051,8.00955346 5.10602033,7.7861047 L9.64100906,3.72430285 C10.0401768,3.36678484 10.5557684,3.16816373 11.087992,3.16816373 C11.6202156,3.16816373 12.1358073,3.36678484 12.534975,3.72430285 C12.9341427,4.08182086 13.1559025,4.54361496 13.1559025,5.02030564 C13.1559025,5.49699633 12.9341427,5.95879042 12.534975,6.31630843 L5.9819717,12.1855624 C5.38322013,12.8062534 4.47954878,13.1737025 3.56478944,13.1737025 Z" id="path-1"></path>
    </defs>
    <g id="Дистанционный-курс-урок" stroke="none" stroke-width="1" fill="none" fill-rule="evenodd" transform="translate(-1017.000000, -627.000000)">
        <g id="Урок" transform="translate(578.000000, 187.000000)" fill-rule="nonzero">
            <g id="Шапка" transform="translate(149.000000, 304.000000)">
                <g id="ДЗ-Copy-7" transform="translate(266.000000, 126.000000)">
                    <g id="Материал" transform="translate(32.102231, 18.245633) rotate(-4.000000) translate(-32.102231, -18.245633) translate(21.602231, 9.245633)">
                        <g id="attachment" transform="translate(10.516505, 8.881815) rotate(-13.000000) translate(-10.516505, -8.881815) translate(2.016505, 1.881815)">
                            <g id="Combined-Shape">
                                <use fill="#41454D" fill-rule="evenodd" xlink:href="#path-1"></use>
                                <path stroke="#41454D" stroke-width="0.2" d="M3.56478944,13.2737025 C2.5575503,13.2737025 1.66784218,12.9544292 0.98664163,12.349432 C0.284389541,11.7204538 -0.1,10.899268 -0.1,10.0255578 C-0.1,9.15500205 0.285848219,8.32935532 0.986670012,7.70165823 L8.22155642,1.22663522 C9.16274973,0.383647307 10.421067,-0.0846226869 11.7747104,-0.0998403783 C13.1466208,-0.109953658 14.434715,0.360806016 15.4014106,1.22663522 C17.3378859,2.96105611 17.3396447,5.85958738 15.4014106,7.6818357 L10.1900543,12.349432 C9.90259873,12.606894 9.47366733,12.606894 9.18621173,12.349432 C8.89235539,12.086237 8.89235539,11.684059 9.18621173,11.4208641 L14.397568,6.75326781 C15.8390054,5.46223197 15.8390054,3.44609095 14.397568,2.15023758 C13.6970499,1.52281252 12.7790262,1.17767647 11.8142555,1.17767647 C10.8543239,1.17767647 9.93484862,1.52462912 9.23094302,2.15023758 L1.99048423,8.63521706 C1.56257219,9.01848017 1.32609265,9.54168881 1.34180427,10.0670592 C1.35757396,10.5614084 1.58396563,11.0099594 1.98494023,11.3314846 L1.99048423,11.3364501 C2.42074881,11.7218203 3.01148552,11.9360095 3.60658322,11.9217328 C4.16636849,11.9074077 4.67308189,11.7022462 5.03375872,11.3414156 L11.59785,5.46223055 C11.8805692,5.20901061 11.8805692,4.83160068 11.59785,4.57838074 C11.30873,4.31942792 10.867254,4.31942792 10.5781341,4.57838074 L6.04314531,8.64018259 C5.75568972,8.89764468 5.32675831,8.89764468 5.03930271,8.64018259 C4.74544638,8.37698762 4.74544638,7.97480967 5.03930271,7.7116147 L9.57429145,3.64981285 C9.99207788,3.27561883 10.5315156,3.06816373 11.087992,3.06816373 C11.6444685,3.06816373 12.1839062,3.27561883 12.6016926,3.64981285 C13.0216886,4.02598589 13.2559025,4.51454257 13.2559025,5.02030564 C13.2559025,5.52606872 13.0216886,6.0146254 12.6016926,6.39079843 L6.05394291,12.2549897 C5.4371202,12.894414 4.50795842,13.2737025 3.56478944,13.2737025 Z"></path>
                            </g>
                        </g>
                    </g>
                </g>
            </g>
        </g>
    </g>
</svg>