<?xml version="1.0" encoding="UTF-8"?>
<svg width="21px" height="25px" viewBox="0 0 21 25" version="1.1" xmlns="http://www.w3.org/2000/svg" xmlns:xlink="http://www.w3.org/1999/xlink">
    <!-- Generator: Sketch 52.2 (67145) - http://www.bohemiancoding.com/sketch -->
    <title>Combined Shape</title>
    <desc>Created with Sketch.</desc>
    <g id="Page-1" stroke="none" stroke-width="1" fill="none" fill-rule="evenodd" opacity="0.330054874">
        <g id="Дистанционный-курс-урок" transform="translate(-240.000000, -1450.000000)" fill="#41454D" fill-rule="nonzero" stroke="#41454D" stroke-width="0.2">
            <path d="M243.14876,1472.12727 C241.704564,1472.12727 240.430072,1471.66992 239.454689,1470.80365 C238.449607,1469.90344 237.9,1468.72929 237.9,1467.48029 C237.9,1466.23583 238.451721,1465.05525 239.454717,1464.1569 L249.904348,1454.80477 C251.25555,1453.59456 253.062585,1452.92209 255.006985,1452.90023 C256.977605,1452.8857 258.827325,1453.56172 260.215192,1454.80477 C262.992539,1457.29233 262.995061,1461.44853 260.215192,1464.06207 L252.688234,1470.80365 C252.289925,1471.1604 251.695945,1471.1604 251.297636,1470.80365 C250.892927,1470.44117 250.892927,1469.89116 251.297636,1469.52868 L258.824594,1462.7871 C260.926225,1460.90475 260.926225,1457.96194 258.824594,1456.07257 C257.804593,1455.159 256.468081,1454.65653 255.063774,1454.65653 C253.666466,1454.65653 252.32792,1455.16161 251.302953,1456.07257 L240.845286,1465.43907 C240.217704,1466.00117 239.87051,1466.76933 239.893607,1467.54165 C239.9168,1468.2687 240.249907,1468.92869 240.837279,1469.39959 L240.845286,1469.40676 C241.475221,1469.97097 242.339447,1470.28432 243.210261,1470.26343 C244.029859,1470.24245 244.772639,1469.94171 245.300092,1469.41393 L254.780856,1460.9224 C255.208916,1460.53901 255.208916,1459.96302 254.780856,1459.57963 C254.346395,1459.1905 253.683213,1459.1905 253.248752,1459.57963 L246.698697,1465.44624 C246.300388,1465.80299 245.706409,1465.80299 245.3081,1465.44624 C244.90339,1465.08376 244.90339,1464.53376 245.3081,1464.17127 L251.858155,1458.30466 C252.453453,1457.77148 253.222035,1457.4759 254.014804,1457.4759 C254.807573,1457.4759 255.576156,1457.77148 256.171454,1458.30466 C256.768961,1458.83982 257.101565,1459.53362 257.101565,1460.25102 C257.101565,1460.96842 256.768961,1461.66221 256.171454,1462.19737 L246.711958,1470.66949 C245.829594,1471.58419 244.499171,1472.12727 243.14876,1472.12727 Z" id="Combined-Shape" transform="translate(250.099686, 1462.513637) rotate(-23.000000) translate(-250.099686, -1462.513637) "></path>
        </g>
    </g>
</svg>