<?xml version="1.0" encoding="UTF-8"?>
<svg width="16px" height="19px" viewBox="0 0 16 19" version="1.1" xmlns="http://www.w3.org/2000/svg" xmlns:xlink="http://www.w3.org/1999/xlink">
    <!-- Generator: Sketch 52.2 (67145) - http://www.bohemiancoding.com/sketch -->
    <title>test (1)</title>
    <desc>Created with Sketch.</desc>
    <g id="Page-1" stroke="none" stroke-width="1" fill="none" fill-rule="evenodd">
        <g id="Финал-страница-курса-с-блоками" transform="translate(-954.000000, -610.000000)" fill="#FFFFFF" fill-rule="nonzero" stroke="#FFFFFF" stroke-width="0.1">
            <g id="Блок-2" transform="translate(728.000000, 453.000000)">
                <g id="Урок-1-Copy-2" transform="translate(0.000000, 56.000000)">
                    <g id="Кнопка-решить-задание" transform="translate(212.000000, 96.000000)">
                        <g id="test-(1)" transform="translate(15.000000, 6.000000)">
                            <path d="M6.6998256,9.61508302 L5.94327008,8.82959647 C5.72747052,8.60554464 5.3776216,8.60554464 5.16184967,8.82959647 C4.94605011,9.05361962 4.94605011,9.41684691 5.16184967,9.64089874 L6.3091154,10.8320364 C6.52474919,11.0559161 6.8747915,11.0560596 7.0905358,10.8320364 L9.83816069,7.97934114 C10.0539603,7.75531799 10.0539326,7.39209071 9.83816069,7.16803887 C9.62238876,6.94398704 9.27253984,6.94398704 9.05674028,7.16803887 L6.6998256,9.61508302 Z" id="Shape"></path>
                            <path d="M13.2631579,1.26171875 L9.13426316,1.26171875 L9.13426316,0.6640625 C9.13426316,0.297300781 8.80437895,0 8.39742105,0 L5.59742105,0 C5.19046316,0 4.86057895,0.297300781 4.86057895,0.6640625 L4.86057895,1.26171875 L0.736842105,1.26171875 C0.329884211,1.26171875 0,1.55901953 0,1.92578125 L0,16.3359375 C0,16.7026992 0.329884211,17 0.736842105,17 L13.2631579,17 C13.6701158,17 14,16.7026992 14,16.3359375 L14,1.92578125 C14,1.55901953 13.6701158,1.26171875 13.2631579,1.26171875 Z M6.33426316,1.328125 L7.66057895,1.328125 C7.66057895,1.74618555 7.66057895,2.10537695 7.66057895,2.5234375 L6.33426316,2.5234375 C6.33426316,2.10537695 6.33426316,1.74618555 6.33426316,1.328125 Z M12.5263158,15.671875 L1.47368421,15.671875 L1.47368421,2.58984375 L4.86057895,2.58984375 L4.86057895,3.1875 C4.86057895,3.55426172 5.19046316,3.8515625 5.59742105,3.8515625 L8.39742105,3.8515625 C8.80437895,3.8515625 9.13426316,3.55426172 9.13426316,3.1875 L9.13426316,2.58984375 L12.5263158,2.58984375 L12.5263158,15.671875 Z" id="Shape"></path>
                        </g>
                    </g>
                </g>
            </g>
        </g>
    </g>
</svg>