<?xml version="1.0" encoding="UTF-8"?>
<svg width="30px" height="21px" viewBox="0 0 21 21" version="1.1" xmlns="http://www.w3.org/2000/svg">
    <g fill="rgba(29, 29, 29, 0.787)" fill-rule="nonzero" stroke="rgba(29, 29, 29, 0.787)" stroke-width="0.3">
        <path d="M3.51744186,21.184593 C5.79215116,23.5319767 8.9752907,25 12.5,25 C19.3895349,25 25,19.3895349 25,12.5 C25,5.61046512 19.3895349,0 12.5,0 C5.61046512,0 0,5.61046512 0,12.5 C0,15.7848837 1.27906977,18.7790698 3.35755814,21.0101744 C3.40116279,21.0828488 3.45930233,21.1337209 3.51744186,21.184593 Z M12.5,23.5610465 C9.78197674,23.5610465 7.28197674,22.5726744 5.35610465,20.9375 C8.59738372,19.8619186 9.79651163,18.5537791 10.2398256,17.681686 C10.8575581,17.9505814 11.5479651,18.0959302 12.3110465,18.1031977 C12.3255814,18.1031977 12.3473837,18.1031977 12.3619186,18.1031977 C12.369186,18.1031977 12.4127907,18.1031977 12.4273256,18.1031977 C12.4418605,18.1031977 12.4636628,18.1031977 12.4781977,18.1031977 C13.306686,18.0886628 14.0552326,17.9215116 14.7020349,17.6090116 C15.1162791,18.4811047 16.2936047,19.8328488 19.6293605,20.9375 C17.7107558,22.5726744 15.2180233,23.5610465 12.5,23.5610465 Z M8.45930233,10.1889535 C8.45930233,10.1744186 8.45930233,10.1598837 8.45930233,10.1453488 C8.63372093,6.35901163 11.4244186,6.06104651 12.2819767,6.06104651 C12.318314,6.06104651 12.3473837,6.06104651 12.369186,6.06104651 C12.3909884,6.06104651 12.4055233,6.06104651 12.4273256,6.06104651 C12.4491279,6.06104651 12.4709302,6.06104651 12.5145349,6.06104651 C13.3648256,6.06104651 16.1627907,6.35901163 16.3372093,10.1453488 C16.3372093,10.1598837 16.3372093,10.1744186 16.3372093,10.1889535 C16.3444767,10.2252907 16.7005814,13.7281977 15.065407,15.5668605 C14.4186047,16.2936047 13.5537791,16.6569767 12.4273256,16.6642442 C12.4200581,16.6642442 12.4055233,16.6642442 12.4055233,16.6642442 C12.3982558,16.6642442 12.3909884,16.6642442 12.3837209,16.6642442 C11.25,16.6497093 10.3924419,16.2936047 9.74563953,15.5668605 C8.10319767,13.7427326 8.45203488,10.2252907 8.45930233,10.1889535 Z M12.5,1.43895349 C18.5973837,1.43895349 23.5610465,6.40261628 23.5610465,12.5 C23.5610465,15.2906977 22.5145349,17.8488372 20.806686,19.7965116 C16.1119186,18.4302326 15.9302326,16.7732558 15.9302326,16.7514535 C15.9302326,16.7805233 15.9302326,16.7877907 15.9302326,16.7877907 L15.8793605,16.7877907 C15.9665698,16.7005814 16.0537791,16.6133721 16.1409884,16.5188953 C18.1395349,14.2732558 17.8052326,10.4287791 17.7688953,10.0508721 C17.5726744,6.03924419 14.818314,4.61482558 12.5145349,4.61482558 C12.4709302,4.61482558 12.4273256,4.61482558 12.3982558,4.61482558 C12.369186,4.61482558 12.3328488,4.61482558 12.2819767,4.61482558 C9.97819767,4.61482558 7.21656977,6.03924419 7.02761628,10.0508721 C6.99127907,10.4215116 6.66424419,14.2659884 8.65552326,16.5188953 C8.77180233,16.6497093 8.89534884,16.7732558 9.01889535,16.8895349 C8.86627907,17.3110465 8.09593023,18.6482558 4.19331395,19.7892442 C2.47819767,17.8415698 1.43895349,15.2906977 1.43895349,12.5 C1.43895349,6.40261628 6.40261628,1.43895349 12.5,1.43895349 Z"></path>
    </g>
</svg>