<?xml version="1.0" encoding="UTF-8"?>
<svg width="30px" height="21px" viewBox="0 0 21 21" version="1.1" xmlns="http://www.w3.org/2000/svg">
    <g stroke="none" stroke-width="1" fill="none" fill-rule="evenodd">
        <g fill="rgba(29, 29, 29, 0.787)" stroke="rgba(29, 29, 29, 0.787)" stroke-width="0.2">
            <path d="M1,2 L22,2 L22,1 L1,1 L1,2 Z M3,15 L21,15 L21,4 L3,4 L3,15 Z M0.750040087,0 C0.335959464,0 0,0.33454892 0,0.749912954 L0,3.74994961 C0,4.16403086 0.335959464,4.49999084 0.750040087,4.49999084 L1.4999519,4.49999084 L1.4999519,15.000055 C1.4999519,15.8264216 2.17353844,16.5000092 3.00003207,16.5000092 L11.2499599,16.5000092 L11.2499599,18.3479815 L9.33451634,19.6260148 C8.98944915,19.855504 8.89657605,20.3205116 9.12606497,20.6655794 C9.35401456,21.0091077 9.81902145,21.101981 10.1654997,20.874031 L12,19.6515421 L13.8345003,20.874031 C13.9620084,20.9580531 14.1059361,21 14.249992,21 C14.4930783,21 14.7300074,20.8830105 14.8754744,20.6655794 C15.1049633,20.3205116 15.0119619,19.855504 14.667023,19.6260148 L12.7500401,18.3479815 L12.7500401,16.5000092 L20.9999679,16.5000092 C21.8264616,16.5000092 22.4999198,15.8264216 22.4999198,15.000055 L22.4999198,4.49999084 L23.2499599,4.49999084 C23.6640405,4.49999084 24,4.16403086 24,3.74994961 L24,0.749912954 C24,0.33454892 23.6640405,0 23.2499599,0 L0.750040087,0 Z"></path>
        </g>
    </g>
</svg>