<?xml version="1.0" encoding="UTF-8"?>
<svg width="30px" height="21px" viewBox="0 0 22 21" version="1.1" xmlns="http://www.w3.org/2000/svg">
    <path d="M19.25,0 L2.75,0 C1.23384766,0 0,1.21782366 0,2.71428571 L0,16.2857143 C0,17.7821763 1.23384766,19 2.75,19 L19.25,19 C20.7661523,19 22,17.7821763 22,16.2857143 L22,2.71428571 C22,1.21782366 20.7661523,0 19.25,0 Z M20.1666523,16.2857143 C20.1666523,16.7842522 19.7550547,17.1904621 19.25,17.1904621 L2.75,17.1904621 C2.24490234,17.1904621 1.83334766,16.7842098 1.83334766,16.2857143 L1.83334766,15.3809665 L20.1666953,15.3809665 L20.1666953,16.2857143 L20.1666523,16.2857143 Z M20.1666523,13.5714286 L1.83334766,13.5714286 L1.83334766,2.71428571 C1.83334766,2.21574777 2.24494531,1.80953795 2.75,1.80953795 L19.25,1.80953795 C19.7550977,1.80953795 20.1666523,2.21579018 20.1666523,2.71428571 L20.1666523,13.5714286 Z"
          fill="rgba(29, 29, 29, 0.787)"></path>
    <path d="M14.5750178,7.66567559 L9.34942966,4.14406404 C9.07615851,3.95821649 8.7328125,3.95234714 8.45247148,4.12549304 C8.1730038,4.29863894 8,4.62438801 8,4.9785209 L8,12.021744 C8,12.3758769 8.1730038,12.701626 8.45334482,12.8747719 C8.58821293,12.9579057 8.73813569,13 8.88718512,13 C9.04775428,13 9.20836502,12.9520822 9.34942966,12.8562009 L14.5750178,9.33458931 C14.8385159,9.156537 15,8.84060075 15,8.5001783 C15,8.15966415 14.8393893,7.8437279 14.5750178,7.66567559 Z M9.77437025,10.2775375 L9.77437025,6.72268156 L12.4120128,8.50013245 L9.77437025,10.2775375 Z"
          fill="rgba(29, 29, 29, 0.787)"></path>
</svg>