<?xml version="1.0" encoding="UTF-8"?>
<svg width="30px" height="21px" viewBox="0 0 21 21" version="1.1" xmlns="http://www.w3.org/2000/svg">
    <g  transform="rotate(-23.000000)" style="transform-origin: center center">
        <path d="M24.9997213,7.38909992 C24.9025408,7.15389561 24.7160972,6.96706302 24.4813827,6.86967974 L8.10691156,0.0731965509 C7.61858263,-0.12937604 7.05797489,0.102885017 6.85556867,0.592616732 L0.0729811677,17.0013805 C-0.0243270559,17.2365848 -0.0243270559,17.5007098 0.0729811677,17.7359141 C0.17016169,17.9711184 0.356605268,18.157951 0.591319855,18.2553343 L11.5868937,22.819296 C11.704251,22.8679237 11.8288873,22.8923655 11.9533958,22.8923655 C12.0780321,22.8923655 12.2025406,22.8680517 12.3198979,22.819296 L19.9265405,19.6615694 C20.1612551,19.5641861 20.3476987,19.3773535 20.4448792,19.1421492 L24.9995936,8.12350554 C25.0969019,7.88855717 25.0969019,7.62430423 24.9997213,7.38909992 Z M13.7233328,20.1591071 L14.699863,17.7964427 L17.0574803,18.7750104 L13.7233328,20.1591071 Z M19.0418274,17.5208007 L14.5480264,15.655674 C14.0598251,15.4531014 13.4990897,15.6853625 13.2966835,16.1750942 L11.4351848,20.6786553 L2.20903715,16.8492271 L8.25874815,2.2138373 L22.8635377,8.27578689 L19.0418274,17.5208007 Z"
              fill="rgba(29, 29, 29, 0.787)"></path>
        <polygon fill="rgba(29, 29, 29, 0.787)"
                 points="17.4418023 11.5125362 16.665716 9.81101378 11.4751829 11.7648729 10.5938073 9.83213393 8.72090114 10.5369574 10.3779575 14.1714644"></polygon>
    </g>
</svg>